<svg width="16.000000" height="16.000000" viewBox="0 0 16 16" fill="none" xmlns="http://www.w3.org/2000/svg" xmlns:xlink="http://www.w3.org/1999/xlink">
	<desc>
			Created with Pixso.
	</desc>
	<defs>
		<clipPath id="clip225_847">
			<rect id="lakeformation" width="16.000000" height="16.000000" fill="white" fill-opacity="0"/>
		</clipPath>
	</defs>
	<rect id="10#数据湖-lakeformation" width="16.000000" height="16.000000" fill="#FFFFFF" fill-opacity="0"/>
	<g clip-path="url(#clip225_847)">
		<path id="_矢量-161" d="M5.5 1.5C5.5 1.21 5.28 1 5 1C4.71 1 4.5 1.21 4.5 1.5L4.5 3C4.5 3.28 4.7 3.5 5 3.5C5.29 3.5 5.5 3.28 5.5 3L5.5 1.5ZM11.5 1.5C10.67 1.5 10 2.17 10 3C10 3.83 10.67 4.5 11.5 4.5C12.33 4.5 13 3.82 13 3C13 2.18 12.32 1.5 11.5 1.5ZM11 3C11 2.72 11.22 2.5 11.5 2.5C11.78 2.5 12 2.72 12 3C12 3.28 11.77 3.5 11.5 3.5C11.23 3.5 11 3.27 11 3ZM2.5 3.5C2.2 3.5 2 3.71 2 4C2 4.29 2.2 4.5 2.5 4.5L4 4.5C4.28 4.5 4.5 4.28 4.5 4C4.5 3.72 4.28 3.5 4 3.5L2.5 3.5ZM6 3.5C5.7 3.5 5.5 3.71 5.5 4C5.5 4.29 5.7 4.5 6 4.5L7.5 4.5C7.78 4.5 8 4.28 8 4C8 3.72 7.78 3.5 7.5 3.5L6 3.5ZM5.5 5C5.5 4.71 5.28 4.5 5 4.5C4.71 4.5 4.5 4.71 4.5 5L4.5 6.5C4.5 6.78 4.7 7 5 7C5.29 7 5.5 6.78 5.5 6.5L5.5 5ZM3.92 8.13C3.63 8.03 3.35 7.87 3.1 7.65L2.7 7.3C2.54 7.15 2.36 7.03 2.17 6.92C2.03 6.84 1.87 6.77 1.7 6.72C1.56 6.68 1.44 6.69 1.31 6.75C1.19 6.81 1.1 6.91 1.07 7.04C1.05 7.06 1.04 7.18 1.04 7.2C1.01 7.46 1 7.73 1 8C1 8.96 1.17 9.85 1.51 10.68C1.85 11.51 2.35 12.26 3.04 12.94C3.73 13.63 4.48 14.14 5.31 14.48C6.14 14.83 7.03 15 8 15C8.97 15 9.85 14.83 10.68 14.48C11.51 14.14 12.26 13.63 12.94 12.94C13.63 12.26 14.14 11.51 14.48 10.68C14.83 9.85 15 8.96 15 8C15 7.47 14.94 6.95 14.82 6.45C14.73 6.03 14.6 5.62 14.42 5.22C14.37 5.1 14.28 5.01 14.15 4.96C14.02 4.9 13.89 4.91 13.77 4.96C13.74 4.98 13.62 5.05 13.6 5.08L13.45 5.24C13.1 5.61 12.73 5.83 12.33 5.89C11.93 5.95 11.51 5.85 11.06 5.6C10.33 5.18 9.64 5.03 9.03 5.15C8.39 5.27 7.82 5.66 7.29 6.32L6.45 7.37C6.25 7.63 6.01 7.83 5.73 7.97C5.47 8.12 5.17 8.2 4.85 8.22C4.51 8.25 4.2 8.22 3.92 8.13ZM2.04 8.04L2.45 8.39C2.79 8.72 3.19 8.93 3.6 9.08C4.01 9.22 4.45 9.27 4.92 9.22C5.39 9.18 5.82 9.06 6.22 8.85C6.6 8.64 6.94 8.35 7.23 7.99L8.07 6.94C8.42 6.51 8.81 6.25 9.22 6.17C9.63 6.09 10.08 6.19 10.56 6.47C11.24 6.85 11.88 7 12.48 6.91C12.93 6.84 13.35 6.64 13.76 6.32C13.79 6.43 13.82 6.54 13.84 6.65C13.94 7.09 14 7.53 14 8C14 8.82 13.85 9.59 13.56 10.3C13.26 11.01 12.82 11.65 12.24 12.24C11.65 12.82 11.01 13.26 10.3 13.56C9.59 13.85 8.82 14 8 14C7.17 14 6.39 13.85 5.69 13.56C4.98 13.26 4.34 12.82 3.75 12.24C3.17 11.65 2.73 11.01 2.42 10.3C2.14 9.59 2.04 8.87 2.04 8.04ZM7.57 9.27L7.76 9.55C7.85 9.67 7.94 9.78 8.04 9.87C8.12 9.93 8.22 10 8.32 10.06C8.41 10.1 8.51 10.14 8.6 10.18C8.73 10.22 8.87 10.22 9 10.24C9.13 10.24 9.26 10.22 9.38 10.2C9.48 10.18 9.59 10.14 9.7 10.09C9.79 10.05 9.89 9.99 9.98 9.92C10.09 9.84 10.29 9.64 10.37 9.54C10.41 9.52 10.45 9.51 10.5 9.51C10.54 9.51 10.68 9.6 10.72 9.62C10.8 9.74 10.9 9.84 11.01 9.92C11.1 9.99 11.19 10.05 11.29 10.09C11.4 10.14 11.5 10.18 11.61 10.2C11.73 10.22 11.86 10.24 11.99 10.24C12.12 10.22 12.24 10.22 12.36 10.18C12.46 10.14 12.58 10.1 12.67 10.06C12.77 10 12.87 9.93 12.95 9.87C13.05 9.78 13.14 9.67 13.22 9.55L13.41 9.27C13.47 9.18 13.5 9.09 13.5 8.99C13.5 8.83 13.42 8.68 13.27 8.58C13.04 8.42 12.73 8.47 12.58 8.72L12.39 9C12.36 9.05 12.32 9.09 12.28 9.12C12.25 9.14 12.13 9.2 12.11 9.21C12.06 9.22 12.01 9.24 11.96 9.24C11.91 9.24 11.86 9.22 11.81 9.22C11.78 9.21 11.67 9.16 11.64 9.14C11.59 9.1 11.55 9.07 11.52 9.02C11.45 8.93 11.37 8.85 11.29 8.79C11.22 8.72 11.14 8.68 11.05 8.64C10.97 8.6 10.88 8.57 10.8 8.55C10.7 8.52 10.6 8.51 10.5 8.51C10.39 8.51 10.29 8.52 10.18 8.55C10.1 8.57 10.02 8.6 9.93 8.64C9.85 8.68 9.76 8.72 9.7 8.79C9.62 8.85 9.54 8.93 9.47 9.02C9.43 9.07 9.39 9.1 9.35 9.14C9.33 9.16 9.2 9.21 9.17 9.22C9.13 9.22 9.08 9.24 9.03 9.24C8.98 9.24 8.92 9.22 8.88 9.21C8.85 9.2 8.73 9.14 8.7 9.12C8.67 9.09 8.63 9.05 8.6 9L8.41 8.72C8.26 8.47 7.95 8.42 7.72 8.58C7.57 8.68 7.48 8.83 7.48 8.99C7.48 9.09 7.51 9.18 7.57 9.27ZM4.57 11.77L4.76 12.05C4.85 12.17 4.94 12.28 5.04 12.37C5.12 12.44 5.22 12.5 5.32 12.56C5.41 12.61 5.51 12.65 5.6 12.68C5.73 12.72 5.87 12.73 6 12.74C6.13 12.74 6.26 12.73 6.38 12.7C6.48 12.68 6.59 12.64 6.7 12.59C6.79 12.55 6.89 12.49 6.98 12.42C7.09 12.34 7.29 12.15 7.37 12.04C7.41 12.02 7.45 12.01 7.5 12.01C7.54 12.01 7.67 12.11 7.72 12.12C7.79 12.24 7.89 12.34 8.01 12.42C8.1 12.49 8.18 12.55 8.29 12.59C8.39 12.64 8.5 12.68 8.6 12.7C8.73 12.73 8.85 12.74 8.98 12.74C9.12 12.73 9.23 12.72 9.35 12.68C9.45 12.65 9.57 12.61 9.67 12.56C9.76 12.5 9.87 12.44 9.95 12.37C10.05 12.28 10.14 12.17 10.22 12.05L10.41 11.77C10.47 11.69 10.5 11.59 10.5 11.49C10.5 11.33 10.42 11.18 10.27 11.08C10.04 10.92 9.73 10.98 9.58 11.22L9.39 11.5C9.36 11.55 9.32 11.59 9.28 11.62C9.25 11.64 9.13 11.7 9.11 11.71C9.06 11.73 9.01 11.74 8.95 11.74C8.91 11.74 8.86 11.73 8.81 11.72C8.78 11.71 8.67 11.66 8.64 11.64C8.59 11.61 8.55 11.57 8.51 11.52C8.45 11.43 8.37 11.35 8.29 11.29C8.22 11.23 8.14 11.18 8.05 11.14C7.97 11.1 7.88 11.07 7.8 11.05C7.7 11.02 7.6 11.01 7.5 11.01C7.39 11.01 7.29 11.02 7.19 11.05C7.11 11.07 7.01 11.1 6.94 11.14C6.85 11.18 6.76 11.23 6.7 11.29C6.62 11.35 6.54 11.43 6.47 11.52C6.44 11.57 6.39 11.61 6.35 11.64C6.33 11.66 6.2 11.71 6.17 11.72C6.13 11.72 6.08 11.74 6.03 11.74C5.98 11.74 5.92 11.73 5.88 11.71C5.85 11.7 5.73 11.64 5.7 11.62C5.67 11.59 5.63 11.55 5.6 11.5L5.41 11.22C5.26 10.98 4.95 10.92 4.71 11.08C4.57 11.18 4.48 11.33 4.48 11.49C4.48 11.59 4.51 11.69 4.57 11.77Z" fill="currentColor" fill-opacity="1.000000" fill-rule="evenodd"/>
	</g>
</svg>
