<svg width="16.000000" height="16.000000" viewBox="0 0 16 16" fill="none" xmlns="http://www.w3.org/2000/svg" xmlns:xlink="http://www.w3.org/1999/xlink">
	<desc>
			Created with Pixso.
	</desc>
	<defs>
		<clipPath id="clip225_848">
			<rect id="病毒查杀-virus-scan" width="16.000000" height="16.000000" fill="white" fill-opacity="0"/>
		</clipPath>
	</defs>
	<rect id="101#病毒查杀-virus-scan" width="16.000000" height="16.000000" fill="#FFFFFF" fill-opacity="0"/>
	<g clip-path="url(#clip225_848)">
		<path id="_矢量-204" d="M7 1C6.7 1 6.5 1.21 6.5 1.5C6.5 1.79 6.7 2 7 2L7.5 2L7.5 3.52C7.32 3.54 7.17 3.57 7.01 3.6C6.75 3.66 6.5 3.74 6.23 3.85C5.98 3.96 5.75 4.08 5.53 4.23C5.42 4.31 5.29 4.39 5.19 4.48L4.1 3.4L4.45 3.05C4.56 2.95 4.6 2.82 4.6 2.69C4.6 2.56 4.56 2.44 4.45 2.33C4.26 2.14 3.95 2.14 3.75 2.33L2.33 3.75C2.23 3.85 2.19 3.98 2.19 4.11C2.19 4.23 2.23 4.36 2.33 4.46C2.54 4.66 2.85 4.66 3.04 4.46L3.39 4.11L4.48 5.19C4.39 5.29 4.31 5.41 4.23 5.52C4.09 5.75 3.95 5.99 3.85 6.24C3.73 6.5 3.66 6.75 3.6 7.02C3.57 7.17 3.54 7.33 3.51 7.5L2 7.5L2 7C2 6.71 1.78 6.5 1.5 6.5C1.22 6.5 1 6.71 1 7L1 9C1 9.28 1.2 9.5 1.5 9.5C1.79 9.5 2 9.28 2 9L2 8.5L3.51 8.5C3.54 8.66 3.57 8.82 3.6 8.97C3.66 9.24 3.73 9.49 3.85 9.75C3.95 10 4.09 10.24 4.23 10.47C4.31 10.58 4.39 10.7 4.48 10.8L3.39 11.88L3.04 11.53C2.85 11.33 2.54 11.33 2.33 11.53C2.23 11.63 2.19 11.76 2.19 11.88C2.19 12.01 2.23 12.14 2.33 12.24L3.75 13.65C3.95 13.85 4.26 13.85 4.45 13.65C4.56 13.55 4.6 13.43 4.6 13.3C4.6 13.17 4.56 13.04 4.45 12.94L4.1 12.59L5.19 11.51C5.29 11.6 5.41 11.68 5.51 11.76C5.75 11.91 5.98 12.03 6.23 12.14C6.5 12.25 6.75 12.33 7.01 12.39C7.17 12.42 7.32 12.45 7.5 12.47L7.5 14L7 14C6.7 14 6.5 14.22 6.5 14.5C6.5 14.78 6.7 15 7 15L9 15C9.28 15 9.5 14.78 9.5 14.5C9.5 14.22 9.28 14 9 14L8.5 14L8.5 12C8.5 11.72 8.28 11.5 8 11.5C7.72 11.5 7.47 11.47 7.2 11.41C7.01 11.36 6.82 11.3 6.63 11.22C6.44 11.14 6.25 11.04 6.07 10.93C5.88 10.79 5.69 10.64 5.51 10.47C5.35 10.3 5.2 10.1 5.06 9.91C4.95 9.74 4.85 9.55 4.76 9.35C4.69 9.17 4.63 8.97 4.57 8.78C4.53 8.52 4.5 8.26 4.5 8C4.5 7.74 4.53 7.47 4.57 7.21C4.63 7.02 4.69 6.82 4.76 6.63C4.85 6.44 4.95 6.25 5.06 6.08C5.2 5.88 5.35 5.69 5.51 5.52C5.69 5.35 5.88 5.2 6.07 5.06C6.25 4.94 6.44 4.85 6.63 4.77C6.82 4.69 7.01 4.63 7.2 4.58C7.47 4.52 7.73 4.5 8 4.5C8.26 4.5 8.51 4.52 8.78 4.58C8.97 4.63 9.17 4.69 9.35 4.77C9.54 4.85 9.73 4.94 9.91 5.06C10.1 5.2 10.3 5.35 10.47 5.52C10.64 5.69 10.79 5.88 10.93 6.08C11.04 6.25 11.14 6.44 11.22 6.63C11.3 6.82 11.36 7.02 11.41 7.21C11.47 7.47 11.5 7.73 11.5 8C11.5 8.28 11.72 8.5 12 8.5L14 8.5L14 9C14 9.28 14.22 9.5 14.5 9.5C14.78 9.5 15 9.28 15 9L15 7C15 6.71 14.78 6.5 14.5 6.5C14.22 6.5 14 6.71 14 7L14 7.5L12.47 7.5C12.45 7.33 12.42 7.17 12.39 7.02C12.33 6.75 12.25 6.5 12.14 6.24C12.03 5.99 11.91 5.75 11.76 5.52C11.68 5.41 11.6 5.29 11.51 5.19L12.59 4.11L12.94 4.46C13.14 4.66 13.45 4.66 13.65 4.46C13.75 4.36 13.8 4.23 13.8 4.11C13.8 3.98 13.75 3.85 13.65 3.75L12.24 2.33C12.04 2.14 11.73 2.14 11.53 2.33C11.43 2.44 11.38 2.56 11.38 2.69C11.38 2.82 11.43 2.95 11.53 3.05L11.88 3.4L10.8 4.48C10.7 4.39 10.58 4.31 10.47 4.23C10.24 4.08 10 3.96 9.75 3.85C9.48 3.74 9.23 3.66 8.97 3.6C8.82 3.57 8.66 3.54 8.5 3.52L8.5 2L9 2C9.28 2 9.5 1.78 9.5 1.5C9.5 1.22 9.28 1 9 1L7 1ZM11.25 9C10 9 9 10 9 11.25C9 12.5 10 13.5 11.25 13.5C11.69 13.5 12.1 13.37 12.44 13.15L13.64 14.35C13.84 14.55 14.15 14.55 14.35 14.35C14.45 14.25 14.5 14.12 14.5 13.99C14.5 13.87 14.45 13.74 14.35 13.64L13.15 12.44C13.37 12.1 13.5 11.69 13.5 11.25C13.5 10 12.49 9 11.25 9ZM10 11.25C10 10.55 10.55 10 11.25 10C11.95 10 12.5 10.55 12.5 11.25C12.5 11.95 11.94 12.5 11.25 12.5C10.56 12.5 10 11.94 10 11.25Z" fill="currentColor" fill-opacity="1.000000" fill-rule="evenodd"/>
	</g>
</svg>
