<svg width="16.000000" height="16.000000" viewBox="0 0 16 16" fill="none" xmlns="http://www.w3.org/2000/svg" xmlns:xlink="http://www.w3.org/1999/xlink">
	<desc>
			Created with Pixso.
	</desc>
	<defs>
		<clipPath id="clip225_849">
			<rect id="转事件-translated-into-event" width="16.000000" height="16.000000" fill="white" fill-opacity="0"/>
		</clipPath>
	</defs>
	<rect id="102#转事件-to-event" width="16.000000" height="16.000000" fill="#FFFFFF" fill-opacity="0"/>
	<g clip-path="url(#clip225_849)">
		<path id="_矢量-202" d="M10.16 1.12C10.34 0.96 10.61 0.96 10.8 1.1L12.21 2.66C12.36 2.83 12.38 3.08 12.26 3.26L10.87 4.83C10.68 5.04 10.37 5.05 10.16 4.87C9.98 4.7 9.93 4.44 10.07 4.23L10.73 3.49L4 3.49C3.22 3.49 2.57 4.09 2.5 4.85L2.5 12C2.5 12.27 2.26 12.5 2 12.5C1.75 12.5 1.54 12.32 1.5 12.09L1.5 5C1.5 3.67 2.53 2.59 3.82 2.5L10.72 2.5L10.12 1.83C9.95 1.65 10.01 1.31 10.16 1.12ZM12.16 13.49C13.46 13.41 14.5 12.32 14.5 11L14.5 4C14.45 3.76 14.24 3.5 14 3.5C13.72 3.5 13.5 3.72 13.5 4L13.5 11.14C13.42 11.9 12.77 12.5 12 12.5L5.28 12.5L5.87 11.83C6.04 11.65 6.04 11.38 5.89 11.19C5.7 11.02 5.38 10.96 5.2 11.1L3.78 12.66C3.63 12.83 3.61 13.07 3.73 13.26L5.13 14.83C5.31 15.03 5.63 15.05 5.82 14.87C6.01 14.7 6.04 14.43 5.92 14.23L5.28 13.5L12.16 13.49ZM5.5 6L10.5 6C10.77 6 11 6.22 11 6.5C11 6.78 10.77 7 10.5 7L5.5 7C5.22 7 5 6.77 5 6.5C5 6.23 5.22 6 5.5 6ZM10.5 9L5.5 9C5.22 9 5 9.22 5 9.5C5 9.78 5.22 10 5.5 10L10.5 10C10.77 10 11 9.77 11 9.5C11 9.23 10.77 9 10.5 9Z" fill="currentColor" fill-opacity="1.000000" fill-rule="evenodd"/>
	</g>
</svg>
