<svg width="16.000000" height="16.000000" viewBox="0 0 16 16" fill="none" xmlns="http://www.w3.org/2000/svg" xmlns:xlink="http://www.w3.org/1999/xlink">
	<desc>
			Created with Pixso.
	</desc>
	<defs>
		<clipPath id="clip225_850">
			<rect id="主动特征检测-feature-detection" width="16.000000" height="16.000000" fill="white" fill-opacity="0"/>
		</clipPath>
	</defs>
	<rect id="103#主动特征检测-feature-detection" width="16.000000" height="16.000000" fill="#FFFFFF" fill-opacity="0"/>
	<g clip-path="url(#clip225_850)">
		<path id="_矢量-203" d="M5.85 2.39C6.09 2.3 6.34 2.22 6.6 2.16C6.87 2.09 7.03 1.83 6.97 1.56C6.9 1.28 6.64 1.12 6.37 1.19C6.07 1.26 5.77 1.35 5.49 1.46C5.17 1.58 4.87 1.72 4.57 1.89C4.31 2.03 4.07 2.19 3.83 2.37C3.56 2.57 3.3 2.79 3.06 3.03C2.82 3.27 2.6 3.53 2.39 3.8C2.22 4.03 2.06 4.28 1.91 4.54C1.74 4.83 1.6 5.14 1.47 5.45C1.36 5.74 1.27 6.03 1.2 6.32C1.13 6.6 1.29 6.86 1.56 6.93C1.83 7 2.1 6.83 2.17 6.56C2.23 6.31 2.31 6.06 2.4 5.82C2.51 5.55 2.63 5.28 2.78 5.03C2.9 4.81 3.04 4.6 3.19 4.4C3.36 4.17 3.56 3.95 3.76 3.74C3.97 3.53 4.2 3.34 4.43 3.17C4.63 3.02 4.84 2.89 5.05 2.77C5.31 2.63 5.58 2.49 5.85 2.39ZM9.02 1.56C9.09 1.28 9.35 1.12 9.63 1.19C9.93 1.26 10.22 1.35 10.51 1.46C10.82 1.58 11.13 1.72 11.43 1.89C11.69 2.04 11.93 2.2 12.17 2.38C12.44 2.58 12.7 2.8 12.94 3.04C13.18 3.28 13.41 3.54 13.61 3.81C13.79 4.05 13.95 4.3 14.09 4.56C14.26 4.85 14.41 5.16 14.53 5.48C14.64 5.76 14.73 6.05 14.8 6.35C14.87 6.63 14.7 6.89 14.43 6.96C14.16 7.02 13.89 6.86 13.83 6.59C13.77 6.33 13.69 6.08 13.6 5.84C13.5 5.57 13.37 5.3 13.22 5.05C13.1 4.83 12.96 4.62 12.81 4.42C12.64 4.18 12.44 3.96 12.23 3.75C12.02 3.54 11.8 3.35 11.57 3.17C11.37 3.02 11.15 2.89 10.94 2.76C10.68 2.62 10.41 2.49 10.14 2.39C9.9 2.3 9.65 2.22 9.39 2.16C9.12 2.09 8.96 1.83 9.02 1.56ZM4.81 11.18C4.15 10.51 4.23 9.27 4.9 8C4.23 6.72 4.15 5.48 4.81 4.81C5.48 4.15 6.72 4.23 8 4.9C9.27 4.23 10.51 4.15 11.18 4.81C11.84 5.48 11.76 6.72 11.09 8C11.76 9.27 11.84 10.51 11.18 11.18C10.51 11.84 9.27 11.76 8 11.09C6.72 11.76 5.48 11.84 4.81 11.18ZM6.23 6.23C6.49 5.96 6.76 5.73 7.04 5.51C6.38 5.24 5.82 5.22 5.52 5.51C5.22 5.8 5.24 6.37 5.52 7.03C5.74 6.75 5.96 6.49 6.23 6.23ZM9.76 6.23C9.5 5.96 9.23 5.73 8.95 5.51C9.61 5.24 10.17 5.22 10.47 5.51C10.77 5.8 10.75 6.37 10.47 7.03C10.25 6.75 10.03 6.49 9.76 6.23ZM6.93 9.06C6.59 8.71 6.29 8.35 6.04 8C6.29 7.64 6.59 7.28 6.93 6.93C7.28 6.59 7.64 6.29 8 6.04C8.35 6.29 8.71 6.59 9.06 6.93C9.4 7.28 9.7 7.64 9.95 8C9.7 8.35 9.4 8.71 9.06 9.06C8.71 9.4 8.35 9.7 8 9.95C7.64 9.7 7.28 9.4 6.93 9.06ZM6.23 9.76C5.96 9.5 5.73 9.23 5.51 8.95C5.24 9.61 5.22 10.17 5.51 10.47C5.8 10.77 6.37 10.75 7.03 10.47C6.75 10.25 6.49 10.03 6.23 9.76ZM9.76 9.76C10.03 9.5 10.26 9.23 10.48 8.95C10.75 9.61 10.77 10.17 10.48 10.47C10.19 10.77 9.62 10.75 8.96 10.47C9.24 10.25 9.5 10.03 9.76 9.76ZM1.55 8.99C1.28 9.05 1.11 9.32 1.18 9.59C1.25 9.89 1.34 10.19 1.45 10.48C1.57 10.8 1.71 11.11 1.88 11.4C2.03 11.67 2.19 11.92 2.36 12.16C2.57 12.43 2.79 12.69 3.03 12.93C3.28 13.18 3.54 13.4 3.81 13.61C4.05 13.78 4.3 13.95 4.56 14.09C4.86 14.26 5.17 14.41 5.48 14.53C5.77 14.64 6.07 14.73 6.37 14.81C6.64 14.87 6.91 14.71 6.97 14.43C7.04 14.16 6.87 13.9 6.6 13.83C6.34 13.77 6.09 13.69 5.85 13.6C5.57 13.49 5.31 13.37 5.05 13.22C4.83 13.1 4.62 12.96 4.41 12.81C4.18 12.63 3.95 12.44 3.74 12.23C3.53 12.02 3.34 11.79 3.16 11.55C3.01 11.35 2.88 11.14 2.75 10.92C2.61 10.66 2.49 10.39 2.38 10.12C2.29 9.87 2.21 9.62 2.15 9.36C2.09 9.09 1.82 8.92 1.55 8.99ZM14.54 10.49C14.65 10.2 14.74 9.9 14.81 9.6C14.87 9.32 14.71 9.06 14.44 9C14.17 8.93 13.9 9.1 13.84 9.37C13.78 9.63 13.7 9.88 13.61 10.12C13.5 10.4 13.38 10.66 13.23 10.92C13.11 11.14 12.97 11.35 12.82 11.56C12.65 11.79 12.46 12.02 12.24 12.23C12.03 12.44 11.81 12.64 11.57 12.81C11.37 12.96 11.16 13.1 10.94 13.22C10.68 13.37 10.41 13.5 10.14 13.6C9.9 13.69 9.64 13.77 9.39 13.83C9.12 13.9 8.95 14.16 9.02 14.43C9.08 14.71 9.35 14.87 9.62 14.81C9.92 14.73 10.22 14.64 10.51 14.53C10.82 14.41 11.13 14.26 11.43 14.1C11.69 13.95 11.94 13.79 12.18 13.61C12.45 13.4 12.71 13.18 12.95 12.94C13.2 12.69 13.42 12.43 13.62 12.16C13.8 11.92 13.96 11.67 14.11 11.41C14.27 11.11 14.42 10.8 14.54 10.49Z" fill="currentColor" fill-opacity="1.000000" fill-rule="evenodd"/>
	</g>
</svg>
