<svg width="16.000000" height="16.000000" viewBox="0 0 16 16" fill="none" xmlns="http://www.w3.org/2000/svg" xmlns:xlink="http://www.w3.org/1999/xlink">
	<desc>
			Created with Pixso.
	</desc>
	<defs>
		<clipPath id="clip225_851">
			<rect id="图引擎检测-image-detection" width="16.000000" height="16.000000" fill="white" fill-opacity="0"/>
		</clipPath>
	</defs>
	<rect id="104#图引擎检测-image-detection" width="16.000000" height="16.000000" fill="#FFFFFF" fill-opacity="0"/>
	<g clip-path="url(#clip225_851)">
		<path id="_矢量-206" d="M8.49 5C9.13 4.84 9.66 4.39 9.92 3.8C10.04 3.85 10.16 3.9 10.27 3.95C10.55 4.08 10.82 4.24 11.08 4.42C11.31 4.58 11.53 4.76 11.73 4.95C11.93 5.15 12.12 5.36 12.3 5.59C12.49 5.84 12.65 6.1 12.8 6.38C12.91 6.61 13.02 6.85 13.1 7.1C13.18 7.32 13.24 7.55 13.29 7.79C13.35 8.13 13.39 8.48 13.39 8.84C13.39 9.13 13.37 9.41 13.32 9.69C12.68 9.62 12.03 9.86 11.58 10.33L10.1 9.48C10.15 9.29 10.1 9.05 10.1 8.84C10.1 7.85 9.42 7.02 8.5 6.79L8.49 5ZM10.1 2.8C10.02 1.71 9.11 0.84 8 0.84C6.89 0.84 5.97 1.71 5.89 2.8C5.69 2.87 5.49 2.95 5.29 3.04C4.96 3.2 4.65 3.38 4.35 3.59C4.07 3.78 3.82 3.99 3.58 4.22C3.33 4.45 3.11 4.71 2.9 4.98C2.67 5.27 2.48 5.58 2.31 5.91C2.17 6.18 2.05 6.47 1.95 6.77C1.85 7.05 1.77 7.33 1.72 7.62C1.64 8.02 1.6 8.43 1.6 8.84C1.6 9.18 1.63 9.51 1.68 9.84C1.69 9.91 1.7 9.97 1.71 10.04C1.12 10.44 0.78 11.11 0.78 11.79C0.78 12.15 0.88 12.51 1.07 12.84C1.62 13.81 2.83 14.16 3.82 13.68C4.06 13.89 4.32 14.08 4.59 14.26C4.91 14.45 5.24 14.62 5.59 14.76C5.93 14.9 6.28 15.01 6.63 15.09C7.08 15.19 7.53 15.23 8 15.23C8.47 15.23 8.91 15.19 9.35 15.09C9.7 15.01 10.04 14.9 10.38 14.77C10.73 14.63 11.06 14.46 11.37 14.27C11.65 14.09 11.91 13.9 12.16 13.68C13.15 14.16 14.36 13.81 14.91 12.84C15.1 12.51 15.2 12.15 15.2 11.79C15.2 11.11 14.86 10.44 14.27 10.04C14.28 9.97 14.29 9.9 14.3 9.84C14.35 9.51 14.38 9.18 14.38 8.84C14.38 8.43 14.34 8.02 14.26 7.62C14.21 7.34 14.13 7.05 14.04 6.77C13.93 6.48 13.81 6.19 13.67 5.91C13.5 5.59 13.31 5.28 13.09 4.99C12.88 4.71 12.66 4.46 12.41 4.23C12.17 4 11.92 3.79 11.64 3.6C11.34 3.39 11.03 3.2 10.7 3.05C10.5 2.96 10.31 2.87 10.1 2.8ZM6.07 3.8C6.33 4.39 6.86 4.84 7.5 5L7.5 6.79C6.57 7.02 5.89 7.85 5.89 8.84C5.89 9.05 5.92 9.25 5.97 9.44L4.41 10.33C3.96 9.86 3.31 9.62 2.67 9.69C2.62 9.41 2.6 9.13 2.6 8.84C2.6 8.48 2.64 8.13 2.7 7.79C2.75 7.55 2.81 7.32 2.89 7.09C2.98 6.85 3.08 6.61 3.2 6.38C3.34 6.1 3.5 5.84 3.7 5.58C3.87 5.35 4.06 5.14 4.27 4.94C4.47 4.75 4.69 4.57 4.92 4.41C5.18 4.23 5.45 4.08 5.73 3.95C5.84 3.89 5.95 3.85 6.07 3.8ZM9.1 2.95C9.1 3.56 8.61 4.06 8 4.06C7.39 4.06 6.89 3.56 6.89 2.95C6.89 2.34 7.38 1.84 8 1.84C8.62 1.84 9.1 2.34 9.1 2.95ZM8 10.95C8.6 10.95 9.14 10.7 9.52 10.29L11.08 11.2C11.02 11.39 10.99 11.59 10.99 11.78C10.99 12.23 11.13 12.67 11.39 13.03C11.22 13.17 11.03 13.3 10.84 13.42C10.58 13.59 10.31 13.73 10.02 13.84C9.74 13.95 9.45 14.04 9.16 14.11C8.78 14.19 8.39 14.23 8 14.23C7.61 14.23 7.21 14.19 6.83 14.11C6.53 14.04 6.25 13.95 5.96 13.84C5.67 13.72 5.4 13.58 5.14 13.42C4.95 13.3 4.77 13.17 4.6 13.03C4.86 12.67 5 12.23 5 11.78C5 11.59 4.97 11.39 4.91 11.2L6.39 10.35C6.77 10.76 7.39 10.95 8 10.95ZM9.1 8.84C9.1 9.45 8.61 9.95 8 9.95C7.39 9.95 6.89 9.45 6.89 8.84C6.89 8.23 7.38 7.73 8 7.73C8.62 7.73 9.1 8.23 9.1 8.84ZM2.34 10.83C2.87 10.52 3.55 10.7 3.85 11.23C3.95 11.41 4 11.6 4 11.79C4 12.17 3.8 12.54 3.45 12.75C2.92 13.05 2.24 12.87 1.93 12.34C1.83 12.17 1.78 11.98 1.78 11.79C1.78 11.41 1.98 11.03 2.34 10.83ZM12.54 12.75C12.19 12.54 11.99 12.17 11.99 11.79C11.99 11.6 12.04 11.41 12.14 11.23C12.45 10.7 13.12 10.52 13.65 10.83C14.01 11.03 14.21 11.41 14.21 11.79C14.21 11.98 14.16 12.17 14.06 12.34C13.75 12.87 13.07 13.05 12.54 12.75Z" fill="currentColor" fill-opacity="1.000000" fill-rule="evenodd"/>
	</g>
</svg>
