<svg width="16.000000" height="16.000000" viewBox="0 0 16 16" fill="none" xmlns="http://www.w3.org/2000/svg" xmlns:xlink="http://www.w3.org/1999/xlink">
	<desc>
			Created with Pixso.
	</desc>
	<defs>
		<clipPath id="clip225_852">
			<rect id="探针-probe" width="16.000000" height="16.000000" fill="white" fill-opacity="0"/>
		</clipPath>
	</defs>
	<rect id="105#探针-probe" width="16.000000" height="16.000000" fill="#FFFFFF" fill-opacity="0"/>
	<g clip-path="url(#clip225_852)">
		<path id="_矢量-203" d="M13.85 6.67C13.91 6.94 13.95 7.21 13.97 7.5L10.55 7.5C10.31 6.3 9.26 5.4 7.98 5.4C6.56 5.4 5.39 6.56 5.39 8C5.39 9.43 6.56 10.6 7.98 10.6C9.26 10.6 10.31 9.68 10.55 8.5L14.5 8.5C14.78 8.5 15 8.28 15 8C15 7.47 14.94 6.96 14.83 6.47C14.74 6.06 14.61 5.66 14.44 5.27C14.28 4.88 14.08 4.5 13.85 4.15C13.59 3.75 13.29 3.39 12.94 3.05C12.6 2.7 12.24 2.4 11.84 2.14C11.49 1.91 11.11 1.71 10.72 1.55C10.33 1.38 9.92 1.25 9.51 1.16C9.03 1.04 8.51 1 8 1C7.48 1 6.95 1.04 6.47 1.16C6.06 1.25 5.66 1.38 5.26 1.55C4.88 1.72 4.5 1.91 4.14 2.14C3.75 2.4 3.39 2.7 3.04 3.05C2.7 3.39 2.39 3.75 2.14 4.15C1.91 4.5 1.7 4.88 1.54 5.27C1.38 5.66 1.25 6.06 1.16 6.47C1.04 6.96 1 7.47 1 8C1 8.53 1.04 9.03 1.16 9.52C1.25 9.93 1.38 10.33 1.54 10.72C1.7 11.11 1.91 11.49 2.14 11.84C2.39 12.24 2.7 12.6 3.04 12.94C3.39 13.29 3.76 13.59 4.14 13.85C4.5 14.08 4.88 14.27 5.26 14.44C5.66 14.61 6.06 14.74 6.47 14.83C6.95 14.94 7.47 15 8 15C8.57 15 9.14 14.93 9.7 14.79C10.18 14.67 10.66 14.49 11.12 14.26C11.57 14.03 12 13.76 12.39 13.45C12.8 13.11 13.18 12.73 13.51 12.3C13.69 12.08 13.65 11.77 13.43 11.6C13.21 11.43 12.9 11.47 12.73 11.69C12.44 12.06 12.11 12.39 11.76 12.67C11.42 12.94 11.06 13.17 10.67 13.37C10.28 13.56 9.88 13.71 9.47 13.81C8.98 13.93 8.5 14 8 14C7.54 14 7.1 13.95 6.66 13.85C6.32 13.77 5.98 13.66 5.66 13.52C5.32 13.38 5.01 13.21 4.7 13.02C4.37 12.79 4.04 12.53 3.75 12.24C3.45 11.94 3.2 11.62 2.97 11.28C2.78 10.98 2.6 10.67 2.47 10.33C2.32 10 2.22 9.67 2.13 9.32C2.04 8.89 2 8.45 2 8C2 7.55 2.04 7.1 2.13 6.67C2.22 6.32 2.32 5.99 2.47 5.66C2.6 5.32 2.78 5.01 2.97 4.71C3.2 4.37 3.45 4.05 3.75 3.75C4.04 3.46 4.37 3.2 4.7 2.97C5.01 2.78 5.32 2.61 5.66 2.47C5.98 2.33 6.32 2.22 6.66 2.14C7.1 2.05 7.54 2 8 2C8.45 2 8.88 2.05 9.32 2.14C9.66 2.22 10 2.33 10.33 2.47C10.67 2.61 10.98 2.78 11.28 2.97C11.62 3.2 11.94 3.46 12.24 3.75C12.53 4.05 12.79 4.37 13.02 4.71C13.21 5.01 13.38 5.32 13.52 5.66C13.66 5.99 13.77 6.32 13.85 6.67ZM7.98 6.4C7.1 6.4 6.39 7.11 6.39 8C6.39 8.89 7.1 9.59 7.98 9.59C8.87 9.59 9.59 8.88 9.59 8C9.59 7.12 8.88 6.4 7.98 6.4Z" fill="currentColor" fill-opacity="1.000000" fill-rule="evenodd"/>
	</g>
</svg>
