<svg width="16.000000" height="16.000000" viewBox="0 0 16 16" fill="none" xmlns="http://www.w3.org/2000/svg" xmlns:xlink="http://www.w3.org/1999/xlink">
	<desc>
			Created with Pixso.
	</desc>
	<defs>
		<clipPath id="clip225_853">
			<rect id="运行中-running" width="16.000000" height="16.000000" fill="white" fill-opacity="0"/>
		</clipPath>
	</defs>
	<rect id="106#运行中-running" width="16.000000" height="16.000000" fill="#FFFFFF" fill-opacity="0"/>
	<g clip-path="url(#clip225_853)">
		<path id="_矢量-198" d="M14.86 3.75L14.86 6.71C14.86 6.84 14.81 6.96 14.71 7.06C14.61 7.16 14.49 7.21 14.36 7.21C14.24 7.21 14.13 7.17 14.04 7.09C13.95 7.02 13.89 6.92 13.87 6.8C13.8 6.48 13.71 6.16 13.59 5.86C13.46 5.53 13.31 5.21 13.12 4.9C12.95 4.62 12.76 4.36 12.55 4.11C12.33 3.85 12.08 3.6 11.8 3.38C11.52 3.14 11.21 2.93 10.89 2.76C10.62 2.61 10.34 2.48 10.05 2.36C9.77 2.27 9.49 2.19 9.2 2.13C8.81 2.05 8.4 2 7.99 2C7.58 2 7.16 2.05 6.77 2.13C6.48 2.19 6.2 2.27 5.92 2.36C5.63 2.48 5.35 2.61 5.08 2.76C4.76 2.93 4.45 3.14 4.16 3.38C3.89 3.6 3.64 3.85 3.42 4.11C3.21 4.36 3.02 4.62 2.85 4.9C2.66 5.21 2.51 5.53 2.38 5.86C2.26 6.16 2.17 6.48 2.1 6.8C2.05 7.08 1.79 7.25 1.52 7.2C1.24 7.14 1.07 6.88 1.12 6.61C1.2 6.22 1.31 5.85 1.45 5.5C1.6 5.11 1.78 4.73 1.99 4.38C2.19 4.05 2.42 3.75 2.66 3.46C2.92 3.15 3.21 2.87 3.53 2.61C3.86 2.33 4.21 2.08 4.58 1.89C4.9 1.71 5.23 1.56 5.58 1.43C5.91 1.31 6.25 1.21 6.59 1.14C7.05 1.04 7.51 1 7.99 1C8.47 1 8.92 1.04 9.38 1.14C9.72 1.21 10.06 1.31 10.39 1.43C10.74 1.56 11.07 1.71 11.39 1.89C11.76 2.09 12.11 2.33 12.44 2.61C12.76 2.87 13.05 3.15 13.31 3.46C13.51 3.69 13.69 3.93 13.86 4.19L13.86 3.75C13.86 3.47 14.08 3.25 14.36 3.25C14.64 3.25 14.86 3.47 14.86 3.75ZM8.63 9.64C8.43 9.85 8.43 10.16 8.63 10.36C8.83 10.56 9.14 10.56 9.34 10.36L11.34 8.35C11.44 8.26 11.48 8.14 11.48 8.01C11.48 7.87 11.44 7.75 11.34 7.65L9.34 5.65C9.14 5.45 8.83 5.45 8.63 5.65C8.43 5.85 8.43 6.16 8.63 6.36L9.78 7.51L4.98 7.51C4.7 7.51 4.48 7.72 4.48 8.01C4.48 8.3 4.7 8.51 4.98 8.51L9.78 8.51L8.63 9.64ZM14.52 10.52C14.66 10.16 14.77 9.79 14.84 9.39C14.9 9.13 14.73 8.87 14.45 8.82C14.18 8.75 13.92 8.93 13.86 9.21C13.8 9.53 13.71 9.85 13.59 10.14C13.46 10.48 13.31 10.8 13.12 11.11C12.95 11.39 12.76 11.65 12.55 11.9C12.33 12.16 12.08 12.41 11.8 12.63C11.51 12.87 11.21 13.08 10.9 13.25C10.63 13.4 10.34 13.53 10.05 13.64C9.77 13.74 9.49 13.82 9.2 13.88C8.81 13.96 8.4 14 7.99 14C7.58 14 7.16 13.96 6.77 13.88C6.48 13.82 6.2 13.74 5.92 13.64C5.63 13.53 5.35 13.4 5.08 13.25C4.76 13.08 4.46 12.87 4.17 12.63C3.89 12.41 3.64 12.16 3.42 11.9C3.21 11.65 3.02 11.39 2.85 11.11C2.66 10.8 2.51 10.48 2.38 10.14C2.26 9.85 2.17 9.53 2.11 9.21C2.08 9.09 2.02 8.99 1.93 8.92C1.84 8.84 1.73 8.81 1.62 8.81C1.48 8.81 1.36 8.85 1.26 8.95C1.16 9.05 1.12 9.17 1.12 9.31L1.12 12.25C1.12 12.53 1.34 12.75 1.62 12.75C1.9 12.75 2.12 12.53 2.12 12.25L2.12 11.82C2.28 12.08 2.46 12.32 2.66 12.55C2.92 12.86 3.21 13.14 3.53 13.4C3.86 13.68 4.21 13.92 4.58 14.12C4.9 14.3 5.23 14.45 5.58 14.58C5.91 14.7 6.25 14.8 6.59 14.87C7.05 14.96 7.51 15 7.99 15C8.47 15 8.92 14.96 9.38 14.87C9.72 14.8 10.06 14.7 10.39 14.58C10.74 14.45 11.07 14.3 11.39 14.12C11.76 13.92 12.11 13.68 12.44 13.4C12.76 13.14 13.05 12.86 13.31 12.55C13.55 12.26 13.78 11.96 13.98 11.63C14.19 11.27 14.37 10.9 14.52 10.52Z" fill="currentColor" fill-opacity="1.000000" fill-rule="evenodd"/>
	</g>
</svg>
