<svg width="16.000000" height="16.000000" viewBox="0 0 16 16" fill="none" xmlns="http://www.w3.org/2000/svg" xmlns:xlink="http://www.w3.org/1999/xlink">
	<desc>
			Created with Pixso.
	</desc>
	<defs>
		<clipPath id="clip225_854">
			<rect id="导入数据-import-data" width="16.000000" height="16.000000" fill="white" fill-opacity="0"/>
		</clipPath>
	</defs>
	<rect id="107#导入数据-import-data" width="16.000000" height="16.000000" fill="#FFFFFF" fill-opacity="0"/>
	<g clip-path="url(#clip225_854)">
		<path id="_矢量-147" d="M4 1.5L9.5 1.5C9.78 1.5 10 1.71 10 2C10 2.29 9.78 2.5 9.5 2.5L4 2.5C3.88 2.5 3.77 2.5 3.64 2.53C3.57 2.55 3.49 2.58 3.41 2.61C3.33 2.65 3.25 2.69 3.17 2.74C3.09 2.79 3 2.86 2.92 2.93C2.8 3.07 2.69 3.23 2.61 3.41C2.53 3.6 2.5 3.79 2.5 4L2.5 12C2.5 12.11 2.5 12.22 2.53 12.34C2.55 12.42 2.58 12.5 2.61 12.58C2.69 12.76 2.8 12.92 2.92 13.06C3 13.13 3.09 13.2 3.17 13.25C3.25 13.3 3.33 13.34 3.41 13.38C3.49 13.41 3.57 13.44 3.64 13.46C3.77 13.48 3.88 13.5 4 13.5L12 13.5C12.11 13.5 12.22 13.48 12.34 13.46C12.42 13.44 12.5 13.41 12.58 13.38C12.76 13.3 12.92 13.19 13.06 13.06C13.19 12.92 13.3 12.76 13.38 12.58C13.41 12.5 13.44 12.42 13.46 12.34C13.48 12.22 13.5 12.11 13.5 12L13.5 6.5C13.5 6.21 13.72 6 14 6C14.28 6 14.5 6.21 14.5 6.5L14.5 12C14.5 12.33 14.43 12.66 14.3 12.97C14.24 13.11 14.17 13.24 14.08 13.37C13.99 13.51 13.88 13.64 13.76 13.76C13.53 13.99 13.27 14.17 12.97 14.3C12.83 14.36 12.68 14.4 12.53 14.44C12.36 14.48 12.18 14.5 12 14.5L4 14.5C3.81 14.5 3.63 14.48 3.46 14.44C3.31 14.4 3.16 14.36 3.02 14.3C2.72 14.17 2.46 13.99 2.23 13.76C2.1 13.64 2 13.51 1.91 13.37C1.82 13.25 1.75 13.11 1.69 12.97C1.63 12.83 1.59 12.68 1.55 12.53C1.5 12.36 1.5 12.18 1.5 12L1.5 4C1.5 3.81 1.5 3.63 1.55 3.46C1.59 3.31 1.63 3.16 1.69 3.02C1.75 2.88 1.82 2.75 1.91 2.62C2 2.48 2.1 2.34 2.23 2.23C2.46 2 2.72 1.82 3.02 1.69C3.16 1.63 3.31 1.59 3.46 1.55C3.63 1.51 3.81 1.5 4 1.5ZM9.53 3.88L9.64 5.89C9.64 6.14 9.85 6.34 10.1 6.36L12.12 6.47C12.39 6.48 12.63 6.27 12.65 6C12.66 5.72 12.45 5.49 12.17 5.47L11.28 5.42L13.85 2.85C14.05 2.65 14.05 2.33 13.85 2.14C13.66 1.95 13.34 1.95 13.15 2.14L10.57 4.71L10.52 3.82C10.51 3.58 10.32 3.38 10.09 3.35C9.81 3.37 9.5 3.6 9.53 3.88ZM5 11.5L5 6.5C5 6.22 5.22 6 5.5 6C5.78 6 6 6.22 6 6.5L6 11.5C6 11.77 5.77 12 5.5 12C5.23 12 5 11.77 5 11.5ZM8.5 11.5L8.5 8.5C8.5 8.22 8.27 8 8 8C7.73 8 7.5 8.22 7.5 8.5L7.5 11.5C7.5 11.77 7.72 12 8 12C8.28 12 8.5 11.77 8.5 11.5ZM11 9.5L11 11.5C11 11.77 10.77 12 10.5 12C10.22 12 10 11.77 10 11.5L10 9.5C10 9.22 10.22 9 10.5 9C10.78 9 11 9.22 11 9.5Z" fill="currentColor" fill-opacity="1.000000" fill-rule="evenodd"/>
	</g>
</svg>
