<svg width="16.000000" height="16.000000" viewBox="0 0 16 16" fill="none" xmlns="http://www.w3.org/2000/svg" xmlns:xlink="http://www.w3.org/1999/xlink">
	<desc>
			Created with Pixso.
	</desc>
	<defs>
		<clipPath id="clip225_870">
			<rect id="数据采集-data-collection" width="16.000000" height="16.000000" fill="white" fill-opacity="0"/>
		</clipPath>
	</defs>
	<rect id="107.2#数据采集-collect-data" width="16.000000" height="16.000000" fill="#FFFFFF" fill-opacity="0"/>
	<g clip-path="url(#clip225_870)">
		<path id="_矢量-204" d="M2 3C2 2.43 2.44 2 3 2C3.56 2 4 2.43 4 3C4 3.07 3.97 3.17 3.96 3.25L4.75 4.06C4.88 4.17 4.96 4.3 5.07 4.42C5.14 4.56 5.23 4.69 5.28 4.87C5.37 5.02 5.41 5.18 5.45 5.33C5.47 5.5 5.5 5.66 5.5 5.81L5.5 8.47C5.5 8.63 5.45 8.75 5.34 8.84C5.25 8.93 5.13 8.97 5 8.97C4.92 8.97 4.85 8.97 4.78 8.95C4.73 8.93 4.69 8.89 4.64 8.84L3.14 7.34C3.03 7.25 2.98 7.12 2.98 6.98C2.98 6.87 3.03 6.73 3.14 6.64C3.34 6.43 3.64 6.43 3.84 6.64L4.5 7.29L4.5 5.81C4.5 5.71 4.48 5.62 4.46 5.53C4.44 5.43 4.41 5.33 4.38 5.25C4.34 5.16 4.28 5.06 4.23 4.98C4.17 4.91 4.12 4.83 4.06 4.76L3.25 3.95C3.16 3.97 3.08 4 3 4C2.44 4 2 3.55 2 3ZM7 3C7 2.43 7.44 2 8 2C8.56 2 9 2.43 9 3C9 3.37 8.78 3.68 8.5 3.85L8.5 10.29L9.14 9.64C9.34 9.43 9.64 9.43 9.84 9.64C9.95 9.72 10 9.87 10 9.97C10 10.12 9.95 10.25 9.84 10.35L8.38 11.81C8.34 11.87 8.28 11.91 8.21 11.93C8.14 11.98 8.08 12 8 12C7.89 12 7.84 11.98 7.77 11.95C7.71 11.91 7.64 11.87 7.6 11.81L6.14 10.35C6.03 10.25 5.98 10.12 5.98 9.97C5.98 9.87 6.03 9.72 6.14 9.64C6.34 9.43 6.64 9.43 6.84 9.64L7.5 10.29L7.5 3.85C7.2 3.68 7 3.37 7 3ZM12 3C12 2.43 12.44 2 13 2C13.56 2 14 2.43 14 3C14 3.57 13.55 4 13 4C12.91 4 12.82 3.97 12.74 3.95L11.93 4.76C11.86 4.83 11.8 4.91 11.75 4.98C11.69 5.06 11.65 5.16 11.61 5.25C11.57 5.33 11.54 5.43 11.52 5.53C11.5 5.62 11.5 5.71 11.5 5.81L11.5 7.29L12.14 6.64C12.34 6.43 12.65 6.43 12.85 6.64C12.95 6.73 13 6.87 13 6.98C13 7.12 12.95 7.25 12.85 7.34L11.35 8.84C11.3 8.89 11.25 8.93 11.19 8.95C11.13 8.97 11.06 8.97 11 8.97C10.86 8.97 10.74 8.93 10.64 8.84C10.54 8.75 10.5 8.63 10.5 8.47L10.5 5.81C10.5 5.66 10.51 5.5 10.54 5.33C10.57 5.18 10.62 5.02 10.69 4.87C10.75 4.69 10.83 4.56 10.92 4.42C11.01 4.3 11.11 4.17 11.23 4.06L12.03 3.25C12.01 3.17 12 3.07 12 3ZM2 10C2.28 10 2.5 10.22 2.5 10.5L2.5 11.5C2.5 11.61 2.5 11.72 2.53 11.83C2.53 11.91 2.58 12 2.6 12.08C2.64 12.16 2.69 12.24 2.73 12.31C2.78 12.39 2.85 12.48 2.92 12.56C3 12.63 3.09 12.7 3.17 12.75C3.25 12.8 3.33 12.84 3.39 12.88C3.48 12.91 3.57 12.93 3.64 12.96C3.77 12.98 3.88 13 4 13L12 13C12.11 13 12.22 12.98 12.34 12.96C12.42 12.93 12.5 12.91 12.58 12.88C12.66 12.84 12.74 12.8 12.81 12.75C12.9 12.7 12.98 12.63 13.06 12.56C13.13 12.48 13.19 12.39 13.25 12.31C13.3 12.24 13.34 12.16 13.38 12.08C13.41 12 13.44 11.92 13.46 11.84C13.48 11.72 13.5 11.61 13.5 11.5L13.5 10.5C13.5 10.22 13.72 10 14 10C14.28 10 14.5 10.22 14.5 10.5L14.5 11.5C14.5 11.68 14.48 11.86 14.44 12.03C14.4 12.18 14.36 12.33 14.3 12.47C14.24 12.61 14.17 12.74 14.08 12.87C13.99 13.01 13.88 13.14 13.76 13.26C13.64 13.38 13.51 13.49 13.37 13.58C13.24 13.67 13.11 13.74 12.97 13.8C12.83 13.86 12.68 13.9 12.53 13.93C12.36 13.98 12.18 14 12 14L4 14C3.81 14 3.63 13.98 3.46 13.93C3.31 13.9 3.14 13.86 3.02 13.8C2.88 13.74 2.75 13.67 2.62 13.58C2.47 13.49 2.33 13.38 2.22 13.26C2.1 13.14 2 13.01 1.89 12.87C1.82 12.74 1.75 12.61 1.69 12.47C1.63 12.33 1.59 12.18 1.53 12.03C1.5 11.86 1.5 11.68 1.5 11.5L1.5 10.5C1.5 10.22 1.71 10 2 10Z" fill="currentColor" fill-opacity="1.000000" fill-rule="evenodd"/>
	</g>
</svg>
