<svg width="16.000000" height="16.000000" viewBox="0 0 16 16" fill="none" xmlns="http://www.w3.org/2000/svg" xmlns:xlink="http://www.w3.org/1999/xlink">
	<desc>
			Created with Pixso.
	</desc>
	<defs>
		<clipPath id="clip225_869">
			<rect id="数据导出-data-export" width="16.000000" height="16.000000" fill="white" fill-opacity="0"/>
		</clipPath>
	</defs>
	<rect id="107.1#导出数据-export-data" width="16.000000" height="16.000000" fill="#FFFFFF" fill-opacity="0"/>
	<g clip-path="url(#clip225_869)">
		<path id="_矢量-217" d="M11 11.5L11 12C11 12.18 10.98 12.36 10.94 12.53C10.9 12.67 10.86 12.83 10.8 12.97C10.74 13.11 10.67 13.24 10.58 13.37C10.49 13.51 10.38 13.64 10.26 13.76C10.14 13.88 10.01 13.99 9.87 14.08C9.72 14.17 9.6 14.24 9.46 14.3C9.33 14.36 9.17 14.4 9.03 14.43C8.85 14.48 8.67 14.5 8.5 14.5L4 14.5C3.81 14.5 3.63 14.48 3.46 14.43C3.31 14.4 3.14 14.36 3.02 14.3C2.88 14.24 2.75 14.17 2.62 14.08C2.47 13.99 2.33 13.88 2.22 13.76C2.1 13.64 2 13.51 1.89 13.37C1.82 13.24 1.75 13.11 1.69 12.97C1.63 12.83 1.59 12.68 1.53 12.53C1.5 12.36 1.5 12.18 1.5 12L1.5 4C1.5 3.81 1.5 3.63 1.53 3.45C1.59 3.31 1.63 3.16 1.69 3.02C1.75 2.88 1.82 2.75 1.89 2.62C2 2.47 2.1 2.33 2.22 2.22C2.33 2.09 2.47 2 2.62 1.91C2.75 1.81 2.88 1.75 3.02 1.68C3.14 1.63 3.31 1.58 3.46 1.55C3.63 1.51 3.81 1.5 4 1.5L8.5 1.5C8.67 1.5 8.85 1.5 9.03 1.55C9.17 1.58 9.33 1.63 9.46 1.68C9.6 1.75 9.72 1.81 9.87 1.91C10.01 2 10.14 2.09 10.26 2.22C10.38 2.33 10.49 2.47 10.58 2.62C10.67 2.75 10.74 2.88 10.8 3.02C10.86 3.16 10.9 3.31 10.94 3.45C10.98 3.63 11 3.81 11 4L11 4.5C11 4.78 10.78 5 10.5 5C10.22 5 10 4.78 10 4.5L10 4C10 3.88 9.97 3.77 9.96 3.65C9.93 3.56 9.89 3.48 9.88 3.41C9.84 3.32 9.79 3.25 9.75 3.18C9.7 3.08 9.63 3.01 9.56 2.93C9.47 2.85 9.39 2.79 9.31 2.73C9.22 2.68 9.14 2.65 9.08 2.6C9 2.57 8.91 2.55 8.84 2.53C8.71 2.51 8.6 2.5 8.5 2.5L4 2.5C3.88 2.5 3.76 2.5 3.65 2.53C3.58 2.55 3.48 2.57 3.4 2.6C3.33 2.65 3.25 2.68 3.17 2.73C3.09 2.79 3 2.85 2.92 2.93C2.85 3.01 2.79 3.09 2.73 3.18C2.69 3.25 2.65 3.32 2.6 3.41C2.58 3.48 2.54 3.56 2.53 3.65C2.5 3.75 2.5 3.88 2.5 4L2.5 12C2.5 12.11 2.5 12.22 2.53 12.33C2.53 12.41 2.58 12.5 2.6 12.58C2.65 12.66 2.69 12.74 2.73 12.81C2.79 12.89 2.85 12.98 2.92 13.06C3 13.13 3.09 13.19 3.17 13.25C3.25 13.3 3.33 13.34 3.4 13.38C3.48 13.41 3.57 13.43 3.65 13.46C3.77 13.48 3.88 13.5 4 13.5L8.5 13.5C8.6 13.5 8.71 13.48 8.84 13.46C8.91 13.43 9 13.41 9.08 13.38C9.14 13.34 9.22 13.3 9.31 13.25C9.39 13.2 9.47 13.13 9.56 13.06C9.63 12.98 9.7 12.9 9.75 12.81C9.79 12.74 9.84 12.66 9.88 12.58C9.89 12.5 9.93 12.42 9.96 12.34C9.97 12.22 10 12.11 10 12L10 11.5C10 11.22 10.22 11 10.5 11C10.78 11 11 11.22 11 11.5ZM5 5C5 4.42 5.44 4 6 4C6.37 4 6.69 4.19 6.85 4.5L7.46 4.5C7.59 4.5 7.71 4.51 7.82 4.54C7.94 4.56 8.06 4.6 8.16 4.67C8.28 4.71 8.38 4.8 8.46 4.88C8.56 4.96 8.64 5.06 8.71 5.16L10.26 7.5L13.29 7.5L12.14 6.34C12.04 6.25 11.99 6.12 11.99 5.98C11.99 5.87 12.04 5.73 12.14 5.64C12.34 5.43 12.65 5.43 12.85 5.64L14.85 7.64C14.95 7.73 15 7.85 15 7.98C15 8.13 14.95 8.25 14.85 8.34L12.85 10.35C12.65 10.55 12.34 10.55 12.14 10.35C12.04 10.25 11.99 10.12 11.99 9.97C11.99 9.87 12.04 9.72 12.14 9.64L13.29 8.5L10.26 8.5L8.71 10.83C8.64 10.93 8.56 11.02 8.46 11.11C8.38 11.18 8.28 11.26 8.16 11.31C8.05 11.38 7.94 11.42 7.83 11.45C7.71 11.48 7.59 11.5 7.46 11.5L6.85 11.5C6.69 11.79 6.37 12 6 12C5.44 12 5 11.55 5 11C5 10.45 5.44 10 6 10C6.37 10 6.69 10.2 6.85 10.5L7.46 10.5C7.46 10.5 7.53 10.49 7.58 10.48C7.62 10.48 7.64 10.46 7.7 10.43C7.72 10.42 7.84 10.3 7.88 10.27L9.06 8.5L5.85 8.5C5.69 8.79 5.37 9 5 9C4.44 9 4 8.55 4 8C4 7.45 4.44 7 5 7C5.37 7 5.69 7.19 5.85 7.5L9.06 7.5L7.78 5.62C7.74 5.6 7.62 5.52 7.58 5.51C7.53 5.5 7.5 5.5 7.46 5.5L6.85 5.5C6.69 5.79 6.37 6 6 6C5.44 6 5 5.55 5 5Z" fill="currentColor" fill-opacity="1.000000" fill-rule="evenodd"/>
	</g>
</svg>
