<svg width="16.000000" height="16.000000" viewBox="0 0 16 16" fill="none" xmlns="http://www.w3.org/2000/svg" xmlns:xlink="http://www.w3.org/1999/xlink">
	<desc>
			Created with Pixso.
	</desc>
	<defs>
		<clipPath id="clip225_856">
			<rect id="容器镜像扫描-container-image-scan" width="16.000000" height="16.000000" fill="white" fill-opacity="0"/>
		</clipPath>
	</defs>
	<rect id="108#容器镜像扫描-container-image-scan" width="16.000000" height="16.000000" fill="#FFFFFF" fill-opacity="0"/>
	<g clip-path="url(#clip225_856)">
		<path id="_矢量-191" d="M1.5 6L1.5 4C1.5 3.81 1.5 3.63 1.55 3.46C1.59 3.31 1.63 3.16 1.69 3.02C1.75 2.88 1.82 2.75 1.91 2.62C2 2.48 2.1 2.34 2.23 2.23C2.35 2.1 2.48 2 2.62 1.91C2.75 1.82 2.88 1.75 3.02 1.69C3.16 1.63 3.31 1.59 3.46 1.55C3.63 1.51 3.81 1.5 4 1.5L6 1.5C6.28 1.5 6.5 1.71 6.5 2C6.5 2.29 6.28 2.5 6 2.5L4 2.5C3.88 2.5 3.77 2.5 3.64 2.53C3.57 2.55 3.49 2.58 3.41 2.61C3.33 2.65 3.25 2.69 3.18 2.74C3.09 2.79 3 2.86 2.93 2.93C2.86 3.01 2.78 3.09 2.74 3.18C2.69 3.25 2.64 3.33 2.61 3.41C2.58 3.49 2.55 3.57 2.53 3.65C2.5 3.77 2.5 3.88 2.5 4L2.5 6C2.5 6.28 2.28 6.5 2 6.5C1.72 6.5 1.5 6.28 1.5 6ZM10 1.5L12 1.5C12.18 1.5 12.36 1.5 12.53 1.55C12.68 1.59 12.83 1.63 12.97 1.69C13.11 1.75 13.24 1.82 13.37 1.91C13.51 2 13.64 2.1 13.76 2.23C13.88 2.34 13.99 2.48 14.08 2.62C14.17 2.75 14.24 2.88 14.3 3.02C14.36 3.16 14.4 3.31 14.44 3.46C14.48 3.63 14.5 3.81 14.5 4L14.5 6C14.5 6.28 14.28 6.5 14 6.5C13.72 6.5 13.5 6.28 13.5 6L13.5 4C13.5 3.88 13.48 3.77 13.46 3.65C13.44 3.57 13.41 3.49 13.38 3.41C13.34 3.33 13.3 3.25 13.25 3.18C13.2 3.09 13.13 3.01 13.06 2.93C12.98 2.86 12.9 2.79 12.81 2.74C12.74 2.69 12.66 2.65 12.58 2.61C12.5 2.58 12.42 2.55 12.34 2.53C12.22 2.51 12.11 2.5 12 2.5L10 2.5C9.72 2.5 9.5 2.28 9.5 2C9.5 1.72 9.72 1.5 10 1.5ZM4.78 5.27L7.25 3.85C7.36 3.78 7.48 3.73 7.61 3.7C7.73 3.67 7.86 3.65 8 3.65C8.13 3.65 8.25 3.67 8.38 3.7C8.5 3.73 8.63 3.78 8.75 3.85L11.21 5.27C11.33 5.34 11.43 5.42 11.52 5.51C11.61 5.6 11.69 5.71 11.76 5.82C11.83 5.94 11.88 6.06 11.91 6.18C11.94 6.31 11.96 6.44 11.96 6.57L11.96 9.42C11.96 9.55 11.94 9.68 11.91 9.81C11.88 9.93 11.83 10.05 11.76 10.17C11.69 10.28 11.61 10.39 11.52 10.48C11.43 10.57 11.33 10.65 11.21 10.72L8.75 12.14C8.63 12.21 8.5 12.26 8.38 12.29C8.25 12.32 8.13 12.34 8 12.34C7.86 12.34 7.73 12.32 7.61 12.29C7.48 12.26 7.36 12.21 7.25 12.14L4.78 10.72C4.66 10.65 4.56 10.57 4.46 10.48C4.38 10.39 4.3 10.28 4.23 10.17C4.16 10.05 4.11 9.93 4.08 9.81C4.05 9.68 4.03 9.55 4.03 9.42L4.03 6.57C4.03 6.44 4.05 6.31 4.08 6.18C4.11 6.06 4.16 5.94 4.23 5.82C4.3 5.71 4.38 5.6 4.46 5.51C4.56 5.42 4.66 5.34 4.78 5.27ZM5.28 6.14C5.25 6.17 5.12 6.28 5.1 6.32C5.08 6.36 5.06 6.4 5.05 6.44C5.03 6.48 5.03 6.53 5.03 6.57L5.03 9.42C5.03 9.42 5.03 9.51 5.05 9.55C5.05 9.59 5.08 9.63 5.1 9.67C5.12 9.71 5.14 9.74 5.18 9.77L7.75 11.27C7.75 11.27 7.82 11.31 7.87 11.32C7.91 11.33 7.95 11.34 8 11.34C8.03 11.34 8.08 11.33 8.12 11.32C8.17 11.32 8.21 11.3 8.25 11.27L10.71 9.85C10.71 9.85 10.78 9.8 10.81 9.77C10.84 9.74 10.87 9.71 10.89 9.67C10.91 9.63 10.93 9.59 10.94 9.55C10.95 9.51 10.96 9.46 10.96 9.42L10.96 6.57C10.96 6.57 10.95 6.48 10.94 6.44C10.94 6.4 10.91 6.36 10.89 6.32C10.86 6.29 10.75 6.16 10.71 6.14L8.25 4.71C8.25 4.71 8.17 4.67 8.12 4.67C8.08 4.66 8.03 4.65 8 4.65C7.95 4.65 7.91 4.65 7.87 4.67C7.82 4.67 7.78 4.69 7.75 4.71L5.28 6.14ZM5.96 6.63L7.63 5.7C7.86 5.57 8.13 5.57 8.35 5.7L10.03 6.63C10.22 6.75 10.22 7.04 10.03 7.16L8.35 8.09C8.13 8.22 7.86 8.22 7.63 8.09L5.96 7.16C5.75 7.04 5.75 6.75 5.96 6.63ZM2 9.5C2.28 9.5 2.5 9.71 2.5 10L2.5 12C2.5 12.11 2.5 12.22 2.53 12.34C2.55 12.42 2.58 12.5 2.61 12.58C2.64 12.66 2.69 12.74 2.74 12.81C2.78 12.9 2.86 12.98 2.92 13.06C3 13.13 3.09 13.2 3.17 13.25C3.25 13.3 3.33 13.34 3.41 13.38C3.49 13.41 3.57 13.44 3.64 13.46C3.77 13.48 3.88 13.5 4 13.5L6 13.5C6.28 13.5 6.5 13.72 6.5 14C6.5 14.28 6.28 14.5 6 14.5L4 14.5C3.81 14.5 3.63 14.48 3.46 14.44C3.31 14.4 3.16 14.36 3.02 14.3C2.88 14.24 2.75 14.17 2.62 14.08C2.48 13.99 2.35 13.88 2.23 13.76C2.1 13.64 2 13.51 1.91 13.37C1.82 13.24 1.75 13.11 1.69 12.97C1.63 12.83 1.59 12.68 1.55 12.53C1.5 12.36 1.5 12.18 1.5 12L1.5 10C1.5 9.71 1.72 9.5 2 9.5ZM14 9.5C14.28 9.5 14.5 9.71 14.5 10L14.5 12C14.5 12.18 14.48 12.36 14.44 12.53C14.4 12.68 14.36 12.83 14.3 12.97C14.24 13.11 14.17 13.24 14.08 13.37C13.99 13.51 13.88 13.64 13.76 13.76C13.64 13.88 13.51 13.99 13.37 14.08C13.24 14.17 13.11 14.24 12.97 14.3C12.83 14.36 12.68 14.4 12.53 14.44C12.36 14.48 12.18 14.5 12 14.5L10 14.5C9.72 14.5 9.5 14.28 9.5 14C9.5 13.72 9.72 13.5 10 13.5L12 13.5C12.11 13.5 12.22 13.48 12.34 13.46C12.42 13.44 12.5 13.41 12.58 13.38C12.66 13.34 12.74 13.3 12.81 13.25C12.9 13.2 12.98 13.13 13.06 13.06C13.13 12.98 13.2 12.9 13.25 12.81C13.3 12.74 13.34 12.66 13.38 12.58C13.41 12.5 13.44 12.42 13.46 12.34C13.48 12.22 13.5 12.11 13.5 12L13.5 10C13.5 9.71 13.72 9.5 14 9.5Z" fill="currentColor" fill-opacity="1.000000" fill-rule="evenodd"/>
	</g>
</svg>
