<svg width="16.000000" height="16.000000" viewBox="0 0 16 16" fill="none" xmlns="http://www.w3.org/2000/svg" xmlns:xlink="http://www.w3.org/1999/xlink">
	<desc>
			Created with Pixso.
	</desc>
	<defs>
		<clipPath id="clip225_857">
			<rect id="扩缩容-adjust-capacity" width="16.000000" height="16.000000" fill="white" fill-opacity="0"/>
		</clipPath>
	</defs>
	<rect id="109#扩缩容-adjust-capacity" width="16.000000" height="16.000000" fill="#FFFFFF" fill-opacity="0"/>
	<g clip-path="url(#clip225_857)">
		<path id="_矢量-144" d="M1.5 5.5L1.5 3C1.5 2.89 1.5 2.78 1.53 2.68C1.55 2.59 1.58 2.5 1.61 2.41C1.64 2.32 1.69 2.24 1.74 2.17C1.8 2.08 1.86 2.01 1.92 1.93C2 1.86 2.08 1.8 2.17 1.74C2.24 1.69 2.32 1.65 2.41 1.61C2.5 1.58 2.59 1.55 2.67 1.53C2.78 1.51 2.89 1.5 3 1.5L4.5 1.5C4.78 1.5 5 1.71 5 2C5 2.29 4.78 2.5 4.5 2.5L3 2.5C2.92 2.5 2.86 2.5 2.8 2.53C2.74 2.56 2.69 2.59 2.64 2.64C2.59 2.69 2.56 2.74 2.53 2.8C2.5 2.86 2.5 2.93 2.5 3L2.5 5.5C2.5 5.78 2.28 6 2 6C1.72 6 1.5 5.78 1.5 5.5ZM6.5 2.5C6.21 2.5 6 2.28 6 2C6 1.72 6.21 1.5 6.5 1.5L9.5 1.5C9.78 1.5 10 1.71 10 2C10 2.29 9.78 2.5 9.5 2.5L6.5 2.5ZM11 2C11 1.71 11.22 1.5 11.5 1.5L13 1.5C13.1 1.5 13.21 1.5 13.31 1.53C13.4 1.55 13.49 1.58 13.58 1.61C13.67 1.65 13.75 1.69 13.82 1.74C13.91 1.8 13.98 1.86 14.06 1.93C14.13 2.01 14.19 2.08 14.25 2.17C14.3 2.24 14.34 2.32 14.38 2.41C14.41 2.5 14.44 2.59 14.46 2.68C14.48 2.78 14.5 2.89 14.5 3L14.5 5.5C14.5 5.78 14.28 6 14 6C13.72 6 13.5 5.78 13.5 5.5L13.5 3C13.5 2.93 13.48 2.86 13.46 2.8C13.43 2.74 13.4 2.69 13.35 2.64C13.3 2.59 13.25 2.56 13.19 2.53C13.13 2.51 13.06 2.5 13 2.5L11.5 2.5C11.22 2.5 11 2.28 11 2ZM7.5 14.5L3 14.5C2.89 14.5 2.78 14.48 2.67 14.46C2.59 14.44 2.5 14.41 2.41 14.38C2.32 14.34 2.24 14.3 2.17 14.25C2.08 14.19 2 14.13 1.92 14.06C1.86 13.98 1.8 13.91 1.74 13.82C1.69 13.75 1.64 13.67 1.61 13.58C1.58 13.49 1.55 13.4 1.53 13.31C1.5 13.21 1.5 13.1 1.5 13L1.5 8C1.5 7.89 1.5 7.78 1.53 7.68C1.55 7.59 1.58 7.5 1.61 7.41C1.64 7.32 1.69 7.24 1.74 7.17C1.8 7.08 1.86 7.01 1.92 6.93C2 6.86 2.08 6.8 2.17 6.74C2.24 6.69 2.32 6.65 2.41 6.61C2.5 6.58 2.59 6.55 2.67 6.53C2.78 6.51 2.89 6.5 3 6.5L14 6.5C14.28 6.5 14.5 6.71 14.5 7C14.5 7.29 14.28 7.5 14 7.5L3 7.5C2.92 7.5 2.86 7.51 2.8 7.53C2.74 7.56 2.69 7.59 2.64 7.64C2.59 7.69 2.56 7.74 2.53 7.8C2.5 7.86 2.5 7.93 2.5 8L2.5 13C2.5 13.06 2.5 13.13 2.53 13.19C2.56 13.25 2.59 13.3 2.64 13.35C2.69 13.4 2.74 13.43 2.8 13.46C2.86 13.48 2.92 13.5 3 13.5L7.5 13.5C7.78 13.5 8 13.72 8 14C8 14.28 7.78 14.5 7.5 14.5ZM4 9.5C4 9.22 4.21 9 4.5 9C4.78 9 5 9.22 5 9.5L5 11.5C5 11.77 4.77 12 4.5 12C4.23 12 4 11.77 4 11.5L4 9.5ZM6 9.5C6 9.22 6.22 9 6.5 9C6.78 9 7 9.22 7 9.5L7 11.5C7 11.77 6.77 12 6.5 12C6.23 12 6 11.77 6 11.5L6 9.5ZM11.89 9.33L13.9 9.43C14.16 9.45 14.36 9.66 14.37 9.91L14.48 11.92C14.48 12.19 14.28 12.43 14.01 12.45C13.74 12.46 13.5 12.25 13.49 11.98L13.44 11.08L13.01 11.51L11.09 13.43L11.98 13.48C12.25 13.5 12.45 13.72 12.45 13.98C12.44 14.26 12.2 14.5 11.92 14.48L9.91 14.37C9.66 14.36 9.45 14.15 9.43 13.9L9.33 11.89C9.33 11.62 9.62 11.38 9.89 11.37C10.13 11.39 10.32 11.59 10.33 11.83L10.38 12.73L10.8 12.3L12.73 10.38L11.84 10.33C11.59 10.31 11.4 10.13 11.37 9.89C11.38 9.6 11.62 9.31 11.89 9.33Z" fill="currentColor" fill-opacity="1.000000" fill-rule="evenodd"/>
	</g>
</svg>
