<svg width="16.000000" height="16.000000" viewBox="0 0 16 16" fill="none" xmlns="http://www.w3.org/2000/svg" xmlns:xlink="http://www.w3.org/1999/xlink">
	<desc>
			Created with Pixso.
	</desc>
	<defs>
		<clipPath id="clip225_858">
			<rect id="创建磁盘-create-disk" width="16.000000" height="16.000000" fill="white" fill-opacity="0"/>
		</clipPath>
	</defs>
	<rect id="110#创建磁盘-create-disk" width="16.000000" height="16.000000" fill="#FFFFFF" fill-opacity="0"/>
	<g clip-path="url(#clip225_858)">
		<path id="_矢量-143" d="M8.25 14.25L3.75 14.25C3.56 14.25 3.38 14.23 3.21 14.19C3.06 14.15 2.91 14.11 2.77 14.05C2.63 13.99 2.5 13.92 2.36 13.83C2.23 13.74 2.09 13.63 1.98 13.51C1.86 13.39 1.75 13.26 1.66 13.12C1.57 12.99 1.5 12.86 1.44 12.72C1.38 12.58 1.34 12.43 1.3 12.28C1.26 12.11 1.25 11.93 1.25 11.75L1.25 3.75C1.25 3.56 1.25 3.38 1.3 3.21C1.34 3.06 1.38 2.91 1.44 2.77C1.5 2.63 1.57 2.5 1.66 2.36C1.75 2.23 1.86 2.09 1.98 1.98C2.09 1.86 2.23 1.75 2.36 1.66C2.5 1.57 2.63 1.5 2.77 1.44C2.91 1.38 3.06 1.34 3.21 1.3C3.38 1.26 3.56 1.25 3.75 1.25L11.75 1.25C11.93 1.25 12.11 1.25 12.28 1.3C12.43 1.34 12.58 1.38 12.72 1.44C12.86 1.5 12.99 1.57 13.12 1.66C13.26 1.75 13.39 1.86 13.51 1.98C13.63 2.09 13.74 2.23 13.83 2.36C13.92 2.5 13.99 2.63 14.05 2.77C14.11 2.91 14.15 3.06 14.19 3.21C14.23 3.38 14.25 3.56 14.25 3.75L14.25 8.25C14.25 8.53 14.03 8.75 13.75 8.75C13.47 8.75 13.25 8.53 13.25 8.25L13.25 3.75C13.25 3.63 13.23 3.52 13.21 3.4C13.19 3.32 13.16 3.24 13.13 3.16C13.09 3.08 13.05 3 13 2.93C12.95 2.84 12.88 2.76 12.81 2.68C12.73 2.61 12.65 2.54 12.56 2.49C12.49 2.44 12.41 2.4 12.33 2.35C12.25 2.33 12.17 2.3 12.09 2.28C11.97 2.26 11.86 2.25 11.75 2.25L11.75 5.25C11.75 5.35 11.73 5.46 11.71 5.56C11.69 5.65 11.66 5.74 11.63 5.83C11.59 5.92 11.55 6 11.5 6.07C11.44 6.16 11.38 6.23 11.31 6.31C11.23 6.38 11.16 6.44 11.07 6.5C11 6.55 10.92 6.59 10.83 6.63C10.74 6.66 10.65 6.69 10.56 6.71C10.46 6.73 10.35 6.75 10.25 6.75L5.25 6.75C5.14 6.75 5.03 6.73 4.92 6.71C4.84 6.69 4.75 6.66 4.66 6.63C4.57 6.59 4.48 6.55 4.42 6.5C4.33 6.44 4.26 6.38 4.17 6.31C4.11 6.23 4.05 6.16 3.99 6.07C3.94 6 3.9 5.92 3.86 5.83C3.83 5.74 3.8 5.65 3.78 5.56C3.76 5.46 3.75 5.35 3.75 5.25L3.75 2.25C3.63 2.25 3.52 2.25 3.4 2.28C3.32 2.3 3.24 2.33 3.16 2.35C3.08 2.4 3 2.44 2.93 2.49C2.84 2.54 2.76 2.61 2.68 2.68C2.61 2.76 2.54 2.84 2.49 2.93C2.44 3 2.4 3.08 2.35 3.16C2.33 3.24 2.3 3.32 2.28 3.4C2.26 3.52 2.25 3.63 2.25 3.75L2.25 11.75C2.25 11.86 2.25 11.97 2.28 12.09C2.3 12.17 2.33 12.25 2.35 12.33C2.4 12.41 2.44 12.49 2.49 12.56C2.54 12.65 2.61 12.73 2.68 12.81C2.76 12.88 2.84 12.95 2.93 13C3 13.05 3.08 13.09 3.16 13.13C3.24 13.16 3.32 13.19 3.4 13.21C3.52 13.23 3.63 13.25 3.75 13.25L8.25 13.25C8.53 13.25 8.75 13.47 8.75 13.75C8.75 14.03 8.53 14.25 8.25 14.25ZM4.75 2.25L10.75 2.25L10.75 5.25C10.75 5.31 10.73 5.38 10.71 5.44C10.68 5.5 10.65 5.55 10.6 5.6C10.55 5.65 10.5 5.68 10.44 5.71C10.38 5.73 10.31 5.75 10.25 5.75L5.25 5.75C5.18 5.75 5.11 5.73 5.05 5.71C4.98 5.68 4.94 5.65 4.89 5.6C4.84 5.55 4.81 5.5 4.78 5.44C4.76 5.38 4.75 5.31 4.75 5.25L4.75 2.25ZM9.75 3.5C9.75 3.22 9.52 3 9.25 3C8.97 3 8.75 3.22 8.75 3.5L8.75 4.5C8.75 4.77 8.97 5 9.25 5C9.53 5 9.75 4.77 9.75 4.5L9.75 3.5ZM12.75 10.25C12.75 9.97 12.52 9.75 12.25 9.75C11.98 9.75 11.75 9.97 11.75 10.25L11.75 11.75L10.25 11.75C9.97 11.75 9.75 11.97 9.75 12.25C9.75 12.53 9.97 12.75 10.25 12.75L11.75 12.75L11.75 14.25C11.75 14.52 11.97 14.75 12.25 14.75C12.53 14.75 12.75 14.52 12.75 14.25L12.75 12.75L14.25 12.75C14.52 12.75 14.75 12.52 14.75 12.25C14.75 11.98 14.52 11.75 14.25 11.75L12.75 11.75L12.75 10.25Z" fill="currentColor" fill-opacity="1.000000" fill-rule="evenodd"/>
	</g>
</svg>
