<svg width="16.000000" height="16.000000" viewBox="0 0 16 16" fill="none" xmlns="http://www.w3.org/2000/svg" xmlns:xlink="http://www.w3.org/1999/xlink">
	<desc>
			Created with Pixso.
	</desc>
	<defs>
		<clipPath id="clip225_872">
			<rect id="数据保留-data-retention" width="16.000000" height="16.000000" fill="white" fill-opacity="0"/>
		</clipPath>
	</defs>
	<rect id="111#数据保留-data-retain" width="16.000000" height="16.000000" fill="#FFFFFF" fill-opacity="0"/>
	<g clip-path="url(#clip225_872)">
		<path id="_矢量-205" d="M12 1.5C12.18 1.5 12.36 1.5 12.53 1.55C12.67 1.58 12.83 1.63 12.97 1.68C13.11 1.75 13.24 1.81 13.37 1.91C13.51 2 13.64 2.09 13.76 2.22C13.88 2.33 13.99 2.47 14.08 2.62C14.17 2.75 14.24 2.88 14.3 3.02C14.36 3.16 14.4 3.31 14.44 3.45C14.48 3.63 14.5 3.81 14.5 4L14.5 12C14.5 12.18 14.48 12.36 14.44 12.53C14.4 12.67 14.36 12.83 14.3 12.97C14.24 13.11 14.17 13.24 14.08 13.37C13.99 13.51 13.88 13.64 13.76 13.76C13.64 13.88 13.51 13.99 13.37 14.08C13.24 14.17 13.11 14.24 12.97 14.3C12.83 14.36 12.68 14.4 12.53 14.43C12.36 14.48 12.18 14.5 12 14.5L4 14.5C3.81 14.5 3.63 14.48 3.46 14.43C3.31 14.4 3.15 14.36 3.02 14.3C2.88 14.24 2.75 14.17 2.62 14.08C2.47 13.99 2.33 13.88 2.22 13.76C2.09 13.64 2 13.51 1.9 13.37C1.82 13.24 1.75 13.11 1.69 12.97C1.63 12.83 1.59 12.68 1.54 12.53C1.51 12.36 1.5 12.18 1.5 12L1.5 4C1.5 3.81 1.5 3.63 1.54 3.45C1.59 3.31 1.63 3.16 1.69 3.02C1.75 2.88 1.82 2.75 1.9 2.62C2 2.47 2.09 2.33 2.22 2.22C2.33 2.09 2.47 2 2.62 1.91C2.75 1.81 2.88 1.75 3.02 1.68C3.15 1.63 3.31 1.58 3.46 1.55C3.63 1.51 3.81 1.5 4 1.5L12 1.5ZM5 2.5L5 5.5C5 5.56 5.01 5.63 5.03 5.68C5.06 5.75 5.09 5.8 5.14 5.84C5.19 5.9 5.23 5.93 5.29 5.95C5.35 5.97 5.42 6 5.5 6L10.5 6C10.56 6 10.63 5.97 10.69 5.95C10.75 5.93 10.8 5.9 10.85 5.84C10.9 5.8 10.93 5.75 10.96 5.68C10.98 5.63 11 5.56 11 5.5L11 2.5L5 2.5ZM12 2.5L12 5.5C12 5.59 11.98 5.7 11.96 5.81C11.94 5.9 11.91 5.98 11.88 6.07C11.84 6.17 11.8 6.25 11.75 6.31C11.69 6.41 11.63 6.47 11.56 6.56C11.48 6.63 11.41 6.68 11.32 6.75C11.25 6.8 11.17 6.83 11.08 6.88C10.99 6.91 10.9 6.93 10.81 6.95C10.71 6.97 10.6 7 10.5 7L5.5 7C5.39 7 5.28 6.97 5.17 6.95C5.09 6.93 5 6.91 4.9 6.88C4.82 6.83 4.73 6.8 4.66 6.75C4.58 6.68 4.51 6.63 4.42 6.56C4.35 6.47 4.29 6.41 4.23 6.31C4.19 6.25 4.15 6.17 4.1 6.07C4.08 5.98 4.04 5.9 4.03 5.81C4.01 5.7 4 5.59 4 5.5L4 2.5C3.88 2.5 3.76 2.5 3.65 2.53C3.58 2.55 3.48 2.57 3.4 2.6C3.33 2.65 3.25 2.68 3.17 2.73C3.09 2.79 3.01 2.85 2.92 2.93C2.85 3.01 2.79 3.09 2.73 3.18C2.69 3.25 2.65 3.32 2.6 3.41C2.58 3.48 2.54 3.56 2.53 3.65C2.51 3.75 2.5 3.88 2.5 4L2.5 12C2.5 12.11 2.5 12.22 2.53 12.33C2.53 12.41 2.58 12.5 2.6 12.58C2.65 12.66 2.69 12.74 2.73 12.81C2.79 12.89 2.85 12.98 2.92 13.06C3.01 13.13 3.09 13.19 3.17 13.25C3.25 13.3 3.33 13.34 3.4 13.38C3.48 13.41 3.57 13.43 3.65 13.46C3.77 13.48 3.88 13.5 4 13.5L12 13.5C12.11 13.5 12.22 13.48 12.34 13.46C12.42 13.43 12.5 13.41 12.58 13.38C12.66 13.34 12.74 13.3 12.81 13.25C12.89 13.19 12.98 13.13 13.06 13.06C13.13 12.98 13.2 12.9 13.25 12.81C13.3 12.74 13.34 12.66 13.38 12.58C13.41 12.5 13.44 12.42 13.46 12.34C13.48 12.22 13.5 12.11 13.5 12L13.5 4C13.5 3.88 13.48 3.77 13.46 3.65C13.44 3.56 13.41 3.48 13.38 3.41C13.34 3.32 13.3 3.25 13.25 3.18C13.2 3.08 13.13 3.01 13.06 2.93C12.98 2.85 12.9 2.79 12.81 2.73C12.74 2.68 12.66 2.65 12.58 2.6C12.5 2.57 12.42 2.55 12.34 2.53C12.22 2.51 12.11 2.5 12 2.5ZM10 3.75L10 4.75C10 5.03 9.78 5.25 9.5 5.25C9.22 5.25 9 5.03 9 4.75L9 3.75C9 3.46 9.21 3.25 9.5 3.25C9.79 3.25 10 3.46 10 3.75ZM6 9C6 8.43 6.44 8 7 8C7.56 8 8 8.43 8 9C8 9.07 7.97 9.17 7.96 9.25L8.72 10.03C8.82 10.01 8.89 10 9 10C9.08 10 9.16 10.01 9.25 10.03L10.03 9.25C10.01 9.17 10 9.07 10 9C10 8.43 10.44 8 11 8C11.56 8 12 8.43 12 9C12 9.57 11.55 10 11 10C10.91 10 10.82 9.97 10.74 9.95L9.96 10.74C9.97 10.81 10 10.91 10 11C10 11.55 9.54 12 9 12C8.43 12 8 11.55 8 11C8 10.91 8.01 10.81 8.03 10.74L7.25 9.95C7.16 9.97 7.08 10 7 10C6.9 10 6.82 9.97 6.73 9.95L5.96 10.74C5.96 10.81 6 10.91 6 11C6 11.55 5.54 12 5 12C4.46 12 4 11.55 4 11C4 10.45 4.44 10 5 10C5.08 10 5.16 10.01 5.25 10.03L6.03 9.25C6.01 9.17 6 9.07 6 9Z" fill="currentColor" fill-opacity="1.000000" fill-rule="evenodd"/>
	</g>
</svg>
