<svg width="16.000000" height="16.000000" viewBox="0 0 16 16" fill="none" xmlns="http://www.w3.org/2000/svg" xmlns:xlink="http://www.w3.org/1999/xlink">
	<desc>
			Created with Pixso.
	</desc>
	<defs>
		<clipPath id="clip225_859">
			<rect id="沙箱-sandbox" width="16.000000" height="16.000000" fill="white" fill-opacity="0"/>
		</clipPath>
	</defs>
	<rect id="112#沙箱-sandbox" width="16.000000" height="16.000000" fill="#FFFFFF" fill-opacity="0"/>
	<g clip-path="url(#clip225_859)">
		<path id="_矢量-207" d="M1.73 4.23L3 2.48C3.11 2.33 3.25 2.19 3.39 2.07C3.54 1.95 3.7 1.84 3.88 1.76C4.05 1.67 4.23 1.6 4.42 1.56C4.6 1.52 4.79 1.5 4.98 1.5L11 1.5C11.2 1.5 11.39 1.52 11.57 1.56C11.76 1.6 11.94 1.67 12.11 1.76C12.29 1.84 12.45 1.95 12.6 2.07C12.74 2.19 12.88 2.33 12.99 2.48L14.26 4.23C14.38 4.35 14.49 4.48 14.58 4.62C14.67 4.75 14.74 4.88 14.8 5.02C14.86 5.16 14.9 5.31 14.94 5.46C14.98 5.63 15 5.81 15 6L15 12C15 12.18 14.98 12.36 14.94 12.53C14.9 12.68 14.86 12.83 14.8 12.97C14.74 13.11 14.67 13.24 14.58 13.37C14.49 13.51 14.38 13.64 14.26 13.76C14.14 13.88 14.01 13.99 13.87 14.08C13.74 14.17 13.61 14.24 13.47 14.3C13.33 14.36 13.18 14.4 13.03 14.44C12.86 14.48 12.68 14.5 12.5 14.5L3.5 14.5C3.31 14.5 3.13 14.48 2.96 14.44C2.81 14.4 2.66 14.36 2.52 14.3C2.38 14.24 2.25 14.17 2.11 14.08C1.98 13.99 1.85 13.88 1.73 13.76C1.61 13.64 1.5 13.51 1.41 13.37C1.32 13.24 1.25 13.11 1.19 12.97C1.13 12.83 1.09 12.68 1.04 12.53C1.01 12.36 1 12.18 1 12L1 6C1 5.81 1 5.63 1.04 5.46C1.09 5.31 1.13 5.16 1.19 5.02C1.25 4.88 1.32 4.75 1.41 4.62C1.5 4.48 1.61 4.35 1.73 4.23ZM3.48 3.5L12.51 3.5L12.2 3.09C12.13 2.99 12.05 2.91 11.96 2.84C11.87 2.77 11.77 2.7 11.67 2.65C11.56 2.6 11.46 2.56 11.35 2.53C11.23 2.51 11.12 2.5 11 2.5L4.98 2.5C4.87 2.5 4.76 2.5 4.64 2.53C4.53 2.56 4.42 2.6 4.32 2.65C4.21 2.7 4.12 2.77 4.03 2.84C3.94 2.91 3.86 2.99 3.79 3.09L3.48 3.5ZM3.5 4.5L12.5 4.5C12.61 4.5 12.72 4.51 12.84 4.53C12.92 4.55 13 4.58 13.08 4.61C13.16 4.65 13.24 4.69 13.31 4.73C13.4 4.79 13.48 4.86 13.56 4.92C13.63 5.01 13.7 5.09 13.75 5.18C13.8 5.25 13.84 5.33 13.88 5.41C13.91 5.49 13.94 5.57 13.96 5.65C13.98 5.77 14 5.88 14 6L14 12C14 12.11 13.99 12.22 13.96 12.33C13.94 12.42 13.91 12.5 13.88 12.58C13.84 12.66 13.8 12.74 13.75 12.81C13.7 12.9 13.63 12.98 13.56 13.06C13.48 13.13 13.4 13.2 13.31 13.25C13.24 13.3 13.16 13.34 13.08 13.38C13 13.41 12.92 13.44 12.84 13.46C12.72 13.48 12.61 13.5 12.5 13.5L3.5 13.5C3.38 13.5 3.26 13.49 3.15 13.46C3.07 13.44 2.99 13.41 2.91 13.38C2.83 13.34 2.75 13.3 2.68 13.25C2.59 13.2 2.51 13.13 2.43 13.06C2.35 12.98 2.29 12.9 2.24 12.81C2.19 12.74 2.15 12.66 2.1 12.58C2.08 12.5 2.05 12.42 2.03 12.34C2.01 12.22 2 12.11 2 12L2 6C2 5.88 2 5.77 2.03 5.65C2.05 5.57 2.08 5.49 2.1 5.41C2.15 5.33 2.19 5.25 2.24 5.18C2.29 5.09 2.35 5.01 2.43 4.92C2.51 4.86 2.59 4.79 2.68 4.73C2.75 4.69 2.83 4.65 2.91 4.61C2.99 4.58 3.07 4.55 3.15 4.53C3.27 4.51 3.38 4.5 3.5 4.5ZM5.1 6.7L3.6 8.7C3.53 8.78 3.5 8.88 3.5 9C3.5 9.1 3.53 9.21 3.6 9.3L5.1 11.3C5.26 11.52 5.57 11.56 5.8 11.4C6.02 11.23 6.06 10.92 5.9 10.7L4.62 9L5.9 7.3C6.06 7.07 6.02 6.76 5.8 6.59C5.57 6.43 5.26 6.47 5.1 6.7ZM10.9 6.7L12.4 8.7C12.46 8.78 12.5 8.88 12.5 9C12.5 9.1 12.46 9.21 12.4 9.3L10.9 11.3C10.73 11.52 10.42 11.56 10.2 11.4C9.97 11.23 9.93 10.92 10.1 10.7L11.37 9L10.1 7.3C9.93 7.07 9.97 6.76 10.2 6.59C10.42 6.43 10.73 6.47 10.9 6.7ZM7.37 11.48C7.1 11.41 6.94 11.15 7.01 10.87L8.01 6.87C8.08 6.6 8.34 6.44 8.62 6.51C8.89 6.58 9.05 6.84 8.97 7.12L7.98 11.12C7.91 11.39 7.65 11.55 7.37 11.48Z" fill="currentColor" fill-opacity="1.000000" fill-rule="evenodd"/>
	</g>
</svg>
