<svg width="16.000000" height="16.000000" viewBox="0 0 16 16" fill="none" xmlns="http://www.w3.org/2000/svg" xmlns:xlink="http://www.w3.org/1999/xlink">
	<desc>
			Created with Pixso.
	</desc>
	<defs>
		<clipPath id="clip225_860">
			<rect id="白名单配置-safelist-configuration" width="16.000000" height="16.000000" fill="white" fill-opacity="0"/>
		</clipPath>
	</defs>
	<rect id="113#白名单配置-safelist-config" width="16.000000" height="16.000000" fill="#FFFFFF" fill-opacity="0"/>
	<g clip-path="url(#clip225_860)">
		<path id="_矢量-208" d="M12.03 1.04C11.86 1.01 11.68 1 11.5 1L4.5 1C4.31 1 4.13 1 3.96 1.04C3.81 1.09 3.66 1.13 3.52 1.19C3.38 1.25 3.25 1.32 3.12 1.41C2.98 1.5 2.85 1.61 2.73 1.73C2.61 1.85 2.5 1.98 2.41 2.11C2.32 2.25 2.25 2.38 2.19 2.52C2.13 2.66 2.08 2.81 2.05 2.96C2.01 3.13 2 3.31 2 3.5L2 12.5C2 12.68 2 12.86 2.05 13.03C2.08 13.18 2.13 13.33 2.19 13.47C2.25 13.61 2.32 13.74 2.41 13.87C2.5 14.01 2.61 14.14 2.73 14.26C2.85 14.38 2.98 14.49 3.12 14.58C3.25 14.67 3.38 14.74 3.52 14.8C3.66 14.86 3.81 14.9 3.96 14.94C4.13 14.98 4.31 15 4.5 15L11.5 15C11.68 15 11.86 14.98 12.03 14.94C12.18 14.9 12.33 14.86 12.47 14.8C12.61 14.74 12.74 14.67 12.87 14.58C13.01 14.49 13.14 14.38 13.26 14.26C13.38 14.14 13.49 14.01 13.58 13.87C13.67 13.74 13.74 13.61 13.8 13.47C13.86 13.33 13.9 13.18 13.94 13.03C13.98 12.86 14 12.68 14 12.5L14 3.5C14 3.31 13.98 3.13 13.94 2.96C13.9 2.81 13.86 2.66 13.8 2.52C13.74 2.38 13.67 2.25 13.58 2.11C13.49 1.98 13.38 1.85 13.26 1.73C13.14 1.61 13.01 1.5 12.87 1.41C12.74 1.32 12.61 1.25 12.47 1.19C12.33 1.13 12.18 1.09 12.03 1.04ZM4.5 2L11.5 2C11.61 2 11.72 2 11.84 2.03C11.92 2.05 12 2.08 12.08 2.1C12.16 2.15 12.24 2.19 12.31 2.24C12.4 2.29 12.48 2.35 12.56 2.43C12.63 2.51 12.7 2.59 12.75 2.68C12.8 2.75 12.84 2.83 12.88 2.91C12.91 2.99 12.94 3.07 12.96 3.15C12.98 3.27 13 3.38 13 3.5L13 12.5C13 12.61 12.99 12.72 12.96 12.83C12.94 12.92 12.91 13 12.88 13.08C12.84 13.16 12.8 13.24 12.75 13.31C12.7 13.4 12.63 13.48 12.56 13.56C12.48 13.63 12.4 13.7 12.31 13.75C12.24 13.8 12.16 13.84 12.08 13.88C12 13.91 11.92 13.94 11.84 13.96C11.72 13.98 11.61 14 11.5 14L4.5 14C4.38 14 4.26 13.99 4.15 13.96C4.07 13.94 3.99 13.91 3.91 13.88C3.83 13.84 3.75 13.8 3.68 13.75C3.59 13.7 3.51 13.63 3.43 13.56C3.36 13.48 3.29 13.4 3.24 13.31C3.19 13.24 3.15 13.16 3.11 13.08C3.08 13 3.05 12.92 3.03 12.84C3.01 12.72 3 12.61 3 12.5L3 3.5C3 3.38 3 3.27 3.03 3.15C3.05 3.07 3.08 2.99 3.11 2.91C3.15 2.83 3.19 2.75 3.24 2.68C3.29 2.59 3.36 2.51 3.43 2.43C3.51 2.35 3.59 2.29 3.68 2.24C3.75 2.19 3.83 2.15 3.91 2.1C3.99 2.08 4.07 2.05 4.15 2.03C4.27 2.01 4.38 2 4.5 2ZM10.91 8.99L8.85 8.64C8.79 8.64 8.72 8.6 8.68 8.58C8.63 8.55 8.58 8.5 8.54 8.43C8.46 8.33 8.43 8.21 8.45 8.07C8.46 8.01 8.47 7.96 8.51 7.9C8.54 7.85 8.58 7.81 8.63 7.77C8.68 7.72 8.74 7.66 8.79 7.6C8.83 7.55 8.87 7.49 8.89 7.43C8.92 7.37 8.95 7.31 8.96 7.24C8.97 7.16 8.99 7.08 8.99 7L8.99 6C8.99 5.92 8.99 5.84 8.97 5.76C8.96 5.71 8.93 5.66 8.92 5.61C8.89 5.55 8.87 5.5 8.83 5.45C8.8 5.39 8.75 5.34 8.7 5.29C8.64 5.24 8.6 5.19 8.54 5.16C8.49 5.12 8.43 5.1 8.38 5.07C8.33 5.05 8.28 5.03 8.22 5.02C8.14 5 8.07 5 7.99 5C7.92 5 7.84 5 7.76 5.02C7.71 5.03 7.66 5.05 7.61 5.07C7.55 5.1 7.5 5.12 7.45 5.16C7.39 5.19 7.34 5.24 7.29 5.29C7.24 5.34 7.19 5.39 7.15 5.45C7.12 5.5 7.1 5.55 7.07 5.61C7.05 5.66 7.03 5.71 7.02 5.76C7 5.84 6.99 5.92 6.99 6L6.99 7C6.99 7.08 7 7.16 7.02 7.24C7.04 7.31 7.06 7.37 7.09 7.43C7.12 7.49 7.16 7.55 7.2 7.6C7.25 7.66 7.3 7.72 7.36 7.77C7.47 7.86 7.53 7.97 7.54 8.1C7.55 8.24 7.52 8.37 7.43 8.47C7.39 8.52 7.34 8.56 7.29 8.59C7.24 8.62 7.18 8.64 7.12 8.64L5.91 8.85C5.85 8.85 5.8 8.88 5.75 8.91C5.7 8.93 5.65 8.97 5.61 9.02C5.57 9.07 5.54 9.12 5.52 9.17C5.5 9.22 5.49 9.28 5.49 9.34L5.49 10.5C5.49 10.57 5.5 10.63 5.53 10.69C5.56 10.75 5.59 10.8 5.64 10.85C5.69 10.9 5.74 10.93 5.8 10.96C5.86 10.98 5.93 11 5.99 11L7.5 11C7.78 11 8 11.22 8 11.5C8 11.78 7.78 12 7.5 12L5.99 12C5.89 12 5.78 11.98 5.68 11.96C5.59 11.94 5.5 11.91 5.41 11.88C5.32 11.84 5.24 11.8 5.17 11.75C5.08 11.69 5.01 11.63 4.92 11.56C4.86 11.48 4.8 11.41 4.73 11.32C4.69 11.25 4.65 11.17 4.61 11.08C4.58 10.99 4.55 10.9 4.53 10.81C4.51 10.71 4.48 10.6 4.48 10.5L4.48 9.34C4.48 9.25 4.5 9.14 4.52 9.06C4.54 8.97 4.56 8.89 4.59 8.82C4.62 8.74 4.65 8.66 4.69 8.59C4.73 8.51 4.79 8.43 4.85 8.37C4.91 8.3 4.96 8.24 5.04 8.18C5.1 8.13 5.17 8.08 5.25 8.04C5.32 8 5.4 7.96 5.47 7.93C5.56 7.9 5.65 7.88 5.75 7.86L6.16 7.79C6.11 7.69 6.08 7.58 6.05 7.47C6.01 7.31 5.99 7.16 5.99 7L5.99 6C5.99 5.85 6.01 5.71 6.04 5.57C6.07 5.45 6.1 5.33 6.15 5.22C6.2 5.1 6.26 4.98 6.32 4.89C6.39 4.78 6.48 4.67 6.57 4.58C6.67 4.48 6.77 4.4 6.88 4.33C6.98 4.26 7.09 4.19 7.21 4.15C7.32 4.1 7.44 4.07 7.56 4.04C7.7 4.01 7.84 4 7.98 4C8.13 4 8.27 4.01 8.41 4.04C8.53 4.07 8.64 4.1 8.76 4.15C8.88 4.19 8.99 4.26 9.09 4.33C9.2 4.4 9.3 4.48 9.39 4.58C9.5 4.67 9.58 4.78 9.64 4.89C9.72 4.98 9.78 5.1 9.83 5.22C9.88 5.33 9.91 5.45 9.93 5.57C9.97 5.71 9.97 5.85 9.97 6L9.97 7C9.97 7.16 9.97 7.31 9.93 7.47C9.89 7.58 9.87 7.68 9.82 7.79L11.07 8C11.34 8.05 11.52 8.3 11.48 8.58C11.43 8.85 11.19 9.03 10.91 8.99ZM11.85 10.35C12.04 10.14 12.04 9.84 11.85 9.64C11.65 9.43 11.34 9.43 11.14 9.64L9.99 10.79L9.35 10.14C9.14 9.93 8.84 9.93 8.64 10.14C8.43 10.34 8.43 10.65 8.64 10.85L9.64 11.85C9.74 11.94 9.85 11.99 9.99 11.99C10.13 11.99 10.25 11.94 10.35 11.85L11.85 10.35Z" fill="currentColor" fill-opacity="1.000000" fill-rule="evenodd"/>
	</g>
</svg>
