<svg width="16.000000" height="16.000000" viewBox="0 0 16 16" fill="none" xmlns="http://www.w3.org/2000/svg" xmlns:xlink="http://www.w3.org/1999/xlink">
	<desc>
			Created with Pixso.
	</desc>
	<defs>
		<clipPath id="clip225_862">
			<rect id="数据集-collection" width="16.000000" height="16.000000" fill="white" fill-opacity="0"/>
		</clipPath>
	</defs>
	<rect id="114#数据库|数据集-db" width="16.000000" height="16.000000" fill="#FFFFFF" fill-opacity="0"/>
	<g clip-path="url(#clip225_862)">
		<path id="_矢量-142" d="M1.5 3.5C1.5 2.1 4.41 1 8 1C11.59 1 14.5 2.1 14.5 3.5L14.5 12.5C14.5 12.57 14.49 12.65 14.47 12.73C14.41 13.07 14.19 13.38 13.83 13.67C13.48 13.94 13 14.18 12.4 14.38C11.81 14.58 11.15 14.73 10.4 14.83C9.63 14.94 8.83 15 8 15C7.17 15 6.36 14.94 5.59 14.83C4.84 14.73 4.17 14.58 3.59 14.38C2.99 14.18 2.51 13.94 2.16 13.67C1.8 13.38 1.58 13.07 1.52 12.73C1.5 12.65 1.5 12.57 1.5 12.5L1.5 3.5ZM2.5 4.83L2.5 6.5C2.5 6.5 2.5 6.58 2.54 6.64C2.59 6.71 2.67 6.8 2.78 6.88C3.03 7.08 3.41 7.27 3.91 7.43C4.44 7.61 5.04 7.75 5.73 7.84C6.45 7.94 7.2 8 8 8C8.8 8 9.54 7.94 10.26 7.84C10.95 7.75 11.55 7.61 12.08 7.43C12.58 7.27 12.96 7.08 13.21 6.88C13.32 6.8 13.4 6.71 13.45 6.64C13.48 6.58 13.5 6.54 13.5 6.5L13.5 4.83C12.34 5.53 10.31 6 8 6C5.69 6 3.65 5.53 2.5 4.83ZM13.5 3.5C13.5 4.32 11.03 5 8 5C4.96 5 2.5 4.32 2.5 3.5C2.5 2.68 4.96 2 8 2C11.04 2 13.5 2.67 13.5 3.5ZM12.4 8.38C12.83 8.24 13.19 8.08 13.5 7.9L13.5 9.5C13.5 9.5 13.48 9.58 13.45 9.64C13.4 9.71 13.32 9.8 13.21 9.88C12.96 10.08 12.58 10.27 12.08 10.43C11.55 10.61 10.95 10.75 10.26 10.84C9.54 10.94 8.79 11 8 11C7.21 11 6.45 10.94 5.73 10.84C5.04 10.75 4.44 10.61 3.91 10.43C3.41 10.27 3.03 10.08 2.78 9.88C2.67 9.8 2.59 9.71 2.54 9.64C2.51 9.58 2.5 9.54 2.5 9.5L2.5 7.9C2.8 8.08 3.16 8.24 3.59 8.38C4.17 8.58 4.84 8.72 5.59 8.83C6.36 8.93 7.16 9 8 9C8.84 9 9.63 8.93 10.4 8.83C11.15 8.72 11.81 8.58 12.4 8.38ZM13.5 10.9C13.19 11.08 12.83 11.24 12.4 11.38C11.81 11.58 11.15 11.73 10.4 11.83C9.63 11.94 8.83 12 8 12C7.17 12 6.36 11.94 5.59 11.83C4.84 11.73 4.17 11.58 3.59 11.38C3.16 11.24 2.8 11.08 2.5 10.9L2.5 12.5C2.5 12.5 2.5 12.58 2.54 12.64C2.59 12.71 2.67 12.8 2.78 12.88C3.03 13.08 3.41 13.27 3.91 13.43C4.44 13.61 5.04 13.75 5.73 13.84C6.45 13.94 7.2 14 8 14C8.8 14 9.54 13.94 10.26 13.84C10.95 13.75 11.55 13.61 12.08 13.43C12.58 13.27 12.96 13.08 13.21 12.88C13.32 12.8 13.4 12.71 13.45 12.64C13.48 12.58 13.5 12.54 13.5 12.5L13.5 10.9Z" fill="currentColor" fill-opacity="1.000000" fill-rule="evenodd"/>
	</g>
</svg>
