<svg width="16.000000" height="16.000000" viewBox="0 0 16 16" fill="none" xmlns="http://www.w3.org/2000/svg" xmlns:xlink="http://www.w3.org/1999/xlink">
	<desc>
			Created with Pixso.
	</desc>
	<defs>
		<clipPath id="clip225_861">
			<rect id="创建数据集-create-collection" width="16.000000" height="16.000000" fill="white" fill-opacity="0"/>
		</clipPath>
	</defs>
	<rect id="115#创建数据集/库-create-db" width="16.000000" height="16.000000" fill="#FFFFFF" fill-opacity="0"/>
	<g clip-path="url(#clip225_861)">
		<path id="_矢量-143-_边框_" d="M5.59 14.83C6.36 14.94 7.16 15 8 15C8.28 15 8.5 14.78 8.5 14.5C8.5 14.22 8.28 14 8 14C7.2 14 6.45 13.94 5.73 13.84C5.04 13.75 4.44 13.61 3.91 13.43C3.41 13.27 3.03 13.08 2.78 12.88C2.67 12.8 2.59 12.71 2.54 12.64C2.51 12.58 2.5 12.54 2.5 12.5L2.5 10.9C2.8 11.08 3.16 11.24 3.59 11.38C4.17 11.58 4.84 11.73 5.59 11.83C6.36 11.94 7.16 12 8 12C8.28 12 8.5 11.78 8.5 11.5C8.5 11.22 8.28 11 8 11C7.2 11 6.45 10.94 5.73 10.84C5.04 10.75 4.44 10.61 3.91 10.43C3.41 10.27 3.03 10.08 2.78 9.88C2.67 9.8 2.59 9.71 2.54 9.64C2.51 9.58 2.5 9.54 2.5 9.5L2.5 7.9C2.8 8.08 3.16 8.24 3.59 8.38C4.17 8.58 4.84 8.72 5.59 8.83C6.36 8.93 7.16 9 8 9C8.84 9 9.63 8.93 10.4 8.83C11.15 8.72 11.81 8.58 12.4 8.38C12.83 8.24 13.19 8.08 13.5 7.9L13.5 9.5C13.5 9.78 13.72 10 14 10C14.28 10 14.5 9.78 14.5 9.5L14.5 3.5C14.5 3.42 14.49 3.34 14.47 3.26C14.41 2.92 14.19 2.61 13.83 2.32C13.48 2.05 13 1.81 12.4 1.61C11.81 1.41 11.15 1.26 10.4 1.16C9.63 1.04 8.83 1 8 1C7.17 1 6.36 1.04 5.59 1.16C4.84 1.26 4.17 1.41 3.59 1.61C2.99 1.81 2.51 2.05 2.16 2.32C1.8 2.61 1.58 2.92 1.52 3.26C1.5 3.34 1.5 3.42 1.5 3.5L1.5 12.5C1.5 12.57 1.5 12.65 1.52 12.73C1.58 13.07 1.8 13.38 2.16 13.67C2.51 13.94 2.99 14.18 3.59 14.38C4.17 14.58 4.84 14.73 5.59 14.83ZM2.5 6.5C2.5 6.5 2.5 6.58 2.54 6.64C2.59 6.71 2.67 6.8 2.78 6.88C3.03 7.08 3.41 7.27 3.91 7.43C4.44 7.61 5.04 7.75 5.73 7.84C6.45 7.94 7.2 8 8 8C8.8 8 9.54 7.94 10.26 7.84C10.95 7.75 11.55 7.61 12.08 7.43C12.58 7.27 12.96 7.08 13.21 6.88C13.32 6.8 13.4 6.71 13.45 6.64C13.48 6.58 13.5 6.54 13.5 6.5L13.5 4.9C13.19 5.08 12.83 5.24 12.4 5.38C11.81 5.58 11.15 5.73 10.4 5.83C9.63 5.94 8.83 6 8 6C7.17 6 6.36 5.94 5.59 5.83C4.84 5.73 4.17 5.58 3.59 5.38C3.16 5.24 2.8 5.08 2.5 4.9L2.5 6.5ZM2.5 3.5C2.5 3.5 2.5 3.41 2.54 3.35C2.59 3.28 2.67 3.19 2.78 3.11C3.03 2.91 3.41 2.72 3.91 2.56C4.44 2.38 5.04 2.24 5.73 2.15C6.45 2.05 7.2 2 8 2C8.8 2 9.54 2.05 10.26 2.15C10.95 2.24 11.55 2.38 12.08 2.56C12.58 2.72 12.96 2.91 13.21 3.11C13.32 3.19 13.4 3.28 13.45 3.35C13.48 3.41 13.5 3.45 13.5 3.5C13.5 3.54 13.48 3.58 13.45 3.64C13.4 3.71 13.32 3.8 13.21 3.88C12.96 4.08 12.58 4.27 12.08 4.42C11.55 4.61 10.95 4.75 10.26 4.84C9.54 4.94 8.79 5 8 5C7.21 5 6.45 4.94 5.73 4.84C5.04 4.75 4.44 4.61 3.91 4.42C3.41 4.27 3.03 4.08 2.78 3.88C2.67 3.8 2.59 3.71 2.54 3.64C2.51 3.58 2.5 3.54 2.5 3.5ZM12.5 10.5C12.5 10.22 12.28 10 12 10C11.72 10 11.5 10.22 11.5 10.5L11.5 12L10 12C9.71 12 9.5 12.22 9.5 12.5C9.5 12.78 9.71 13 10 13L11.5 13L11.5 14.5C11.5 14.78 11.72 15 12 15C12.28 15 12.5 14.78 12.5 14.5L12.5 13L14 13C14.28 13 14.5 12.78 14.5 12.5C14.5 12.22 14.28 12 14 12L12.5 12L12.5 10.5Z" fill="currentColor" fill-opacity="1.000000" fill-rule="evenodd"/>
	</g>
</svg>
