<svg width="16.000000" height="16.000000" viewBox="0 0 16 16" fill="none" xmlns="http://www.w3.org/2000/svg" xmlns:xlink="http://www.w3.org/1999/xlink">
	<desc>
			Created with Pixso.
	</desc>
	<defs>
		<clipPath id="clip225_873">
			<rect id="策略管理-policy-management" width="16.000000" height="16.000000" fill="white" fill-opacity="0"/>
		</clipPath>
	</defs>
	<rect id="116#策略管理-policy-manage" width="16.000000" height="16.000000" fill="#FFFFFF" fill-opacity="0"/>
	<g clip-path="url(#clip225_873)">
		<path id="_矢量-229" d="M9.18 1.03C9.04 1.01 8.89 1 8.73 1L4.5 1C4.31 1 4.13 1 3.95 1.04C3.81 1.09 3.66 1.13 3.51 1.19C3.38 1.25 3.25 1.32 3.12 1.41C2.98 1.5 2.85 1.61 2.73 1.73C2.6 1.85 2.5 1.98 2.41 2.11C2.32 2.25 2.25 2.38 2.19 2.52C2.13 2.66 2.08 2.81 2.04 2.96C2.01 3.13 2 3.31 2 3.5L2 12.5C2 12.68 2 12.86 2.04 13.03C2.08 13.18 2.13 13.33 2.19 13.47C2.25 13.61 2.32 13.74 2.41 13.87C2.5 14.01 2.6 14.14 2.73 14.26C2.85 14.38 2.98 14.49 3.12 14.58C3.25 14.67 3.38 14.74 3.51 14.8C3.66 14.86 3.81 14.9 3.95 14.94C4.13 14.98 4.31 15 4.5 15L11.5 15C11.68 15 11.86 14.98 12.03 14.94C12.18 14.9 12.33 14.86 12.47 14.8C12.61 14.74 12.74 14.67 12.87 14.58C13.01 14.49 13.14 14.38 13.26 14.26C13.38 14.14 13.49 14.01 13.58 13.87C13.67 13.74 13.74 13.61 13.8 13.47C13.86 13.33 13.9 13.18 13.94 13.03C13.98 12.86 14 12.68 14 12.5L14 5.9C14 5.72 13.98 5.55 13.94 5.37C13.9 5.2 13.85 5.03 13.77 4.87C13.7 4.71 13.61 4.55 13.5 4.41C13.4 4.27 13.28 4.14 13.14 4.02L10.39 1.61C10.28 1.51 10.16 1.43 10.03 1.35C9.89 1.27 9.76 1.21 9.62 1.15C9.48 1.1 9.34 1.05 9.18 1.03ZM10 4.5L10 2.6L12.48 4.77C12.56 4.84 12.63 4.92 12.69 5L10.5 5C10.43 5 10.36 4.98 10.3 4.96C10.24 4.92 10.18 4.9 10.14 4.85C10.09 4.8 10.06 4.75 10.03 4.69C10.01 4.63 10 4.56 10 4.5ZM9 2.02L9 4.5C9 4.61 9.01 4.71 9.03 4.81C9.04 4.9 9.07 4.98 9.1 5.08C9.14 5.17 9.18 5.25 9.23 5.32C9.29 5.41 9.35 5.48 9.42 5.56C9.51 5.63 9.57 5.69 9.67 5.75C9.73 5.8 9.82 5.84 9.91 5.88C10 5.91 10.09 5.94 10.18 5.96C10.28 5.98 10.39 6 10.5 6L13 6L13 12.5C13 12.61 12.98 12.72 12.96 12.84C12.94 12.92 12.91 13 12.88 13.08C12.84 13.16 12.8 13.24 12.75 13.31C12.7 13.4 12.63 13.48 12.56 13.56C12.48 13.63 12.4 13.7 12.31 13.75C12.24 13.8 12.16 13.85 12.08 13.88C12 13.91 11.92 13.94 11.84 13.96C11.72 13.98 11.61 14 11.5 14L4.5 14C4.38 14 4.26 13.99 4.16 13.96C4.07 13.94 4 13.91 3.92 13.88C3.84 13.84 3.76 13.8 3.69 13.75C3.6 13.7 3.51 13.63 3.44 13.56C3.37 13.48 3.29 13.4 3.25 13.31C3.2 13.24 3.16 13.16 3.12 13.08C3.09 13 3.06 12.92 3.04 12.84C3.01 12.72 3.01 12.61 3.01 12.5L3.01 3.5C3.01 3.38 3.01 3.27 3.04 3.15C3.06 3.07 3.09 2.99 3.12 2.91C3.16 2.83 3.2 2.75 3.25 2.68C3.29 2.59 3.37 2.51 3.44 2.43C3.51 2.35 3.6 2.29 3.69 2.24C3.76 2.19 3.84 2.15 3.92 2.1C4 2.08 4.07 2.05 4.16 2.03C4.28 2.01 4.39 2 4.51 2L8.75 2C8.84 2 8.91 2 9 2.02ZM5 7.5C4.7 7.5 4.5 7.71 4.5 8C4.5 8.29 4.7 8.5 5 8.5L5.5 8.5C5.78 8.5 6 8.28 6 8C6 7.72 5.78 7.5 5.5 7.5L5 7.5ZM7.5 7.5C7.22 7.5 7 7.71 7 8C7 8.29 7.22 8.5 7.5 8.5L11 8.5C11.28 8.5 11.5 8.28 11.5 8C11.5 7.72 11.28 7.5 11 7.5L7.5 7.5ZM5 9.5C4.7 9.5 4.5 9.71 4.5 10C4.5 10.29 4.7 10.5 5 10.5L5.5 10.5C5.78 10.5 6 10.28 6 10C6 9.72 5.78 9.5 5.5 9.5L5 9.5ZM7.5 9.5C7.22 9.5 7 9.71 7 10C7 10.29 7.22 10.5 7.5 10.5L11 10.5C11.28 10.5 11.5 10.28 11.5 10C11.5 9.72 11.28 9.5 11 9.5L7.5 9.5ZM5 11.5C4.7 11.5 4.5 11.72 4.5 12C4.5 12.28 4.7 12.5 5 12.5L5.5 12.5C5.78 12.5 6 12.28 6 12C6 11.72 5.78 11.5 5.5 11.5L5 11.5ZM7.5 11.5C7.22 11.5 7 11.72 7 12C7 12.28 7.22 12.5 7.5 12.5L11 12.5C11.28 12.5 11.5 12.28 11.5 12C11.5 11.72 11.28 11.5 11 11.5L7.5 11.5Z" fill="currentColor" fill-opacity="1.000000" fill-rule="evenodd"/>
	</g>
</svg>
