<svg width="16.000000" height="16.000000" viewBox="0 0 16 16" fill="none" xmlns="http://www.w3.org/2000/svg" xmlns:xlink="http://www.w3.org/1999/xlink">
	<desc>
			Created with Pixso.
	</desc>
	<defs>
		<clipPath id="clip225_876">
			<rect id="解析记录集-parse-recordset" width="16.000000" height="16.000000" fill="white" fill-opacity="0"/>
		</clipPath>
	</defs>
	<rect id="117#解析记录集-parse-recordset" width="16.000000" height="16.000000" fill="#FFFFFF" fill-opacity="0"/>
	<g clip-path="url(#clip225_876)">
		<path id="_合并" d="M2.56 4.06L7.29 1.33C7.4 1.27 7.51 1.22 7.63 1.19C7.75 1.16 7.87 1.14 7.99 1.14C8.11 1.14 8.24 1.16 8.35 1.19C8.47 1.22 8.58 1.27 8.69 1.33L13.42 4.06C13.53 4.12 13.62 4.2 13.71 4.28C13.8 4.37 13.87 4.46 13.93 4.57C13.99 4.68 14.04 4.79 14.07 4.91C14.1 5.03 14.12 5.15 14.12 5.27L14.12 10.73C14.12 10.85 14.1 10.98 14.07 11.09C14.04 11.21 13.99 11.32 13.93 11.43C13.87 11.54 13.79 11.63 13.71 11.72C13.62 11.81 13.53 11.88 13.42 11.94L8.69 14.67C8.58 14.73 8.47 14.78 8.35 14.81C8.23 14.84 8.11 14.86 7.99 14.86C7.87 14.86 7.74 14.84 7.63 14.81C7.51 14.78 7.4 14.73 7.29 14.67L2.56 11.94C2.45 11.88 2.36 11.8 2.27 11.72C2.18 11.63 2.11 11.54 2.05 11.43C1.99 11.32 1.94 11.21 1.91 11.09C1.88 10.97 1.86 10.85 1.86 10.73L1.86 5.27C1.86 5.15 1.88 5.02 1.91 4.91C1.94 4.79 1.99 4.68 2.05 4.57C2.11 4.46 2.19 4.37 2.27 4.28C2.36 4.19 2.45 4.12 2.56 4.06ZM7.79 2.19L2.98 4.99C2.98 4.99 2.89 5.13 2.88 5.17L2.87 10.73C2.87 10.73 2.91 10.9 2.92 10.93C2.94 10.96 3.04 11.05 3.07 11.07L7.9 13.84C7.93 13.84 8.17 13.81 8.2 13.8L13.01 11C13.01 11 13.09 10.85 13.11 10.82C13.11 10.82 13.12 10.75 13.12 10.72L13.12 5.26C13.12 5.26 13.08 5.09 13.07 5.06C13.05 5.03 12.95 4.94 12.92 4.91L8.09 2.14C8.09 2.14 8.02 2.13 7.99 2.13C7.96 2.13 7.82 2.18 7.79 2.19ZM4.21 6.03C3.93 6.03 3.71 6.25 3.71 6.53C3.71 6.81 3.93 7.03 4.21 7.03L5.89 7.03C6.17 7.03 6.39 6.81 6.39 6.53C6.39 6.25 6.17 6.03 5.89 6.03L4.21 6.03ZM7.06 6.53C7.06 6.25 7.28 6.03 7.56 6.03L11.75 6.03C12.03 6.03 12.25 6.25 12.25 6.53C12.25 6.81 12.03 7.03 11.75 7.03L7.56 7.03C7.28 7.03 7.06 6.81 7.06 6.53ZM4.21 8.97C3.93 8.97 3.71 9.19 3.71 9.47C3.71 9.75 3.93 9.97 4.21 9.97L5.89 9.97C6.17 9.97 6.39 9.75 6.39 9.47C6.39 9.19 6.17 8.97 5.89 8.97L4.21 8.97ZM7.06 9.47C7.06 9.19 7.28 8.97 7.56 8.97L11.75 8.97C12.03 8.97 12.25 9.19 12.25 9.47C12.25 9.75 12.03 9.97 11.75 9.97L7.56 9.97C7.28 9.97 7.06 9.75 7.06 9.47Z" fill="currentColor" fill-opacity="1.000000" fill-rule="evenodd"/>
	</g>
</svg>
