<svg width="16.000000" height="16.000000" viewBox="0 0 16 16" fill="none" xmlns="http://www.w3.org/2000/svg" xmlns:xlink="http://www.w3.org/1999/xlink">
	<desc>
			Created with Pixso.
	</desc>
	<defs>
		<clipPath id="clip225_877">
			<rect id="关机-machine-close" width="16.000000" height="16.000000" fill="white" fill-opacity="0"/>
		</clipPath>
	</defs>
	<rect id="118#关机-machine-close" width="16.000000" height="16.000000" fill="#FFFFFF" fill-opacity="0"/>
	<g clip-path="url(#clip225_877)">
		<path id="_形状结合" d="M5.5 3.08C6.92 2.04 9.04 2.04 10.47 3.08C11.12 3.55 11.62 4.19 11.93 4.94C13.16 5.3 14.02 5.8 14.64 6.5C15.36 7.29 15.75 8.32 15.75 9.38C15.75 10.52 15.3 11.6 14.48 12.42C13.66 13.25 12.59 13.7 11.46 13.7L4.53 13.7C3.39 13.7 2.29 13.23 1.5 12.42C0.7 11.61 0.25 10.53 0.25 9.38C0.25 8.32 0.63 7.29 1.32 6.5C1.98 5.77 2.85 5.29 3.79 5.14C4.38 4.14 4.88 3.53 5.5 3.08ZM8 3.28C7.29 3.28 6.63 3.48 6.09 3.88C5.54 4.27 5.1 4.84 4.54 5.84L4.42 6.07L4.16 6.09C3.35 6.17 2.62 6.55 2.07 7.16C1.54 7.77 1.23 8.56 1.23 9.38C1.23 10.27 1.57 11.1 2.2 11.72C2.82 12.34 3.66 12.7 4.51 12.7L11.45 12.7C12.31 12.7 13.14 12.35 13.77 11.72C14.4 11.09 14.75 10.26 14.75 9.38C14.75 8.56 14.45 7.77 13.9 7.16C13.36 6.56 12.6 6.15 11.43 5.83L11.17 5.76L11.08 5.51C10.85 4.85 10.44 4.28 9.88 3.88L9.7 3.76C9.2 3.45 8.63 3.28 8 3.28ZM5.85 6.41C6.04 6.21 6.37 6.21 6.56 6.41C6.76 6.61 6.76 6.93 6.56 7.12C6.19 7.48 5.98 7.99 5.98 8.53C5.98 9.63 6.88 10.53 7.98 10.53C9.07 10.53 9.98 9.63 9.98 8.53C9.98 7.99 9.76 7.49 9.39 7.12C9.2 6.92 9.2 6.61 9.39 6.41C9.59 6.22 9.88 6.22 10.08 6.41C10.65 6.97 10.97 7.73 10.97 8.54C10.97 10.19 9.62 11.54 7.97 11.54C6.32 11.54 4.96 10.19 4.96 8.54C4.96 7.72 5.28 6.97 5.85 6.41ZM7.98 4.78C8.26 4.78 8.48 5 8.48 5.28L8.48 8.28C8.48 8.56 8.26 8.78 7.98 8.78C7.7 8.78 7.48 8.56 7.48 8.28L7.48 5.28C7.48 5 7.7 4.78 7.98 4.78Z" fill="currentColor" fill-opacity="1.000000" fill-rule="nonzero"/>
	</g>
</svg>
