<svg width="16.000000" height="16.000000" viewBox="0 0 16 16" fill="none" xmlns="http://www.w3.org/2000/svg" xmlns:xlink="http://www.w3.org/1999/xlink">
	<desc>
			Created with Pixso.
	</desc>
	<defs>
		<clipPath id="clip225_881">
			<rect id="运行中-machine-running" width="16.000000" height="16.000000" fill="white" fill-opacity="0"/>
		</clipPath>
	</defs>
	<rect id="119#运行中-machine-running" width="16.000000" height="16.000000" fill="#FFFFFF" fill-opacity="0"/>
	<g clip-path="url(#clip225_881)">
		<path id="_形状结合" d="M14.78 8.89C14.83 8.89 14.88 8.89 14.92 8.91C14.99 8.92 15.06 8.95 15.11 8.97C15.16 9.01 15.2 9.06 15.24 9.12C15.32 9.22 15.34 9.35 15.32 9.49C15.23 9.89 15.12 10.3 14.97 10.68C14.81 11.1 14.62 11.49 14.38 11.88C14.17 12.23 13.93 12.56 13.67 12.87C13.39 13.2 13.08 13.5 12.74 13.78C12.39 14.07 12.01 14.33 11.61 14.55C11.27 14.74 10.92 14.9 10.55 15.04C10.19 15.17 9.83 15.27 9.46 15.35C8.97 15.45 8.48 15.5 7.97 15.5C7.46 15.5 6.96 15.45 6.47 15.35C6.1 15.27 5.74 15.17 5.38 15.04C5.01 14.9 4.66 14.74 4.32 14.55C3.92 14.33 3.54 14.07 3.19 13.78C2.85 13.5 2.54 13.2 2.26 12.87C2 12.56 1.76 12.23 1.55 11.88C1.31 11.49 1.12 11.1 0.96 10.68C0.81 10.3 0.7 9.89 0.62 9.49C0.56 9.22 0.73 8.96 1.01 8.91C1.28 8.85 1.54 9.02 1.6 9.3C1.67 9.64 1.77 9.99 1.89 10.32C2.03 10.68 2.2 11.03 2.4 11.36C2.59 11.66 2.79 11.94 3.02 12.21C3.26 12.5 3.53 12.76 3.83 13.01C4.14 13.26 4.47 13.49 4.81 13.68C5.11 13.84 5.41 13.98 5.73 14.1C6.03 14.21 6.34 14.3 6.65 14.36C7.08 14.45 7.53 14.5 7.97 14.5C8.41 14.5 8.85 14.45 9.28 14.36C9.6 14.3 9.9 14.21 10.2 14.1C10.52 13.98 10.82 13.84 11.12 13.68C11.47 13.49 11.79 13.26 12.1 13.01C12.39 12.76 12.66 12.5 12.91 12.21C13.14 11.94 13.34 11.66 13.53 11.36C13.73 11.03 13.9 10.68 14.04 10.32C14.05 10.29 14.08 10.22 14.08 10.22L13.18 10.56C12.92 10.66 12.64 10.54 12.54 10.27C12.44 10.01 12.56 9.72 12.83 9.63L14.65 8.93C14.65 8.93 14.74 8.89 14.78 8.89ZM6.48 4.96C7.35 4.36 8.59 4.35 9.48 4.96C9.85 5.22 10.14 5.57 10.33 5.98C11 6.18 11.46 6.46 11.83 6.86C12.26 7.33 12.49 7.94 12.49 8.58C12.49 9.26 12.21 9.91 11.72 10.4C11.22 10.89 10.57 11.16 9.89 11.16L6.07 11.16C5.4 11.16 4.73 10.88 4.25 10.4C3.76 9.92 3.49 9.27 3.49 8.58C3.49 7.93 3.73 7.32 4.16 6.86C4.52 6.45 5 6.18 5.54 6.07C5.86 5.54 6.14 5.21 6.48 4.96ZM7.99 5.49C7.65 5.49 7.33 5.59 7.06 5.78C6.81 5.96 6.58 6.25 6.29 6.77C6.21 6.91 6.06 7 5.9 7.02C5.51 7.06 5.16 7.24 4.9 7.53C4.64 7.81 4.5 8.18 4.5 8.58C4.5 9.01 4.66 9.39 4.96 9.7C5.26 9.99 5.66 10.16 6.08 10.16L9.9 10.16C10.32 10.16 10.72 9.99 11.03 9.68C11.24 9.47 11.48 9.1 11.48 8.57C11.48 8.18 11.33 7.82 11.07 7.53C10.8 7.23 10.41 7.02 9.81 6.86C9.65 6.82 9.52 6.7 9.47 6.54C9.36 6.23 9.16 5.96 8.9 5.78L8.76 5.69C8.53 5.56 8.27 5.49 7.99 5.49ZM7.96 0.5C8.46 0.5 8.97 0.52 9.46 0.63C9.83 0.72 10.19 0.82 10.55 0.94C10.92 1.09 11.27 1.25 11.61 1.44C12.01 1.66 12.39 1.92 12.74 2.21C13.08 2.49 13.39 2.79 13.67 3.12C13.93 3.43 14.17 3.76 14.38 4.11C14.62 4.5 14.81 4.89 14.97 5.31C15.12 5.69 15.23 6.09 15.32 6.5C15.37 6.77 15.2 7.03 14.92 7.08C14.65 7.14 14.39 6.97 14.33 6.69C14.26 6.34 14.16 6 14.04 5.67C13.9 5.31 13.73 4.96 13.53 4.63C13.34 4.33 13.14 4.05 12.91 3.78C12.67 3.49 12.4 3.23 12.1 2.98C11.79 2.73 11.46 2.5 11.12 2.31C10.83 2.14 10.52 2 10.2 1.89C9.9 1.78 9.59 1.69 9.28 1.63C8.85 1.54 8.41 1.5 7.96 1.5C7.51 1.5 7.08 1.54 6.65 1.63C6.34 1.69 6.03 1.78 5.73 1.89C5.41 2.01 5.11 2.15 4.81 2.31C4.46 2.5 4.14 2.73 3.83 2.98C3.54 3.23 3.27 3.49 3.02 3.78C2.79 4.05 2.59 4.33 2.4 4.63C2.2 4.96 2.03 5.31 1.89 5.67C1.87 5.72 1.85 5.77 1.84 5.82L3.05 5.42C3.31 5.33 3.59 5.47 3.68 5.74C3.77 6 3.63 6.28 3.36 6.37L1.26 7.07C1.26 7.07 1.18 7.09 1.14 7.09C1.12 7.09 1.03 7.09 1.01 7.08C0.87 7.06 0.76 6.99 0.69 6.87C0.61 6.76 0.59 6.63 0.61 6.5C0.7 6.09 0.81 5.69 0.96 5.31C1.12 4.89 1.31 4.5 1.55 4.11C1.76 3.76 2 3.43 2.26 3.12C2.54 2.79 2.85 2.49 3.19 2.21C3.54 1.92 3.92 1.66 4.32 1.44C4.66 1.25 5.01 1.09 5.38 0.94C5.74 0.8 6.1 0.7 6.47 0.63C6.96 0.52 7.46 0.5 7.96 0.5Z" fill="currentColor" fill-opacity="1.000000" fill-rule="nonzero"/>
	</g>
</svg>
