<svg width="16.000000" height="16.000000" viewBox="0 0 16 16" fill="none" xmlns="http://www.w3.org/2000/svg" xmlns:xlink="http://www.w3.org/1999/xlink">
	<desc>
			Created with Pixso.
	</desc>
	<defs>
		<clipPath id="clip225_880">
			<rect id="计划事件-planned-events" width="16.000000" height="16.000000" fill="white" fill-opacity="0"/>
		</clipPath>
	</defs>
	<rect id="120#计划事件-plan-events" width="16.000000" height="16.000000" fill="#FFFFFF" fill-opacity="0"/>
	<g clip-path="url(#clip225_880)">
		<path id="_形状结合" d="M12.5 1C13.88 1 15 2.11 15 3.5L15 12.5C15 13.88 13.88 15 12.5 15L3.5 15C2.11 15 1 13.88 1 12.5L1 3.5C1 2.11 2.11 1 3.5 1L12.5 1ZM12.5 2L3.5 2C2.67 2 2 2.67 2 3.5L2 12.5C2 13.33 2.67 14 3.5 14L12.5 14C13.33 14 14 13.33 14 12.5L14 3.5C14 2.67 13.33 2 12.5 2ZM5.2 9.5C5.7 9.5 6.1 9.89 6.1 10.4C6.1 10.9 5.7 11.3 5.2 11.3C4.7 11.3 4.29 10.9 4.29 10.4C4.29 9.89 4.7 9.5 5.2 9.5ZM12 9.89C12.28 9.89 12.5 10.12 12.5 10.4C12.5 10.68 12.28 10.9 12 10.9L9 10.9C8.72 10.9 8.5 10.68 8.5 10.4C8.5 10.12 8.72 9.89 9 9.89L12 9.89ZM6.17 4.57C6.38 4.39 6.7 4.4 6.88 4.61C7.06 4.82 7.04 5.14 6.84 5.32L5.35 6.65C5.26 6.74 5.14 6.78 5.01 6.78C4.88 6.78 4.75 6.73 4.64 6.62L3.84 5.73C3.64 5.52 3.67 5.21 3.87 5.02C4.07 4.83 4.39 4.85 4.57 5.05L5.06 5.57L6.17 4.57ZM12 5.5C12.28 5.5 12.5 5.72 12.5 6C12.5 6.28 12.28 6.5 12 6.5L9 6.5C8.72 6.5 8.5 6.28 8.5 6C8.5 5.72 8.72 5.5 9 5.5L12 5.5Z" fill="currentColor" fill-opacity="1.000000" fill-rule="nonzero"/>
	</g>
</svg>
