<svg width="16.000000" height="16.000000" viewBox="0 0 16 16" fill="none" xmlns="http://www.w3.org/2000/svg" xmlns:xlink="http://www.w3.org/1999/xlink">
	<desc>
			Created with Pixso.
	</desc>
	<defs>
		<clipPath id="clip225_879">
			<rect id="open-api" width="16.000000" height="16.000000" fill="white" fill-opacity="0"/>
		</clipPath>
	</defs>
	<rect id="121#开放API-open-api" width="16.000000" height="16.000000" fill="#FFFFFF" fill-opacity="0"/>
	<g clip-path="url(#clip225_879)">
		<path id="_形状结合" d="M14.09 1.25C14.37 1.25 14.59 1.47 14.59 1.75C14.59 2.03 14.37 2.25 14.09 2.25L2.75 2.25C2.32 2.25 2 2.58 2 3C2 3.42 2.32 3.75 2.75 3.75L13.5 3.75C14.33 3.75 15 4.42 15 5.25L15 12.25C15 13.63 13.88 14.75 12.5 14.75L3.5 14.75C2.11 14.75 1 13.63 1 12.25L1 5.75C1 5.47 1.22 5.25 1.5 5.25C1.78 5.25 2 5.47 2 5.75L2 12.25C2 13.08 2.67 13.75 3.5 13.75L12.5 13.75C13.33 13.75 14 13.08 14 12.25L14 5.25C14 4.96 13.78 4.75 13.5 4.75L2.75 4.75C1.79 4.75 1 3.98 1 3C1 2.02 1.76 1.25 2.75 1.25L14.09 1.25ZM10.44 6.89C10.72 6.89 10.97 7.01 11.16 7.21C11.34 7.41 11.45 7.67 11.45 7.96L11.45 8.42C11.45 8.71 11.34 9.02 11.15 9.25C10.97 9.47 10.71 9.63 10.44 9.63L8.48 9.63L8.48 11.22C8.48 11.43 8.29 11.6 8.09 11.6C7.88 11.6 7.7 11.43 7.7 11.22L7.7 7.29C7.7 7.07 7.89 6.89 8.1 6.89L10.44 6.89ZM5.29 6.89C5.59 6.89 5.81 6.98 5.97 7.11C6.22 7.31 6.35 7.59 6.42 7.75L7.23 11.36C7.26 11.48 7.17 11.6 7.04 11.6L6.79 11.6C6.62 11.6 6.45 11.47 6.41 11.29L6.01 9.62L4.2 9.62L3.82 11.29C3.78 11.47 3.62 11.6 3.42 11.6L3.2 11.6C3.07 11.6 2.97 11.48 3 11.36L3.79 7.84C3.85 7.7 3.95 7.37 4.23 7.14C4.39 7 4.62 6.89 4.92 6.89L5.29 6.89ZM12.61 6.89C12.82 6.89 13 7.06 13 7.27L13 11.22C13 11.43 12.82 11.6 12.61 11.6C12.4 11.6 12.23 11.43 12.23 11.22L12.23 7.27C12.23 7.06 12.4 6.89 12.61 6.89ZM10.45 7.65L8.48 7.65L8.48 8.87L10.44 8.87C10.5 8.87 10.54 8.8 10.57 8.75C10.64 8.64 10.69 8.52 10.69 8.42L10.69 7.96C10.69 7.88 10.65 7.8 10.6 7.74C10.56 7.69 10.51 7.65 10.45 7.65ZM5.2 7.65L5 7.65C4.89 7.65 4.79 7.67 4.73 7.73C4.64 7.8 4.6 7.91 4.54 8.05L4.37 8.87L5.85 8.87L5.64 8.09C5.6 7.93 5.54 7.81 5.47 7.73C5.39 7.67 5.31 7.65 5.2 7.65Z" fill="currentColor" fill-opacity="1.000000" fill-rule="nonzero"/>
	</g>
</svg>
