<svg width="16.000000" height="16.000000" viewBox="0 0 16 16" fill="none" xmlns="http://www.w3.org/2000/svg" xmlns:xlink="http://www.w3.org/1999/xlink">
	<desc>
			Created with Pixso.
	</desc>
	<defs>
		<clipPath id="clip225_883">
			<rect id="未安装-not-installed" width="16.000000" height="16.000000" fill="white" fill-opacity="0"/>
		</clipPath>
	</defs>
	<rect id="122#未安装-not-installed" width="16.000000" height="16.000000" fill="#FFFFFF" fill-opacity="0"/>
	<g clip-path="url(#clip225_883)">
		<path id="_形状结合" d="M11 1C11.2 1 11.39 1.02 11.57 1.04C11.76 1.1 11.94 1.16 12.11 1.26C12.29 1.34 12.45 1.45 12.6 1.57C12.74 1.69 12.88 1.83 12.99 1.98L14.26 3.73C14.38 3.85 14.49 3.98 14.58 4.12C14.67 4.25 14.74 4.38 14.8 4.52C14.86 4.66 14.9 4.81 14.94 4.96C14.98 5.13 15 5.31 15 5.5L15 12.5C15 12.68 14.98 12.86 14.94 13.03C14.9 13.18 14.86 13.33 14.8 13.47C14.74 13.61 14.67 13.74 14.58 13.87C14.49 14.01 14.38 14.14 14.26 14.26C14.14 14.38 14.01 14.49 13.87 14.58C13.74 14.67 13.61 14.74 13.47 14.8C13.33 14.86 13.18 14.9 13.03 14.94C12.86 14.98 12.68 15 12.5 15L3.5 15C3.31 15 3.13 14.98 2.96 14.94C2.81 14.9 2.66 14.86 2.52 14.8C2.38 14.74 2.25 14.67 2.1 14.58C1.98 14.49 1.85 14.38 1.73 14.26C1.61 14.14 1.5 14.01 1.41 13.87C1.32 13.74 1.25 13.61 1.19 13.47C1.13 13.33 1.09 13.18 1.03 13.03C1 12.86 1 12.68 1 12.5L1 5.5C1 5.31 1 5.13 1.03 4.96C1.09 4.81 1.13 4.66 1.19 4.52C1.25 4.38 1.32 4.25 1.41 4.12C1.5 3.98 1.61 3.85 1.73 3.73L3 1.98C3.11 1.83 3.25 1.69 3.39 1.57C3.53 1.45 3.7 1.34 3.88 1.26C4.05 1.16 4.23 1.1 4.42 1.04C4.6 1.02 4.78 1 4.98 1L11 1ZM12.5 4L3.5 4C3.38 4 3.27 4.01 3.14 4.03C3.07 4.05 2.99 4.08 2.91 4.11C2.83 4.15 2.75 4.19 2.67 4.23C2.59 4.29 2.5 4.36 2.42 4.42C2.35 4.51 2.28 4.59 2.24 4.67L2.1 4.91C2.08 4.98 2.05 5.07 2.03 5.15C2 5.27 2 5.38 2 5.5L2 12.5C2 12.61 2 12.72 2.03 12.84L2.1 13.08C2.14 13.16 2.19 13.24 2.24 13.31C2.28 13.4 2.35 13.48 2.42 13.56C2.5 13.63 2.59 13.7 2.67 13.75C2.75 13.8 2.83 13.84 2.91 13.88C2.99 13.91 3.07 13.94 3.14 13.96C3.25 13.99 3.38 14 3.5 14L12.5 14C12.61 14 12.72 13.98 12.84 13.96C12.92 13.94 13 13.91 13.08 13.88C13.16 13.84 13.24 13.8 13.31 13.75C13.4 13.7 13.48 13.63 13.56 13.56C13.63 13.48 13.7 13.4 13.75 13.31C13.8 13.24 13.84 13.16 13.88 13.08C13.91 13 13.94 12.92 13.96 12.83C13.99 12.72 14 12.61 14 12.5L14 5.5C14 5.38 13.98 5.27 13.96 5.15C13.94 5.07 13.91 4.98 13.88 4.91C13.84 4.83 13.8 4.75 13.75 4.67C13.7 4.59 13.63 4.51 13.56 4.42C13.48 4.36 13.4 4.29 13.31 4.23C13.24 4.19 13.16 4.15 13.08 4.11C13 4.08 12.92 4.05 12.84 4.03C12.72 4.01 12.61 4 12.5 4ZM8 6C8.28 6 8.5 6.22 8.5 6.5L8.5 10.71L10.38 8.66C10.57 8.46 10.89 8.43 11.09 8.63C11.29 8.82 11.31 9.14 11.12 9.34L8.37 12.34C8.27 12.44 8.14 12.5 8 12.5C7.86 12.5 7.72 12.44 7.63 12.34L4.88 9.34C4.69 9.13 4.71 8.82 4.91 8.63C5.12 8.43 5.42 8.46 5.62 8.66L7.5 10.71L7.5 6.5C7.5 6.22 7.72 6 8 6ZM11 2L4.98 2C4.87 2 4.75 2 4.64 2.03C4.53 2.06 4.42 2.08 4.32 2.15C4.21 2.2 4.12 2.27 4.03 2.33C3.94 2.41 3.86 2.49 3.78 2.59L3.48 3L12.51 3L12.2 2.59C12.13 2.49 12.05 2.41 11.96 2.33C11.87 2.27 11.77 2.2 11.67 2.15C11.56 2.08 11.46 2.06 11.35 2.03C11.23 2.01 11.12 2 11 2Z" fill="currentColor" fill-opacity="1.000000" fill-rule="evenodd"/>
	</g>
</svg>
