<svg width="16.000000" height="14.000000" viewBox="0 0 16 14" fill="none" xmlns="http://www.w3.org/2000/svg" xmlns:xlink="http://www.w3.org/1999/xlink">
	<desc>
			Created with Pixso.
	</desc>
	<defs>
		<clipPath id="clip225_889">
			<rect id="会议室管理-meeting-room-management" width="16.000000" height="14.000000" fill="white" fill-opacity="0"/>
		</clipPath>
	</defs>
	<rect id="124#会议室管理-meeting-management" width="16.000000" height="14.000000" fill="#FFFFFF" fill-opacity="0"/>
	<g clip-path="url(#clip225_889)">
		<path id="_形状结合" d="M11.74 7.03C12.06 7.03 12.37 7.17 12.56 7.45L12.72 7.78L13.03 7.75C13.31 7.72 13.59 7.79 13.81 7.98L13.95 8.12L14.34 8.73C14.5 8.96 14.51 9.28 14.33 9.55L14.09 9.84L14.28 10.06C14.44 10.26 14.5 10.5 14.43 10.75L14.4 10.85L14.35 10.95L13.96 11.55C13.8 11.79 13.5 11.95 13.14 11.95L13.03 11.95L12.72 11.91L12.6 12.17C12.49 12.39 12.27 12.57 11.97 12.64L11.87 12.64L11.76 12.67L10.98 12.67C10.65 12.67 10.35 12.51 10.16 12.25L9.99 11.91L9.67 11.95C9.41 11.97 9.13 11.89 8.91 11.7L8.77 11.55L8.38 10.97C8.22 10.71 8.2 10.42 8.39 10.13L8.63 9.84L8.43 9.62C8.28 9.44 8.22 9.18 8.28 8.93L8.32 8.84L8.37 8.74L8.75 8.15C8.92 7.91 9.22 7.75 9.58 7.75L9.67 7.75L9.99 7.78L10.12 7.53C10.22 7.29 10.45 7.14 10.75 7.06L10.85 7.03L11.74 7.03ZM7.6 11.52C7.75 11.52 7.89 11.59 7.96 11.7C8.16 11.97 7.96 12.39 7.59 12.39L4.33 12.39C4.05 12.39 3.83 12.2 3.83 11.96C3.83 11.71 4.05 11.52 4.33 11.52L7.6 11.52ZM11.7 7.91L11.02 7.91L10.83 8.3C10.78 8.38 10.71 8.46 10.62 8.51L10.4 8.6C10.31 8.67 10.2 8.68 10.09 8.67L9.6 8.62L9.25 9.13L9.56 9.47C9.6 9.54 9.64 9.61 9.66 9.68L9.66 9.94C9.66 10.05 9.62 10.14 9.56 10.22L9.25 10.57L9.6 11.07L10.09 11.01C10.17 11 10.25 11.01 10.33 11.04L10.62 11.19C10.71 11.23 10.78 11.3 10.83 11.4L11.02 11.79L11.7 11.79L11.89 11.4C11.92 11.33 11.98 11.26 12.05 11.22L12.32 11.07C12.41 11.03 12.52 11 12.63 11.01L13.11 11.07L13.45 10.57L13.16 10.22C13.11 10.16 13.07 10.08 13.06 10.01L13.06 9.73C13.06 9.65 13.09 9.54 13.16 9.47L13.45 9.14L13.11 8.62L12.63 8.67C12.55 8.68 12.46 8.67 12.39 8.64L12.1 8.51C12.01 8.46 11.93 8.38 11.89 8.3L11.7 7.91ZM11.36 9.22C11.76 9.22 12.08 9.5 12.08 9.84C12.08 10.2 11.76 10.48 11.36 10.48C10.96 10.48 10.64 10.2 10.64 9.84C10.64 9.48 10.96 9.22 11.36 9.22ZM12.66 1.31C13.67 1.31 14.5 2.03 14.5 2.92L14.5 6.68C14.5 7.01 13.98 7.18 13.67 7C13.57 6.93 13.5 6.81 13.5 6.7L13.5 2.92C13.5 2.52 13.12 2.18 12.66 2.18L3.33 2.18C2.87 2.18 2.5 2.52 2.5 2.92L2.5 8.75C2.5 9.15 2.87 9.48 3.33 9.48L6.96 9.48C7.17 9.48 7.35 9.65 7.35 9.84C7.35 10.11 7.12 10.36 6.81 10.36L3.33 10.36C2.32 10.36 1.5 9.64 1.5 8.75L1.5 2.92C1.5 2.03 2.32 1.31 3.33 1.31L12.66 1.31ZM8 4.41C8.28 4.41 8.5 4.6 8.5 4.84L8.5 6.59C8.5 6.84 8.28 7.03 8 7.03C7.72 7.03 7.5 6.84 7.5 6.59L7.5 4.84C7.5 4.6 7.72 4.41 8 4.41ZM6 5.28C6.28 5.28 6.5 5.47 6.5 5.72L6.5 6.59C6.5 6.84 6.28 7.03 6 7.03C5.72 7.03 5.5 6.84 5.5 6.59L5.5 5.72C5.5 5.47 5.72 5.28 6 5.28ZM10 5.28C10.28 5.28 10.5 5.47 10.5 5.72L10.5 6.59C10.5 6.84 10.28 7.03 10 7.03C9.72 7.03 9.5 6.84 9.5 6.59L9.5 5.72C9.5 5.47 9.72 5.28 10 5.28Z" fill="currentColor" fill-opacity="1.000000" fill-rule="evenodd"/>
	</g>
</svg>
