<svg width="16.000000" height="14.000000" viewBox="0 0 16 14" fill="none" xmlns="http://www.w3.org/2000/svg" xmlns:xlink="http://www.w3.org/1999/xlink">
	<desc>
			Created with Pixso.
	</desc>
	<defs>
		<clipPath id="clip225_890">
			<rect id="网络研讨会优购-webinar-premium-purchase" width="16.000000" height="14.000000" fill="white" fill-opacity="0"/>
		</clipPath>
	</defs>
	<rect id="125#网络研讨会优购-webinar-discount" width="16.000000" height="14.000000" fill="#FFFFFF" fill-opacity="0"/>
	<g clip-path="url(#clip225_890)">
		<path id="_形状结合" d="M13 7.65C13.51 7.65 13.94 7.98 13.99 8.44L14.39 11.94C14.45 12.45 13.99 12.9 13.4 12.9L9.6 12.9C9 12.9 8.55 12.45 8.6 11.94L9 8.44C9.06 7.98 9.49 7.65 10 7.65L13 7.65ZM7.5 11.51C7.77 11.51 8 11.7 8 11.95C8 12.19 7.77 12.39 7.5 12.39L4.33 12.39C4.05 12.39 3.83 12.19 3.83 11.95C3.83 11.7 4.05 11.51 4.33 11.51L7.5 11.51ZM13 8.53L10 8.53L9.6 12.03L13.4 12.03L13 8.53ZM12.19 9.18C12.47 9.18 12.69 9.38 12.69 9.62L12.69 9.84C12.69 10.44 12.13 10.93 11.44 10.93C10.75 10.93 10.18 10.44 10.18 9.84L10.18 9.62C10.18 9.38 10.41 9.18 10.69 9.18C10.97 9.18 11.19 9.38 11.19 9.62L11.19 9.84C11.19 9.95 11.31 10.06 11.44 10.06C11.57 10.06 11.69 9.96 11.69 9.84L11.69 9.62C11.69 9.38 11.91 9.18 12.19 9.18ZM12.66 1.31C13.66 1.31 14.5 2.03 14.5 2.91L14.5 6.56C14.5 6.79 14.27 7 14 7C13.73 7 13.5 6.79 13.5 6.56L13.5 2.91C13.5 2.51 13.11 2.18 12.66 2.18L3.33 2.18C2.86 2.18 2.5 2.51 2.5 2.91L2.5 8.75C2.5 9.15 2.86 9.47 3.33 9.47L7.5 9.47C7.77 9.47 8 9.66 8 9.91C8 10.15 7.77 10.35 7.5 10.35L3.33 10.35C2.32 10.35 1.5 9.62 1.5 8.75L1.5 2.91C1.5 2.03 2.32 1.31 3.33 1.31L12.66 1.31ZM7.08 4.47L9.32 6.05L11.47 4.48C11.68 4.32 12 4.34 12.18 4.53C12.35 4.71 12.32 4.98 12.11 5.14L9.64 6.95C9.45 7.08 9.2 7.08 9 6.95L6.78 5.38L4.78 6.94C4.61 7.08 4.34 7.09 4.14 6.96C3.97 6.78 3.92 6.45 4.13 6.29L6.42 4.48C6.61 4.34 6.89 4.33 7.08 4.47Z" fill="currentColor" fill-opacity="1.000000" fill-rule="evenodd"/>
	</g>
</svg>
