<svg width="16.000000" height="16.000000" viewBox="0 0 16 16" fill="none" xmlns="http://www.w3.org/2000/svg" xmlns:xlink="http://www.w3.org/1999/xlink">
	<desc>
			Created with Pixso.
	</desc>
	<defs>
		<clipPath id="clip225_895">
			<rect id="特征匹配引擎-feature-matching" width="16.000000" height="16.000000" fill="white" fill-opacity="0"/>
		</clipPath>
	</defs>
	<rect id="126#特征匹配引擎-feature-match-engine" width="16.000000" height="16.000000" fill="#FFFFFF" fill-opacity="0"/>
	<g clip-path="url(#clip225_895)">
		<path id="_矢量-226" d="M7.49 14C7 14 6.53 13.94 6.07 13.84C5.7 13.76 5.33 13.64 4.96 13.48C4.6 13.33 4.25 13.14 3.92 12.93C3.56 12.69 3.22 12.41 2.89 12.09C2.58 11.77 2.3 11.43 2.06 11.07C1.85 10.74 1.66 10.39 1.5 10.03C1.35 9.66 1.23 9.28 1.14 8.91C1.04 8.45 1 7.98 1 7.5C1 7.02 1.04 6.53 1.14 6.08C1.23 5.7 1.35 5.33 1.5 4.96C1.66 4.6 1.85 4.25 2.06 3.92C2.3 3.56 2.58 3.22 2.89 2.89C3.22 2.58 3.56 2.3 3.92 2.06C4.25 1.85 4.6 1.66 4.96 1.5C5.33 1.35 5.7 1.23 6.07 1.14C6.53 1.04 7 1 7.49 1C7.98 1 8.45 1.04 8.91 1.14C9.28 1.23 9.66 1.35 10.02 1.5C10.39 1.66 10.74 1.85 11.07 2.06C11.43 2.3 11.77 2.58 12.09 2.89C12.41 3.22 12.69 3.56 12.93 3.92C13.14 4.25 13.33 4.6 13.48 4.96C13.64 5.33 13.76 5.7 13.84 6.08C13.94 6.53 14 7 14 7.5C14 8 13.94 8.45 13.84 8.91C13.76 9.28 13.64 9.66 13.48 10.03C13.33 10.39 13.14 10.74 12.93 11.06C12.78 11.29 12.61 11.51 12.43 11.72L14.85 14.14C14.95 14.24 15 14.37 15 14.5C15 14.62 14.95 14.75 14.85 14.85C14.65 15.05 14.34 15.05 14.14 14.85L11.73 12.43C11.52 12.61 11.3 12.78 11.07 12.93C10.74 13.14 10.39 13.33 10.02 13.48C9.66 13.64 9.28 13.76 8.91 13.84C8.45 13.94 7.98 14 7.49 14ZM7.49 13C7.91 13 8.32 12.95 8.71 12.86C9.03 12.79 9.33 12.69 9.64 12.56C9.93 12.43 10.22 12.28 10.51 12.1C10.82 11.89 11.11 11.65 11.38 11.38C11.66 11.11 11.89 10.82 12.1 10.51C12.28 10.22 12.43 9.93 12.56 9.64C12.69 9.33 12.79 9.03 12.86 8.71C12.95 8.32 13 7.91 13 7.5C13 7.09 12.95 6.67 12.86 6.28C12.78 5.96 12.68 5.65 12.56 5.35C12.43 5.04 12.28 4.75 12.1 4.48C11.89 4.17 11.65 3.88 11.38 3.61C11.11 3.33 10.82 3.09 10.51 2.89C10.22 2.71 9.93 2.56 9.64 2.42C9.33 2.3 9.03 2.2 8.71 2.13C8.32 2.03 7.91 2 7.49 2C7.07 2 6.67 2.03 6.27 2.13C5.96 2.2 5.64 2.3 5.35 2.42C5.05 2.56 4.75 2.71 4.48 2.89C4.17 3.1 3.88 3.33 3.61 3.61C3.34 3.88 3.1 4.17 2.89 4.48C2.71 4.75 2.56 5.05 2.42 5.35C2.3 5.64 2.2 5.96 2.13 6.27C2.03 6.67 2 7.08 2 7.5C2 7.92 2.03 8.32 2.13 8.71C2.2 9.03 2.3 9.34 2.42 9.64C2.56 9.93 2.71 10.22 2.89 10.51C3.1 10.82 3.33 11.11 3.61 11.38C3.88 11.66 4.17 11.89 4.48 12.1C4.75 12.28 5.05 12.43 5.35 12.56C5.64 12.69 5.96 12.79 6.27 12.86C6.67 12.95 7.08 13 7.49 13ZM7.5 6.5C7.5 6.58 7.48 6.67 7.46 6.75L8.24 7.53C8.32 7.5 8.41 7.5 8.5 7.5C8.58 7.5 8.67 7.5 8.75 7.53L9.53 6.75C9.5 6.67 9.5 6.58 9.5 6.5C9.5 5.94 9.93 5.5 10.5 5.5C11.07 5.5 11.5 5.94 11.5 6.5C11.5 7.06 11.05 7.5 10.5 7.5C10.41 7.5 10.32 7.48 10.24 7.46L9.46 8.24C9.47 8.32 9.5 8.41 9.5 8.5C9.5 9.05 9.05 9.5 8.5 9.5C7.95 9.5 7.5 9.05 7.5 8.5C7.5 8.41 7.5 8.32 7.53 8.24L6.75 7.46C6.67 7.48 6.58 7.5 6.5 7.5C6.41 7.5 6.32 7.48 6.24 7.46L5.46 8.24C5.48 8.32 5.5 8.41 5.5 8.5C5.5 9.05 5.05 9.5 4.5 9.5C3.95 9.5 3.5 9.05 3.5 8.5C3.5 7.95 3.94 7.5 4.5 7.5C4.58 7.5 4.67 7.5 4.75 7.53L5.53 6.75C5.5 6.67 5.5 6.58 5.5 6.5C5.5 5.94 5.94 5.5 6.5 5.5C7.06 5.5 7.5 5.94 7.5 6.5Z" fill="currentColor" fill-opacity="1.000000" fill-rule="evenodd"/>
	</g>
</svg>
