<svg width="16.000000" height="16.000000" viewBox="0 0 16 16" fill="none" xmlns="http://www.w3.org/2000/svg" xmlns:xlink="http://www.w3.org/1999/xlink">
	<desc>
			Created with Pixso.
	</desc>
	<defs>
		<clipPath id="clip225_896">
			<rect id="AI引擎-ai-engine" width="16.000000" height="16.000000" fill="white" fill-opacity="0"/>
		</clipPath>
	</defs>
	<rect id="127#AI引擎-ai-engine" width="16.000000" height="16.000000" fill="#FFFFFF" fill-opacity="0"/>
	<g clip-path="url(#clip225_896)">
		<path id="_矢量-224" d="M6.14 3.5C6.19 3.39 6.25 3.25 6.32 3.14C6.39 3.03 6.48 2.92 6.57 2.83C6.67 2.73 6.79 2.64 6.89 2.57C7 2.5 7.1 2.45 7.22 2.39C7.32 2.34 7.42 2.32 7.54 2.3C7.69 2.25 7.84 2.25 8 2.25C8.14 2.25 8.29 2.25 8.45 2.3C8.56 2.32 8.67 2.34 8.76 2.39C8.88 2.45 8.97 2.5 9.09 2.57C9.2 2.64 9.31 2.73 9.41 2.83C9.51 2.92 9.6 3.03 9.67 3.14C9.72 3.25 9.79 3.36 9.84 3.47L6.14 3.5ZM10.93 3.6C10.89 3.42 10.83 3.25 10.76 3.08C10.68 2.9 10.6 2.74 10.5 2.59C10.39 2.42 10.26 2.27 10.12 2.1C9.97 1.98 9.81 1.85 9.64 1.74C9.47 1.64 9.32 1.55 9.16 1.48C8.99 1.4 8.82 1.35 8.64 1.32C8.42 1.27 8.22 1.25 8 1.25C7.76 1.25 7.56 1.27 7.35 1.32C7.17 1.35 7 1.41 6.82 1.48C6.66 1.55 6.5 1.64 6.34 1.74C6.17 1.85 6.01 1.98 5.87 2.1C5.73 2.27 5.6 2.42 5.48 2.59C5.39 2.75 5.29 2.91 5.23 3.08C5.16 3.25 5.1 3.42 5.07 3.6C4.94 3.62 4.82 3.6 4.71 3.64C4.6 3.69 4.48 3.75 4.39 3.83C4.28 3.89 4.17 3.98 4.07 4.08C3.98 4.17 3.89 4.28 3.82 4.39C3.76 4.48 3.7 4.6 3.64 4.71C3.6 4.83 3.57 4.94 3.54 5.07C3.51 5.21 3.5 5.35 3.5 5.5L3.5 10.5C3.5 10.64 3.5 10.78 3.54 10.92C3.57 11.04 3.6 11.16 3.64 11.27C3.7 11.39 3.76 11.5 3.82 11.6C3.89 11.71 3.98 11.81 4.07 11.91C4.17 12.01 4.28 12.09 4.39 12.16C4.48 12.23 4.6 12.29 4.71 12.34C4.82 12.39 4.94 12.42 5.07 12.45C5.2 12.48 5.35 12.5 5.5 12.5L10.5 12.5C10.64 12.5 10.78 12.48 10.92 12.45C11.04 12.42 11.16 12.39 11.27 12.34C11.38 12.29 11.49 12.23 11.6 12.16C11.71 12.09 11.81 12.01 11.91 11.91C12.01 11.81 12.09 11.71 12.16 11.6C12.23 11.5 12.29 11.39 12.34 11.27C12.39 11.16 12.42 11.04 12.45 10.92C12.48 10.78 12.5 10.64 12.5 10.5L12.5 5.5C12.5 5.35 12.48 5.21 12.45 5.07C12.42 4.94 12.39 4.83 12.34 4.71C12.29 4.6 12.23 4.48 12.16 4.39C12.09 4.28 12.01 4.17 11.91 4.08C11.81 3.98 11.71 3.89 11.6 3.83C11.5 3.75 11.39 3.7 11.27 3.64C11.16 3.6 11.04 3.62 10.93 3.6ZM5.5 4.5L10.5 4.5C10.57 4.5 10.65 4.5 10.73 4.52C10.78 4.53 10.83 4.55 10.88 4.57C10.94 4.6 10.99 4.62 11.04 4.66C11.1 4.69 11.15 4.73 11.2 4.78C11.25 4.83 11.29 4.89 11.33 4.94C11.37 5 11.39 5.05 11.42 5.11C11.44 5.16 11.46 5.21 11.47 5.25C11.49 5.34 11.5 5.42 11.5 5.5L11.5 10.5C11.5 10.57 11.49 10.65 11.47 10.73C11.46 10.78 11.44 10.83 11.42 10.88C11.39 10.94 11.37 10.99 11.33 11.04C11.29 11.1 11.25 11.15 11.2 11.2C11.15 11.25 11.1 11.3 11.04 11.33C10.99 11.37 10.94 11.39 10.88 11.42C10.83 11.44 10.78 11.46 10.73 11.47C10.65 11.49 10.57 11.5 10.5 11.5L5.5 11.5C5.42 11.5 5.34 11.49 5.26 11.47C5.2 11.46 5.16 11.44 5.1 11.42C5.04 11.39 5 11.37 4.94 11.33C4.89 11.3 4.84 11.25 4.79 11.2C4.73 11.15 4.69 11.1 4.66 11.04C4.62 10.99 4.6 10.94 4.57 10.88C4.54 10.83 4.53 10.78 4.51 10.73C4.5 10.65 4.5 10.57 4.5 10.5L4.5 5.5C4.5 5.42 4.5 5.34 4.51 5.25C4.53 5.21 4.54 5.16 4.57 5.11C4.6 5.05 4.62 5 4.66 4.94C4.69 4.89 4.73 4.84 4.79 4.78C4.84 4.73 4.89 4.69 4.94 4.66C5 4.62 5.04 4.6 5.1 4.57C5.16 4.55 5.2 4.53 5.26 4.52C5.34 4.5 5.42 4.5 5.5 4.5ZM3 6C3 5.71 2.78 5.5 2.5 5.5C2.2 5.5 2 5.71 2 6L2 10C2 10.28 2.2 10.5 2.5 10.5C2.78 10.5 3 10.28 3 10L3 6ZM14 6C14 5.71 13.78 5.5 13.5 5.5C13.22 5.5 13 5.71 13 6L13 10C13 10.28 13.22 10.5 13.5 10.5C13.78 10.5 14 10.28 14 10L14 6ZM1.5 7.5C1.5 7.21 1.28 7 1 7C0.72 7 0.5 7.21 0.5 7.5L0.5 8.5C0.5 8.78 0.72 9 1 9C1.28 9 1.5 8.78 1.5 8.5L1.5 7.5ZM15.5 7.5C15.5 7.21 15.28 7 15 7C14.72 7 14.5 7.21 14.5 7.5L14.5 8.5C14.5 8.78 14.72 9 15 9C15.28 9 15.5 8.78 15.5 8.5L15.5 7.5ZM5.5 8C5.5 8.41 5.82 8.75 6.25 8.75C6.68 8.75 7 8.41 7 8C7 7.59 6.66 7.25 6.25 7.25C5.84 7.25 5.5 7.58 5.5 8ZM9 8C9 8.41 9.32 8.75 9.75 8.75C10.18 8.75 10.5 8.41 10.5 8C10.5 7.59 10.16 7.25 9.75 7.25C9.34 7.25 9 7.58 9 8ZM4.98 13.5C4.69 13.5 4.48 13.72 4.48 14C4.48 14.28 4.69 14.5 4.98 14.5L10.99 14.5C11.27 14.5 11.49 14.28 11.49 14C11.49 13.72 11.27 13.5 10.99 13.5L4.98 13.5Z" fill="currentColor" fill-opacity="1.000000" fill-rule="evenodd"/>
	</g>
</svg>
