<svg width="16.000000" height="16.000000" viewBox="0 0 16 16" fill="none" xmlns="http://www.w3.org/2000/svg" xmlns:xlink="http://www.w3.org/1999/xlink">
	<desc>
			Created with Pixso.
	</desc>
	<defs/>
	<rect id="128#匿名-anonymous" width="16.000000" height="16.000000" fill="#FFFFFF" fill-opacity="0"/>
	<path id="_矢量-122" d="M2.66 7.37L4.16 3.76C4.23 3.58 4.33 3.42 4.44 3.28C4.54 3.17 4.64 3.07 4.76 2.99C4.88 2.9 5 2.83 5.13 2.77C5.28 2.7 5.44 2.66 5.61 2.63C5.78 2.6 5.95 2.6 6.11 2.63C6.25 2.65 6.39 2.68 6.53 2.73C6.67 2.78 6.79 2.84 6.91 2.92C7.07 3.02 7.2 3.14 7.33 3.29C7.38 3.35 7.44 3.41 7.5 3.45C7.54 3.48 7.59 3.51 7.63 3.53C7.68 3.55 7.73 3.57 7.79 3.58C7.85 3.6 7.92 3.61 8 3.61C8.07 3.61 8.14 3.61 8.2 3.58C8.26 3.58 8.31 3.55 8.35 3.53C8.39 3.51 8.45 3.48 8.49 3.45C8.55 3.41 8.6 3.35 8.66 3.29C8.79 3.14 8.92 3.02 9.08 2.92C9.2 2.84 9.32 2.78 9.46 2.73C9.6 2.68 9.74 2.65 9.88 2.63C10.04 2.61 10.21 2.61 10.38 2.63C10.55 2.65 10.71 2.7 10.86 2.77C10.99 2.83 11.11 2.9 11.23 2.99C11.35 3.07 11.45 3.17 11.54 3.28C11.66 3.42 11.75 3.58 11.83 3.76L13.33 7.37L15 7.37C15.28 7.37 15.5 7.59 15.5 7.87C15.5 8.15 15.28 8.37 15 8.37L1 8.37C0.7 8.37 0.5 8.15 0.5 7.87C0.5 7.59 0.7 7.37 1 7.37L2.66 7.37ZM3.75 7.37L12.25 7.37L10.9 4.14C10.86 4.05 10.81 3.97 10.75 3.9L10.63 3.78C10.58 3.75 10.53 3.72 10.47 3.69C10.4 3.66 10.32 3.63 10.22 3.62C10.14 3.62 10.06 3.62 9.97 3.62C9.92 3.62 9.85 3.64 9.8 3.66C9.75 3.68 9.7 3.7 9.64 3.73C9.57 3.78 9.5 3.84 9.43 3.92C9.33 4.04 9.22 4.15 9.1 4.24C9 4.31 8.89 4.37 8.77 4.43C8.66 4.48 8.54 4.52 8.42 4.55C8.28 4.58 8.14 4.6 8 4.6C7.85 4.6 7.71 4.58 7.57 4.55C7.45 4.52 7.33 4.48 7.22 4.43C7.1 4.37 6.99 4.31 6.89 4.24C6.77 4.15 6.66 4.04 6.56 3.92C6.49 3.84 6.42 3.78 6.34 3.73C6.29 3.7 6.24 3.68 6.19 3.66C6.13 3.64 6.07 3.63 6.01 3.62C5.93 3.62 5.85 3.62 5.76 3.62C5.67 3.62 5.59 3.66 5.52 3.69C5.46 3.72 5.41 3.75 5.36 3.78C5.32 3.82 5.28 3.86 5.24 3.9C5.18 3.97 5.13 4.05 5.09 4.14L3.75 7.37ZM6 9.37C6.1 9.37 6.21 9.38 6.31 9.4C6.4 9.42 6.49 9.45 6.58 9.48C6.67 9.52 6.75 9.56 6.82 9.61C6.91 9.67 6.98 9.73 7.06 9.8C7.13 9.88 7.19 9.95 7.25 10.04C7.3 10.11 7.34 10.2 7.38 10.28C7.41 10.37 7.44 10.46 7.46 10.55C7.48 10.65 7.5 10.76 7.5 10.87L8.5 10.87C8.5 10.76 8.51 10.65 8.53 10.55C8.55 10.46 8.58 10.37 8.6 10.28C8.64 10.2 8.68 10.11 8.74 10.04C8.8 9.95 8.85 9.88 8.93 9.8C9.01 9.73 9.08 9.67 9.17 9.61C9.24 9.56 9.32 9.52 9.41 9.48C9.5 9.45 9.59 9.42 9.68 9.4C9.78 9.38 9.89 9.37 10 9.37L12 9.37C12.1 9.37 12.21 9.38 12.31 9.4C12.4 9.42 12.49 9.45 12.58 9.48C12.67 9.52 12.75 9.56 12.82 9.61C12.91 9.67 12.98 9.73 13.06 9.8C13.13 9.88 13.19 9.95 13.25 10.04C13.3 10.11 13.34 10.2 13.38 10.28C13.41 10.37 13.44 10.46 13.46 10.55C13.48 10.65 13.5 10.76 13.5 10.87L13.5 11.87C13.5 11.97 13.48 12.08 13.46 12.18C13.44 12.27 13.41 12.36 13.38 12.45C13.34 12.54 13.3 12.62 13.25 12.69C13.19 12.78 13.13 12.85 13.06 12.93C12.98 13 12.91 13.06 12.82 13.12C12.75 13.17 12.67 13.21 12.58 13.25C12.49 13.28 12.4 13.31 12.31 13.33C12.21 13.35 12.1 13.37 12 13.37L10 13.37C9.89 13.37 9.78 13.35 9.68 13.33C9.59 13.31 9.5 13.28 9.41 13.25C9.32 13.21 9.24 13.17 9.17 13.12C9.08 13.06 9.01 13 8.93 12.93C8.85 12.85 8.8 12.78 8.74 12.69C8.68 12.62 8.64 12.54 8.6 12.45C8.58 12.36 8.55 12.27 8.53 12.18C8.51 12.08 8.5 11.97 8.5 11.87L7.5 11.87C7.5 11.97 7.48 12.08 7.46 12.18C7.44 12.27 7.41 12.36 7.38 12.45C7.34 12.54 7.3 12.62 7.25 12.69C7.19 12.78 7.13 12.85 7.06 12.93C6.98 13 6.91 13.06 6.82 13.12C6.75 13.17 6.67 13.21 6.58 13.25C6.49 13.28 6.4 13.31 6.31 13.33C6.21 13.35 6.1 13.37 6 13.37L4 13.37C3.89 13.37 3.78 13.35 3.68 13.33C3.59 13.31 3.5 13.28 3.41 13.25C3.32 13.21 3.24 13.17 3.17 13.12C3.08 13.06 3.01 13 2.93 12.93C2.86 12.85 2.8 12.78 2.74 12.69C2.69 12.62 2.65 12.54 2.61 12.45C2.58 12.36 2.55 12.27 2.53 12.18C2.51 12.08 2.5 11.97 2.5 11.87L2.5 10.87C2.5 10.76 2.5 10.65 2.53 10.55C2.55 10.46 2.58 10.37 2.61 10.28C2.65 10.2 2.69 10.11 2.74 10.04C2.8 9.95 2.86 9.88 2.93 9.8C3.01 9.73 3.08 9.67 3.17 9.61C3.24 9.56 3.32 9.52 3.41 9.48C3.5 9.45 3.59 9.42 3.68 9.4C3.78 9.38 3.89 9.37 4 9.37L6 9.37ZM6.5 11.87L6.5 10.87C6.5 10.8 6.48 10.73 6.46 10.67C6.43 10.61 6.4 10.56 6.35 10.51C6.3 10.46 6.25 10.43 6.19 10.4C6.13 10.38 6.06 10.37 6 10.37L4 10.37C3.93 10.37 3.86 10.38 3.8 10.4C3.74 10.43 3.69 10.46 3.64 10.51C3.59 10.56 3.56 10.61 3.53 10.67C3.51 10.73 3.5 10.8 3.5 10.87L3.5 11.87C3.5 11.93 3.5 12 3.53 12.06C3.56 12.12 3.59 12.17 3.64 12.22C3.69 12.27 3.74 12.3 3.8 12.33C3.86 12.35 3.93 12.37 4 12.37L6 12.37C6.06 12.37 6.13 12.35 6.19 12.33C6.25 12.3 6.3 12.27 6.35 12.22C6.4 12.17 6.43 12.12 6.46 12.06C6.48 12 6.5 11.93 6.5 11.87ZM9.5 10.87L9.5 11.87C9.5 11.93 9.51 12 9.53 12.06C9.56 12.12 9.59 12.17 9.64 12.22C9.68 12.27 9.74 12.3 9.8 12.33C9.85 12.35 9.93 12.37 10 12.37L12 12.37C12.06 12.37 12.13 12.35 12.19 12.33C12.25 12.3 12.3 12.27 12.35 12.22C12.4 12.17 12.43 12.12 12.46 12.06C12.48 12 12.5 11.93 12.5 11.87L12.5 10.87C12.5 10.8 12.48 10.73 12.46 10.67C12.43 10.61 12.4 10.56 12.35 10.51C12.3 10.46 12.25 10.43 12.19 10.4C12.13 10.38 12.06 10.37 12 10.37L10 10.37C9.93 10.37 9.85 10.38 9.8 10.4C9.74 10.43 9.68 10.46 9.64 10.51C9.59 10.56 9.56 10.61 9.53 10.67C9.51 10.73 9.5 10.8 9.5 10.87Z" fill="currentColor" fill-opacity="1.000000" fill-rule="evenodd"/>
</svg>
