<svg width="16.000000" height="16.000000" viewBox="0 0 16 16" fill="none" xmlns="http://www.w3.org/2000/svg" xmlns:xlink="http://www.w3.org/1999/xlink">
	<desc>
			Created with Pixso.
	</desc>
	<defs>
		<clipPath id="clip225_868">
			<rect id="急需处理-emergency-handling" width="16.000000" height="16.000000" fill="white" fill-opacity="0"/>
		</clipPath>
	</defs>
	<rect id="129#急需处理-emergency" width="16.000000" height="16.000000" fill="#FFFFFF" fill-opacity="0"/>
	<g clip-path="url(#clip225_868)">
		<path id="_矢量-218" d="M8 1C4.13 1 1 4.13 1 8C1 11.87 4.13 15 8 15C11.87 15 15 11.86 15 8C15 4.14 11.86 1 8 1ZM8 2C4.67 2 2 4.67 2 8C2 11.32 4.67 14 8 14C11.32 14 14 11.31 14 8C14 4.69 11.31 2 8 2ZM9 4L9 6.75L10.5 6.75C10.63 6.75 10.75 6.79 10.85 6.89C10.95 6.99 11 7.11 11 7.25C11 7.29 10.99 7.34 10.98 7.38C10.96 7.43 10.94 7.47 10.92 7.51L7.92 12.26C7.84 12.38 7.74 12.45 7.61 12.48C7.47 12.51 7.34 12.49 7.23 12.42C7.16 12.37 7.1 12.31 7.06 12.24C7.02 12.16 7 12.08 7 12L7 9.25L5.5 9.25C5.36 9.25 5.24 9.2 5.14 9.1C5.04 9 5 8.88 5 8.75C5 8.7 5 8.64 5.01 8.6C5.03 8.56 5.05 8.52 5.07 8.47L8.07 3.73C8.14 3.61 8.25 3.54 8.38 3.51C8.52 3.48 8.64 3.51 8.76 3.57C8.83 3.62 8.89 3.68 8.93 3.75C8.97 3.83 9 3.91 9 4ZM8.5 7.75C8.35 7.75 8.24 7.7 8.14 7.6C8.04 7.5 8 7.38 8 7.25L8 5.72L6.4 8.25L7.5 8.25C7.63 8.25 7.75 8.29 7.85 8.39C7.95 8.49 8 8.6 8 8.75L8 10.27L9.59 7.75L8.5 7.75Z" fill="currentColor" fill-opacity="1.000000" fill-rule="evenodd"/>
	</g>
</svg>
