<svg width="16.000000" height="16.000000" viewBox="0 0 16 16" fill="none" xmlns="http://www.w3.org/2000/svg" xmlns:xlink="http://www.w3.org/1999/xlink">
	<desc>
			Created with Pixso.
	</desc>
	<defs>
		<clipPath id="clip225_1094">
			<rect id="图表-chart" width="16.000000" height="16.000000" fill="white" fill-opacity="0"/>
		</clipPath>
	</defs>
	<rect id="13#折线表-chart-line" width="16.000000" height="16.000000" fill="#FFFFFF" fill-opacity="0"/>
	<g clip-path="url(#clip225_1094)">
		<path id="path" d="M14 13.5C14 13.75 13.81 13.96 13.56 13.99L4 13.99C2.92 14 2.06 13.16 2 12.11L2 2.5C2 2.22 2.22 2 2.5 2C2.75 2 2.96 2.18 2.99 2.43L2.99 12C3 12.52 3.39 12.94 3.89 12.99L13.5 12.99C13.77 13 14 13.22 14 13.5ZM4.6 9.44L7.1 7.2L9.89 9.46C10.09 9.61 10.35 9.61 10.54 9.46L13.56 6.93C13.77 6.75 13.8 6.44 13.62 6.22C13.44 6.01 13.13 5.98 12.91 6.16L10.21 8.42L7.4 6.16C7.21 6 6.94 6.01 6.75 6.17L3.93 8.7C3.73 8.88 3.78 9.26 3.96 9.47C4.15 9.61 4.42 9.61 4.6 9.44Z" fill="currentColor" fill-opacity="1.000000" fill-rule="nonzero"/>
	</g>
</svg>
