<svg width="16.000000" height="16.000000" viewBox="0 0 16 16" fill="none" xmlns="http://www.w3.org/2000/svg" xmlns:xlink="http://www.w3.org/1999/xlink">
	<desc>
			Created with Pixso.
	</desc>
	<defs>
		<clipPath id="clip225_893">
			<rect id="图表条形图-chart-rank" width="16.000000" height="16.000000" fill="white" fill-opacity="0"/>
		</clipPath>
	</defs>
	<rect id="13.1#条形图-chart-rank" width="16.000000" height="16.000000" fill="#FFFFFF" fill-opacity="0"/>
	<g clip-path="url(#clip225_893)">
		<path id="_矢量-45" d="M3 1.53C3 1.23 2.78 1 2.5 1C2.22 1 2 1.23 2 1.53L2 14.46C2 14.76 2.22 15 2.5 15C2.78 15 3 14.76 3 14.46L3 1.53ZM4.5 3L8.5 3C8.77 3 9 3.22 9 3.5C9 3.78 8.77 4 8.5 4L4.5 4C4.21 4 4 3.77 4 3.5C4 3.23 4.21 3 4.5 3ZM12.5 6L4.5 6C4.21 6 4 6.22 4 6.5C4 6.78 4.21 7 4.5 7L12.5 7C12.77 7 13 6.77 13 6.5C13 6.23 12.77 6 12.5 6ZM4.5 9L9.5 9C9.77 9 10 9.22 10 9.5C10 9.78 9.77 10 9.5 10L4.5 10C4.21 10 4 9.77 4 9.5C4 9.22 4.21 9 4.5 9ZM13.5 12L4.5 12C4.21 12 4 12.22 4 12.5C4 12.78 4.21 13 4.5 13L13.5 13C13.77 13 14 12.77 14 12.5C14 12.23 13.77 12 13.5 12Z" fill="currentColor" fill-opacity="1.000000" fill-rule="evenodd"/>
	</g>
</svg>
