<svg width="16.000000" height="16.000000" viewBox="0 0 16 16" fill="none" xmlns="http://www.w3.org/2000/svg" xmlns:xlink="http://www.w3.org/1999/xlink">
	<desc>
			Created with Pixso.
	</desc>
	<defs>
		<clipPath id="clip225_891">
			<rect id="图表数字图-chart-numbers" width="16.000000" height="16.000000" fill="white" fill-opacity="0"/>
		</clipPath>
	</defs>
	<rect id="13.2#数字图-chart-numbers" width="16.000000" height="16.000000" fill="#FFFFFF" fill-opacity="0"/>
	<g clip-path="url(#clip225_891)">
		<path id="_矢量-47" d="M15 4C15 2.89 14.1 2 13 2L3 2C1.89 2 1 2.89 1 4L1 12C1 13.1 1.89 14 3 14L13 14C14.1 14 15 13.1 15 12L15 4ZM14 4C14 3.44 13.55 3 13 3L3 3C2.44 3 2 3.44 2 4L2 12C2 12.55 2.44 13 3 13L13 13C13.55 13 14 12.55 14 12L14 4ZM9.52 9.67L7.46 9.67L8.39 8.66C8.76 8.28 9.01 7.97 9.14 7.72C9.22 7.6 9.27 7.46 9.31 7.33C9.34 7.2 9.35 7.07 9.35 6.92C9.35 6.66 9.3 6.42 9.18 6.21C9.05 5.99 8.85 5.78 8.63 5.67C8.41 5.55 8.14 5.5 7.85 5.5C7.61 5.5 7.38 5.53 7.18 5.62C7.05 5.66 6.93 5.73 6.82 5.81C6.51 6 6.31 6.31 6.2 6.69L6.87 7.06C6.95 6.81 7.07 6.61 7.22 6.47C7.38 6.33 7.57 6.25 7.78 6.25C7.91 6.25 8.03 6.28 8.13 6.35C8.18 6.38 8.22 6.41 8.26 6.45C8.35 6.57 8.45 6.77 8.45 6.97C8.45 7.03 8.43 7.09 8.43 7.14C8.41 7.28 8.35 7.39 8.29 7.5C8.18 7.67 8 7.91 7.73 8.21L6.2 9.87L6.2 10.42L9.52 10.42L9.52 9.67ZM12.63 7.88C12.89 7.97 13.1 8.1 13.25 8.28C13.37 8.47 13.5 8.8 13.5 9.06C13.5 9.31 13.44 9.53 13.34 9.72C13.32 9.75 13.29 9.8 13.27 9.84C13.12 10.05 12.91 10.22 12.65 10.33C12.4 10.44 12.11 10.5 11.8 10.5C11.49 10.5 11.19 10.43 10.93 10.31C10.87 10.28 10.81 10.25 10.76 10.21C10.45 10.03 10.24 9.75 10.13 9.39L10.81 9.02C10.88 9.25 11.01 9.43 11.19 9.56C11.37 9.68 11.57 9.75 11.79 9.75C12.01 9.75 12.2 9.67 12.36 9.55C12.41 9.5 12.45 9.45 12.49 9.41C12.55 9.3 12.59 9.16 12.59 9C12.59 8.85 12.55 8.72 12.48 8.63C12.33 8.39 11.99 8.27 11.47 8.27L11.28 8.27L11.28 7.56L11.54 7.56C11.82 7.56 12.04 7.5 12.19 7.37C12.26 7.31 12.32 7.23 12.35 7.14C12.39 7.06 12.41 6.97 12.41 6.87C12.41 6.74 12.38 6.62 12.32 6.53C12.3 6.49 12.26 6.45 12.22 6.41C12.1 6.3 11.94 6.25 11.74 6.25C11.53 6.25 11.35 6.31 11.2 6.44C11.05 6.56 10.93 6.75 10.85 6.98L10.18 6.62C10.31 6.25 10.51 5.97 10.79 5.78C11.06 5.63 11.46 5.5 11.81 5.5C12.11 5.5 12.37 5.56 12.6 5.67C12.83 5.78 13.01 5.92 13.14 6.13C13.16 6.17 13.18 6.2 13.2 6.24C13.28 6.41 13.32 6.6 13.32 6.81C13.32 7.06 13.27 7.27 13.15 7.45C13.03 7.63 12.86 7.77 12.63 7.88ZM2.5 6.41L2.5 7.22L3.78 6.52L3.78 10.42L4.65 10.42L4.65 5.58L3.98 5.58L2.5 6.41Z" fill="currentColor" fill-opacity="1.000000" fill-rule="evenodd"/>
	</g>
</svg>
