<svg width="16.000000" height="16.000000" viewBox="0 0 16 16" fill="none" xmlns="http://www.w3.org/2000/svg" xmlns:xlink="http://www.w3.org/1999/xlink">
	<desc>
			Created with Pixso.
	</desc>
	<defs>
		<clipPath id="clip225_892">
			<rect id="图表环形图-chart-donut" width="16.000000" height="16.000000" fill="white" fill-opacity="0"/>
		</clipPath>
	</defs>
	<rect id="13.3#环形图-chart-donut" width="16.000000" height="16.000000" fill="#FFFFFF" fill-opacity="0"/>
	<g clip-path="url(#clip225_892)">
		<path id="_矢量-49" d="M6.67 2.14C6.32 2.22 5.99 2.33 5.66 2.47C5.32 2.61 5.01 2.78 4.71 2.97C4.37 3.2 4.05 3.46 3.75 3.75C3.46 4.05 3.2 4.37 2.97 4.71C2.78 5 2.61 5.32 2.47 5.66C2.33 5.99 2.22 6.32 2.14 6.67C2.04 7.1 2 7.53 2 8C2 8.46 2.04 8.89 2.14 9.32C2.22 9.67 2.33 10 2.47 10.33C2.61 10.67 2.78 10.98 2.97 11.28C3.2 11.62 3.46 11.94 3.75 12.24C4.31 12.79 4.94 13.22 5.66 13.52C5.99 13.66 6.32 13.77 6.66 13.85C7.1 13.95 7.54 14 8 14C8.46 14 8.89 13.95 9.32 13.85C9.67 13.77 10 13.66 10.33 13.52C10.67 13.38 10.98 13.21 11.28 13.02C11.62 12.79 11.94 12.53 12.24 12.24C12.79 11.68 13.22 11.05 13.52 10.33C13.66 10 13.77 9.67 13.85 9.32C13.95 8.89 14 8.45 14 8C14 7.71 14.22 7.5 14.5 7.5C14.78 7.5 15 7.71 15 8C15 8.52 14.94 9.03 14.83 9.52C14.74 9.92 14.61 10.33 14.44 10.72C14.28 11.11 14.08 11.49 13.85 11.84C13.59 12.24 13.29 12.6 12.94 12.94C12.6 13.29 12.24 13.59 11.84 13.85C11.49 14.08 11.11 14.28 10.72 14.44C10.33 14.61 9.93 14.74 9.52 14.83C9.03 14.94 8.52 15 8 15C7.48 15 6.96 14.94 6.47 14.83C6.06 14.74 5.66 14.61 5.27 14.44C4.88 14.28 4.5 14.08 4.15 13.85C3.75 13.59 3.39 13.29 3.05 12.94C2.7 12.6 2.4 12.24 2.14 11.84C1.91 11.49 1.71 11.11 1.55 10.72C1.38 10.33 1.25 9.92 1.16 9.52C1.04 9.03 1 8.52 1 8C1 7.48 1.04 6.96 1.16 6.47C1.25 6.06 1.38 5.66 1.55 5.27C1.71 4.88 1.91 4.5 2.14 4.14C2.4 3.75 2.7 3.39 3.05 3.05C3.39 2.7 3.75 2.39 4.15 2.14C4.5 1.91 4.88 1.71 5.27 1.55C5.66 1.38 6.06 1.25 6.47 1.16C6.96 1.04 7.47 1 8 1C8.28 1 8.5 1.21 8.5 1.5C8.5 1.78 8.28 2 8 2C7.54 2 7.1 2.03 6.67 2.14ZM9.74 2.25C9.47 2.17 9.32 1.89 9.39 1.63C9.49 1.36 9.76 1.21 10.03 1.28C10.13 1.32 10.22 1.36 10.32 1.39C10.44 1.42 10.56 1.48 10.67 1.53C11.08 1.69 11.46 1.89 11.82 2.13C12.22 2.39 12.6 2.7 12.94 3.05C13.29 3.39 13.6 3.77 13.86 4.17C14.1 4.53 14.3 4.91 14.46 5.32C14.51 5.42 14.56 5.55 14.6 5.67C14.63 5.77 14.67 5.86 14.7 5.96C14.78 6.23 14.63 6.5 14.36 6.59C14.09 6.67 13.82 6.52 13.74 6.25C13.68 6.06 13.62 5.88 13.54 5.7C13.24 4.96 12.8 4.32 12.24 3.75C11.94 3.45 11.61 3.19 11.26 2.96C10.96 2.75 10.63 2.59 10.29 2.45C10.18 2.41 10.09 2.36 9.99 2.33C9.89 2.3 9.82 2.28 9.74 2.25ZM8 4C5.79 4 4 5.78 4 8C4 10.21 5.79 12 8 12C10.21 12 12 10.2 12 8C12 5.8 10.2 4 8 4ZM8 5C6.34 5 5 6.34 5 8C5 9.66 6.34 11 8 11C9.66 11 11 9.64 11 8C11 6.35 9.64 5 8 5Z" fill="currentColor" fill-opacity="1.000000" fill-rule="evenodd"/>
	</g>
</svg>
