<svg width="16.000000" height="16.000000" viewBox="0 0 16 16" fill="none" xmlns="http://www.w3.org/2000/svg" xmlns:xlink="http://www.w3.org/1999/xlink">
	<desc>
			Created with Pixso.
	</desc>
	<defs>
		<clipPath id="clip225_894">
			<rect id="图表面积图-chart-area" width="16.000000" height="16.000000" fill="white" fill-opacity="0"/>
		</clipPath>
	</defs>
	<rect id="13.4#面积图-chart-area" width="16.000000" height="16.000000" fill="#FFFFFF" fill-opacity="0"/>
	<g clip-path="url(#clip225_894)">
		<path id="_矢量-44" d="M2.5 2C2.75 2 2.96 2.18 2.99 2.43L2.99 12C2.99 12.52 3.39 12.94 3.9 12.99L13.5 12.99C13.77 13 14 13.22 14 13.5C14 13.75 13.81 13.96 13.56 13.99L4 13.99C2.93 14 2.06 13.16 2 12.11L2 2.5C2 2.22 2.22 2 2.5 2ZM4.67 6.53L8.37 7.91L12.14 4.14C12.26 4.02 12.38 3.96 12.5 3.96C12.61 3.96 12.73 4.02 12.85 4.14C12.9 4.19 12.93 4.24 12.96 4.3C12.98 4.36 13 4.43 13 4.5L13 11.5C13 11.83 12.83 12 12.5 12L4.5 12C4.33 12 4.19 11.95 4.12 11.87C4.04 11.79 4 11.66 4 11.5L4 7C4 6.83 4.04 6.7 4.12 6.62C4.19 6.54 4.33 6.5 4.5 6.5C4.53 6.5 4.64 6.52 4.67 6.53ZM5 11L5 7.72L8.32 8.96C8.42 9 8.51 9.01 8.6 8.99C8.68 8.97 8.77 8.92 8.85 8.85L12 5.7L12 11L5 11Z" fill="currentColor" fill-opacity="1.000000" fill-rule="evenodd"/>
	</g>
</svg>
