<svg width="16.000000" height="16.000000" viewBox="0 0 16 16" fill="none" xmlns="http://www.w3.org/2000/svg" xmlns:xlink="http://www.w3.org/1999/xlink">
	<desc>
			Created with Pixso.
	</desc>
	<defs>
		<clipPath id="clip225_905">
			<rect id="玉玦图-chart-jadeJue" width="16.000000" height="16.000000" fill="white" fill-opacity="0"/>
		</clipPath>
	</defs>
	<rect id="13.5#玉玦图-chart-jade-jue" width="16.000000" height="16.000000" fill="#FFFFFF" fill-opacity="0"/>
	<g clip-path="url(#clip225_905)">
		<path id="_矢量-48" d="M6.47 14.83C6.96 14.94 7.47 15 8 15C8.28 15 8.5 14.78 8.5 14.5C8.5 14.22 8.28 14 8 14C7.54 14 7.1 13.95 6.67 13.85C6.32 13.77 5.99 13.66 5.66 13.52C5.32 13.38 5.01 13.21 4.71 13.02C4.37 12.79 4.05 12.53 3.75 12.24C3.46 11.94 3.2 11.62 2.97 11.28C2.78 10.98 2.61 10.67 2.47 10.33C2.33 10 2.22 9.67 2.14 9.31C2.04 8.89 2 8.45 2 8C2 7.55 2.04 7.1 2.14 6.67C2.22 6.32 2.33 5.99 2.47 5.66C2.61 5.31 2.78 5 2.97 4.71C3.2 4.37 3.46 4.05 3.75 3.75C4.05 3.46 4.37 3.2 4.71 2.97C5.01 2.78 5.32 2.61 5.66 2.47C5.99 2.33 6.32 2.22 6.67 2.14C7.1 2.03 7.54 2 8 2C8.46 2 8.89 2.03 9.32 2.14C9.67 2.22 10 2.33 10.33 2.47C10.67 2.61 10.98 2.78 11.28 2.97C11.62 3.2 11.94 3.46 12.24 3.75C12.53 4.05 12.79 4.37 13.02 4.71C13.21 5 13.38 5.32 13.52 5.66C13.66 5.99 13.77 6.31 13.85 6.67C13.95 7.1 14 7.53 14 8C14 8.28 14.22 8.5 14.5 8.5C14.78 8.5 15 8.28 15 8C15 7.47 14.94 6.95 14.83 6.47C14.74 6.06 14.61 5.66 14.44 5.27C14.28 4.88 14.08 4.5 13.85 4.14C13.59 3.75 13.29 3.39 12.94 3.05C12.6 2.7 12.24 2.39 11.84 2.14C11.49 1.91 11.11 1.71 10.72 1.55C10.33 1.38 9.93 1.25 9.52 1.16C9.03 1.04 8.52 1 8 1C7.48 1 6.96 1.04 6.47 1.16C6.06 1.25 5.66 1.38 5.27 1.55C4.88 1.71 4.5 1.91 4.15 2.14C3.75 2.39 3.39 2.7 3.05 3.05C2.7 3.39 2.4 3.75 2.14 4.14C1.91 4.5 1.71 4.88 1.55 5.27C1.38 5.66 1.25 6.06 1.16 6.47C1.04 6.95 1 7.47 1 8C1 8.53 1.04 9.03 1.16 9.52C1.25 9.92 1.38 10.33 1.55 10.72C1.71 11.11 1.91 11.49 2.14 11.84C2.4 12.24 2.7 12.6 3.05 12.94C3.39 13.29 3.75 13.59 4.15 13.85C4.5 14.08 4.88 14.28 5.27 14.44C5.66 14.61 6.06 14.74 6.47 14.83ZM7.02 12.39C6.75 12.33 6.5 12.25 6.24 12.14C5.99 12.03 5.75 11.91 5.52 11.76C5.27 11.59 5.03 11.4 4.81 11.18C4.59 10.96 4.4 10.72 4.23 10.47C4.09 10.24 3.96 10 3.85 9.75C3.74 9.48 3.66 9.23 3.6 8.97C3.53 8.66 3.5 8.33 3.5 8C3.5 7.67 3.53 7.33 3.6 7.02C3.66 6.75 3.74 6.5 3.85 6.23C3.96 5.98 4.09 5.75 4.23 5.51C4.4 5.26 4.59 5.03 4.81 4.81C5.03 4.59 5.27 4.39 5.52 4.23C5.75 4.08 5.99 3.95 6.24 3.84C6.5 3.73 6.75 3.66 7.02 3.59C7.33 3.53 7.66 3.5 8 3.5C8.34 3.5 8.66 3.53 8.97 3.59C9.24 3.66 9.49 3.73 9.75 3.84C10 3.95 10.24 4.09 10.47 4.23C10.72 4.39 10.96 4.59 11.18 4.81C11.4 5.03 11.59 5.26 11.76 5.51C11.91 5.75 12.03 5.98 12.14 6.23C12.25 6.5 12.33 6.75 12.39 7.01C12.46 7.33 12.5 7.66 12.5 8C12.5 8.28 12.28 8.5 12 8.5C11.72 8.5 11.5 8.28 11.5 8C11.5 7.72 11.47 7.47 11.41 7.2C11.36 7.01 11.3 6.81 11.22 6.62C11.14 6.44 11.04 6.25 10.93 6.08C10.79 5.87 10.64 5.69 10.47 5.51C10.3 5.34 10.1 5.2 9.91 5.06C9.74 4.94 9.55 4.84 9.35 4.76C9.17 4.69 8.97 4.62 8.78 4.58C8.52 4.51 8.26 4.5 8 4.5C7.74 4.5 7.47 4.51 7.21 4.58C7.02 4.62 6.82 4.69 6.63 4.76C6.44 4.84 6.25 4.94 6.08 5.06C5.88 5.2 5.69 5.34 5.52 5.51C5.35 5.69 5.2 5.87 5.06 6.08C4.94 6.25 4.85 6.44 4.77 6.62C4.69 6.81 4.63 7.01 4.58 7.2C4.52 7.47 4.5 7.73 4.5 8C4.5 8.26 4.52 8.51 4.58 8.78C4.63 8.97 4.69 9.17 4.77 9.35C4.85 9.54 4.94 9.73 5.06 9.91C5.2 10.1 5.35 10.3 5.52 10.47C5.69 10.64 5.88 10.79 6.08 10.93C6.25 11.04 6.44 11.14 6.63 11.22C6.82 11.3 7.02 11.36 7.21 11.41C7.47 11.47 7.73 11.5 8 11.5C8.27 11.5 8.5 11.72 8.5 12C8.5 12.28 8.28 12.5 8 12.5C7.66 12.5 7.33 12.46 7.02 12.39ZM8 10C7.85 10 7.71 9.97 7.57 9.95C7.45 9.92 7.33 9.89 7.22 9.84C7.1 9.78 6.99 9.72 6.89 9.66C6.78 9.59 6.68 9.5 6.58 9.41C6.48 9.31 6.4 9.2 6.33 9.09C6.26 9 6.2 8.89 6.15 8.76C6.1 8.66 6.07 8.53 6.04 8.42C6.01 8.28 6 8.14 6 8C6 7.84 6.01 7.7 6.04 7.56C6.07 7.45 6.1 7.33 6.15 7.22C6.2 7.09 6.26 6.98 6.33 6.89C6.4 6.78 6.48 6.67 6.58 6.58C6.68 6.48 6.78 6.39 6.89 6.33C6.99 6.25 7.1 6.2 7.22 6.14C7.33 6.09 7.45 6.06 7.57 6.03C7.71 6 7.85 6 8 6C8.14 6 8.28 6 8.42 6.03C8.54 6.06 8.66 6.09 8.77 6.14C8.89 6.2 9 6.25 9.1 6.33C9.21 6.39 9.31 6.48 9.41 6.58C9.51 6.67 9.59 6.78 9.66 6.89C9.72 6.98 9.79 7.09 9.84 7.22C9.89 7.33 9.92 7.45 9.95 7.56C9.97 7.7 10 7.84 10 8C10 8.28 9.78 8.5 9.5 8.5C9.22 8.5 9 8.28 9 8C9 7.92 8.99 7.84 8.97 7.75C8.96 7.7 8.93 7.66 8.92 7.61C8.89 7.55 8.87 7.5 8.83 7.45C8.8 7.39 8.75 7.34 8.7 7.28C8.64 7.23 8.6 7.19 8.54 7.16C8.49 7.12 8.43 7.09 8.38 7.06C8.33 7.05 8.28 7.03 8.22 7.01C8.14 7 8.07 7 8 7C7.92 7 7.84 7 7.76 7.01C7.71 7.03 7.66 7.05 7.61 7.06C7.55 7.09 7.5 7.12 7.45 7.16C7.39 7.19 7.34 7.23 7.29 7.28C7.24 7.34 7.19 7.39 7.16 7.45C7.12 7.5 7.1 7.55 7.07 7.61C7.05 7.66 7.03 7.7 7.02 7.75C7 7.84 7 7.92 7 8C7 8.06 7 8.14 7.02 8.22C7.03 8.28 7.05 8.33 7.07 8.37C7.1 8.43 7.12 8.48 7.16 8.53C7.19 8.59 7.24 8.64 7.29 8.7C7.34 8.75 7.39 8.79 7.45 8.83C7.5 8.87 7.55 8.89 7.61 8.92C7.66 8.93 7.71 8.95 7.76 8.97C7.84 8.98 7.92 9 8 9C8.28 9 8.5 9.2 8.5 9.5C8.5 9.78 8.28 10 8 10Z" fill="currentColor" fill-opacity="1.000000" fill-rule="evenodd"/>
	</g>
</svg>
