<svg width="16.000000" height="16.000000" viewBox="0 0 16 16" fill="none" xmlns="http://www.w3.org/2000/svg" xmlns:xlink="http://www.w3.org/1999/xlink">
	<desc>
			Created with Pixso.
	</desc>
	<defs>
		<clipPath id="clip225_906">
			<rect id="极坐标-chart-polarBar" width="16.000000" height="16.000000" fill="white" fill-opacity="0"/>
		</clipPath>
	</defs>
	<rect id="13.6#极坐标-chart-polar-bar" width="16.000000" height="16.000000" fill="#FFFFFF" fill-opacity="0"/>
	<g clip-path="url(#clip225_906)">
		<path id="_矢量-49" d="M8 1C4.13 1 1 4.13 1 8C1 11.87 4.13 15 8 15C11.87 15 15 11.86 15 8C15 4.14 11.86 1 8 1ZM2.02 7.5C2.26 4.58 4.58 2.25 7.5 2.02L7.5 4.03C5.69 4.25 4.25 5.69 4.03 7.5L2.02 7.5ZM4.03 8.5L2.02 8.5C2.26 11.41 4.58 13.73 7.5 13.97L7.5 11.96C5.69 11.74 4.25 10.3 4.03 8.5ZM7.5 10.95C6.24 10.74 5.25 9.75 5.04 8.5L7.5 8.5L7.5 10.95ZM8.5 11.96L8.5 13.97C11.41 13.73 13.73 11.41 13.97 8.5L11.96 8.5C11.74 10.3 10.3 11.74 8.5 11.96ZM10.95 8.5C10.74 9.75 9.75 10.74 8.5 10.95L8.5 8.5L10.95 8.5ZM11.96 7.5L13.97 7.5C13.73 4.58 11.41 2.25 8.5 2.02L8.5 4.03C10.3 4.25 11.74 5.69 11.96 7.5ZM8.5 5.03C9.75 5.25 10.74 6.24 10.95 7.5L8.5 7.5L8.5 5.03ZM7.5 5.03L7.5 7.5L5.04 7.5C5.25 6.24 6.24 5.25 7.5 5.03Z" fill="currentColor" fill-opacity="1.000000" fill-rule="evenodd"/>
	</g>
</svg>
