<svg width="16.000000" height="16.000000" viewBox="0 0 16 16" fill="none" xmlns="http://www.w3.org/2000/svg" xmlns:xlink="http://www.w3.org/1999/xlink">
	<desc>
			Created with Pixso.
	</desc>
	<defs>
		<clipPath id="clip225_871">
			<rect id="手动处理-manual-handling" width="16.000000" height="16.000000" fill="white" fill-opacity="0"/>
		</clipPath>
	</defs>
	<rect id="130#手动处理-manual" width="16.000000" height="16.000000" fill="#FFFFFF" fill-opacity="0"/>
	<g clip-path="url(#clip225_871)">
		<path id="_矢量-219" d="M4 5.5L3.5 5.5C3.35 5.5 3.21 5.48 3.07 5.45C2.95 5.42 2.83 5.39 2.72 5.34C2.6 5.29 2.49 5.23 2.39 5.16C2.28 5.09 2.18 5.01 2.08 4.91C1.98 4.81 1.9 4.71 1.83 4.6C1.76 4.5 1.7 4.39 1.65 4.27C1.6 4.16 1.57 4.04 1.54 3.92C1.51 3.78 1.5 3.64 1.5 3.5C1.5 3.35 1.5 3.21 1.54 3.07C1.57 2.95 1.6 2.83 1.65 2.72C1.7 2.6 1.76 2.49 1.83 2.39C1.9 2.28 1.98 2.18 2.08 2.08C2.18 1.98 2.28 1.9 2.39 1.83C2.49 1.76 2.6 1.7 2.72 1.65C2.83 1.6 2.95 1.57 3.07 1.54C3.21 1.51 3.35 1.5 3.5 1.5L12.5 1.5C12.64 1.5 12.78 1.5 12.92 1.54C13.04 1.57 13.16 1.6 13.27 1.65C13.39 1.7 13.5 1.76 13.6 1.83C13.71 1.9 13.81 1.98 13.91 2.08C14.01 2.18 14.09 2.28 14.16 2.39C14.23 2.49 14.29 2.6 14.34 2.72C14.39 2.83 14.42 2.95 14.45 3.07C14.48 3.21 14.5 3.35 14.5 3.5C14.5 3.64 14.48 3.78 14.45 3.92C14.42 4.04 14.39 4.16 14.34 4.27C14.29 4.39 14.23 4.5 14.16 4.6C14.09 4.71 14.01 4.81 13.91 4.91C13.81 5.01 13.71 5.09 13.6 5.16C13.5 5.23 13.39 5.29 13.27 5.34C13.16 5.39 13.04 5.42 12.92 5.45C12.78 5.48 12.64 5.5 12.5 5.5L10 5.5C9.72 5.5 9.5 5.28 9.5 5C9.5 4.71 9.72 4.5 10 4.5L12.5 4.5C12.57 4.5 12.65 4.48 12.73 4.46C12.78 4.46 12.83 4.44 12.88 4.42L13.04 4.34C13.1 4.3 13.15 4.25 13.2 4.19C13.25 4.15 13.3 4.1 13.33 4.04C13.33 4.04 13.39 3.94 13.42 3.88C13.44 3.83 13.46 3.78 13.47 3.73C13.49 3.65 13.5 3.57 13.5 3.5C13.5 3.42 13.49 3.34 13.47 3.26C13.46 3.21 13.44 3.16 13.42 3.11C13.39 3.05 13.37 3 13.33 2.95C13.3 2.89 13.25 2.84 13.2 2.79C13.15 2.74 13.1 2.69 13.04 2.66C12.99 2.62 12.93 2.6 12.88 2.57C12.83 2.55 12.78 2.53 12.73 2.52C12.65 2.5 12.57 2.5 12.5 2.5L3.5 2.5C3.42 2.5 3.34 2.5 3.26 2.52C3.21 2.52 3.16 2.55 3.11 2.57C3.05 2.6 3 2.62 2.95 2.66C2.89 2.69 2.84 2.74 2.79 2.79C2.74 2.84 2.69 2.89 2.66 2.95C2.66 2.95 2.6 3.05 2.57 3.11C2.55 3.16 2.53 3.21 2.52 3.26C2.5 3.34 2.5 3.42 2.5 3.5C2.5 3.57 2.5 3.65 2.52 3.73C2.52 3.78 2.55 3.83 2.57 3.88C2.6 3.94 2.62 3.99 2.66 4.04C2.69 4.1 2.74 4.15 2.79 4.19C2.84 4.25 2.89 4.3 2.95 4.33C2.95 4.33 3.05 4.39 3.11 4.42C3.16 4.44 3.21 4.46 3.26 4.46C3.34 4.48 3.42 4.5 3.5 4.5L4 4.5C4.28 4.5 4.5 4.71 4.5 5C4.5 5.29 4.28 5.5 4 5.5ZM5.51 4.63C5.49 4.71 5.48 4.82 5.48 4.92L5.48 9.2L5.11 8.78C5.04 8.71 4.96 8.64 4.88 8.59C4.8 8.54 4.71 8.5 4.63 8.47C4.55 8.43 4.46 8.41 4.38 8.39C4.29 8.37 4.19 8.35 4.1 8.35C4 8.35 3.91 8.37 3.82 8.39C3.73 8.41 3.65 8.43 3.56 8.47C3.48 8.5 3.4 8.54 3.32 8.59C3.24 8.64 3.16 8.71 3.09 8.78C3.02 8.85 2.96 8.93 2.91 9C2.86 9.08 2.81 9.17 2.78 9.25C2.74 9.34 2.72 9.42 2.7 9.5C2.68 9.6 2.67 9.68 2.67 9.78C2.67 9.88 2.67 9.97 2.7 10.07C2.72 10.16 2.75 10.24 2.78 10.32C2.81 10.41 2.86 10.49 2.91 10.57C2.96 10.65 3.02 10.72 3.09 10.79L5.78 13.51C5.87 13.6 5.97 13.69 6.07 13.76C6.46 14.06 6.92 14.27 7.45 14.38C7.69 14.43 7.97 14.46 8.27 14.48C8.46 14.49 8.71 14.5 9.02 14.5L10.01 14.5C10.42 14.5 10.8 14.44 11.17 14.33C11.57 14.22 11.92 14.04 12.22 13.82C12.46 13.64 12.66 13.43 12.82 13.2C12.9 13.1 12.96 13 13.02 12.88C13.07 12.79 13.11 12.68 13.15 12.58C13.26 12.28 13.32 11.96 13.32 11.62L13.32 8.51C13.32 8.42 13.32 8.32 13.29 8.22C13.27 8.12 13.23 8.02 13.18 7.92C13.15 7.85 13.11 7.79 13.07 7.73C13.01 7.63 12.94 7.55 12.85 7.47C12.79 7.41 12.72 7.36 12.65 7.32C12.57 7.27 12.49 7.23 12.4 7.19C12.3 7.15 12.2 7.12 12.1 7.11C12.02 7.09 11.94 7.09 11.86 7.09C11.74 7.09 11.62 7.09 11.51 7.13C11.48 7.1 11.38 7.05 11.37 7.06C11.34 7.01 11.31 6.97 11.27 6.92C11.2 6.84 11.13 6.77 11.04 6.7C10.97 6.65 10.89 6.6 10.81 6.56C10.74 6.53 10.67 6.5 10.6 6.48C10.48 6.45 10.36 6.43 10.22 6.43C10.1 6.43 9.97 6.45 9.87 6.48C9.85 6.46 9.75 6.4 9.74 6.4C9.71 6.36 9.67 6.31 9.63 6.27C9.57 6.18 9.49 6.11 9.41 6.05C9.33 5.99 9.26 5.95 9.17 5.91C9.1 5.88 9.03 5.85 8.96 5.83C8.84 5.8 8.72 5.78 8.59 5.78C8.5 5.78 8.42 5.78 8.33 5.81L8.33 4.92C8.33 4.82 8.32 4.71 8.3 4.63C8.28 4.54 8.25 4.44 8.22 4.37C8.18 4.28 8.14 4.19 8.09 4.13C8.04 4.05 7.98 3.98 7.91 3.91C7.85 3.85 7.78 3.79 7.7 3.74C7.62 3.69 7.55 3.64 7.46 3.61C7.38 3.57 7.29 3.54 7.2 3.53C7.1 3.51 7.01 3.5 6.91 3.5C6.81 3.5 6.71 3.5 6.62 3.52C6.53 3.54 6.44 3.57 6.35 3.61C6.27 3.64 6.19 3.69 6.12 3.73C6.04 3.79 5.97 3.85 5.9 3.91C5.83 3.98 5.77 4.05 5.72 4.13C5.67 4.19 5.63 4.28 5.59 4.36C5.56 4.44 5.53 4.54 5.51 4.63ZM8.33 6.9C8.28 6.96 8.24 7.05 8.22 7.15L8.22 9C8.22 9.16 8.1 9.28 7.96 9.35C7.9 9.38 7.84 9.39 7.77 9.39C7.67 9.39 7.56 9.35 7.48 9.28C7.39 9.22 7.33 9.12 7.33 9L7.33 4.92C7.33 4.69 7.14 4.5 6.91 4.5C6.68 4.5 6.48 4.69 6.48 4.92L6.48 10.88C6.48 10.88 6.4 11.04 6.38 11.06L6.26 11.15L6.03 11.19C5.98 11.19 5.87 11.12 5.83 11.09L5.48 10.7L4.67 9.8L4.4 9.49C4.23 9.32 3.96 9.32 3.8 9.49C3.64 9.64 3.67 9.92 3.8 10.09L4.07 10.36L6.5 12.81C7.16 13.47 8.08 13.5 9.02 13.5L10.01 13.5C11.24 13.5 12.32 12.84 12.32 11.62L12.32 8.45C12.28 8.25 12.08 8.09 11.86 8.09C11.75 8.09 11.66 8.13 11.6 8.2C11.54 8.27 11.5 8.35 11.49 8.45L11.49 10.14C11.49 10.27 11.42 10.38 11.32 10.45C11.24 10.5 11.14 10.54 11.04 10.54C10.86 10.54 10.67 10.42 10.62 10.25C10.6 10.22 10.6 10.18 10.6 10.14L10.6 7.8C10.57 7.59 10.44 7.43 10.22 7.43C10.12 7.43 10.03 7.48 9.96 7.55C9.91 7.61 9.87 7.7 9.85 7.8L9.85 9.49C9.85 9.64 9.74 9.78 9.6 9.84C9.54 9.87 9.47 9.88 9.41 9.88C9.27 9.88 9.12 9.81 9.03 9.68C8.99 9.63 8.96 9.57 8.96 9.49L8.96 7.15C8.93 6.94 8.81 6.78 8.59 6.78C8.47 6.78 8.39 6.82 8.33 6.9Z" fill="currentColor" fill-opacity="1.000000" fill-rule="evenodd"/>
	</g>
</svg>
