<svg width="16.000000" height="16.000000" viewBox="0 0 16 16" fill="none" xmlns="http://www.w3.org/2000/svg" xmlns:xlink="http://www.w3.org/1999/xlink">
	<desc>
			Created with Pixso.
	</desc>
	<defs>
		<clipPath id="clip225_898">
			<rect id="威胁情报-threat-intelligence" width="16.000000" height="16.000000" fill="white" fill-opacity="0"/>
		</clipPath>
	</defs>
	<rect id="132#威胁情报-threat-report" width="16.000000" height="16.000000" fill="#FFFFFF" fill-opacity="0"/>
	<g clip-path="url(#clip225_898)">
		<path id="_矢量-225" d="M3.57 13.1C3.82 13.3 4.1 13.49 4.39 13.66C4.64 13.8 4.94 13.72 5.07 13.48C5.22 13.24 5.14 12.94 4.89 12.8C4.64 12.65 4.39 12.48 4.17 12.3C4.01 12.17 3.85 12.03 3.7 11.88C3.48 11.65 3.25 11.4 3.07 11.14C2.97 11 2.88 10.86 2.78 10.71C2.63 10.44 2.5 10.17 2.38 9.88C2.31 9.7 2.25 9.52 2.2 9.34C2.14 9.14 2.1 8.95 2.07 8.75C2.01 8.42 2 8.13 2 7.81C2 7.39 2.03 6.99 2.13 6.6C2.2 6.24 2.32 5.89 2.45 5.55C2.57 5.27 2.72 5 2.88 4.77C3.12 4.38 3.41 4.03 3.75 3.7C4 3.45 4.26 3.23 4.56 3.03C4.89 2.81 5.26 2.61 5.66 2.45C5.95 2.33 6.26 2.23 6.57 2.16C7.03 2.05 7.5 2 8 2C8.47 2 8.95 2.05 9.39 2.16C9.72 2.23 10.03 2.33 10.34 2.45C10.72 2.61 11.09 2.81 11.43 3.03C11.72 3.23 11.99 3.45 12.24 3.7C12.58 4.03 12.87 4.38 13.11 4.77C13.27 5.02 13.41 5.28 13.53 5.55C13.67 5.89 13.79 6.24 13.86 6.6C13.95 6.99 14 7.39 14 7.81C14 8.13 13.97 8.45 13.92 8.75C13.88 8.95 13.84 9.14 13.79 9.33C13.74 9.5 13.68 9.67 13.62 9.85C13.51 10.13 13.37 10.42 13.21 10.69C13.13 10.83 13.04 10.97 12.94 11.11C12.75 11.37 12.54 11.62 12.31 11.86C12.16 12 12.01 12.14 11.85 12.27C11.63 12.45 11.39 12.62 11.14 12.77C10.89 12.91 10.82 13.22 10.96 13.46C11.11 13.7 11.41 13.77 11.65 13.63C11.94 13.46 12.21 13.27 12.47 13.06C12.66 12.9 12.84 12.74 13.02 12.56C13.28 12.3 13.52 12.02 13.73 11.72C13.85 11.55 13.97 11.38 14.07 11.2C14.25 10.89 14.4 10.58 14.53 10.26C14.62 10.04 14.69 9.82 14.75 9.59C14.82 9.35 14.87 9.13 14.91 8.89C14.97 8.53 15 8.17 15 7.81C15 7.33 14.94 6.86 14.84 6.39C14.75 5.97 14.62 5.56 14.44 5.14C14.3 4.82 14.13 4.5 13.93 4.19C13.65 3.75 13.32 3.36 12.94 2.99C12.64 2.69 12.32 2.42 11.97 2.2C11.58 1.94 11.16 1.71 10.72 1.53C10.35 1.38 9.97 1.25 9.6 1.16C9.07 1.03 8.53 1 8 1C7.47 1 6.91 1.03 6.39 1.16C6 1.25 5.64 1.38 5.28 1.53C4.82 1.71 4.41 1.94 4 2.2C3.67 2.42 3.35 2.69 3.04 2.99C2.67 3.35 2.32 3.75 2.06 4.19C1.85 4.5 1.69 4.82 1.54 5.14C1.37 5.56 1.23 5.97 1.14 6.39C1.04 6.86 1 7.33 1 7.81C1 8.17 1.01 8.53 1.07 8.89C1.12 9.13 1.16 9.37 1.23 9.6C1.29 9.83 1.37 10.05 1.45 10.27C1.59 10.6 1.75 10.92 1.92 11.22C2.03 11.41 2.16 11.58 2.28 11.75C2.5 12.05 2.73 12.33 3 12.6C3.19 12.77 3.38 12.94 3.57 13.1ZM5.53 11.72C5.39 11.63 5.25 11.53 5.1 11.42C4.78 11.18 4.5 10.91 4.28 10.61C4.09 10.38 3.94 10.13 3.79 9.85C3.64 9.55 3.51 9.22 3.44 8.89C3.35 8.55 3.31 8.2 3.31 7.83C3.31 7.5 3.35 7.19 3.41 6.88C3.47 6.59 3.56 6.31 3.67 6.05C3.78 5.81 3.89 5.61 4.03 5.39C4.2 5.11 4.42 4.84 4.69 4.6C4.89 4.39 5.1 4.23 5.34 4.06C5.6 3.89 5.88 3.75 6.17 3.62C6.42 3.52 6.67 3.44 6.92 3.39C7.26 3.31 7.63 3.27 8 3.27C8.35 3.27 8.72 3.31 9.07 3.39C9.32 3.44 9.57 3.52 9.81 3.62C10.1 3.75 10.39 3.89 10.66 4.06C10.89 4.23 11.1 4.39 11.3 4.59C11.56 4.84 11.78 5.11 11.96 5.39C12.09 5.61 12.21 5.81 12.31 6.05C12.43 6.31 12.52 6.59 12.58 6.88C12.64 7.19 12.68 7.5 12.68 7.83C12.68 8.2 12.63 8.56 12.55 8.92C12.45 9.25 12.32 9.6 12.15 9.92C12.01 10.21 11.84 10.46 11.65 10.69C11.39 11 11.1 11.28 10.76 11.52C10.67 11.58 10.56 11.66 10.44 11.73C10.2 11.87 9.89 11.8 9.75 11.56C9.6 11.32 9.67 11.02 9.92 10.87C10.02 10.81 10.1 10.75 10.18 10.7C10.45 10.51 10.69 10.28 10.89 10.03C11.03 9.84 11.16 9.66 11.27 9.45C11.41 9.2 11.51 8.95 11.58 8.67C11.64 8.41 11.68 8.12 11.68 7.83C11.68 7.58 11.65 7.33 11.6 7.08C11.55 6.87 11.48 6.66 11.39 6.45C11.32 6.28 11.23 6.12 11.14 5.97C10.99 5.73 10.81 5.52 10.61 5.31C10.45 5.16 10.28 5.03 10.1 4.91C9.89 4.77 9.67 4.64 9.42 4.55C9.25 4.45 9.06 4.41 8.87 4.37C8.59 4.3 8.29 4.27 8 4.27C7.7 4.27 7.39 4.3 7.12 4.37C6.92 4.41 6.73 4.45 6.56 4.55C6.32 4.64 6.09 4.77 5.88 4.91C5.7 5.03 5.53 5.16 5.39 5.31C5.17 5.52 5 5.73 4.85 5.97C4.75 6.12 4.67 6.28 4.6 6.45C4.5 6.66 4.44 6.87 4.39 7.09C4.34 7.33 4.31 7.58 4.31 7.83C4.31 8.12 4.34 8.39 4.41 8.66C4.45 8.92 4.57 9.17 4.69 9.41C4.78 9.59 4.91 9.78 5.03 9.97C5.23 10.21 5.45 10.43 5.7 10.63C5.82 10.72 5.94 10.79 6.04 10.86C6.28 11.01 6.37 11.31 6.22 11.55C6.08 11.79 5.78 11.86 5.53 11.72ZM8 5.47C8.17 5.47 8.35 5.48 8.53 5.52C8.67 5.55 8.79 5.6 8.92 5.64C9.09 5.7 9.22 5.78 9.35 5.88C9.47 5.95 9.6 6.05 9.7 6.14C9.82 6.28 9.92 6.42 10.04 6.56C10.1 6.67 10.17 6.78 10.22 6.91C10.29 7.05 10.33 7.19 10.36 7.34C10.4 7.5 10.42 7.67 10.42 7.83C10.42 8 10.4 8.16 10.36 8.31C10.33 8.47 10.29 8.62 10.22 8.75C10.17 8.88 10.1 8.99 10.04 9.1C9.92 9.25 9.82 9.39 9.7 9.5C9.6 9.6 9.47 9.7 9.35 9.78C9.22 9.88 9.09 9.95 8.92 10.02C8.79 10.07 8.67 10.1 8.53 10.14C8.35 10.18 8.17 10.2 8 10.2C7.81 10.2 7.63 10.18 7.45 10.14C7.32 10.1 7.19 10.07 7.06 10.02C6.89 9.95 6.75 9.88 6.63 9.78C6.5 9.7 6.39 9.6 6.28 9.5C6.16 9.39 6.04 9.25 5.95 9.1C5.88 8.99 5.82 8.88 5.76 8.75C5.7 8.62 5.66 8.47 5.63 8.31C5.59 8.16 5.57 8 5.57 7.83C5.57 7.66 5.59 7.5 5.63 7.34C5.66 7.19 5.7 7.05 5.76 6.91C5.82 6.78 5.88 6.67 5.95 6.56C6.04 6.42 6.16 6.28 6.28 6.14C6.39 6.05 6.5 5.95 6.63 5.88C6.75 5.78 6.89 5.7 7.06 5.64C7.19 5.6 7.32 5.56 7.45 5.52C7.63 5.49 7.81 5.47 8 5.47ZM8 6.47C7.88 6.47 7.75 6.48 7.64 6.5C7.57 6.52 7.5 6.55 7.44 6.56C7.34 6.61 7.25 6.66 7.17 6.72C7.1 6.75 7.03 6.81 6.98 6.87C6.89 6.95 6.82 7.03 6.76 7.13C6.73 7.19 6.7 7.25 6.67 7.31C6.64 7.38 6.62 7.46 6.6 7.55C6.57 7.64 6.57 7.73 6.57 7.83C6.57 7.92 6.57 8.03 6.6 8.12C6.6 8.2 6.64 8.28 6.67 8.35C6.7 8.42 6.73 8.47 6.76 8.53C6.82 8.63 6.89 8.71 6.98 8.78C7.03 8.85 7.1 8.89 7.17 8.95C7.25 9 7.34 9.05 7.44 9.09C7.5 9.12 7.57 9.14 7.64 9.16C7.75 9.17 7.88 9.2 8 9.2C8.1 9.2 8.22 9.17 8.34 9.16C8.41 9.14 8.47 9.12 8.54 9.09C8.64 9.05 8.72 9 8.81 8.95C8.88 8.89 8.93 8.85 9 8.78C9.09 8.71 9.16 8.63 9.22 8.53C9.25 8.47 9.28 8.42 9.31 8.35C9.34 8.28 9.37 8.2 9.39 8.12C9.41 8.02 9.42 7.92 9.42 7.83C9.42 7.73 9.41 7.64 9.39 7.55C9.37 7.47 9.34 7.38 9.31 7.31C9.28 7.25 9.25 7.19 9.22 7.14C9.16 7.03 9.07 6.95 9 6.87C8.95 6.81 8.88 6.75 8.81 6.71C8.72 6.66 8.64 6.61 8.54 6.57C8.47 6.55 8.41 6.52 8.34 6.5C8.22 6.48 8.1 6.47 8 6.47ZM10.41 14.22C10.41 14.22 10.46 14.3 10.47 14.35C10.49 14.4 10.5 14.45 10.5 14.5C10.5 14.63 10.45 14.75 10.35 14.85C10.3 14.89 10.25 14.93 10.18 14.96C10.13 14.98 10.06 15 10 15L6 15C5.95 15 5.89 14.99 5.85 14.97C5.79 14.96 5.75 14.94 5.72 14.91C5.6 14.83 5.53 14.73 5.5 14.59C5.48 14.46 5.5 14.33 5.57 14.22L7.6 11.22C7.6 11.22 7.7 11.1 7.73 11.08C7.85 11 7.98 10.98 8.1 11.01C8.25 11.03 8.35 11.1 8.42 11.22L10.41 14.22ZM8 12.4L9.07 14L6.92 14L8 12.4Z" fill="currentColor" fill-opacity="1.000000" fill-rule="evenodd"/>
	</g>
</svg>
