<svg width="16.000000" height="16.000000" viewBox="0 0 16 16" fill="none" xmlns="http://www.w3.org/2000/svg" xmlns:xlink="http://www.w3.org/1999/xlink">
	<desc>
			Created with Pixso.
	</desc>
	<defs>
		<clipPath id="clip225_899">
			<rect id="AV引擎-av-engine" width="16.000000" height="16.000000" fill="white" fill-opacity="0"/>
		</clipPath>
	</defs>
	<rect id="133#AV引擎-av-engine" width="16.000000" height="16.000000" fill="#FFFFFF" fill-opacity="0"/>
	<g clip-path="url(#clip225_899)">
		<path id="_矢量-223" d="M8 15C7.47 15 6.95 14.94 6.47 14.83C6.06 14.74 5.66 14.61 5.26 14.44C4.88 14.28 4.5 14.08 4.14 13.85C3.75 13.59 3.39 13.29 3.04 12.94C2.7 12.6 2.39 12.24 2.14 11.84C1.91 11.49 1.7 11.11 1.54 10.72C1.38 10.33 1.25 9.92 1.16 9.52C1.04 9.02 1 8.52 1 8C1 7.48 1.04 6.96 1.16 6.47C1.25 6.06 1.38 5.66 1.54 5.27C1.7 4.88 1.91 4.5 2.14 4.14C2.39 3.75 2.7 3.39 3.04 3.05C3.39 2.7 3.75 2.39 4.14 2.14C4.5 1.91 4.88 1.71 5.26 1.55C5.66 1.38 6.06 1.25 6.47 1.16C6.95 1.03 7.47 1 8 1C8.53 1 9.03 1.03 9.51 1.16C9.92 1.25 10.33 1.38 10.72 1.55C11.11 1.71 11.48 1.91 11.84 2.14C12.24 2.39 12.6 2.7 12.94 3.05C13.29 3.39 13.59 3.75 13.85 4.14C14.08 4.5 14.28 4.88 14.44 5.27C14.61 5.66 14.74 6.06 14.83 6.47C14.94 6.96 15 7.47 15 8C15 8.53 14.94 9.02 14.83 9.52C14.74 9.92 14.61 10.33 14.44 10.72C14.28 11.11 14.08 11.49 13.85 11.84C13.59 12.24 13.29 12.6 12.94 12.94C12.6 13.29 12.24 13.59 11.84 13.85C11.48 14.07 11.11 14.27 10.72 14.44C10.33 14.61 9.92 14.74 9.51 14.83C9.03 14.94 8.51 15 8 15ZM8 14C8.45 14 8.89 13.95 9.32 13.85C9.67 13.77 10 13.66 10.33 13.52C10.67 13.38 10.98 13.21 11.28 13.02C11.62 12.79 11.94 12.53 12.24 12.24C12.53 11.94 12.79 11.62 13.02 11.28C13.21 10.98 13.38 10.67 13.52 10.33C13.66 10 13.77 9.67 13.85 9.32C13.95 8.89 14 8.45 14 8C14 7.55 13.95 7.1 13.85 6.67C13.77 6.32 13.66 5.99 13.52 5.66C13.38 5.32 13.21 5 13.02 4.71C12.79 4.37 12.53 4.05 12.24 3.75C11.94 3.46 11.62 3.2 11.28 2.97C10.98 2.78 10.67 2.61 10.33 2.47C10 2.33 9.67 2.22 9.32 2.14C8.89 2.03 8.45 2 8 2C7.54 2 7.1 2.03 6.67 2.14C6.32 2.22 5.98 2.33 5.66 2.47C5.32 2.61 5.01 2.78 4.7 2.97C4.37 3.2 4.04 3.46 3.75 3.75C3.45 4.05 3.19 4.37 2.97 4.71C2.78 5 2.6 5.32 2.47 5.66C2.32 5.99 2.22 6.32 2.14 6.67C2.04 7.1 2 7.53 2 8C2 8.47 2.04 8.89 2.14 9.32C2.22 9.67 2.32 10 2.47 10.33C2.6 10.67 2.78 10.98 2.97 11.28C3.2 11.62 3.45 11.94 3.75 12.24C4.04 12.53 4.37 12.79 4.7 13.02C5.01 13.21 5.32 13.38 5.66 13.52C5.98 13.66 6.32 13.77 6.67 13.85C7.09 13.95 7.54 14 8 14ZM7.54 3.78L5.04 9.28C4.92 9.53 5.04 9.83 5.29 9.95C5.54 10.07 5.82 9.96 5.95 9.7L6.73 8L9.26 8L10.04 9.7C10.16 9.96 10.45 10.07 10.7 9.95C10.96 9.83 11.07 9.53 10.95 9.28L8.45 3.78C8.45 3.78 8.38 3.67 8.35 3.64C8.31 3.6 8.26 3.56 8.2 3.53C8.07 3.48 7.95 3.48 7.82 3.53C7.69 3.58 7.6 3.66 7.54 3.78ZM8.81 7L7.17 7L8 5.2L8.81 7ZM5 11.5C5 11.22 5.2 11 5.5 11L10.5 11C10.78 11 11 11.22 11 11.5C11 11.78 10.78 12 10.5 12L5.5 12C5.2 12 5 11.78 5 11.5Z" fill="currentColor" fill-opacity="1.000000" fill-rule="evenodd"/>
	</g>
</svg>
