<svg width="16.000000" height="16.000000" viewBox="0 0 16 16" fill="none" xmlns="http://www.w3.org/2000/svg" xmlns:xlink="http://www.w3.org/1999/xlink">
	<desc>
			Created with Pixso.
	</desc>
	<defs>
		<clipPath id="clip225_900">
			<rect id="入侵-intrusion" width="16.000000" height="16.000000" fill="white" fill-opacity="0"/>
		</clipPath>
	</defs>
	<rect id="134#入侵-intrusion" width="16.000000" height="16.000000" fill="#FFFFFF" fill-opacity="0"/>
	<g clip-path="url(#clip225_900)">
		<path id="_矢量-244" d="M11.09 1.13L11.73 4.34L14.94 4.98C15.07 5 15.18 5.08 15.25 5.19C15.33 5.31 15.35 5.43 15.33 5.57C15.31 5.65 15.28 5.72 15.22 5.79C15.17 5.85 15.1 5.9 15.02 5.93L9.29 8.22C9.29 9.04 8.62 9.78 7.8 9.78C6.98 9.78 6.3 9.1 6.3 8.28C6.3 7.46 6.97 6.78 7.8 6.78L10.13 1.04C10.18 0.91 10.27 0.82 10.4 0.77C10.46 0.73 10.52 0.72 10.59 0.72C10.65 0.72 10.71 0.72 10.78 0.76C10.86 0.79 10.93 0.84 10.98 0.91C11.03 0.97 11.07 1.04 11.09 1.13ZM8.93 7.29C8.88 7.24 8.83 7.18 8.77 7.13L10.43 2.97L10.81 4.86C10.83 4.96 10.88 5.04 10.95 5.11C11.02 5.19 11.1 5.23 11.2 5.25L13.09 5.63L8.93 7.29ZM7.8 2.28C7.34 2.28 6.89 2.32 6.47 2.42C6.12 2.5 5.79 2.61 5.46 2.75C5.12 2.89 4.81 3.06 4.51 3.25C4.17 3.47 3.85 3.73 3.55 4.03C3.26 4.33 3 4.65 2.77 4.99C2.58 5.29 2.41 5.6 2.27 5.94C2.13 6.27 2.02 6.6 1.94 6.95C1.84 7.37 1.8 7.82 1.8 8.28C1.8 8.74 1.84 9.17 1.94 9.6C2.02 9.95 2.13 10.28 2.27 10.61C2.41 10.95 2.58 11.26 2.77 11.56C3 11.9 3.26 12.22 3.55 12.52C3.85 12.81 4.17 13.07 4.51 13.3C4.81 13.49 5.12 13.66 5.46 13.8C5.79 13.94 6.12 14.05 6.47 14.13C6.9 14.23 7.34 14.28 7.8 14.28C8.26 14.28 8.69 14.23 9.12 14.13C9.47 14.05 9.8 13.94 10.13 13.8C10.47 13.66 10.78 13.49 11.08 13.3C11.42 13.07 11.74 12.81 12.04 12.52C12.33 12.22 12.59 11.9 12.82 11.56C13.01 11.26 13.18 10.95 13.32 10.61C13.46 10.28 13.57 9.95 13.65 9.6C13.75 9.17 13.8 8.73 13.8 8.28C13.8 7.99 14.02 7.78 14.3 7.78C14.58 7.78 14.8 7.99 14.8 8.28C14.8 8.8 14.74 9.31 14.63 9.8C14.54 10.21 14.41 10.61 14.24 11C14.08 11.39 13.88 11.77 13.65 12.12C13.39 12.51 13.08 12.88 12.74 13.22C12.4 13.56 12.03 13.86 11.64 14.12C11.29 14.35 10.91 14.56 10.52 14.72C10.13 14.89 9.73 15.02 9.32 15.11C8.83 15.22 8.32 15.28 7.8 15.28C7.28 15.28 6.76 15.22 6.27 15.11C5.86 15.02 5.46 14.89 5.07 14.72C4.68 14.56 4.3 14.36 3.95 14.13C3.55 13.87 3.19 13.56 2.85 13.22C2.5 12.88 2.2 12.51 1.95 12.12C1.72 11.77 1.51 11.39 1.35 11C1.18 10.61 1.05 10.21 0.96 9.8C0.85 9.31 0.8 8.8 0.8 8.28C0.8 7.76 0.85 7.24 0.96 6.75C1.05 6.34 1.18 5.94 1.35 5.55C1.51 5.16 1.71 4.78 1.94 4.43C2.2 4.03 2.5 3.67 2.85 3.33C3.19 2.98 3.55 2.68 3.95 2.43C4.3 2.2 4.68 1.99 5.07 1.83C5.46 1.66 5.86 1.53 6.27 1.44C6.76 1.33 7.27 1.28 7.8 1.28C8.08 1.28 8.3 1.49 8.3 1.78C8.3 2.07 8.08 2.28 7.8 2.28Z" fill="currentColor" fill-opacity="1.000000" fill-rule="evenodd"/>
	</g>
</svg>
