<svg width="16.000000" height="16.000000" viewBox="0 0 16 16" fill="none" xmlns="http://www.w3.org/2000/svg" xmlns:xlink="http://www.w3.org/1999/xlink">
	<desc>
			Created with Pixso.
	</desc>
	<defs>
		<clipPath id="clip225_903">
			<rect id="风险评估-risk-assessment" width="16.000000" height="16.000000" fill="white" fill-opacity="0"/>
		</clipPath>
	</defs>
	<rect id="135#风险评估-risk-assessment" width="16.000000" height="16.000000" fill="#FFFFFF" fill-opacity="0"/>
	<g clip-path="url(#clip225_903)">
		<path id="_矢量-242" d="M9 1.03C8.9 1 8.79 1 8.69 1L5.69 1C5.58 1 5.47 1 5.37 1.03C5.28 1.03 5.19 1.08 5.1 1.11C5.01 1.14 4.93 1.19 4.86 1.24C4.77 1.3 4.7 1.36 4.62 1.42C4.55 1.5 4.49 1.58 4.43 1.67C4.38 1.74 4.34 1.82 4.3 1.91C4.27 2 4.24 2.08 4.22 2.17C4.2 2.28 4.19 2.38 4.19 2.5L3.69 2.5C3.54 2.5 3.4 2.5 3.26 2.53C3.14 2.57 3.02 2.6 2.91 2.64C2.79 2.7 2.68 2.75 2.58 2.83C2.47 2.89 2.37 2.98 2.27 3.08C2.17 3.17 2.09 3.28 2.02 3.39C1.95 3.49 1.89 3.6 1.84 3.72C1.79 3.83 1.76 3.95 1.73 4.07C1.7 4.21 1.69 4.35 1.69 4.5L1.69 12.5C1.69 12.64 1.69 12.78 1.73 12.92C1.76 13.04 1.79 13.16 1.84 13.27C1.89 13.39 1.95 13.5 2.02 13.6C2.09 13.71 2.17 13.81 2.27 13.91C2.37 14.01 2.47 14.09 2.58 14.16C2.68 14.23 2.79 14.29 2.91 14.34C3.02 14.39 3.14 14.42 3.26 14.45C3.4 14.48 3.54 14.5 3.69 14.5L8.19 14.5C8.47 14.5 8.69 14.28 8.69 14C8.69 13.72 8.47 13.5 8.19 13.5L3.69 13.5C3.61 13.5 3.53 13.49 3.45 13.47C3.4 13.46 3.35 13.44 3.3 13.42C3.24 13.39 3.19 13.37 3.14 13.33C3.08 13.3 3.03 13.25 2.98 13.2C2.92 13.15 2.88 13.1 2.85 13.04C2.81 12.99 2.79 12.94 2.76 12.88C2.74 12.83 2.72 12.78 2.71 12.73C2.69 12.65 2.69 12.57 2.69 12.5L2.69 4.5C2.69 4.42 2.69 4.34 2.71 4.25C2.71 4.21 2.74 4.16 2.76 4.11C2.79 4.05 2.81 4 2.85 3.95C2.88 3.89 2.92 3.83 2.98 3.78C3.03 3.74 3.08 3.69 3.14 3.66C3.19 3.62 3.24 3.6 3.3 3.57C3.34 3.55 3.39 3.53 3.45 3.52C3.53 3.5 3.61 3.5 3.69 3.5L4.19 3.5C4.19 3.6 4.2 3.71 4.22 3.81C4.24 3.89 4.27 3.99 4.3 4.08C4.34 4.17 4.38 4.25 4.43 4.32C4.49 4.41 4.55 4.48 4.62 4.56C4.7 4.63 4.77 4.69 4.86 4.75C4.93 4.8 5.01 4.84 5.1 4.88C5.19 4.91 5.28 4.94 5.37 4.96C5.47 4.98 5.58 5 5.69 5L8.69 5C8.79 5 8.9 4.98 9 4.96C9.09 4.94 9.17 4.91 9.27 4.88C9.36 4.84 9.44 4.8 9.51 4.75C9.6 4.69 9.67 4.63 9.75 4.56C9.82 4.48 9.88 4.41 9.94 4.32C9.99 4.25 10.03 4.17 10.07 4.08C10.1 3.99 10.13 3.89 10.15 3.81C10.17 3.71 10.19 3.6 10.19 3.5L10.69 3.5C10.76 3.5 10.84 3.5 10.92 3.52C10.97 3.52 11.02 3.55 11.07 3.57C11.13 3.6 11.18 3.62 11.23 3.66C11.29 3.69 11.34 3.74 11.39 3.78C11.44 3.83 11.48 3.89 11.52 3.95C11.56 4 11.58 4.05 11.61 4.11C11.63 4.16 11.65 4.21 11.66 4.25C11.68 4.34 11.69 4.42 11.69 4.5L11.69 6.5C11.69 6.78 11.91 7 12.19 7C12.47 7 12.69 6.78 12.69 6.5L12.69 4.5C12.69 4.35 12.67 4.21 12.64 4.07C12.61 3.95 12.58 3.83 12.53 3.72C12.48 3.6 12.42 3.49 12.35 3.39C12.28 3.28 12.2 3.17 12.1 3.08C12 2.98 11.9 2.89 11.79 2.83C11.69 2.75 11.58 2.7 11.46 2.64C11.35 2.6 11.23 2.57 11.11 2.53C10.97 2.5 10.83 2.5 10.69 2.5L10.19 2.5C10.19 2.38 10.17 2.28 10.15 2.17C10.13 2.08 10.09 2 10.07 1.91C10.03 1.82 9.99 1.74 9.94 1.67C9.88 1.58 9.82 1.5 9.75 1.42C9.67 1.36 9.6 1.3 9.51 1.24C9.44 1.19 9.36 1.14 9.27 1.11C9.17 1.08 9.09 1.03 9 1.03ZM5.69 2L8.69 2C8.75 2 8.82 2 8.88 2.03C8.94 2.06 8.99 2.08 9.04 2.14C9.09 2.19 9.12 2.24 9.15 2.3C9.17 2.35 9.19 2.42 9.19 2.5L9.19 3.5C9.19 3.56 9.17 3.63 9.15 3.69C9.12 3.75 9.09 3.8 9.04 3.85C8.99 3.89 8.94 3.92 8.88 3.96C8.82 3.98 8.75 4 8.69 4L5.69 4C5.62 4 5.55 3.98 5.49 3.96C5.43 3.92 5.38 3.89 5.33 3.85C5.28 3.8 5.25 3.75 5.22 3.69C5.2 3.63 5.19 3.56 5.19 3.5L5.19 2.5C5.19 2.42 5.2 2.35 5.22 2.3C5.25 2.24 5.28 2.19 5.33 2.14C5.38 2.08 5.43 2.06 5.49 2.03C5.55 2 5.62 2 5.69 2ZM4.69 6.5C4.4 6.5 4.19 6.71 4.19 7C4.19 7.28 4.4 7.5 4.69 7.5L9.69 7.5C9.97 7.5 10.19 7.28 10.19 7C10.19 6.72 9.97 6.5 9.69 6.5L4.69 6.5ZM13.19 10L14.09 8.8C14.12 8.75 14.14 8.7 14.16 8.64C14.18 8.6 14.19 8.55 14.19 8.5C14.19 8.35 14.14 8.24 14.04 8.14C13.99 8.09 13.94 8.05 13.88 8.03C13.82 8 13.75 8 13.69 8L10.55 8C10.5 8.02 10.46 8.04 10.42 8.07C10.34 8.12 10.28 8.17 10.23 8.28L8.73 11.43C8.73 11.43 8.69 11.57 8.69 11.59C8.69 11.72 8.73 11.9 8.83 12C8.87 12.04 8.92 12.08 8.99 12.11C9.05 12.13 9.11 12.15 9.19 12.15L10.48 12.15L9.71 14.33C9.67 14.42 9.67 14.51 9.7 14.61C9.72 14.7 9.76 14.78 9.83 14.85C9.87 14.89 9.92 14.93 9.99 14.96C10.05 14.98 10.11 15 10.19 15C10.25 15 10.32 14.98 10.38 14.96C10.44 14.93 10.49 14.89 10.54 14.85L14.54 10.85C14.59 10.8 14.62 10.75 14.65 10.69C14.67 10.63 14.69 10.56 14.69 10.5C14.69 10.36 14.64 10.24 14.54 10.14C14.49 10.09 14.44 10.05 14.38 10.03C14.32 10.01 14.25 10 14.19 10L13.19 10ZM4.19 9C4.19 8.71 4.4 8.5 4.69 8.5L7.69 8.5C7.97 8.5 8.19 8.71 8.19 9C8.19 9.28 7.97 9.5 7.69 9.5L4.69 9.5C4.4 9.5 4.19 9.28 4.19 9ZM12.69 9L11.79 10.2C11.7 10.31 11.67 10.43 11.69 10.57C11.71 10.7 11.77 10.81 11.89 10.9C11.93 10.93 11.98 10.95 12.03 10.97C12.08 10.99 12.13 11 12.19 11L12.98 11L11.38 12.59L11.66 11.81C11.7 11.68 11.7 11.55 11.64 11.43C11.58 11.3 11.48 11.22 11.35 11.17C11.32 11.17 11.21 11.15 11.19 11.15L9.98 11.15L11 9L12.69 9Z" fill="currentColor" fill-opacity="1.000000" fill-rule="evenodd"/>
	</g>
</svg>
