<svg width="16.000000" height="16.000000" viewBox="0 0 16 16" fill="none" xmlns="http://www.w3.org/2000/svg" xmlns:xlink="http://www.w3.org/1999/xlink">
	<desc>
			Created with Pixso.
	</desc>
	<defs>
		<clipPath id="clip225_904">
			<rect id="进程-process" width="16.000000" height="16.000000" fill="white" fill-opacity="0"/>
		</clipPath>
	</defs>
	<rect id="136#进程-process" width="16.000000" height="16.000000" fill="#FFFFFF" fill-opacity="0"/>
	<g clip-path="url(#clip225_904)">
		<path id="_矢量-240" d="M12 1.5C12.18 1.5 12.36 1.5 12.53 1.55C12.68 1.59 12.83 1.63 12.97 1.69C13.11 1.75 13.24 1.82 13.37 1.91C13.51 2 13.64 2.1 13.76 2.23C13.88 2.35 13.99 2.48 14.08 2.62C14.17 2.75 14.24 2.88 14.3 3.02C14.36 3.16 14.4 3.31 14.44 3.46C14.48 3.63 14.5 3.81 14.5 4L14.5 12C14.5 12.18 14.48 12.36 14.44 12.53C14.4 12.68 14.36 12.83 14.3 12.97C14.24 13.11 14.17 13.24 14.08 13.37C13.99 13.51 13.88 13.64 13.76 13.76C13.64 13.88 13.51 13.99 13.37 14.08C13.24 14.17 13.11 14.24 12.97 14.3C12.83 14.36 12.68 14.4 12.53 14.44C12.36 14.48 12.18 14.5 12 14.5L4 14.5C3.81 14.5 3.63 14.48 3.45 14.44C3.31 14.4 3.16 14.36 3.01 14.3C2.88 14.24 2.75 14.17 2.62 14.08C2.48 13.99 2.35 13.88 2.23 13.76C2.1 13.64 2 13.51 1.91 13.37C1.82 13.24 1.75 13.11 1.69 12.97C1.63 12.83 1.59 12.68 1.54 12.53C1.5 12.36 1.5 12.18 1.5 12L1.5 4C1.5 3.81 1.5 3.63 1.54 3.46C1.59 3.31 1.63 3.16 1.69 3.02C1.75 2.88 1.82 2.75 1.91 2.62C2 2.48 2.1 2.35 2.23 2.23C2.35 2.1 2.48 2 2.62 1.91C2.75 1.82 2.88 1.75 3.01 1.69C3.16 1.63 3.31 1.59 3.45 1.55C3.63 1.5 3.81 1.5 4 1.5L12 1.5ZM13.5 4L13.5 5.5L2.5 5.5L2.5 4C2.5 3.88 2.5 3.77 2.53 3.64C2.54 3.57 2.57 3.49 2.6 3.41C2.64 3.33 2.69 3.25 2.73 3.17C2.78 3.09 2.85 3 2.92 2.92C3 2.86 3.09 2.78 3.17 2.74C3.25 2.69 3.32 2.64 3.41 2.61C3.48 2.58 3.57 2.55 3.64 2.53C3.76 2.5 3.88 2.5 4 2.5L12 2.5C12.11 2.5 12.22 2.5 12.34 2.53C12.42 2.55 12.5 2.58 12.58 2.61C12.66 2.64 12.74 2.69 12.81 2.74C12.9 2.78 12.98 2.86 13.06 2.92C13.13 3 13.2 3.09 13.25 3.17C13.3 3.25 13.34 3.33 13.38 3.41C13.41 3.49 13.44 3.57 13.46 3.64C13.48 3.77 13.5 3.88 13.5 4ZM4 3.5C3.72 3.5 3.5 3.72 3.5 4C3.5 4.28 3.72 4.5 4 4.5C4.28 4.5 4.5 4.27 4.5 4C4.5 3.73 4.26 3.5 4 3.5ZM5.5 3.5C5.22 3.5 5 3.72 5 4C5 4.28 5.22 4.5 5.5 4.5C5.78 4.5 6 4.27 6 4C6 3.73 5.76 3.5 5.5 3.5ZM6.5 4C6.5 3.72 6.72 3.5 7 3.5C7.28 3.5 7.5 3.72 7.5 4C7.5 4.28 7.26 4.5 7 4.5C6.73 4.5 6.5 4.27 6.5 4ZM13.5 6.5L2.5 6.5L2.5 12C2.5 12.11 2.5 12.22 2.53 12.34C2.54 12.42 2.57 12.5 2.6 12.58C2.64 12.66 2.69 12.74 2.73 12.81C2.78 12.9 2.85 12.98 2.92 13.06C3 13.13 3.09 13.2 3.17 13.25C3.25 13.3 3.32 13.34 3.41 13.38C3.48 13.41 3.57 13.44 3.64 13.46C3.76 13.48 3.88 13.5 4 13.5L12 13.5C12.11 13.5 12.22 13.48 12.34 13.46C12.42 13.44 12.5 13.41 12.58 13.38C12.66 13.34 12.74 13.3 12.81 13.25C12.9 13.2 12.98 13.13 13.06 13.06C13.13 12.98 13.2 12.9 13.25 12.81C13.3 12.74 13.34 12.66 13.38 12.58C13.41 12.5 13.44 12.42 13.46 12.34C13.48 12.23 13.5 12.11 13.5 12L13.5 6.5ZM4 9.5L5.69 9.5L6.54 7.77C6.6 7.64 6.7 7.56 6.84 7.52C6.97 7.48 7.1 7.49 7.22 7.55C7.26 7.57 7.31 7.6 7.35 7.64C7.39 7.67 7.42 7.72 7.44 7.77L9 10.88L9.54 9.77C9.59 9.67 9.64 9.62 9.72 9.57C9.81 9.52 9.89 9.5 10 9.5L12 9.5C12.28 9.5 12.5 9.71 12.5 10C12.5 10.29 12.28 10.5 12 10.5L10.3 10.5L9.42 12.22C9.42 12.27 9.39 12.31 9.35 12.35C9.31 12.39 9.26 12.42 9.22 12.44C9.1 12.5 8.97 12.51 8.84 12.47C8.7 12.43 8.6 12.34 8.54 12.22L7 9.1L6.44 10.22C6.39 10.3 6.34 10.37 6.25 10.42C6.17 10.47 6.09 10.5 6 10.5L4 10.5C3.7 10.5 3.5 10.28 3.5 10C3.5 9.72 3.7 9.5 4 9.5Z" fill="currentColor" fill-opacity="1.000000" fill-rule="evenodd"/>
	</g>
</svg>
