<svg width="16.000000" height="16.000000" viewBox="0 0 16 16" fill="none" xmlns="http://www.w3.org/2000/svg" xmlns:xlink="http://www.w3.org/1999/xlink">
	<desc>
			Created with Pixso.
	</desc>
	<defs>
		<clipPath id="clip225_907">
			<rect id="视频教程-video-tutorial-guide" width="16.000000" height="16.000000" fill="white" fill-opacity="0"/>
		</clipPath>
	</defs>
	<rect id="137#视频教程-video-tutorial" width="16.000000" height="16.000000" fill="#FFFFFF" fill-opacity="0"/>
	<g clip-path="url(#clip225_907)">
		<path id="_合并" d="M12.79 2.06C12.61 2.02 12.43 2 12.25 2L3.75 2C3.57 2 3.39 2.02 3.2 2.06C3.06 2.08 2.92 2.14 2.78 2.2C2.63 2.25 2.5 2.33 2.36 2.41C2.23 2.5 2.1 2.61 1.98 2.73C1.85 2.85 1.75 2.98 1.66 3.12C1.57 3.25 1.5 3.38 1.44 3.52C1.39 3.67 1.34 3.81 1.31 3.96C1.26 4.14 1.25 4.32 1.25 4.5L1.25 11.5C1.25 11.68 1.26 11.86 1.31 12.04C1.34 12.19 1.39 12.33 1.45 12.47C1.51 12.61 1.57 12.75 1.67 12.87C1.76 13.01 1.87 13.14 1.98 13.26C2.1 13.38 2.23 13.49 2.38 13.58C2.51 13.66 2.64 13.74 2.78 13.8C2.92 13.86 3.07 13.91 3.2 13.94C3.39 13.98 3.57 14 3.75 14L12.25 14C12.43 14 12.61 13.98 12.79 13.94C12.94 13.91 13.08 13.86 13.22 13.8C13.36 13.74 13.5 13.67 13.62 13.58C13.76 13.49 13.89 13.38 14.01 13.26C14.13 13.14 14.24 13.01 14.33 12.87C14.41 12.74 14.49 12.61 14.55 12.47C14.61 12.33 14.66 12.18 14.69 12.04C14.73 11.86 14.75 11.69 14.75 11.5L14.75 4.5C14.75 4.32 14.73 4.14 14.69 3.96C14.66 3.81 14.61 3.67 14.55 3.53C14.49 3.39 14.42 3.25 14.33 3.13C14.24 2.99 14.13 2.86 14.01 2.74C13.89 2.62 13.76 2.5 13.62 2.42C13.49 2.33 13.36 2.25 13.22 2.2C13.08 2.14 12.94 2.08 12.79 2.06ZM3.75 3L12.25 3C12.37 3 12.48 3 12.59 3.03C12.67 3.06 12.75 3.09 12.83 3.12C12.91 3.14 12.99 3.2 13.06 3.24C13.15 3.3 13.23 3.36 13.3 3.44C13.38 3.5 13.44 3.6 13.5 3.67C13.55 3.75 13.59 3.83 13.62 3.91C13.65 3.99 13.68 4.07 13.7 4.14C13.73 4.25 13.74 4.37 13.74 4.49L13.74 10.49L2.25 10.49L2.25 4.49C2.25 4.37 2.25 4.25 2.29 4.14C2.31 4.08 2.32 4 2.36 3.92C2.39 3.83 2.44 3.75 2.48 3.67C2.54 3.59 2.6 3.5 2.69 3.44C2.76 3.37 2.85 3.3 2.92 3.24C3 3.19 3.07 3.14 3.16 3.12C3.23 3.09 3.32 3.06 3.39 3.03C3.51 3 3.63 3 3.75 3ZM6.5 8.72L6.5 5.47C6.5 5.08 6.92 4.84 7.26 5.03L10 6.66C10.33 6.85 10.33 7.33 10 7.52L7.25 9.14C6.92 9.35 6.5 9.1 6.5 8.72ZM7.5 6.35L7.5 7.84L8.76 7.1L7.5 6.35ZM2.25 11.5C2.25 11.62 2.25 11.73 2.29 11.84C2.31 11.92 2.33 12 2.36 12.08C2.39 12.16 2.45 12.24 2.48 12.31C2.54 12.4 2.6 12.48 2.69 12.55C2.76 12.62 2.85 12.69 2.92 12.75C3 12.8 3.07 12.84 3.16 12.87C3.23 12.9 3.32 12.93 3.39 12.95C3.51 12.99 3.63 13 3.75 13L12.25 13C12.37 13 12.48 12.99 12.59 12.96C12.67 12.94 12.75 12.91 12.83 12.88C12.91 12.85 12.99 12.8 13.06 12.76C13.15 12.7 13.23 12.64 13.3 12.56C13.38 12.48 13.44 12.4 13.5 12.32C13.55 12.25 13.59 12.17 13.62 12.09C13.65 12.01 13.68 11.93 13.7 11.85C13.73 11.74 13.74 11.63 13.74 11.51L2.25 11.5ZM4 11.75C3.72 11.75 3.5 11.97 3.5 12.25C3.5 12.53 3.72 12.75 4 12.75L6 12.75C6.28 12.75 6.5 12.53 6.5 12.25C6.5 11.97 6.28 11.75 6 11.75L4 11.75Z" fill="currentColor" fill-opacity="1.000000" fill-rule="evenodd"/>
	</g>
</svg>
