<svg width="16.000000" height="16.000000" viewBox="0 0 16 16" fill="none" xmlns="http://www.w3.org/2000/svg" xmlns:xlink="http://www.w3.org/1999/xlink">
	<desc>
			Created with Pixso.
	</desc>
	<defs>
		<clipPath id="clip225_908">
			<rect id="SDK中心-sdk-center" width="16.000000" height="16.000000" fill="white" fill-opacity="0"/>
		</clipPath>
	</defs>
	<rect id="138#SDK中心-sdk-center" width="16.000000" height="16.000000" fill="#FFFFFF" fill-opacity="0"/>
	<g clip-path="url(#clip225_908)">
		<path id="_形状结合_边框_" d="M10.2 2.32C10.14 2.29 10.07 2.28 10 2.28L6 2.28C5.94 2.28 5.87 2.28 5.81 2.32C5.75 2.34 5.7 2.38 5.65 2.43C5.6 2.48 5.57 2.53 5.54 2.59C5.52 2.65 5.5 2.71 5.5 2.78C5.5 2.85 5.52 2.92 5.54 2.97C5.57 3.03 5.6 3.09 5.65 3.14C5.7 3.18 5.75 3.22 5.81 3.25C5.87 3.27 5.94 3.28 6 3.28L10 3.28C10.07 3.28 10.14 3.28 10.2 3.25C10.26 3.22 10.31 3.18 10.36 3.14C10.41 3.09 10.44 3.03 10.47 2.97C10.49 2.92 10.5 2.85 10.5 2.78C10.5 2.71 10.49 2.65 10.47 2.59C10.44 2.53 10.41 2.48 10.36 2.43C10.31 2.38 10.26 2.34 10.2 2.32ZM11.8 3.92C11.74 3.89 11.67 3.88 11.6 3.88L4.4 3.88C4.34 3.88 4.27 3.88 4.21 3.92C4.15 3.94 4.1 3.98 4.05 4.03C4 4.08 3.97 4.13 3.94 4.19C3.92 4.25 3.9 4.31 3.9 4.38C3.9 4.45 3.92 4.52 3.94 4.57C3.97 4.63 4 4.69 4.05 4.74C4.1 4.78 4.15 4.82 4.21 4.85C4.27 4.87 4.34 4.88 4.4 4.88L11.6 4.88C11.67 4.88 11.74 4.87 11.8 4.85C11.86 4.82 11.91 4.78 11.96 4.74C12.01 4.69 12.04 4.63 12.07 4.57C12.09 4.52 12.1 4.45 12.1 4.38C12.1 4.31 12.09 4.25 12.07 4.19C12.04 4.13 12.01 4.08 11.96 4.03C11.91 3.98 11.86 3.94 11.8 3.92ZM13.7 11.98L13.7 7.18C13.7 7.06 13.69 6.93 13.66 6.81C13.64 6.71 13.61 6.62 13.57 6.52C13.53 6.42 13.48 6.33 13.43 6.25C13.36 6.15 13.29 6.06 13.21 5.98C13.12 5.9 13.03 5.82 12.94 5.76C12.85 5.7 12.76 5.66 12.67 5.62C12.57 5.58 12.48 5.55 12.38 5.52C12.26 5.5 12.13 5.48 12 5.48L4 5.48C3.88 5.48 3.75 5.5 3.63 5.52C3.53 5.55 3.44 5.58 3.34 5.62C3.25 5.66 3.16 5.7 3.07 5.76C2.97 5.82 2.89 5.9 2.8 5.98C2.72 6.06 2.65 6.15 2.58 6.25C2.53 6.33 2.48 6.42 2.44 6.52C2.4 6.62 2.37 6.71 2.35 6.81C2.32 6.93 2.3 7.06 2.3 7.18L2.3 11.98C2.3 12.11 2.32 12.23 2.35 12.35C2.37 12.45 2.4 12.55 2.44 12.64C2.48 12.74 2.53 12.83 2.58 12.92C2.65 13.01 2.72 13.1 2.8 13.18C2.89 13.27 2.97 13.34 3.07 13.4C3.16 13.46 3.25 13.51 3.34 13.55C3.44 13.59 3.53 13.62 3.63 13.64C3.75 13.67 3.88 13.68 4 13.68L12 13.68C12.13 13.68 12.26 13.67 12.38 13.64C12.48 13.62 12.57 13.59 12.67 13.55C12.76 13.51 12.85 13.46 12.94 13.4C13.03 13.34 13.12 13.27 13.21 13.18C13.29 13.1 13.36 13.01 13.43 12.92C13.48 12.83 13.53 12.74 13.57 12.64C13.61 12.55 13.64 12.45 13.66 12.35C13.69 12.23 13.7 12.11 13.7 11.98ZM3.74 6.53C3.82 6.5 3.91 6.48 4 6.48L12 6.48C12.1 6.48 12.19 6.5 12.27 6.53C12.36 6.57 12.43 6.62 12.5 6.69C12.57 6.76 12.62 6.83 12.65 6.91C12.69 7 12.7 7.09 12.7 7.18L12.7 11.98C12.7 12.08 12.69 12.17 12.65 12.25C12.62 12.33 12.57 12.41 12.5 12.48C12.43 12.55 12.36 12.6 12.27 12.63C12.19 12.67 12.1 12.68 12 12.68L4 12.68C3.91 12.68 3.82 12.67 3.74 12.63C3.65 12.6 3.58 12.55 3.51 12.48C3.44 12.41 3.39 12.33 3.36 12.25C3.32 12.17 3.3 12.08 3.3 11.98L3.3 7.18C3.3 7.09 3.32 7 3.36 6.91C3.39 6.83 3.44 6.76 3.51 6.69C3.58 6.62 3.65 6.57 3.74 6.53ZM8.5 10.38L8.5 7.51C8.49 7.45 8.47 7.38 8.44 7.33C8.41 7.28 8.37 7.24 8.33 7.2C8.28 7.16 8.23 7.13 8.18 7.11C8.12 7.09 8.07 7.08 8 7.08C7.94 7.08 7.87 7.09 7.81 7.12C7.75 7.14 7.7 7.18 7.65 7.23C7.6 7.28 7.57 7.33 7.54 7.39C7.52 7.45 7.5 7.51 7.5 7.58L7.5 10.38L6.7 9.58C6.7 9.58 6.59 9.51 6.54 9.5C6.48 9.48 6.42 9.48 6.36 9.48C6.3 9.49 6.25 9.5 6.19 9.53C6.14 9.55 6.09 9.59 6.05 9.63C6 9.68 5.97 9.73 5.94 9.79C5.92 9.85 5.9 9.91 5.9 9.98C5.9 10.05 5.92 10.11 5.94 10.17C5.97 10.23 6 10.29 6.05 10.34L7.71 11.99C7.76 12.02 7.82 12.05 7.87 12.07C7.93 12.08 7.99 12.09 8.05 12.08C8.11 12.08 8.16 12.06 8.21 12.04C8.27 12.01 8.31 11.98 8.36 11.94L10.01 10.27C10.05 10.19 10.1 10.02 10.07 9.9C10.05 9.82 10.02 9.74 9.97 9.67C9.93 9.63 9.79 9.51 9.74 9.5C9.68 9.48 9.62 9.48 9.56 9.48C9.5 9.49 9.45 9.5 9.39 9.53C9.34 9.55 9.29 9.59 9.25 9.63L8.5 10.38Z" fill="currentColor" fill-opacity="1.000000" fill-rule="evenodd"/>
	</g>
</svg>
