<svg width="16.000000" height="16.000000" viewBox="0 0 16 16" fill="none" xmlns="http://www.w3.org/2000/svg" xmlns:xlink="http://www.w3.org/1999/xlink">
	<desc>
			Created with Pixso.
	</desc>
	<defs>
		<clipPath id="clip225_909">
			<rect id="api-explorer" width="16.000000" height="16.000000" fill="white" fill-opacity="0"/>
		</clipPath>
	</defs>
	<rect id="139#API探索-api-explorer" width="16.000000" height="16.000000" fill="#FFFFFF" fill-opacity="0"/>
	<g clip-path="url(#clip225_909)">
		<path id="_合并" d="M13 2C14.1 2 15 2.89 15 4L15 12C15 13.1 14.1 14 13 14L3 14C1.89 14 1 13.1 1 12L1 4C1 2.89 1.89 2 3 2L13 2ZM13 3C13.55 3 14 3.45 14 4L14 4.87L2 4.87L2 4C2 3.45 2.45 3 3 3L13 3ZM9.88 3.97C9.88 4.25 10.1 4.46 10.38 4.46C10.66 4.46 10.88 4.25 10.88 3.97C10.88 3.69 10.66 3.47 10.38 3.47C10.1 3.47 9.88 3.69 9.88 3.97ZM11.62 3.97C11.62 4.25 11.84 4.46 12.12 4.46C12.4 4.46 12.62 4.25 12.62 3.97C12.62 3.69 12.4 3.47 12.12 3.47C11.84 3.47 11.62 3.69 11.62 3.97ZM2 5.87L14 5.87L14 12C14 12.55 13.55 13 13 13L3 13C2.45 13 2 12.55 2 12L2 5.87ZM5.1 6.87C5.39 6.87 5.61 6.96 5.77 7.09C6.02 7.28 6.14 7.57 6.23 7.73L7.03 11.34C7.06 11.46 6.97 11.58 6.84 11.58L6.6 11.58C6.42 11.58 6.25 11.45 6.21 11.27L5.82 9.6L4.02 9.6L3.63 11.27C3.59 11.45 3.43 11.58 3.24 11.58L3 11.58C2.87 11.58 2.77 11.46 2.8 11.34L3.6 7.81C3.64 7.67 3.75 7.35 4.03 7.12C4.19 6.98 4.42 6.87 4.73 6.87L5.1 6.87ZM10.25 6.87C10.53 6.87 10.78 6.99 10.97 7.19C11.15 7.39 11.26 7.64 11.26 7.94L11.26 8.39C11.26 8.68 11.15 9 10.96 9.22C10.78 9.45 10.52 9.6 10.25 9.6L8.28 9.6L8.28 11.2C8.28 11.41 8.1 11.58 7.89 11.58C7.69 11.58 7.52 11.41 7.52 11.2L7.52 7.28C7.52 7.06 7.7 6.88 7.92 6.88L10.25 6.87ZM12.8 7.25C12.8 7.03 12.62 6.87 12.41 6.87C12.2 6.87 12.03 7.03 12.03 7.25L12.03 11.2C12.03 11.41 12.2 11.58 12.41 11.58C12.62 11.58 12.8 11.41 12.8 11.2L12.8 7.25ZM10.26 7.63L8.28 7.63L8.28 8.85L10.25 8.85C10.31 8.85 10.35 8.78 10.38 8.72C10.45 8.63 10.5 8.5 10.5 8.39L10.5 7.94C10.5 7.86 10.46 7.78 10.41 7.72C10.37 7.68 10.31 7.63 10.26 7.63ZM4.81 7.63L5 7.63C5.11 7.63 5.19 7.64 5.27 7.71C5.35 7.78 5.39 7.91 5.45 8.07L5.64 8.85L4.17 8.85L4.35 8.03C4.39 7.89 4.44 7.78 4.53 7.71C4.6 7.66 4.69 7.63 4.81 7.63Z" fill="currentColor" fill-opacity="1.000000" fill-rule="evenodd"/>
	</g>
</svg>
