<svg width="16.000000" height="16.000000" viewBox="0 0 16 16" fill="none" xmlns="http://www.w3.org/2000/svg" xmlns:xlink="http://www.w3.org/1999/xlink">
	<desc>
			Created with Pixso.
	</desc>
	<defs>
		<clipPath id="clip225_1095">
			<rect id="指标-index" width="16.000000" height="16.000000" fill="white" fill-opacity="0"/>
		</clipPath>
	</defs>
	<rect id="14#指标|指数-index" width="16.000000" height="16.000000" fill="#FFFFFF" fill-opacity="0"/>
	<g clip-path="url(#clip225_1095)">
		<path id="_矢量-44" d="M2.5 2C2.75 2 2.96 2.18 2.99 2.43L2.99 12C2.99 12.52 3.39 12.94 3.9 12.99L13.5 12.99C13.77 13 14 13.22 14 13.5C14 13.75 13.81 13.96 13.56 13.99L4 13.99C2.93 14 2.06 13.16 2 12.11L2 2.5C2 2.22 2.22 2 2.5 2ZM5.19 3.85C5.47 3.85 5.69 4.08 5.69 4.35L5.69 11.63C5.69 11.91 5.47 12.13 5.19 12.13C4.91 12.13 4.69 11.91 4.69 11.63L4.69 4.35C4.69 4.08 4.92 3.85 5.19 3.85ZM8.68 5.93C8.95 5.93 9.18 6.16 9.18 6.43L9.18 11.63C9.18 11.91 8.95 12.13 8.68 12.13C8.41 12.13 8.18 11.91 8.18 11.63L8.18 6.43C8.18 6.16 8.39 5.93 8.68 5.93ZM12.16 8.01C12.43 8.01 12.66 8.24 12.66 8.51L12.66 11.63C12.66 11.91 12.43 12.13 12.16 12.13C11.89 12.13 11.66 11.91 11.66 11.63L11.66 8.51C11.66 8.24 11.88 8.01 12.16 8.01Z" fill="currentColor" fill-opacity="1.000000" fill-rule="evenodd"/>
	</g>
</svg>
