<svg width="16.000000" height="16.000000" viewBox="0 0 16 16" fill="none" xmlns="http://www.w3.org/2000/svg" xmlns:xlink="http://www.w3.org/1999/xlink">
	<desc>
			Created with Pixso.
	</desc>
	<defs>
		<clipPath id="clip225_913">
			<rect id="新手入门-learning-newbie" width="16.000000" height="16.000000" fill="white" fill-opacity="0"/>
		</clipPath>
	</defs>
	<rect id="140#新手入门-start-tutorial" width="16.000000" height="16.000000" fill="#FFFFFF" fill-opacity="0"/>
	<g clip-path="url(#clip225_913)">
		<path id="_合并" d="M1.75 3.74L1.75 12.74C1.75 12.89 1.77 13.03 1.8 13.17C1.83 13.29 1.86 13.41 1.91 13.52C1.96 13.63 2.02 13.74 2.08 13.84C2.14 13.95 2.24 14.06 2.33 14.15C2.44 14.25 2.53 14.33 2.64 14.41C2.75 14.48 2.86 14.53 2.97 14.58C3.08 14.63 3.2 14.67 3.32 14.69C3.46 14.72 3.6 14.74 3.75 14.74L13.75 14.74C14.03 14.74 14.25 14.52 14.25 14.24C14.25 13.96 14.03 13.74 13.75 13.74L3.75 13.74C3.67 13.74 3.59 13.73 3.52 13.71C3.47 13.7 3.41 13.68 3.36 13.66C3.31 13.64 3.25 13.61 3.21 13.58C3.14 13.54 3.1 13.5 3.05 13.45C3 13.4 2.96 13.34 2.92 13.29C2.89 13.24 2.86 13.19 2.84 13.14C2.82 13.09 2.8 13.04 2.78 12.98C2.77 12.91 2.75 12.83 2.75 12.75C2.75 12.67 2.75 12.59 2.78 12.52C2.78 12.47 2.82 12.41 2.84 12.36C2.86 12.31 2.89 12.25 2.92 12.21C2.96 12.15 3 12.1 3.05 12.05C3.1 12 3.14 11.96 3.21 11.92C3.25 11.89 3.31 11.86 3.36 11.84C3.41 11.82 3.46 11.8 3.52 11.79C3.59 11.77 3.67 11.76 3.75 11.76L13.75 11.76C14.03 11.76 14.25 11.54 14.25 11.26L14.25 3.76C14.25 3.58 14.23 3.4 14.19 3.22C14.16 3.07 14.11 2.93 14.05 2.79C13.99 2.65 13.92 2.51 13.83 2.39C13.74 2.25 13.63 2.12 13.51 2C13.39 1.88 13.26 1.77 13.12 1.68C12.99 1.6 12.86 1.52 12.72 1.46C12.58 1.4 12.43 1.35 12.29 1.32C12.11 1.28 11.93 1.26 11.75 1.26L4.25 1.26C4.07 1.26 3.89 1.28 3.71 1.32C3.56 1.32 3.42 1.38 3.28 1.44C3.13 1.5 3 1.57 2.87 1.65C2.73 1.74 2.6 1.85 2.48 1.97C2.35 2.09 2.25 2.22 2.16 2.36C2.08 2.49 2 2.62 1.95 2.77C1.89 2.91 1.84 3.05 1.81 3.2C1.77 3.38 1.75 3.56 1.75 3.74ZM13.25 10.74L13.25 3.74C13.25 3.62 13.24 3.51 13.21 3.4C13.19 3.32 13.16 3.24 13.13 3.16C13.1 3.08 13.05 3 13.01 2.93C12.95 2.84 12.89 2.76 12.81 2.69C12.74 2.62 12.65 2.55 12.57 2.49C12.5 2.44 12.42 2.4 12.34 2.37C12.26 2.34 12.18 2.31 12.1 2.29C11.99 2.26 11.88 2.25 11.76 2.25L4.25 2.25C4.14 2.25 4.03 2.25 3.92 2.29C3.83 2.29 3.75 2.32 3.67 2.36C3.58 2.39 3.5 2.43 3.43 2.48C3.34 2.54 3.25 2.6 3.19 2.68C3.11 2.75 3.05 2.84 2.99 2.92C2.94 3 2.9 3.07 2.87 3.16C2.83 3.24 2.81 3.32 2.79 3.4C2.76 3.51 2.75 3.62 2.75 3.74L2.75 11.01C2.82 10.97 2.89 10.93 2.97 10.9C3.08 10.85 3.2 10.81 3.32 10.79C3.46 10.76 3.6 10.74 3.75 10.74L13.25 10.74ZM7.48 7.11L7.78 8.39L7.92 8.93C8 9.29 8.5 9.32 8.64 8.98L8.84 8.46L9.99 5.39L10.17 4.92C10.28 4.61 9.97 4.32 9.68 4.44L9.2 4.63L6.13 5.87L5.67 6.06C5.32 6.2 5.37 6.7 5.74 6.78L6.3 6.88L7.48 7.11ZM8.72 5.9L7.94 6.23C8.02 6.27 8.1 6.32 8.17 6.39C8.24 6.46 8.3 6.53 8.35 6.61C8.37 6.65 8.39 6.69 8.41 6.74L8.72 5.9ZM4.25 12.24C3.97 12.24 3.75 12.46 3.75 12.74C3.75 13.02 3.97 13.24 4.25 13.24L12.75 13.24C13.03 13.24 13.25 13.02 13.25 12.74C13.25 12.46 13.03 12.24 12.75 12.24L4.25 12.24Z" fill="currentColor" fill-opacity="1.000000" fill-rule="evenodd"/>
	</g>
</svg>
