<svg width="16.000000" height="16.000000" viewBox="0 0 16 16" fill="none" xmlns="http://www.w3.org/2000/svg" xmlns:xlink="http://www.w3.org/1999/xlink">
	<desc>
			Created with Pixso.
	</desc>
	<defs>
		<clipPath id="clip225_915">
			<rect id="最佳实践-best-practice" width="16.000000" height="16.000000" fill="white" fill-opacity="0"/>
		</clipPath>
	</defs>
	<rect id="141#最佳实践-best-practice" width="16.000000" height="16.000000" fill="#FFFFFF" fill-opacity="0"/>
	<g clip-path="url(#clip225_915)">
		<path id="_合并" d="M12.54 2.06C12.36 2.02 12.18 2 12 2L4 2C3.82 2 3.64 2.02 3.46 2.06C3.31 2.08 3.17 2.14 3.03 2.2C2.89 2.25 2.75 2.33 2.63 2.42C2.48 2.5 2.35 2.61 2.23 2.73C2.1 2.85 2 2.98 1.91 3.12C1.83 3.25 1.75 3.38 1.7 3.53C1.64 3.67 1.59 3.81 1.56 3.96C1.52 4.14 1.5 4.32 1.5 4.5L1.5 10C1.5 10.18 1.52 10.36 1.56 10.54C1.59 10.69 1.64 10.83 1.7 10.97C1.75 11.11 1.83 11.25 1.92 11.37C2 11.51 2.11 11.64 2.24 11.76C2.35 11.88 2.49 11.99 2.63 12.08C2.75 12.16 2.89 12.24 3.03 12.3C3.17 12.36 3.31 12.41 3.46 12.44C3.64 12.48 3.81 12.5 4 12.5L12 12.5C12.18 12.5 12.36 12.48 12.54 12.44C12.69 12.41 12.83 12.36 12.97 12.3C13.11 12.24 13.25 12.17 13.37 12.08C13.51 11.99 13.64 11.88 13.76 11.76C13.88 11.64 13.99 11.51 14.08 11.37C14.16 11.24 14.24 11.11 14.3 10.97C14.36 10.83 14.41 10.68 14.44 10.54C14.48 10.36 14.5 10.18 14.5 10L14.5 4.5C14.5 4.32 14.48 4.14 14.44 3.96C14.41 3.81 14.36 3.67 14.3 3.53C14.24 3.39 14.17 3.25 14.08 3.13C13.99 2.99 13.88 2.86 13.76 2.74C13.64 2.62 13.51 2.5 13.37 2.42C13.24 2.33 13.11 2.25 12.97 2.2C12.83 2.14 12.69 2.08 12.54 2.06ZM4 3L12 3C12.12 3 12.23 3 12.34 3.03C12.42 3.06 12.5 3.09 12.58 3.12C12.66 3.14 12.74 3.2 12.81 3.24C12.9 3.3 12.98 3.36 13.05 3.44C13.13 3.5 13.19 3.6 13.25 3.67C13.3 3.75 13.34 3.83 13.37 3.91C13.4 3.99 13.43 4.07 13.45 4.14C13.48 4.25 13.49 4.37 13.49 4.49L13.49 10C13.49 10.12 13.48 10.22 13.45 10.34C13.43 10.42 13.4 10.5 13.37 10.58C13.34 10.66 13.29 10.74 13.25 10.81C13.19 10.9 13.13 10.98 13.05 11.05C12.98 11.12 12.89 11.19 12.81 11.25C12.74 11.3 12.66 11.34 12.58 11.37C12.5 11.4 12.42 11.43 12.34 11.45C12.23 11.48 12.12 11.49 12 11.49L4 11.49C3.88 11.49 3.77 11.48 3.66 11.45C3.58 11.43 3.5 11.4 3.42 11.37C3.34 11.34 3.25 11.29 3.19 11.25C3.1 11.19 3.02 11.13 2.95 11.05C2.87 10.98 2.81 10.89 2.75 10.81C2.7 10.74 2.66 10.66 2.63 10.58C2.6 10.5 2.57 10.42 2.55 10.34C2.5 10.22 2.5 10.12 2.5 10L2.5 4.5C2.5 4.38 2.5 4.27 2.53 4.16C2.56 4.08 2.58 4 2.62 3.92C2.64 3.84 2.7 3.75 2.74 3.69C2.8 3.6 2.86 3.5 2.94 3.44C3 3.36 3.1 3.3 3.17 3.24C3.25 3.19 3.33 3.14 3.41 3.12C3.5 3.08 3.58 3.06 3.66 3.03C3.77 3 3.88 3 4 3ZM3.6 6.95L5.1 4.94C5.25 4.71 5.56 4.67 5.8 4.84C6.02 5 6.06 5.32 5.89 5.55L4.62 7.25L5.89 8.95C6.06 9.17 6.02 9.47 5.8 9.64C5.56 9.81 5.25 9.77 5.1 9.55L3.6 7.55C3.53 7.45 3.5 7.36 3.5 7.25C3.5 7.13 3.53 7.03 3.6 6.95ZM12.4 6.95L10.9 4.94C10.73 4.71 10.42 4.67 10.2 4.84C9.97 5 9.92 5.32 10.1 5.55L11.37 7.25L10.1 8.95C9.92 9.17 9.97 9.47 10.2 9.64C10.42 9.81 10.73 9.77 10.9 9.55L12.4 7.55C12.46 7.45 12.5 7.36 12.5 7.25C12.5 7.13 12.46 7.03 12.4 6.95ZM7.37 9.72C7.1 9.66 6.94 9.39 7 9.12L8 5.12C8.08 4.85 8.34 4.69 8.62 4.75C8.89 4.83 9.05 5.09 8.97 5.37L7.98 9.37C7.91 9.64 7.64 9.8 7.37 9.72ZM2.75 13.5C2.75 13.22 2.97 13 3.25 13L12.75 13C13.03 13 13.25 13.22 13.25 13.5C13.25 13.78 13.03 14 12.75 14L3.25 14C2.97 14 2.75 13.78 2.75 13.5Z" fill="currentColor" fill-opacity="1.000000" fill-rule="evenodd"/>
	</g>
</svg>
