<svg width="16.000000" height="16.000000" viewBox="0 0 16 16" fill="none" xmlns="http://www.w3.org/2000/svg" xmlns:xlink="http://www.w3.org/1999/xlink">
	<desc>
			Created with Pixso.
	</desc>
	<defs>
		<clipPath id="clip225_917">
			<rect id="toolkit" width="16.000000" height="16.000000" fill="white" fill-opacity="0"/>
		</clipPath>
	</defs>
	<rect id="142#工具-toolkit" width="16.000000" height="16.000000" fill="#FFFFFF" fill-opacity="0"/>
	<g clip-path="url(#clip225_917)">
		<path id="_合并" d="M2.45 3.93L7.26 1.16C7.37 1.09 7.49 1.04 7.61 1C7.74 0.97 7.87 0.95 8 0.95C8.13 0.95 8.26 0.97 8.39 1C8.51 1.04 8.63 1.09 8.75 1.15L13.56 3.92C13.68 3.99 13.78 4.07 13.87 4.16C13.96 4.25 14.04 4.36 14.11 4.47C14.18 4.59 14.23 4.71 14.26 4.83C14.29 4.95 14.31 5.08 14.31 5.22L14.31 7.85C14.03 7.46 13.69 7.11 13.31 6.81L13.31 5.51L12.18 6.16C11.74 5.98 11.27 5.86 10.78 5.82L12.81 4.65L8.25 2.02C8.25 2.02 8.17 1.98 8.13 1.97C8.13 1.97 8.05 1.95 8 1.95C7.96 1.95 7.91 1.95 7.87 1.97C7.87 1.97 7.79 2 7.75 2.02L3.2 4.65L7.18 6.95C6.91 7.17 6.67 7.42 6.46 7.69L2.7 5.52L2.7 10.78C2.7 10.78 2.7 10.87 2.72 10.91C2.74 10.95 2.75 10.99 2.77 11.03C2.79 11.07 2.82 11.1 2.85 11.13L6.03 12.99C6.08 13.37 6.14 13.85 6.2 14.24L2.45 12.08C2.33 12.01 2.23 11.93 2.14 11.84C2.05 11.75 1.97 11.64 1.9 11.53C1.83 11.41 1.78 11.29 1.75 11.17C1.72 11.05 1.7 10.92 1.7 10.78L1.7 5.23C1.7 5.1 1.72 4.97 1.75 4.84C1.78 4.71 1.83 4.59 1.9 4.48C1.97 4.36 2.05 4.26 2.14 4.17C2.23 4.07 2.33 3.99 2.45 3.93ZM10.32 6.51C8.01 6.51 6.13 8.38 6.13 10.7C6.13 13.02 8 14.89 10.32 14.89C12.64 14.89 14.51 13.02 14.51 10.7C14.51 8.38 12.63 6.51 10.32 6.51ZM10.32 7.51C8.56 7.51 7.13 8.94 7.13 10.7C7.13 12.46 8.56 13.89 10.32 13.89C12.08 13.89 13.51 12.46 13.51 10.7C13.51 8.94 12.08 7.51 10.32 7.51ZM9.83 9.18C10.17 8.78 10.72 8.62 11.21 8.78L11.34 8.84L11.05 9.14L10.95 9.25C10.63 9.62 10.54 9.91 10.76 10.1C10.99 10.29 11.27 10.14 11.56 9.76L11.65 9.65L11.91 9.33C12.15 9.79 12.16 10.44 11.82 10.85C11.46 11.28 10.88 11.43 10.37 11.24L9.42 12.49C9.26 12.67 8.99 12.71 8.78 12.6C8.57 12.42 8.47 12.05 8.65 11.84L9.69 10.61C9.5 10.21 9.5 9.68 9.75 9.3L9.83 9.18Z" fill="currentColor" fill-opacity="1.000000" fill-rule="evenodd"/>
	</g>
</svg>
