<svg width="16.000000" height="16.000000" viewBox="0 0 16 16" fill="none" xmlns="http://www.w3.org/2000/svg" xmlns:xlink="http://www.w3.org/1999/xlink">
	<desc>
			Created with Pixso.
	</desc>
	<defs>
		<clipPath id="clip225_878">
			<rect id="查看配额-view-quota" width="16.000000" height="16.000000" fill="white" fill-opacity="0"/>
		</clipPath>
	</defs>
	<rect id="18#查看配额-view-quota" width="16.000000" height="16.000000" fill="#FFFFFF" fill-opacity="0"/>
	<g clip-path="url(#clip225_878)">
		<path id="_形状结合" d="M12.47 1.08C13.85 1.08 14.97 2.2 14.97 3.58L14.97 8.58C14.97 9.96 13.85 11.08 12.47 11.08L9.92 11.08L12.62 13.95C12.81 14.15 12.8 14.47 12.6 14.66C12.51 14.76 12.38 14.8 12.26 14.8C12.13 14.8 12 14.74 11.9 14.64L8.71 11.25C8.67 11.2 8.63 11.15 8.61 11.09L8.48 11.09L8.48 14.41C8.48 14.69 8.26 14.91 7.98 14.91C7.7 14.91 7.48 14.69 7.48 14.41L7.48 11.09L7.36 11.09C7.34 11.15 7.26 11.25 7.26 11.25L4.07 14.64C3.98 14.75 3.84 14.8 3.71 14.8C3.59 14.8 3.47 14.75 3.37 14.66C3.17 14.47 3.16 14.15 3.35 13.95L6.05 11.08L3.51 11.08C2.13 11.08 1.01 9.96 1.01 8.58L1.01 3.58C1.01 2.2 2.13 1.08 3.51 1.08L12.47 1.08ZM12.51 2.08L3.51 2.08C2.68 2.08 2.01 2.75 2.01 3.58L2.01 8.58C2.01 9.41 2.68 10.08 3.51 10.08L12.51 10.08C13.34 10.08 14.01 9.41 14.01 8.58L14.01 3.58C14.01 2.75 13.34 2.08 12.51 2.08ZM8.01 6.08C8.29 6.08 8.51 6.3 8.51 6.58L8.51 8.58C8.51 8.86 8.29 9.08 8.01 9.08C7.73 9.08 7.51 8.86 7.51 8.58L7.51 6.58C7.51 6.3 7.73 6.08 8.01 6.08ZM4.01 7.08C4.29 7.08 4.51 7.3 4.51 7.58L4.51 8.58C4.51 8.86 4.29 9.08 4.01 9.08C3.73 9.08 3.51 8.86 3.51 8.58L3.51 7.58C3.51 7.3 3.73 7.08 4.01 7.08ZM6.01 5.08C6.29 5.08 6.51 5.3 6.51 5.58L6.51 8.58C6.51 8.86 6.29 9.08 6.01 9.08C5.73 9.08 5.51 8.86 5.51 8.58L5.51 5.58C5.51 5.3 5.73 5.08 6.01 5.08ZM12.01 5.58C12.29 5.58 12.51 5.8 12.51 6.08L12.51 8.58C12.51 8.86 12.29 9.08 12.01 9.08C11.73 9.08 11.51 8.86 11.51 8.58L11.51 6.08C11.51 5.8 11.73 5.58 12.01 5.58ZM10.01 3.58C10.29 3.58 10.51 3.8 10.51 4.08L10.51 8.58C10.51 8.86 10.29 9.08 10.01 9.08C9.73 9.08 9.51 8.86 9.51 8.58L9.51 4.08C9.51 3.8 9.73 3.58 10.01 3.58Z" fill="currentColor" fill-opacity="1.000000" fill-rule="nonzero"/>
	</g>
</svg>
