<svg width="16.000000" height="16.000000" viewBox="0 0 16 16" fill="none" xmlns="http://www.w3.org/2000/svg" xmlns:xlink="http://www.w3.org/1999/xlink">
	<desc>
			Created with Pixso.
	</desc>
	<defs>
		<clipPath id="clip225_839">
			<rect id="防护策略-protection-policy" width="16.000000" height="16.000000" fill="white" fill-opacity="0"/>
		</clipPath>
	</defs>
	<rect id="31#防护策略-protection-policy" width="16.000000" height="16.000000" fill="#FFFFFF" fill-opacity="0"/>
	<g clip-path="url(#clip225_839)">
		<path id="_矢量-227" d="M8.25 1L7.72 1C7.45 1 7.19 1.03 6.94 1.07C6.36 1.16 5.78 1.34 5.24 1.6C4.87 1.75 4.52 1.96 4.19 2.17C3.78 2.45 3.42 2.75 3.09 3.11C2.83 3.37 2.6 3.64 2.39 3.94C2.06 4.41 1.78 4.91 1.57 5.46C1.2 6.39 1 7.46 1 8.53C1 8.64 1 8.74 1.03 8.84C1.09 8.92 1.14 9 1.2 9.07C1.25 9.12 1.28 9.14 1.34 9.18C1.37 9.21 1.41 9.22 1.45 9.25C1.5 9.27 1.55 9.28 1.6 9.3C1.66 9.31 1.71 9.32 1.75 9.32C1.81 9.32 1.86 9.32 1.92 9.3C1.97 9.28 2.02 9.27 2.07 9.25C2.1 9.22 2.14 9.21 2.19 9.18C2.23 9.14 2.28 9.12 2.32 9.07C2.38 9 2.42 8.92 2.47 8.84C2.5 8.74 2.53 8.64 2.53 8.53C2.53 8.47 2.53 8.42 2.56 8.38C2.61 8.31 2.73 8.2 2.84 8.14C2.96 8.09 3.12 8.03 3.28 8C3.47 7.98 3.64 7.96 3.84 7.96C4.03 7.96 4.21 7.98 4.39 8.03C4.55 8.09 4.69 8.17 4.82 8.25C4.92 8.34 5 8.43 5.07 8.53C5.12 8.6 5.14 8.68 5.14 8.77C5.14 8.89 5.17 9.03 5.21 9.13C5.24 9.21 5.28 9.28 5.36 9.35C5.39 9.41 5.44 9.43 5.49 9.47C5.53 9.5 5.57 9.52 5.61 9.53C5.66 9.57 5.71 9.58 5.77 9.59C5.82 9.6 5.87 9.6 5.92 9.6C5.97 9.6 6.02 9.6 6.07 9.59C6.13 9.58 6.17 9.56 6.23 9.53C6.27 9.53 6.31 9.5 6.34 9.47C6.39 9.43 6.42 9.41 6.47 9.35C6.53 9.28 6.59 9.21 6.63 9.13C6.66 9.03 6.67 8.92 6.67 8.82C6.69 8.74 6.72 8.6 6.75 8.53C6.82 8.43 6.89 8.34 7.02 8.25C7.14 8.17 7.28 8.09 7.44 8.03L7.5 13.5C7.5 13.56 7.48 13.63 7.46 13.69C7.42 13.75 7.39 13.8 7.35 13.85C7.3 13.9 7.25 13.93 7.19 13.96C7.13 13.98 7.06 14 7 14C6.92 14 6.86 13.98 6.8 13.96C6.74 13.93 6.69 13.9 6.64 13.85C6.59 13.8 6.56 13.75 6.53 13.69C6.5 13.63 6.5 13.56 6.5 13.5C6.5 13.22 6.28 13 6 13C5.72 13 5.5 13.22 5.5 13.5C5.5 13.6 5.5 13.71 5.53 13.81C5.55 13.9 5.58 13.99 5.61 14.08C5.64 14.17 5.69 14.25 5.74 14.32C5.8 14.41 5.86 14.48 5.92 14.56C6 14.63 6.08 14.69 6.17 14.75C6.24 14.8 6.32 14.84 6.41 14.88C6.5 14.91 6.59 14.94 6.67 14.96C6.78 14.98 6.89 15 7 15C7.1 15 7.21 14.98 7.31 14.96C7.39 14.94 7.49 14.91 7.58 14.88C7.67 14.84 7.75 14.8 7.82 14.75C7.91 14.69 7.98 14.63 8.06 14.56C8.13 14.48 8.17 14.41 8.25 14.32C8.3 14.25 8.34 14.17 8.38 14.08C8.41 13.99 8.42 13.9 8.46 13.81C8.47 13.71 8.5 13.6 8.5 13.5L8.55 8.03C8.71 8.09 8.85 8.17 8.97 8.25C9.09 8.34 9.17 8.43 9.22 8.53C9.27 8.6 9.3 8.68 9.3 8.77C9.3 8.89 9.33 9.03 9.35 9.13C9.39 9.21 9.45 9.28 9.52 9.35C9.56 9.41 9.6 9.43 9.64 9.47C9.67 9.5 9.72 9.52 9.75 9.53C9.81 9.56 9.85 9.58 9.92 9.59C9.95 9.6 10.01 9.6 10.07 9.6C10.13 9.6 10.18 9.6 10.22 9.59C10.28 9.58 10.34 9.56 10.39 9.53C10.42 9.53 10.46 9.5 10.5 9.47C10.55 9.43 10.59 9.41 10.63 9.35C10.7 9.28 10.75 9.21 10.78 9.13C10.82 9.03 10.84 8.92 10.84 8.82C10.85 8.74 10.87 8.6 10.92 8.53C10.97 8.43 11.06 8.34 11.17 8.25C11.29 8.17 11.44 8.09 11.6 8.03C11.77 7.99 11.96 7.96 12.15 7.96C12.34 7.96 12.52 7.98 12.7 8C12.87 8.03 13.03 8.09 13.15 8.14C13.26 8.2 13.35 8.25 13.4 8.33C13.42 8.37 13.46 8.47 13.46 8.53C13.46 8.64 13.48 8.74 13.52 8.84C13.56 8.92 13.61 9 13.67 9.07C13.71 9.12 13.76 9.14 13.8 9.18C13.84 9.21 13.88 9.22 13.92 9.25C13.97 9.27 14.02 9.28 14.07 9.3C14.12 9.31 14.17 9.32 14.23 9.32C14.28 9.32 14.33 9.32 14.39 9.3C14.44 9.28 14.49 9.27 14.54 9.25C14.58 9.22 14.62 9.21 14.65 9.18C14.7 9.14 14.74 9.12 14.79 9.07C14.85 9 14.9 8.92 14.94 8.84C14.98 8.74 15 8.64 15 8.53C15 7.46 14.81 6.45 14.45 5.52C14.23 4.98 13.93 4.41 13.6 3.94C13.39 3.64 13.16 3.37 12.9 3.11C12.56 2.75 12.2 2.45 11.8 2.17C11.47 1.96 11.12 1.75 10.75 1.6C10.2 1.34 9.63 1.16 9.03 1.07C8.78 1.03 8.52 1 8.25 1ZM7.74 2C7.55 2 7.36 2.02 7.17 2.05C6.66 2.13 6.14 2.28 5.64 2.5C5.34 2.64 5.03 2.81 4.75 3C4.42 3.23 4.1 3.5 3.8 3.81C3.6 4.02 3.41 4.25 3.23 4.49C2.94 4.89 2.69 5.34 2.5 5.83C2.28 6.34 2.14 6.88 2.07 7.45C2.17 7.38 2.28 7.31 2.39 7.25C2.61 7.14 2.85 7.07 3.11 7.02C3.35 6.98 3.59 6.96 3.84 6.96C4.09 6.96 4.34 6.99 4.57 7.05C4.61 7.07 4.66 7.08 4.69 7.09C4.96 7.17 5.21 7.3 5.42 7.46C5.62 7.61 5.78 7.79 5.92 8C6.03 7.78 6.21 7.61 6.42 7.46C6.63 7.3 6.87 7.17 7.14 7.09C7.17 7.08 7.22 7.07 7.25 7.05C7.49 6.99 7.74 6.96 8 6.96C8.25 6.96 8.49 6.99 8.72 7.05C8.77 7.05 8.81 7.08 8.85 7.09C9.12 7.17 9.35 7.3 9.58 7.46C9.78 7.61 9.95 7.78 10.07 8C10.2 7.78 10.36 7.61 10.57 7.46C10.78 7.3 11.02 7.17 11.29 7.09C11.33 7.08 11.37 7.07 11.41 7.05C11.65 6.99 11.9 6.96 12.15 6.96C12.4 6.96 12.64 6.98 12.88 7.02C13.14 7.07 13.38 7.14 13.59 7.25C13.71 7.31 13.82 7.38 13.92 7.45C13.84 6.88 13.7 6.34 13.49 5.83C13.3 5.34 13.05 4.89 12.76 4.49C12.58 4.25 12.39 4.02 12.19 3.81C11.89 3.5 11.57 3.23 11.23 3C10.95 2.81 10.65 2.64 10.34 2.5C9.84 2.28 9.33 2.13 8.81 2.05C8.63 2.02 8.42 2 8.25 2L7.74 2ZM6.47 4.3C6.24 4.39 6.02 4.5 5.82 4.64C5.59 4.78 5.37 4.96 5.17 5.17C4.95 5.36 4.66 5.36 4.46 5.17C4.25 4.96 4.25 4.66 4.46 4.46C4.71 4.21 4.98 3.99 5.25 3.8C5.52 3.64 5.78 3.49 6.08 3.37C6.34 3.27 6.63 3.38 6.74 3.64C6.84 3.89 6.72 4.19 6.47 4.3Z" fill="currentColor" fill-opacity="1.000000" fill-rule="evenodd"/>
	</g>
</svg>
