<svg width="16.000000" height="16.000000" viewBox="0 0 16 16" fill="none" xmlns="http://www.w3.org/2000/svg" xmlns:xlink="http://www.w3.org/1999/xlink">
	<desc>
			Created with Pixso.
	</desc>
	<defs>
		<clipPath id="clip225_874">
			<rect id="安全数据-secure-data" width="16.000000" height="16.000000" fill="white" fill-opacity="0"/>
		</clipPath>
	</defs>
	<rect id="38.1#安全数据-secure-data" width="16.000000" height="16.000000" fill="#FFFFFF" fill-opacity="0"/>
	<g clip-path="url(#clip225_874)">
		<path id="_矢量-207" d="M13.65 2.85C12.65 2.57 11.87 2.32 11.3 2.08C10.68 1.84 9.83 1.42 8.74 0.83C8.63 0.78 8.52 0.73 8.4 0.7C8.27 0.67 8.13 0.65 7.99 0.65C7.86 0.65 7.73 0.67 7.61 0.7C7.48 0.72 7.36 0.78 7.25 0.84C6.32 1.35 5.47 1.78 4.7 2.08C3.99 2.35 3.21 2.62 2.36 2.85C2.2 2.91 2.04 2.97 1.91 3.08C1.78 3.16 1.67 3.27 1.57 3.39C1.46 3.53 1.38 3.68 1.33 3.83C1.28 3.97 1.26 4.14 1.26 4.31C1.26 5.41 1.31 6.43 1.4 7.38C1.54 8.83 1.77 9.95 2.1 10.73C2.47 11.61 3.31 12.54 4.65 13.53C5.45 14.13 6.36 14.69 7.36 15.23C7.46 15.28 7.57 15.33 7.68 15.35C7.78 15.38 7.88 15.39 7.98 15.4C8.09 15.4 8.2 15.4 8.3 15.37C8.41 15.35 8.51 15.31 8.62 15.27C9.01 15.08 9.41 14.88 9.8 14.66C10.37 14.35 10.88 14.02 11.35 13.69C12.68 12.72 13.54 11.73 13.9 10.71C14.22 9.81 14.45 8.66 14.59 7.23C14.68 6.3 14.73 5.32 14.73 4.28C14.73 4.12 14.71 3.96 14.66 3.82C14.61 3.67 14.53 3.52 14.43 3.39C14.33 3.26 14.22 3.16 14.1 3.07C13.97 2.97 13.82 2.91 13.65 2.85ZM8.27 1.71C9.39 2.33 10.28 2.76 10.93 3.02C11.53 3.26 12.34 3.52 13.37 3.82C13.43 3.82 13.49 3.87 13.54 3.9C13.57 3.95 13.7 4.08 13.71 4.14C13.73 4.19 13.73 4.22 13.73 4.28C13.73 5.28 13.68 6.23 13.59 7.14C13.46 8.47 13.25 9.56 12.96 10.37C12.8 10.81 12.52 11.25 12.11 11.7C11.75 12.09 11.3 12.48 10.76 12.87C10.33 13.19 9.85 13.49 9.32 13.79C8.95 13.99 8.57 14.19 8.2 14.36C8.14 14.39 8.08 14.4 8.02 14.4C7.96 14.4 7.9 14.38 7.83 14.35C6.87 13.84 6.01 13.29 5.24 12.73C4.69 12.32 4.24 11.93 3.87 11.55C3.46 11.12 3.18 10.72 3.02 10.35C2.73 9.66 2.53 8.63 2.39 7.28C2.31 6.35 2.26 5.37 2.26 4.3C2.26 4.26 2.26 4.21 2.26 4.18C2.28 4.12 2.31 4.06 2.35 4.01C2.4 3.97 2.56 3.83 2.63 3.82C3.51 3.58 4.32 3.3 5.05 3.01C5.87 2.69 6.76 2.26 7.72 1.71C7.77 1.71 7.81 1.68 7.85 1.67C7.9 1.67 7.94 1.65 7.99 1.65C8.05 1.65 8.1 1.65 8.15 1.67C8.17 1.67 8.23 1.7 8.27 1.71ZM6 7C6 6.44 6.44 6 7 6C7.56 6 8 6.44 8 7C8 7.08 7.98 7.17 7.96 7.25L8.74 8.03C8.82 8.01 8.91 8 9 8C9.08 8 9.17 8.01 9.25 8.03L10.03 7.25C10.01 7.17 10 7.08 10 7C10 6.44 10.44 6 11 6C11.56 6 12 6.44 12 7C12 7.56 11.55 8 11 8C10.91 8 10.82 7.97 10.74 7.96L9.96 8.73C9.98 8.82 10 8.91 10 9C10 9.55 9.55 10 9 10C8.45 10 8 9.55 8 9C8 8.91 8.01 8.82 8.03 8.73L7.25 7.96C7.17 7.96 7.08 8 7 8C6.91 8 6.82 7.97 6.74 7.96L5.96 8.73C5.98 8.82 6 8.91 6 9C6 9.55 5.55 10 5 10C4.45 10 4 9.55 4 9C4 8.45 4.44 8 5 8C5.08 8 5.17 8.01 5.25 8.03L6.03 7.25C6.01 7.17 6 7.08 6 7Z" fill="currentColor" fill-opacity="1.000000" fill-rule="evenodd"/>
	</g>
</svg>
