<svg width="16.000000" height="16.000000" viewBox="0 0 16 16" fill="none" xmlns="http://www.w3.org/2000/svg" xmlns:xlink="http://www.w3.org/1999/xlink">
	<desc>
			Created with Pixso.
	</desc>
	<defs>
		<clipPath id="clip225_875">
			<rect id="防护中断-interruption-protection" width="16.000000" height="16.000000" fill="white" fill-opacity="0"/>
		</clipPath>
	</defs>
	<rect id="38.2#防护中断-interruption-protection" width="16.000000" height="16.000000" fill="#FFFFFF" fill-opacity="0"/>
	<g clip-path="url(#clip225_875)">
		<path id="_矢量-228" d="M11.3 2.07C11.87 2.3 12.65 2.55 13.65 2.84C13.82 2.89 13.97 2.96 14.1 3.05C14.22 3.14 14.33 3.24 14.43 3.37C14.53 3.5 14.61 3.65 14.66 3.8C14.71 3.95 14.73 4.1 14.73 4.26C14.73 5.3 14.68 6.28 14.59 7.22C14.45 8.64 14.22 9.79 13.9 10.69C13.54 11.71 12.68 12.7 11.35 13.67C10.88 14 10.37 14.33 9.8 14.64C9.41 14.86 9.01 15.06 8.62 15.25C8.51 15.29 8.41 15.33 8.3 15.35C8.2 15.37 8.09 15.38 7.98 15.38C7.88 15.38 7.78 15.36 7.68 15.33C7.57 15.31 7.46 15.26 7.36 15.21C6.36 14.67 5.45 14.11 4.65 13.51C3.31 12.52 2.47 11.59 2.1 10.71C1.77 9.93 1.54 8.81 1.4 7.36C1.31 6.41 1.26 5.38 1.26 4.29C1.26 4.12 1.28 3.96 1.33 3.81C1.38 3.66 1.46 3.51 1.57 3.37C1.67 3.25 1.78 3.14 1.91 3.06C2.04 2.96 2.2 2.89 2.37 2.84C3.21 2.6 3.99 2.34 4.7 2.06C5.47 1.76 6.32 1.34 7.25 0.83C7.36 0.76 7.48 0.71 7.61 0.68C7.73 0.65 7.86 0.63 7.99 0.63C8.13 0.63 8.27 0.65 8.4 0.68C8.52 0.71 8.63 0.76 8.74 0.82C9.83 1.41 10.69 1.83 11.3 2.07ZM10.93 3C10.28 2.74 9.39 2.31 8.27 1.7C8.23 1.68 8.19 1.66 8.16 1.65C8.11 1.65 8.06 1.63 8 1.63C7.95 1.63 7.91 1.63 7.86 1.65C7.82 1.65 7.78 1.68 7.73 1.7C6.76 2.24 5.87 2.67 5.06 2.99C4.33 3.28 3.52 3.56 2.64 3.8C2.57 3.82 2.51 3.85 2.46 3.89C2.42 3.94 2.29 4.1 2.27 4.16C2.27 4.16 2.27 4.24 2.27 4.28C2.27 5.35 2.32 6.34 2.4 7.26C2.54 8.61 2.74 9.64 3.03 10.33C3.19 10.7 3.47 11.1 3.88 11.53C4.25 11.91 4.7 12.3 5.25 12.71C6.02 13.27 6.88 13.82 7.84 14.33C7.91 14.36 7.97 14.38 8.03 14.38C8.09 14.38 8.15 14.38 8.21 14.34C8.58 14.17 8.96 13.97 9.33 13.77C9.86 13.47 10.34 13.17 10.77 12.85C11.31 12.46 11.76 12.07 12.12 11.68C12.53 11.23 12.81 10.79 12.97 10.35C13.26 9.54 13.47 8.46 13.6 7.12C13.69 6.22 13.74 5.26 13.74 4.26C13.74 4.21 13.74 4.17 13.72 4.12C13.71 4.07 13.58 3.93 13.55 3.88C13.5 3.85 13.44 3.82 13.38 3.8C12.35 3.51 11.53 3.24 10.93 3ZM5 7.98C5 7.69 5.22 7.48 5.5 7.48L10.5 7.48C10.78 7.48 11 7.69 11 7.98C11 8.27 10.78 8.48 10.5 8.48L5.5 8.48C5.22 8.48 5 8.26 5 7.98Z" fill="currentColor" fill-opacity="1.000000" fill-rule="evenodd"/>
	</g>
</svg>
