<svg width="16.000000" height="16.000000" viewBox="0 0 16 16" fill="none" xmlns="http://www.w3.org/2000/svg" xmlns:xlink="http://www.w3.org/1999/xlink">
	<desc>
			Created with Pixso.
	</desc>
	<defs>
		<clipPath id="clip225_882">
			<rect id="安全风险-security-risks" width="16.000000" height="16.000000" fill="white" fill-opacity="0"/>
		</clipPath>
	</defs>
	<rect id="38.3#安全风险-security-risks" width="16.000000" height="16.000000" fill="#FFFFFF" fill-opacity="0"/>
	<g clip-path="url(#clip225_882)">
		<path id="_形状结合" d="M7.99 0.36C8.13 0.36 8.27 0.36 8.4 0.41C8.51 0.44 8.63 0.48 8.74 0.54C9.89 1.16 10.78 1.6 11.42 1.85C12.02 2.09 12.85 2.36 13.9 2.66C14.06 2.71 14.21 2.78 14.35 2.87C14.47 2.96 14.58 3.06 14.68 3.19C14.78 3.32 14.86 3.47 14.91 3.62C14.96 3.77 14.98 3.92 14.98 4.09C14.98 5.15 14.93 6.17 14.83 7.15C14.69 8.63 14.45 9.83 14.12 10.76C13.74 11.82 12.85 12.85 11.45 13.85C10.97 14.2 10.43 14.53 9.84 14.86C9.43 15.08 9.02 15.29 8.61 15.48C8.51 15.53 8.41 15.56 8.3 15.58C8.2 15.6 8.09 15.61 7.98 15.61C7.88 15.6 7.78 15.59 7.68 15.57C7.57 15.54 7.47 15.5 7.36 15.44C6.32 14.89 5.38 14.3 4.54 13.69C3.14 12.66 2.26 11.69 1.88 10.78C1.54 9.97 1.3 8.81 1.15 7.29C1.06 6.31 1.01 5.25 1.01 4.11C1.01 3.94 1.03 3.78 1.08 3.64C1.13 3.48 1.21 3.33 1.32 3.19C1.42 3.07 1.53 2.96 1.66 2.88C1.79 2.78 1.95 2.71 2.12 2.66C3.01 2.41 3.83 2.14 4.57 1.85C5.38 1.53 6.28 1.1 7.25 0.56C7.36 0.49 7.49 0.44 7.61 0.41C7.73 0.38 7.86 0.36 7.99 0.36ZM8.01 1.37C7.96 1.37 7.92 1.37 7.88 1.39C7.83 1.39 7.79 1.42 7.74 1.44C6.73 2 5.8 2.45 4.95 2.79C4.18 3.09 3.33 3.38 2.4 3.64C2.33 3.66 2.28 3.68 2.22 3.72C2.18 3.77 2.05 3.93 2.03 3.99C2.03 4.03 2.03 4.07 2.03 4.12C2.03 5.22 2.08 6.25 2.17 7.21C2.3 8.62 2.52 9.69 2.83 10.41C2.99 10.8 3.29 11.21 3.72 11.66C4.1 12.06 4.58 12.47 5.16 12.89C5.96 13.48 6.86 14.04 7.85 14.57C7.92 14.6 7.98 14.62 8.04 14.62C8.1 14.62 8.16 14.6 8.22 14.58C8.6 14.4 8.99 14.21 9.38 13.99C9.93 13.69 10.44 13.37 10.89 13.04C11.45 12.63 11.93 12.22 12.31 11.82C12.74 11.35 13.03 10.89 13.2 10.43C13.5 9.58 13.72 8.46 13.86 7.06C13.95 6.12 14 5.13 14 4.1C14 4.05 14 4 13.98 3.95C13.97 3.9 13.84 3.76 13.81 3.71C13.76 3.68 13.7 3.65 13.64 3.63C12.56 3.32 11.7 3.04 11.07 2.8C10.39 2.52 9.46 2.07 8.29 1.43C8.25 1.41 8.21 1.4 8.17 1.39C8.13 1.37 8.06 1.37 8.01 1.37ZM8.01 6.96C8.28 6.96 8.51 7.18 8.51 7.46L8.51 11.46C8.51 11.73 8.29 11.96 8.01 11.96C7.73 11.96 7.51 11.73 7.51 11.46L7.51 7.46C7.51 7.18 7.73 6.96 8.01 6.96ZM8.01 4.56C8.42 4.56 8.76 4.9 8.76 5.31C8.76 5.72 8.42 6.06 8.01 6.06C7.6 6.06 7.26 5.72 7.26 5.31C7.26 4.9 7.6 4.56 8.01 4.56Z" fill="currentColor" fill-opacity="1.000000" fill-rule="evenodd"/>
	</g>
</svg>
