<svg width="16.000000" height="16.000000" viewBox="0 0 16 16" fill="none" xmlns="http://www.w3.org/2000/svg" xmlns:xlink="http://www.w3.org/1999/xlink">
	<desc>
			Created with Pixso.
	</desc>
	<defs>
		<clipPath id="clip225_901">
			<rect id="安全合规-security-compliance" width="16.000000" height="16.000000" fill="white" fill-opacity="0"/>
		</clipPath>
	</defs>
	<rect id="38.4#安全合规-security-compliance" width="16.000000" height="16.000000" fill="#FFFFFF" fill-opacity="0"/>
	<g clip-path="url(#clip225_901)">
		<path id="_矢量-245" d="M11.41 1.88C12.01 2.11 12.84 2.38 13.89 2.69C14.05 2.74 14.2 2.8 14.34 2.89C14.46 2.98 14.57 3.09 14.67 3.22C14.77 3.35 14.85 3.49 14.9 3.64C14.95 3.8 14.97 3.94 14.97 4.11C14.97 5.19 14.92 6.21 14.82 7.17C14.68 8.66 14.44 9.86 14.11 10.79C13.73 11.85 12.84 12.88 11.44 13.88C10.96 14.23 10.42 14.56 9.82 14.89C9.42 15.11 9.01 15.32 8.6 15.51C8.5 15.56 8.39 15.59 8.29 15.61C8.18 15.63 8.07 15.64 7.97 15.64C7.87 15.64 7.76 15.62 7.67 15.6C7.56 15.57 7.45 15.53 7.35 15.47C6.31 14.92 5.37 14.33 4.53 13.72C3.14 12.69 2.25 11.72 1.87 10.81C1.53 10 1.29 8.83 1.14 7.31C1.04 6.33 1 5.27 1 4.13C1 3.97 1.02 3.81 1.07 3.66C1.12 3.5 1.2 3.36 1.31 3.22C1.41 3.1 1.52 2.99 1.64 2.91C1.78 2.81 1.93 2.74 2.09 2.69C3 2.44 3.82 2.16 4.56 1.88C5.37 1.55 6.26 1.13 7.23 0.58C7.35 0.51 7.48 0.46 7.6 0.43C7.72 0.4 7.85 0.38 7.98 0.38C8.12 0.38 8.26 0.39 8.39 0.43C8.5 0.46 8.6 0.5 8.72 0.56C9.88 1.19 10.77 1.63 11.41 1.88ZM11.04 2.8C10.36 2.55 9.42 2.08 8.26 1.44C8.22 1.42 8.17 1.41 8.14 1.41C8.1 1.39 8.04 1.38 7.98 1.38C7.94 1.38 7.89 1.38 7.85 1.41C7.81 1.41 7.76 1.44 7.72 1.46C6.7 2.02 5.78 2.47 4.92 2.8C4.16 3.11 3.31 3.39 2.38 3.66C2.31 3.66 2.26 3.69 2.2 3.74C2.16 3.8 2.03 3.94 2.01 4C2.01 4.05 2.01 4.08 2.01 4.13C2.01 5.24 2.05 6.27 2.15 7.22C2.27 8.63 2.49 9.71 2.8 10.43C2.96 10.82 3.27 11.23 3.7 11.68C4.08 12.08 4.55 12.49 5.14 12.91C5.93 13.5 6.83 14.06 7.83 14.59C7.9 14.62 7.96 14.64 8.02 14.64C8.08 14.64 8.14 14.62 8.18 14.6C8.58 14.42 8.96 14.23 9.35 14.01C9.89 13.71 10.42 13.39 10.87 13.06C11.43 12.65 11.91 12.24 12.29 11.84C12.72 11.37 13.01 10.91 13.18 10.45C13.48 9.59 13.7 8.47 13.84 7.08C13.93 6.13 13.98 5.14 13.98 4.11C13.98 4.06 13.98 4.02 13.96 3.97C13.95 3.91 13.82 3.77 13.79 3.72C13.74 3.69 13.68 3.66 13.62 3.64C12.54 3.33 11.67 3.05 11.04 2.8ZM4.62 6.41L6.7 6.24L7.51 4.28C7.54 4.22 7.57 4.17 7.63 4.13C7.67 4.08 7.73 4.05 7.79 4.02C7.92 3.97 8.04 3.97 8.17 4.02C8.22 4.04 8.29 4.08 8.34 4.13C8.38 4.17 8.42 4.22 8.45 4.28L9.26 6.24L11.35 6.41C11.42 6.41 11.48 6.41 11.54 6.46C11.6 6.49 11.65 6.52 11.69 6.58C11.78 6.67 11.82 6.8 11.81 6.94C11.8 7.08 11.74 7.19 11.64 7.27L10.04 8.64L10.53 10.7C10.54 10.76 10.55 10.83 10.54 10.89C10.53 10.96 10.5 11.02 10.47 11.08C10.4 11.2 10.29 11.27 10.16 11.3C10.03 11.34 9.89 11.32 9.78 11.24L7.98 10.15L6.19 11.24C6.13 11.28 6.07 11.3 6.01 11.31C5.94 11.32 5.88 11.32 5.81 11.31C5.67 11.28 5.57 11.21 5.5 11.09C5.42 10.97 5.41 10.84 5.44 10.71L5.92 8.65L4.32 7.28C4.32 7.28 4.23 7.2 4.19 7.14C4.17 7.07 4.16 7.01 4.16 6.95C4.14 6.81 4.19 6.68 4.28 6.59C4.37 6.48 4.48 6.41 4.62 6.41ZM7.1 7.21L5.89 7.3L6.81 8.08C6.88 8.14 6.92 8.22 6.95 8.31C6.98 8.41 7 8.49 6.97 8.58L6.69 9.75L7.72 9.13C7.79 9.08 7.89 9.05 7.98 9.05C8.07 9.05 8.17 9.08 8.25 9.13L9.28 9.75L9 8.58C8.97 8.49 8.97 8.41 9.01 8.31C9.04 8.22 9.09 8.14 9.16 8.08L10.08 7.3L8.87 7.21C8.78 7.19 8.68 7.16 8.62 7.11C8.57 7.08 8.54 7.05 8.51 7.02C8.49 6.98 8.47 6.94 8.45 6.89L7.98 5.78L7.51 6.89C7.48 6.99 7.42 7.05 7.35 7.11C7.28 7.16 7.19 7.19 7.1 7.21Z" fill="currentColor" fill-opacity="1.000000" fill-rule="evenodd"/>
	</g>
</svg>
