<svg width="16.000000" height="16.000000" viewBox="0 0 16 16" fill="none" xmlns="http://www.w3.org/2000/svg" xmlns:xlink="http://www.w3.org/1999/xlink">
	<desc>
			Created with Pixso.
	</desc>
	<defs>
		<clipPath id="clip220_825">
			<rect id="绑定-binging" width="16.000000" height="16.000000" fill="white" fill-opacity="0"/>
		</clipPath>
	</defs>
	<rect id="41.1#绑定-bind" width="16.000000" height="16.000000" fill="#FFFFFF" fill-opacity="0"/>
	<g clip-path="url(#clip220_825)">
		<path id="_矢量-163" d="M13.65 7.29L11.53 9.41C11.33 9.61 11.02 9.61 10.82 9.41C10.63 9.21 10.63 8.9 10.82 8.7L12.94 6.58C13.08 6.45 13.2 6.3 13.3 6.14C13.37 6.02 13.44 5.89 13.49 5.75C13.55 5.61 13.59 5.47 13.62 5.33C13.66 5.16 13.68 4.99 13.68 4.81C13.68 4.64 13.66 4.47 13.62 4.3C13.59 4.15 13.55 4.01 13.49 3.87C13.44 3.74 13.37 3.61 13.3 3.49C13.2 3.33 13.08 3.18 12.94 3.05C12.81 2.91 12.66 2.79 12.5 2.69C12.38 2.62 12.25 2.55 12.12 2.5C11.98 2.44 11.84 2.4 11.69 2.37C11.52 2.33 11.35 2.31 11.18 2.31C11 2.31 10.83 2.33 10.66 2.37C10.52 2.4 10.38 2.44 10.24 2.5C10.1 2.55 9.97 2.62 9.85 2.69C9.69 2.79 9.54 2.91 9.41 3.05L7.29 5.17C7.09 5.36 6.78 5.36 6.58 5.17C6.38 4.97 6.38 4.66 6.58 4.46L8.7 2.34C8.88 2.16 9.08 2 9.29 1.86C9.46 1.75 9.66 1.65 9.86 1.57C10.06 1.49 10.26 1.43 10.47 1.38C10.7 1.34 10.94 1.31 11.18 1.31C11.42 1.31 11.65 1.34 11.88 1.38C12.09 1.43 12.29 1.49 12.49 1.57C12.69 1.65 12.88 1.75 13.06 1.86C13.27 2 13.47 2.16 13.65 2.34C13.83 2.52 13.99 2.72 14.13 2.93C14.24 3.11 14.34 3.3 14.42 3.5C14.5 3.7 14.56 3.9 14.61 4.11C14.65 4.34 14.68 4.57 14.68 4.81C14.68 5.05 14.66 5.29 14.61 5.52C14.56 5.73 14.5 5.93 14.42 6.13C14.34 6.33 14.24 6.52 14.13 6.69C13.99 6.91 13.83 7.1 13.65 7.29ZM5.52 10.47C5.32 10.27 5.32 9.96 5.52 9.76L9.76 5.52C9.96 5.32 10.27 5.32 10.47 5.52C10.67 5.72 10.67 6.03 10.47 6.23L6.23 10.47C6.03 10.67 5.72 10.67 5.52 10.47ZM7.29 13.65L9.41 11.53C9.61 11.33 9.61 11.02 9.41 10.82C9.21 10.63 8.9 10.63 8.7 10.82L6.58 12.94C6.45 13.08 6.3 13.2 6.14 13.3C6.02 13.37 5.89 13.44 5.75 13.49C5.61 13.55 5.47 13.59 5.33 13.62C5.16 13.66 4.99 13.68 4.81 13.68C4.64 13.68 4.47 13.66 4.3 13.62C4.15 13.59 4.01 13.55 3.87 13.49C3.74 13.44 3.61 13.37 3.49 13.3C3.33 13.2 3.18 13.08 3.05 12.94C2.91 12.81 2.79 12.66 2.69 12.5C2.62 12.38 2.55 12.25 2.5 12.12C2.44 11.98 2.4 11.84 2.37 11.69C2.33 11.52 2.31 11.35 2.31 11.18C2.31 11 2.33 10.83 2.37 10.66C2.4 10.52 2.44 10.38 2.5 10.24C2.55 10.1 2.62 9.97 2.69 9.85C2.79 9.69 2.91 9.54 3.05 9.41L5.17 7.29C5.36 7.09 5.36 6.78 5.17 6.58C4.97 6.38 4.66 6.38 4.46 6.58L2.34 8.7C2.16 8.89 2 9.08 1.86 9.3C1.75 9.47 1.65 9.66 1.57 9.86C1.49 10.06 1.43 10.26 1.38 10.47C1.34 10.7 1.31 10.94 1.31 11.18C1.31 11.42 1.34 11.65 1.38 11.88C1.43 12.09 1.49 12.29 1.57 12.49C1.65 12.69 1.75 12.88 1.86 13.06C2 13.27 2.16 13.47 2.34 13.65C2.52 13.83 2.72 13.99 2.93 14.13C3.11 14.24 3.3 14.34 3.5 14.42C3.7 14.5 3.9 14.56 4.11 14.61C4.34 14.65 4.57 14.68 4.81 14.68C5.05 14.68 5.29 14.65 5.52 14.61C5.73 14.56 5.93 14.5 6.13 14.42C6.33 14.34 6.52 14.24 6.69 14.13C6.91 13.99 7.1 13.83 7.29 13.65Z" fill="currentColor" fill-opacity="1.000000" fill-rule="evenodd"/>
	</g>
</svg>
