<svg width="16.000000" height="16.000000" viewBox="0 0 16 16" fill="none" xmlns="http://www.w3.org/2000/svg" xmlns:xlink="http://www.w3.org/1999/xlink">
	<desc>
			Created with Pixso.
	</desc>
	<defs>
		<clipPath id="clip225_902">
			<rect id="实例-instance" width="16.000000" height="16.000000" fill="white" fill-opacity="0"/>
		</clipPath>
	</defs>
	<rect id="49.1#实例-instance" width="16.000000" height="16.000000" fill="#FFFFFF" fill-opacity="0"/>
	<g clip-path="url(#clip225_902)">
		<path id="_形状结合" d="M7.24 1.84C7.7 1.57 8.28 1.57 8.75 1.84L10.34 2.77C10.8 3.04 11.09 3.53 11.09 4.06L11.09 5.19L12.08 5.77C12.53 6.04 12.83 6.54 12.83 7.06L12.83 8.24L13.74 8.77C14.16 9.01 14.43 9.44 14.48 9.92L14.48 10.06L14.49 11.91C14.49 12.44 14.19 12.95 13.74 13.2L12.14 14.13C11.67 14.4 11.1 14.4 10.63 14.13L9.69 13.58L8.75 14.13C8.28 14.4 7.7 14.4 7.25 14.13L6.28 13.58L5.34 14.13C4.92 14.38 4.41 14.4 3.98 14.2L3.83 14.13L2.25 13.21C1.79 12.95 1.5 12.44 1.5 11.91L1.5 10.06C1.5 9.53 1.78 9.04 2.24 8.77L3.16 8.23L3.16 7.06C3.16 6.54 3.45 6.04 3.91 5.77L4.89 5.2L4.89 4.06C4.89 3.58 5.13 3.13 5.52 2.85L5.64 2.77L7.24 1.84ZM11.03 6.32C10.92 6.68 10.68 7 10.34 7.2L8.75 8.13C8.28 8.4 7.7 8.4 7.24 8.13L5.64 7.2C5.3 7 5.06 6.68 4.95 6.32L4.41 6.63C4.26 6.72 4.16 6.89 4.16 7.06L4.16 7.7C4.55 7.58 4.97 7.63 5.34 7.84L6.94 8.77C7.4 9.04 7.69 9.53 7.69 10.06L7.69 11.91C7.69 12.31 7.52 12.7 7.24 12.98L7.75 13.27C7.89 13.36 8.09 13.36 8.24 13.27L8.75 12.98C8.46 12.7 8.3 12.31 8.3 11.91L8.3 10.06C8.3 9.53 8.58 9.04 9.04 8.77L10.63 7.84C11 7.62 11.43 7.58 11.83 7.7L11.83 7.06C11.83 6.89 11.72 6.72 11.57 6.63L11.03 6.32ZM4.83 8.7C4.68 8.61 4.49 8.61 4.34 8.7L2.75 9.63C2.59 9.72 2.5 9.89 2.5 10.06L2.5 11.91C2.5 12.08 2.59 12.25 2.75 12.34L4.34 13.27C4.49 13.36 4.68 13.36 4.83 13.27L6.44 12.33C6.59 12.25 6.69 12.08 6.69 11.91L6.69 10.06C6.69 9.89 6.59 9.72 6.43 9.63L4.83 8.7ZM11.63 8.7C11.48 8.61 11.29 8.61 11.14 8.7L9.55 9.63C9.39 9.72 9.3 9.89 9.3 10.06L9.3 11.91C9.3 12.08 9.39 12.25 9.55 12.34L11.14 13.27C11.29 13.36 11.48 13.36 11.63 13.27L13.24 12.33C13.39 12.25 13.49 12.08 13.49 11.91L13.49 10.06C13.49 9.89 13.39 9.72 13.23 9.63L11.63 8.7ZM8.24 2.7C8.09 2.61 7.89 2.61 7.75 2.7L6.15 3.63C5.99 3.72 5.89 3.89 5.89 4.06L5.89 5.91C5.89 6.08 5.99 6.25 6.15 6.34L7.75 7.27C7.89 7.36 8.09 7.36 8.24 7.27L9.83 6.34C9.99 6.25 10.09 6.08 10.09 5.91L10.09 4.06C10.09 3.89 9.99 3.72 9.83 3.63L8.24 2.7Z" fill="currentColor" fill-opacity="1.000000" fill-rule="nonzero"/>
	</g>
</svg>
