<svg width="16.000000" height="16.000000" viewBox="0 0 16 16" fill="none" xmlns="http://www.w3.org/2000/svg" xmlns:xlink="http://www.w3.org/1999/xlink">
	<desc>
			Created with Pixso.
	</desc>
	<defs>
		<clipPath id="clip225_914">
			<rect id="codeArts-series" width="16.000000" height="16.000000" fill="white" fill-opacity="0"/>
		</clipPath>
	</defs>
	<rect id="94$#软件开发生产线-code-arts-series" width="16.000000" height="16.000000" fill="#FFFFFF" fill-opacity="0"/>
	<g clip-path="url(#clip225_914)">
		<path id="_合并" d="M7.75 7.74L7.75 4.86C7.75 4.65 7.73 4.44 7.67 4.24C7.64 4.07 7.59 3.9 7.51 3.74C7.45 3.58 7.37 3.43 7.28 3.28C7.17 3.12 7.04 2.97 6.91 2.83C6.76 2.69 6.62 2.57 6.45 2.46C6.31 2.36 6.16 2.28 6 2.21C5.82 2.15 5.67 2.09 5.5 2.06C5.29 2.01 5.09 1.99 4.88 1.99C4.67 1.99 4.45 2.01 4.25 2.06C4.07 2.09 3.92 2.15 3.76 2.22C3.59 2.29 3.44 2.37 3.29 2.46C3.13 2.57 2.98 2.69 2.84 2.83C2.7 2.97 2.57 3.12 2.47 3.28C2.36 3.43 2.29 3.58 2.22 3.74C2.16 3.91 2.1 4.07 2.07 4.24C2.01 4.45 2 4.65 2 4.86C2 5.07 2.01 5.28 2.07 5.49C2.1 5.66 2.16 5.83 2.23 5.99C2.29 6.15 2.38 6.3 2.47 6.45C2.57 6.61 2.7 6.76 2.84 6.9C2.98 7.04 3.13 7.16 3.29 7.27C3.44 7.37 3.59 7.45 3.75 7.52C3.91 7.59 4.07 7.64 4.25 7.68C4.45 7.72 4.66 7.75 4.87 7.75L7.75 7.74ZM13.93 5.49C13.98 5.28 14 5.08 14 4.86C14 4.64 13.98 4.44 13.93 4.24C13.89 4.07 13.84 3.9 13.77 3.74C13.7 3.58 13.62 3.42 13.52 3.28C13.41 3.12 13.29 2.97 13.15 2.83C13.01 2.69 12.86 2.57 12.7 2.46C12.55 2.36 12.4 2.28 12.24 2.21C12.08 2.14 11.91 2.09 11.74 2.05C11.54 2.01 11.34 1.99 11.12 1.99C10.9 1.99 10.7 2.01 10.5 2.06C10.33 2.1 10.16 2.15 10 2.22C9.84 2.29 9.68 2.37 9.54 2.46C9.38 2.57 9.23 2.69 9.09 2.83C8.95 2.97 8.82 3.12 8.72 3.28C8.62 3.43 8.54 3.58 8.47 3.74C8.39 3.9 8.35 4.07 8.31 4.24C8.26 4.44 8.23 4.65 8.23 4.86L8.23 7.74L11.12 7.74C11.33 7.74 11.54 7.72 11.74 7.67C11.91 7.63 12.08 7.58 12.24 7.51C12.4 7.44 12.56 7.36 12.7 7.26C12.86 7.15 13.01 7.03 13.15 6.89C13.29 6.75 13.41 6.6 13.52 6.44C13.62 6.29 13.7 6.14 13.77 5.98C13.84 5.82 13.9 5.66 13.93 5.49ZM6.7 4.44C6.73 4.58 6.75 4.72 6.75 4.86L6.75 6.74L4.88 6.74C4.73 6.74 4.59 6.72 4.45 6.69C4.35 6.67 4.25 6.63 4.14 6.59C4.04 6.55 3.95 6.49 3.85 6.43C3.73 6.37 3.64 6.28 3.54 6.19C3.45 6.1 3.37 6 3.29 5.89C3.23 5.8 3.19 5.7 3.14 5.59C3.1 5.49 3.07 5.39 3.04 5.29C3.01 5.15 3 5.01 3 4.86C3 4.71 3.01 4.57 3.04 4.44C3.07 4.34 3.1 4.23 3.14 4.13C3.19 4.03 3.25 3.93 3.31 3.84C3.38 3.73 3.45 3.63 3.56 3.54C3.64 3.45 3.75 3.36 3.85 3.29C3.95 3.23 4.04 3.18 4.14 3.13C4.25 3.09 4.35 3.05 4.45 3.03C4.59 3.01 4.73 2.99 4.88 2.99C5.03 2.99 5.16 3.01 5.29 3.04C5.39 3.06 5.5 3.09 5.6 3.14C5.7 3.18 5.79 3.24 5.89 3.3C6 3.37 6.1 3.45 6.19 3.55C6.28 3.64 6.37 3.74 6.44 3.85C6.51 3.93 6.56 4.03 6.6 4.14C6.64 4.24 6.67 4.34 6.7 4.44ZM12.95 4.44C12.98 4.58 13 4.72 13 4.86C13 5 12.98 5.15 12.95 5.28C12.93 5.38 12.89 5.49 12.85 5.59C12.81 5.69 12.75 5.79 12.69 5.88C12.62 5.99 12.54 6.09 12.44 6.18C12.35 6.27 12.25 6.36 12.14 6.43C12.05 6.49 11.95 6.54 11.85 6.59C11.75 6.63 11.65 6.67 11.54 6.69C11.4 6.72 11.26 6.74 11.12 6.74L9.25 6.74L9.25 4.86C9.25 4.72 9.26 4.57 9.29 4.44C9.32 4.34 9.35 4.23 9.39 4.13C9.43 4.03 9.5 3.93 9.56 3.84C9.63 3.73 9.7 3.63 9.81 3.54C9.89 3.45 10 3.36 10.1 3.29C10.2 3.23 10.3 3.18 10.4 3.13C10.5 3.09 10.6 3.05 10.71 3.03C10.84 3.01 10.98 2.99 11.12 2.99C11.26 2.99 11.41 3.01 11.54 3.04C11.64 3.06 11.75 3.1 11.85 3.14C11.95 3.18 12.05 3.24 12.14 3.3C12.25 3.37 12.35 3.45 12.44 3.55C12.53 3.64 12.62 3.74 12.69 3.85C12.75 3.94 12.8 4.04 12.85 4.14C12.9 4.24 12.93 4.34 12.95 4.44ZM7.75 8.24L7.75 11.12C7.75 11.33 7.73 11.54 7.67 11.74C7.64 11.91 7.59 12.08 7.51 12.24C7.45 12.4 7.37 12.56 7.26 12.7C7.16 12.86 7.04 13.01 6.89 13.15C6.76 13.29 6.6 13.41 6.45 13.52C6.29 13.62 6.14 13.7 5.98 13.77C5.82 13.84 5.66 13.89 5.48 13.93C5.29 13.97 5.09 13.99 4.88 13.99C4.67 13.99 4.45 13.97 4.26 13.92C4.09 13.88 3.92 13.83 3.76 13.76C3.6 13.69 3.44 13.61 3.29 13.51C3.14 13.4 2.98 13.28 2.85 13.14C2.7 13 2.59 12.85 2.48 12.69C2.38 12.54 2.29 12.39 2.23 12.23C2.16 12.07 2.11 11.9 2.07 11.73C2.01 11.53 2 11.33 2 11.11C2 10.89 2.01 10.69 2.07 10.49C2.1 10.32 2.16 10.15 2.23 9.99C2.29 9.83 2.38 9.68 2.47 9.53C2.57 9.37 2.7 9.22 2.84 9.08C2.98 8.94 3.13 8.82 3.29 8.71C3.44 8.61 3.59 8.53 3.75 8.46C3.91 8.39 4.07 8.34 4.25 8.3C4.45 8.26 4.66 8.23 4.87 8.23L7.75 8.24ZM11.12 8.24C11.33 8.24 11.54 8.26 11.74 8.31C11.91 8.35 12.08 8.4 12.24 8.47C12.4 8.54 12.56 8.62 12.7 8.72C12.86 8.83 13.01 8.95 13.15 9.09C13.29 9.23 13.41 9.38 13.52 9.54C13.62 9.69 13.7 9.84 13.77 10C13.84 10.16 13.89 10.33 13.93 10.5C13.97 10.7 14 10.91 14 11.12C14 11.33 13.98 11.54 13.93 11.74C13.89 11.91 13.84 12.08 13.77 12.24C13.7 12.4 13.62 12.56 13.52 12.7C13.41 12.86 13.29 13.01 13.15 13.15C13.01 13.29 12.86 13.41 12.7 13.52C12.55 13.62 12.4 13.7 12.24 13.77C12.08 13.84 11.91 13.89 11.74 13.93C11.54 13.97 11.33 14 11.12 14C10.91 14 10.7 13.98 10.5 13.93C10.33 13.89 10.16 13.84 10 13.77C9.84 13.7 9.67 13.62 9.54 13.52C9.38 13.41 9.23 13.29 9.09 13.15C8.95 13.01 8.82 12.86 8.72 12.7C8.62 12.55 8.54 12.4 8.47 12.24C8.39 12.08 8.35 11.91 8.31 11.74C8.26 11.54 8.23 11.33 8.23 11.12L8.23 8.24L11.12 8.24ZM4.88 9.24L6.76 9.24L6.76 11.12C6.76 11.26 6.73 11.41 6.7 11.54C6.69 11.64 6.64 11.75 6.6 11.85C6.57 11.95 6.51 12.05 6.45 12.14C6.38 12.25 6.29 12.35 6.2 12.44C6.1 12.53 6.01 12.62 5.89 12.69C5.81 12.75 5.7 12.8 5.61 12.85C5.51 12.89 5.41 12.93 5.29 12.95C5.16 12.97 5.01 12.99 4.88 12.99C4.73 12.99 4.59 12.97 4.45 12.94C4.36 12.92 4.25 12.88 4.14 12.84C4.04 12.8 3.95 12.74 3.86 12.68C3.75 12.61 3.64 12.53 3.56 12.43C3.47 12.34 3.38 12.24 3.31 12.13C3.25 12.04 3.2 11.94 3.14 11.84C3.11 11.74 3.07 11.64 3.04 11.53C3.01 11.4 3 11.26 3 11.11C3 10.96 3.01 10.82 3.04 10.69C3.07 10.59 3.11 10.48 3.14 10.38C3.19 10.28 3.25 10.18 3.31 10.09C3.38 9.98 3.45 9.88 3.56 9.79C3.64 9.7 3.75 9.61 3.86 9.54C3.94 9.48 4.04 9.43 4.14 9.39C4.25 9.35 4.35 9.31 4.45 9.29C4.59 9.26 4.73 9.24 4.88 9.24ZM11.12 9.24L9.25 9.24L9.25 11.12C9.25 11.26 9.26 11.41 9.29 11.54C9.32 11.64 9.36 11.75 9.39 11.85C9.43 11.95 9.5 12.05 9.56 12.14C9.63 12.25 9.7 12.35 9.81 12.44C9.89 12.53 10 12.62 10.1 12.69C10.2 12.75 10.3 12.8 10.4 12.85C10.5 12.89 10.6 12.93 10.71 12.95C10.85 12.98 10.99 13 11.13 13C11.27 13 11.42 12.98 11.55 12.95C11.65 12.93 11.76 12.89 11.86 12.85C11.96 12.81 12.06 12.75 12.15 12.69C12.26 12.62 12.36 12.54 12.45 12.44C12.54 12.35 12.63 12.25 12.7 12.14C12.76 12.05 12.81 11.95 12.86 11.85C12.9 11.75 12.94 11.65 12.96 11.54C12.99 11.4 13.01 11.26 13.01 11.12C13.01 10.98 12.99 10.83 12.96 10.7C12.94 10.6 12.9 10.49 12.86 10.39C12.82 10.29 12.76 10.19 12.7 10.1C12.63 9.99 12.55 9.89 12.45 9.8C12.36 9.71 12.26 9.62 12.15 9.55C12.06 9.49 11.96 9.44 11.86 9.39C11.76 9.35 11.66 9.31 11.55 9.29C11.41 9.26 11.27 9.24 11.12 9.24Z" fill="currentColor" fill-opacity="1.000000" fill-rule="evenodd"/>
	</g>
</svg>
