<svg width="16.000000" height="16.000000" viewBox="0 0 16 16" fill="none" xmlns="http://www.w3.org/2000/svg" xmlns:xlink="http://www.w3.org/1999/xlink">
	<desc>
			Created with Pixso.
	</desc>
	<defs>
		<clipPath id="clip225_916">
			<rect id="codeArts-ide" width="16.000000" height="16.000000" fill="white" fill-opacity="0"/>
		</clipPath>
	</defs>
	<rect id="94.1#codeArtsIDE-code-arts-ide" width="16.000000" height="16.000000" fill="#FFFFFF" fill-opacity="0"/>
	<g clip-path="url(#clip225_916)">
		<path id="_合并" d="M5.5 3.08C6.92 2.04 9.04 2.04 10.47 3.08C11.12 3.55 11.62 4.19 11.93 4.94C13.16 5.3 14.02 5.8 14.64 6.5C15.36 7.29 15.75 8.32 15.75 9.38C15.75 10.52 15.3 11.6 14.48 12.42C13.66 13.25 12.59 13.7 11.46 13.7L4.53 13.7C3.39 13.7 2.29 13.23 1.5 12.42C0.7 11.61 0.25 10.53 0.25 9.38C0.25 8.32 0.63 7.29 1.32 6.5C1.98 5.77 2.85 5.29 3.79 5.14C4.38 4.14 4.88 3.53 5.5 3.08ZM8 3.28C7.29 3.28 6.63 3.48 6.09 3.88C5.54 4.27 5.1 4.84 4.54 5.84L4.42 6.07L4.16 6.09C3.35 6.17 2.62 6.55 2.07 7.16C1.54 7.77 1.23 8.56 1.23 9.38C1.23 10.27 1.57 11.1 2.2 11.72C2.82 12.34 3.66 12.7 4.51 12.7L11.45 12.7C12.31 12.7 13.14 12.35 13.77 11.72C14.4 11.09 14.75 10.26 14.75 9.38C14.75 8.56 14.45 7.77 13.9 7.16C13.36 6.56 12.6 6.15 11.43 5.83L11.17 5.76L11.08 5.51C10.85 4.85 10.44 4.28 9.88 3.88L9.7 3.76C9.2 3.45 8.63 3.28 8 3.28ZM3.6 8.77L5.1 6.77C5.26 6.54 5.57 6.5 5.79 6.66C6.01 6.83 6.06 7.14 5.89 7.37L4.62 9.07L5.89 10.77C6.06 10.99 6.01 11.3 5.79 11.47C5.57 11.63 5.26 11.59 5.1 11.37L3.6 9.37C3.53 9.28 3.5 9.18 3.5 9.07C3.5 8.95 3.53 8.85 3.6 8.77ZM12.4 8.77L10.9 6.77C10.73 6.54 10.42 6.5 10.2 6.66C9.97 6.83 9.92 7.14 10.1 7.37L11.37 9.07L10.1 10.77C9.92 10.99 9.97 11.3 10.2 11.47C10.42 11.63 10.73 11.59 10.9 11.37L12.4 9.37C12.46 9.28 12.5 9.18 12.5 9.07C12.5 8.95 12.46 8.85 12.4 8.77ZM7.37 11.55C7.1 11.48 6.94 11.22 7.01 10.94L8.01 6.94C8.07 6.67 8.34 6.51 8.62 6.58C8.89 6.65 9.04 6.91 8.98 7.19L7.98 11.19C7.91 11.46 7.64 11.62 7.37 11.55Z" fill="currentColor" fill-opacity="1.000000" fill-rule="evenodd"/>
	</g>
</svg>
