<svg width="16.000000" height="16.000000" viewBox="0 0 16 16" fill="none" xmlns="http://www.w3.org/2000/svg" xmlns:xlink="http://www.w3.org/1999/xlink">
	<desc>
			Created with Pixso.
	</desc>
	<defs>
		<clipPath id="clip225_912">
			<rect id="codeArts-api" width="16.000000" height="16.000000" fill="white" fill-opacity="0"/>
		</clipPath>
	</defs>
	<rect id="94.2#codeArtsAPI-code-arts-api" width="16.000000" height="16.000000" fill="#FFFFFF" fill-opacity="0"/>
	<g clip-path="url(#clip225_912)">
		<path id="_形状结合" d="M7.38 2.19C7.82 2.22 8.08 2.74 8.3 3.38L8.39 3.66L8.65 4.53L8.7 4.7L8.81 5.07L8.91 5.46L9.01 5.86L9.1 6.26L9.18 6.65C9.27 7.15 9.32 7.57 9.28 7.79C9.2 8.27 8.64 7.95 8.11 7.28L7.77 6.82L7.63 6.65C7.42 6.39 7.3 6.32 7.16 6.33L7.03 6.35L6.8 6.53L6.71 6.64L6.56 6.85L6.32 7.22L5.99 7.75L5.57 8.46L4.92 9.59L4.65 10.07L4.4 10.52L4.07 11.14L3.69 11.89L3 13.28L2.9 13.47L2.8 13.64L2.72 13.78L2.64 13.9C2.51 14.06 2.41 14.11 2.31 14.03C2.25 13.99 2.21 13.86 2.19 13.68L2.19 13.5C2.19 13.44 2.19 13.37 2.19 13.3L2.19 13.06L2.23 12.8L2.26 12.52L2.31 12.2L2.37 11.87L2.44 11.51C2.44 11.45 2.46 11.39 2.47 11.32L2.56 10.94L2.71 10.32L2.82 9.89L2.95 9.45L3.09 8.99L3.23 8.52C3.26 8.44 3.29 8.36 3.31 8.28L3.48 7.8L3.65 7.31C3.71 7.14 3.78 6.97 3.84 6.81C3.91 6.63 3.98 6.46 4.04 6.3L4.25 5.83C4.41 5.45 4.58 5.1 4.75 4.79L4.94 4.44C5.57 3.36 6.15 2.75 6.63 2.44L6.77 2.36C7.01 2.23 7.21 2.18 7.38 2.19ZM8.7 2.19C8.8 2.19 8.96 2.29 9.18 2.5L9.31 2.64L9.41 2.75L9.51 2.87L9.61 3L9.77 3.21L9.89 3.36L10.06 3.61L10.19 3.79L10.31 3.97L10.5 4.27L10.63 4.48L10.83 4.8L10.97 5.03L11.24 5.51L11.38 5.76L11.52 6.01L11.66 6.27L11.8 6.54L12.07 7.1L12.21 7.38L12.35 7.68L12.49 7.97L12.69 8.43L12.88 8.89C13 9.18 13.11 9.47 13.2 9.74L13.29 10C13.41 10.34 13.5 10.66 13.57 10.96L13.62 11.18C13.66 11.36 13.69 11.52 13.71 11.68L13.74 11.87L13.76 12.05L13.76 12.22L13.78 12.38C13.79 12.49 13.79 12.59 13.78 12.68L13.78 12.95L13.74 13.13L13.72 13.24C13.71 13.29 13.7 13.34 13.68 13.39C13.68 13.39 13.62 13.56 13.6 13.6C13.55 13.71 13.45 13.86 13.38 13.92C13.08 14.19 12.59 14.05 12.04 13.78L11.8 13.66L11.56 13.53L10.91 13.17L10.72 13.07L10.42 12.9L10.21 12.78L10 12.66L9.79 12.53L9.58 12.39L9.28 12.19L9.09 12.06L8.91 11.93C8.83 11.87 8.75 11.82 8.68 11.76L8.49 11.61C8.38 11.51 8.29 11.42 8.24 11.35C8.01 11.02 8.4 10.85 9.01 10.86L9.15 10.86L9.32 10.88L9.51 10.91L9.84 10.96L10.11 10.99L10.26 11.01C10.45 11.01 10.63 10.97 10.7 10.88L10.79 10.67L10.79 10.55L10.78 10.36L10.76 10.25L10.73 10.08L10.68 9.82L10.62 9.57L10.54 9.2L10.42 8.76L10.26 8.13L9.98 7.08L9.8 6.46L9.68 6.03L9.55 5.63L9.4 5.13L9.18 4.46L8.8 3.33L8.71 3.06L8.67 2.95L8.63 2.79L8.6 2.6C8.53 2.34 8.56 2.21 8.7 2.19ZM10.49 5.87L10.6 6.24L10.78 6.86L11.06 7.92L11.23 8.56L11.34 9.01L11.43 9.39L11.49 9.66L11.55 9.94L11.58 10.13L11.6 10.27L11.62 10.43L11.62 10.79L11.59 10.92L11.54 11.06L11.49 11.18C11.68 11.88 11.85 12.47 12.06 12.86L12.25 12.96L12.4 13.04C12.56 13.11 12.69 13.17 12.79 13.2L12.9 13.13L12.93 12.97L12.95 12.78L12.95 12.66L12.96 12.54L12.96 12.43L12.95 12.29L12.93 12.05L12.89 11.81L12.86 11.59L12.81 11.36L12.76 11.15C12.72 10.97 12.66 10.77 12.6 10.57L12.51 10.26L12.42 10.01C12.36 9.84 12.3 9.66 12.23 9.48L12.12 9.21L11.99 8.91L11.87 8.61L11.73 8.32L11.6 8.03L11.33 7.47L11.2 7.19L11.06 6.92L10.79 6.41L10.6 6.24L10.49 5.87ZM11.07 11.65L10.97 11.71C10.82 11.78 10.66 11.82 10.47 11.83L10.32 11.83L10.43 11.94L10.63 12.06L10.92 12.23L11.11 12.34L11.32 12.45C11.22 12.2 11.16 11.95 11.07 11.65ZM7.26 3.03C7.11 3.1 6.81 3.31 6.5 3.65C5.88 4.35 5.23 5.5 4.61 7.1C4.24 8.08 3.92 9.06 3.66 9.98L3.57 10.31C3.66 10.14 3.8 9.89 3.9 9.71L4.2 9.18L4.9 7.96L5.35 7.19L5.58 6.82L5.72 6.6L5.85 6.42L5.97 6.25L6.08 6.11L6.18 5.99L6.28 5.88L6.46 5.72L6.68 5.6L6.96 5.52C7.34 4.9 7.54 4.34 7.58 3.83C7.5 3.6 7.4 3.32 7.33 3.19L7.26 3.03ZM7.61 5.41L7.55 5.52C7.74 5.58 7.92 5.71 8.13 5.96C8.05 5.6 8.01 5.26 7.9 4.93L7.87 4.81C7.8 5.01 7.71 5.21 7.61 5.41Z" fill="currentColor" fill-opacity="1.000000" fill-rule="nonzero"/>
	</g>
</svg>
