<svg width="16.000000" height="16.000000" viewBox="0 0 16 16" fill="none" xmlns="http://www.w3.org/2000/svg" xmlns:xlink="http://www.w3.org/1999/xlink">
	<desc>
			Created with Pixso.
	</desc>
	<defs>
		<clipPath id="clip225_910">
			<rect id="codelabs" width="16.000000" height="16.000000" fill="white" fill-opacity="0"/>
		</clipPath>
	</defs>
	<rect id="95#CodeLabs训练营-codelabs" width="16.000000" height="16.000000" fill="#FFFFFF" fill-opacity="0"/>
	<g clip-path="url(#clip225_910)">
		<path id="_合并" d="M8.76 1.52C8.68 1.5 8.59 1.49 8.5 1.49L4.5 1.49C4.41 1.49 4.32 1.49 4.24 1.52C4.16 1.52 4.09 1.56 4.01 1.59C3.94 1.62 3.87 1.66 3.81 1.7C3.74 1.75 3.68 1.8 3.62 1.86C3.56 1.92 3.5 1.98 3.46 2.05C3.42 2.11 3.38 2.18 3.35 2.25C3.32 2.33 3.29 2.4 3.28 2.48C3.26 2.56 3.25 2.65 3.25 2.74C3.25 2.83 3.25 2.92 3.28 3C3.3 3.08 3.32 3.15 3.35 3.22C3.38 3.29 3.42 3.36 3.46 3.42C3.51 3.49 3.56 3.55 3.62 3.61C3.68 3.67 3.74 3.72 3.81 3.77C3.85 3.81 3.9 3.84 3.95 3.86L3.95 6.13L1.64 11.73C1.58 11.87 1.54 12 1.52 12.14C1.5 12.26 1.49 12.38 1.49 12.51C1.49 12.63 1.49 12.76 1.53 12.88C1.56 13.01 1.59 13.14 1.65 13.27C1.7 13.4 1.77 13.51 1.84 13.62C1.91 13.72 1.99 13.82 2.07 13.9C2.16 13.99 2.25 14.07 2.35 14.14C2.47 14.22 2.59 14.29 2.73 14.35C2.85 14.4 2.98 14.44 3.1 14.46C3.23 14.49 3.36 14.5 3.49 14.5L6.54 14.5C6.82 14.5 7.04 14.28 7.04 14C7.04 13.72 6.82 13.5 6.54 13.5L3.49 13.5C3.42 13.5 3.36 13.49 3.3 13.48C3.24 13.47 3.17 13.45 3.11 13.42C3.04 13.39 2.97 13.35 2.91 13.31C2.87 13.28 2.82 13.24 2.78 13.2C2.74 13.16 2.7 13.11 2.67 13.07C2.63 13.01 2.6 12.95 2.57 12.88C2.54 12.81 2.52 12.75 2.51 12.68C2.51 12.62 2.49 12.57 2.49 12.51C2.49 12.45 2.49 12.4 2.49 12.34C2.49 12.26 2.52 12.19 2.55 12.12L4.16 8.21C4.35 8.27 4.55 8.31 4.75 8.34C4.96 8.37 5.16 8.37 5.37 8.36C5.59 8.34 5.8 8.31 6 8.26C6.2 8.21 6.4 8.15 6.59 8.06C6.73 8 6.87 7.95 7.02 7.92C7.17 7.89 7.32 7.86 7.47 7.85C7.62 7.84 7.77 7.84 7.92 7.86C8.07 7.88 8.22 7.9 8.36 7.95L8.88 8.09C9.15 8.17 9.42 8.01 9.5 7.74C9.51 7.69 9.52 7.64 9.52 7.59C9.56 7.48 9.55 7.36 9.51 7.24L9.04 6.13L9.04 3.86C9.09 3.84 9.14 3.81 9.18 3.78C9.25 3.73 9.31 3.68 9.37 3.62C9.43 3.56 9.49 3.5 9.53 3.43C9.57 3.37 9.61 3.3 9.64 3.23C9.67 3.16 9.69 3.08 9.71 3.01C9.73 2.92 9.74 2.84 9.74 2.75C9.74 2.66 9.73 2.57 9.71 2.49C9.71 2.4 9.67 2.33 9.64 2.25C9.61 2.18 9.57 2.11 9.53 2.05C9.49 1.98 9.43 1.92 9.37 1.86C9.31 1.8 9.25 1.74 9.18 1.7C9.12 1.66 9.05 1.62 8.98 1.59C8.9 1.56 8.84 1.53 8.76 1.52ZM4.5 2.99L8.5 2.99C8.5 2.99 8.65 2.93 8.68 2.92C8.7 2.89 8.74 2.77 8.75 2.74C8.75 2.71 8.69 2.59 8.68 2.56C8.65 2.54 8.53 2.5 8.5 2.49L4.5 2.49C4.5 2.49 4.35 2.54 4.32 2.56C4.3 2.59 4.26 2.71 4.25 2.74C4.25 2.77 4.31 2.89 4.32 2.92C4.35 2.94 4.47 2.98 4.5 2.99ZM4.9 7.34C4.78 7.32 4.67 7.3 4.56 7.27L4.91 6.42C4.91 6.42 4.94 6.26 4.95 6.23L4.95 3.99L8.06 3.99L8.06 6.23C8.06 6.23 8.09 6.39 8.1 6.42L8.3 6.9C8.21 6.9 8.12 6.87 8.04 6.87C7.83 6.84 7.62 6.84 7.41 6.85C7.2 6.87 7 6.9 6.8 6.95C6.6 7 6.4 7.07 6.21 7.15C6.07 7.21 5.93 7.26 5.78 7.29C5.64 7.32 5.49 7.34 5.34 7.35C5.19 7.35 5.04 7.35 4.9 7.34ZM13.32 8.61C14.31 8.61 15.12 9.42 15.12 10.41L15.12 13.06C15.12 14.05 14.31 14.86 13.32 14.86L9.17 14.86C8.18 14.86 7.37 14.05 7.37 13.06L7.37 10.41C7.37 9.42 8.18 8.61 9.17 8.61L13.32 8.61ZM13.32 9.52C13.82 9.52 14.22 9.92 14.22 10.42L14.22 13.07C14.22 13.57 13.82 13.97 13.32 13.97L9.17 13.97C8.67 13.97 8.27 13.57 8.27 13.07L8.27 10.42C8.27 9.92 8.67 9.52 9.17 9.52L13.32 9.52ZM10.09 11.75L10.74 10.89C10.89 10.69 10.85 10.41 10.65 10.26C10.45 10.11 10.17 10.15 10.02 10.35L9.21 11.42C9.17 11.47 9.15 11.52 9.13 11.58C9.11 11.63 9.1 11.69 9.1 11.75C9.1 11.81 9.11 11.87 9.13 11.93C9.15 11.99 9.18 12.04 9.21 12.09L10.02 13.15C10.17 13.35 10.45 13.39 10.65 13.23C10.85 13.08 10.89 12.8 10.73 12.6L10.09 11.75ZM11.76 10.89L12.41 11.75L11.76 12.59C11.61 12.79 11.64 13.07 11.84 13.22C12.04 13.37 12.32 13.34 12.47 13.14L13.28 12.08C13.32 12.03 13.35 11.98 13.36 11.92C13.38 11.86 13.39 11.81 13.39 11.74C13.39 11.68 13.38 11.62 13.36 11.56C13.34 11.5 13.31 11.45 13.28 11.4L12.47 10.33C12.32 10.13 12.04 10.09 11.84 10.24C11.65 10.41 11.61 10.68 11.76 10.89Z" fill="currentColor" fill-opacity="1.000000" fill-rule="evenodd"/>
	</g>
</svg>
