<svg width="16.000000" height="16.000000" viewBox="0 0 16 16" fill="none" xmlns="http://www.w3.org/2000/svg" xmlns:xlink="http://www.w3.org/1999/xlink">
	<desc>
			Created with Pixso.
	</desc>
	<defs>
		<clipPath id="clip225_911">
			<rect id="KooLabs云实验-center-labs" width="16.000000" height="16.000000" fill="white" fill-opacity="0"/>
		</clipPath>
	</defs>
	<rect id="96#KooLabs云实验-koo-labs" width="16.000000" height="16.000000" fill="#FFFFFF" fill-opacity="0"/>
	<g clip-path="url(#clip225_911)">
		<path id="_合并" d="M8.58 1.48C8.67 1.48 8.76 1.48 8.84 1.51C8.92 1.54 8.99 1.55 9.06 1.58C9.13 1.61 9.2 1.65 9.26 1.69C9.33 1.74 9.39 1.79 9.45 1.85C9.51 1.91 9.56 1.97 9.61 2.04C9.65 2.1 9.69 2.17 9.72 2.24C9.76 2.32 9.78 2.39 9.8 2.47C9.82 2.56 9.83 2.64 9.83 2.73C9.83 2.82 9.82 2.91 9.8 3C9.78 3.07 9.76 3.15 9.73 3.22C9.7 3.29 9.66 3.36 9.62 3.42C9.57 3.49 9.52 3.55 9.46 3.61C9.4 3.68 9.34 3.73 9.27 3.77C9.23 3.8 9.18 3.83 9.13 3.85L9.13 6.12L9.59 7.23C9.64 7.35 9.64 7.47 9.6 7.58C9.6 7.63 9.6 7.68 9.58 7.73C9.51 8.01 9.24 8.16 8.97 8.08L8.43 7.93C8.28 7.89 8.14 7.86 8 7.85C7.85 7.83 7.71 7.83 7.56 7.85C7.41 7.85 7.27 7.88 7.13 7.92C6.98 7.95 6.85 8 6.71 8.06C6.51 8.15 6.31 8.21 6.1 8.26C5.9 8.31 5.69 8.34 5.47 8.35C5.25 8.36 5.04 8.35 4.83 8.33C4.64 8.3 4.45 8.26 4.26 8.2L2.64 12.11C2.61 12.18 2.59 12.26 2.58 12.33C2.58 12.38 2.58 12.44 2.58 12.5C2.58 12.56 2.58 12.62 2.6 12.67C2.6 12.74 2.63 12.81 2.66 12.87C2.69 12.94 2.72 13 2.76 13.06C2.79 13.11 2.83 13.15 2.87 13.19C2.91 13.23 2.95 13.27 3 13.3C3.06 13.34 3.13 13.38 3.2 13.41C3.26 13.44 3.32 13.45 3.39 13.47C3.45 13.48 3.52 13.49 3.58 13.49L7.13 13.49C7.41 13.49 7.63 13.71 7.63 13.99C7.63 14.27 7.41 14.49 7.13 14.49L3.58 14.49C3.45 14.49 3.32 14.48 3.19 14.45C3.06 14.42 2.94 14.39 2.82 14.34C2.68 14.28 2.56 14.22 2.44 14.13C2.34 14.06 2.25 13.98 2.16 13.89C2.07 13.8 2 13.71 1.93 13.61C1.85 13.5 1.79 13.38 1.74 13.26C1.68 13.14 1.64 13.01 1.62 12.88C1.6 12.76 1.58 12.64 1.58 12.51C1.58 12.39 1.58 12.26 1.61 12.14C1.63 12 1.67 11.86 1.73 11.73L4.04 6.13L4.04 3.86C4.04 3.86 3.94 3.81 3.9 3.78C3.83 3.73 3.77 3.68 3.71 3.62C3.64 3.57 3.59 3.5 3.55 3.43C3.51 3.37 3.47 3.3 3.44 3.23C3.41 3.16 3.38 3.08 3.37 3.01C3.35 2.92 3.34 2.83 3.34 2.74C3.34 2.65 3.34 2.56 3.37 2.48C3.37 2.4 3.41 2.33 3.44 2.26C3.47 2.19 3.51 2.12 3.55 2.06C3.6 1.99 3.65 1.93 3.71 1.87C3.77 1.81 3.83 1.76 3.9 1.71C3.96 1.67 4.03 1.63 4.1 1.6C4.17 1.57 4.25 1.55 4.32 1.53C4.41 1.5 4.5 1.49 4.59 1.49L8.58 1.48ZM8.58 2.98L4.58 2.98C4.58 2.98 4.43 2.93 4.4 2.91C4.39 2.88 4.33 2.77 4.33 2.73C4.34 2.7 4.38 2.58 4.4 2.56C4.42 2.54 4.55 2.5 4.58 2.49L8.58 2.49C8.58 2.49 8.73 2.54 8.76 2.56C8.77 2.59 8.83 2.7 8.83 2.73C8.82 2.76 8.78 2.89 8.76 2.91C8.73 2.91 8.61 2.98 8.58 2.98ZM4.64 7.26C4.75 7.29 4.85 7.31 4.96 7.32C5.11 7.34 5.26 7.35 5.42 7.34C5.57 7.33 5.73 7.31 5.88 7.28C6.03 7.25 6.17 7.2 6.32 7.13C6.5 7.05 6.69 6.98 6.89 6.94C7.09 6.89 7.29 6.86 7.49 6.85C7.7 6.83 7.9 6.83 8.1 6.85C8.19 6.86 8.28 6.87 8.37 6.89L8.13 6.32L8.13 3.98L5.02 3.98L5.02 6.32L4.64 7.26ZM12.53 8.56C12.34 8.25 12.04 8.08 11.71 8.08L10.82 8.08L10.72 8.11C10.42 8.19 10.2 8.39 10.09 8.65L9.96 8.94L9.65 8.9C9.29 8.9 8.89 9.08 8.73 9.36L8.34 10.03L8.29 10.14L8.26 10.25C8.19 10.54 8.25 10.82 8.42 11.04L8.6 11.3L8.41 11.55C8.24 11.87 8.18 12.31 8.34 12.59L8.73 13.26L8.87 13.43C9.09 13.64 9.36 13.73 9.64 13.7L9.95 13.66L10.07 13.95C10.26 14.26 10.61 14.52 10.94 14.52L11.83 14.52L11.93 14.49C12.23 14.41 12.45 14.21 12.56 13.95L12.68 13.66L13 13.7L13.1 13.7C13.46 13.7 13.76 13.52 13.93 13.24L14.32 12.57L14.37 12.46L14.4 12.35C14.47 12.06 14.41 11.78 14.24 11.56L14.05 11.31L14.24 11.06C14.41 10.74 14.47 10.3 14.31 10.02L13.92 9.35L13.78 9.18C13.56 8.96 13.28 8.86 13 8.9L12.69 8.94L12.57 8.66L12.53 8.56ZM10.8 9.53L10.99 9.07L11.67 9.07L11.86 9.52C11.9 9.62 11.98 9.7 12.07 9.76L12.28 9.88C12.36 9.91 12.51 9.95 12.59 9.94L13.08 9.88L13.42 10.47L13.12 10.86C13.06 10.95 13.02 11.05 13.02 11.16L13.02 11.47C13.03 11.56 13.06 11.64 13.12 11.71L13.42 12.1L13.08 12.69L12.59 12.63C12.48 12.62 12.37 12.64 12.28 12.69L12.01 12.85C11.94 12.9 11.89 12.97 11.85 13.05L11.66 13.5L10.98 13.5L10.79 13.05C10.75 12.95 10.67 12.87 10.58 12.81L10.36 12.69C10.28 12.66 10.13 12.62 10.05 12.63L9.57 12.7L9.23 12.11L9.53 11.72C9.6 11.63 9.63 11.53 9.63 11.42L9.63 11.11C9.62 11.02 9.59 10.94 9.53 10.87L9.23 10.48L9.57 9.89L10.06 9.95C10.17 9.96 10.28 9.94 10.37 9.89L10.59 9.77C10.68 9.71 10.75 9.63 10.8 9.53ZM12.05 11.3C12.05 10.9 11.73 10.58 11.33 10.58C10.93 10.58 10.61 10.9 10.61 11.3C10.61 11.7 10.93 12.02 11.33 12.02C11.73 12.02 12.05 11.7 12.05 11.3Z" fill="currentColor" fill-opacity="1.000000" fill-rule="evenodd"/>
	</g>
</svg>
