<svg width="48" height="28" viewBox="0 0 48 28" fill="none" xmlns="http://www.w3.org/2000/svg" xmlns:xlink="http://www.w3.org/1999/xlink">
	<desc>
		Created with Pixso.
	</desc>
	<defs />
	<path id="合并" d="M24.89 17.38L29.18 6.27C29.4 5.71 29.94 5.33 30.55 5.33L33.48 5.33C38.25 5.33 42.12 9.24 42.12 14.06C42.12 18.84 38.02 22.66 33.28 22.66L23.47 22.66C23.03 22.66 22.64 22.93 22.5 23.35L21.28 26.8C21.25 26.89 21.32 27 21.42 27L34.03 27C41.05 26.88 46.42 21.16 46.42 14.06C46.42 6.86 40.91 1.01 33.78 1L35.24 1L33.78 1C33.77 1 33.75 1 33.74 1L27.76 1L13 1C5.82 1 0 6.82 0 14C0 21.08 5.67 26.85 12.73 26.99L12.98 27L14.53 27L15.31 27C15.91 27 16.46 26.62 16.68 26.06L18 22.66L12.99 22.66C8.21 22.66 4.33 18.78 4.33 14C4.33 9.21 8.21 5.33 13 5.33L19.23 5.33C19.81 5.2 20.29 4.78 20.5 4.21L21.67 1L27.76 1C27.03 1 26.37 1.45 26.11 2.12L19.89 18.12C19.85 18.22 19.92 18.32 20.02 18.32L23.51 18.31C24.12 18.31 24.67 17.94 24.89 17.38Z" fill="#1476FF" fill-opacity="1.000000" fill-rule="evenodd" />
</svg>
