<svg width="72.000000" height="72.000000" viewBox="0 0 72 72" fill="none" xmlns="http://www.w3.org/2000/svg" xmlns:xlink="http://www.w3.org/1999/xlink">
	<desc>
			Created with Pixso.
	</desc>
	<defs>
		<clipPath id="clip205_360">
			<rect id="13#云化数据中心 cloud-dc" width="72.000000" height="72.000000" fill="white" fill-opacity="0"/>
		</clipPath>
	</defs>
	<g clip-path="url(#clip205_360)">
		<path id="矩形备份-15" d="M16 0L56 0C64.84 0 72 7.15 72 16L72 56C72 64.84 64.84 72 56 72L16 72C7.15 72 0 64.84 0 56L0 16C0 7.15 7.15 0 16 0Z" fill="#F85835" fill-opacity="1.000000" fill-rule="evenodd"/>
		<path id="形状结合" d="M39.45 34.05C39.63 34.05 39.79 34.2 39.79 34.38L39.79 37.79L39.41 37.79C37.68 37.79 36.28 39.2 36.28 40.92L36.28 54L33.16 54L33.16 34.38C33.16 34.23 33.29 34.09 33.43 34.06L39.45 34.05ZM45.36 40.59C45.51 40.62 45.7 40.77 45.7 40.92L45.7 53.97L39.08 53.97L39.08 40.92C39.08 40.74 39.23 40.59 39.41 40.59L45.36 40.59ZM30.37 40.02L30.37 53.98L26.07 53.98L26.07 42.36C26.07 42.23 26.13 42.11 26.26 42.06L30.37 40.02ZM36.49 18C42.17 18 47 21.91 48.62 27.33C55.02 28.05 60 33.73 60 40.62C60 47.58 54.95 53.29 48.5 53.93L48.5 40.92C48.5 39.2 47.09 37.79 45.36 37.79L42.59 37.79L42.59 34.38C42.59 32.65 41.17 31.25 39.45 31.25L33.5 31.25C31.78 31.25 30.37 32.65 30.37 34.38L30.37 36.88L25.02 39.55C23.95 40.08 23.28 41.16 23.28 42.36L23.28 53.9C16.92 53.14 12 47.49 12 40.62C12 33.37 17.5 27.47 24.37 27.26C26.02 21.88 30.82 18 36.49 18ZM28.96 44.95L27.47 44.95C27.37 44.95 27.3 45.03 27.3 45.12L27.3 50.75C27.3 50.85 27.37 50.91 27.47 50.91L28.96 50.91C29.06 50.91 29.12 50.84 29.12 50.75L29.12 45.12C29.13 45.03 29.06 44.95 28.96 44.95ZM43.36 48.15L41.4 48.15C41.31 48.15 41.24 48.24 41.24 48.33L41.24 50.28C41.24 50.37 41.32 50.45 41.4 50.45L43.36 50.45C43.46 50.45 43.53 50.37 43.53 50.28L43.53 48.33C43.54 48.24 43.46 48.15 43.36 48.15ZM43.36 43.98L41.4 43.98C41.31 43.98 41.24 44.06 41.24 44.14L41.24 46.1C41.24 46.2 41.32 46.27 41.4 46.27L43.36 46.27C43.46 46.27 43.53 46.18 43.53 46.1L43.53 44.14C43.54 44.06 43.46 43.98 43.36 43.98Z" fill="#FFFFFF" fill-opacity="1.000000" fill-rule="evenodd"/>
	</g>
</svg>
