<svg width="72.000000" height="72.000000" viewBox="0 0 72 72" fill="none" xmlns="http://www.w3.org/2000/svg" xmlns:xlink="http://www.w3.org/1999/xlink">
	<desc>
			Created with Pixso.
	</desc>
	<defs>
		<clipPath id="clip205_383">
			<rect id="1#异常事件-abnormal" width="72.000000" height="72.000000" fill="white" fill-opacity="0"/>
		</clipPath>
	</defs>
	<g clip-path="url(#clip205_383)">
		<path id="矩形备份-19" d="M16 0L56 0C64.8 0 72 7.19 72 16L72 56C72 64.8 64.8 72 56 72L16 72C7.2 72 0 64.8 0 56L0 16C0 7.19 7.2 0 16 0Z" fill="#1476FF" fill-opacity="1.000000" fill-rule="evenodd"/>
		<path id="_形状结合" d="M56.67 49.71L38.5 18.24C37.39 16.31 34.6 16.31 33.49 18.24L15.31 49.71C14.2 51.64 15.59 54.05 17.82 54.05L54.17 54.05C56.39 54.05 57.78 51.64 56.67 49.71ZM33.82 40.26C33.82 41.25 34.8 42.06 35.99 42.06C37.18 42.06 38.16 41.25 38.16 40.26L38.16 28.73C38.16 27.74 37.18 26.93 35.99 26.93C34.8 26.93 33.82 27.74 33.82 28.73L33.82 40.26ZM38.16 48.28C38.16 49.27 37.18 50.08 35.99 50.08C34.8 50.08 33.82 49.27 33.82 48.28L33.82 47.2C33.82 46.21 34.8 45.4 35.99 45.4C37.18 45.4 38.16 46.21 38.16 47.2L38.16 48.28Z" fill="#FFFFFF" fill-opacity="1.000000" fill-rule="evenodd"/>
	</g>
</svg>
