<svg width="72.000000" height="72.000000" viewBox="0 0 72 72" fill="none" xmlns="http://www.w3.org/2000/svg" xmlns:xlink="http://www.w3.org/1999/xlink">
	<desc>
			Created with Pixso.
	</desc>
	<defs>
		<clipPath id="clip205_393">
			<rect id="10#Turbo集群-turbo-cluster" width="72.000000" height="72.000000" fill="white" fill-opacity="0"/>
		</clipPath>
	</defs>
	<g clip-path="url(#clip205_393)">
		<path id="矩形备份-19" d="M16 0L56 0C64.8 0 72 7.19 72 16L72 56C72 64.8 64.8 72 56 72L16 72C7.2 72 0 64.8 0 56L0 16C0 7.19 7.2 0 16 0Z" fill="#1476FF" fill-opacity="1.000000" fill-rule="evenodd"/>
		<path id="_形状结合备份-54" d="M54.7 19.58C54.7 18.14 53.54 16.98 52.1 16.98L16.7 16.98C15.26 16.98 14.1 18.14 14.1 19.58L14.1 30.17C14.1 31.62 15.26 32.78 16.7 32.78L28.6 32.78C29.48 32.78 30.2 32.05 30.2 31.17L30.2 31.03C30.12 30.21 29.43 29.58 28.6 29.58L17.29 29.58L17.29 20.17L51.5 20.17L51.5 24.12C51.5 25 52.22 25.72 53.1 25.72C53.98 25.72 54.7 25 54.7 24.12L54.7 19.58ZM24.86 24.87C24.86 26.26 23.73 27.39 22.34 27.39C20.95 27.39 19.82 26.26 19.82 24.87C19.82 23.48 20.95 22.35 22.34 22.35C23.73 22.35 24.86 23.48 24.86 24.87ZM58.67 40.47C58.67 47.91 52.62 53.97 45.17 53.97C37.72 53.97 31.67 47.91 31.67 40.47C31.67 33.02 37.72 26.97 45.17 26.97C52.62 26.97 58.67 33.02 58.67 40.47ZM48.44 32L47.85 38.13C47.81 38.5 48.1 38.81 48.48 38.81L53.22 38.79C53.79 38.79 54.07 39.49 53.65 39.88L42.76 50.13C42.32 50.54 41.6 50.15 41.72 49.54L43.2 42.02C43.28 41.63 42.98 41.27 42.58 41.27L37.93 41.29C37.36 41.29 37.09 40.58 37.52 40.18L47.4 31.46C47.83 31.09 48.49 31.42 48.44 32ZM28.4 35.84C29.28 35.84 30 36.56 30 37.45C30 38.33 29.28 39.04 28.4 39.04L17.29 39.04L17.29 48.45L28.4 48.45C29.23 48.45 29.92 49.09 29.99 49.9L29.99 50.04C30 50.92 29.28 51.65 28.4 51.65L16.73 51.65C15.29 51.65 14.1 50.5 14.1 49.04L14.1 38.45C14.1 37 15.29 35.84 16.73 35.84L28.4 35.84ZM24.86 43.76C24.86 45.15 23.73 46.28 22.34 46.28C20.95 46.28 19.82 45.15 19.82 43.76C19.82 42.37 20.95 41.24 22.34 41.24C23.73 41.24 24.86 42.37 24.86 43.76Z" fill="#FFFFFF" fill-opacity="1.000000" fill-rule="evenodd"/>
	</g>
</svg>
