<svg width="72.000000" height="72.000000" viewBox="0 0 72 72" fill="none" xmlns="http://www.w3.org/2000/svg" xmlns:xlink="http://www.w3.org/1999/xlink">
	<desc>
			Created with Pixso.
	</desc>
	<defs>
		<clipPath id="clip205_394">
			<rect id="11#工作负载-workload" width="72.000000" height="72.000000" fill="white" fill-opacity="0"/>
		</clipPath>
	</defs>
	<g clip-path="url(#clip205_394)">
		<path id="矩形备份-19" d="M16 0L56 0C64.8 0 72 7.19 72 16L72 56C72 64.8 64.8 72 56 72L16 72C7.2 72 0 64.8 0 56L0 16C0 7.19 7.2 0 16 0Z" fill="#1476FF" fill-opacity="1.000000" fill-rule="evenodd"/>
		<path id="_形状结合" d="M48.37 22.78L33.18 22.78C32.08 22.78 31.18 23.68 31.18 24.78L31.18 34L23.65 34C22.83 31.67 20.6 30 17.99 30C14.68 30 11.99 32.68 11.99 36C11.99 39.31 14.68 42 17.99 42C20.6 42 22.82 40.33 23.65 38L31.18 38L31.18 47.22C31.18 48.31 32.08 49.22 33.18 49.22L48.37 49.22C49.22 51.5 51.42 53.12 53.99 53.12C57.3 53.12 59.99 50.43 59.99 47.12C59.99 43.81 57.3 41.12 53.99 41.12C51.34 41.12 49.09 42.84 48.3 45.22L35.2 45.22L35.2 26.78L48.3 26.78C49.09 29.16 51.34 30.88 53.99 30.88C57.3 30.88 59.99 28.19 59.99 24.88C59.99 21.56 57.3 18.87 53.99 18.87C51.42 18.87 49.22 20.5 48.37 22.78Z" fill="#FFFFFF" fill-opacity="1.000000" fill-rule="evenodd"/>
	</g>
</svg>
