<svg width="72.000000" height="72.000000" viewBox="0 0 72 72" fill="none" xmlns="http://www.w3.org/2000/svg" xmlns:xlink="http://www.w3.org/1999/xlink">
	<desc>
			Created with Pixso.
	</desc>
	<defs>
		<clipPath id="clip205_385">
			<rect id="2#api-api" width="72.000000" height="72.000000" fill="white" fill-opacity="0"/>
		</clipPath>
	</defs>
	<g clip-path="url(#clip205_385)">
		<path id="矩形备份-19" d="M16 0L56 0C64.8 0 72 7.19 72 16L72 56C72 64.8 64.8 72 56 72L16 72C7.2 72 0 64.8 0 56L0 16C0 7.19 7.2 0 16 0Z" fill="#1476FF" fill-opacity="1.000000" fill-rule="evenodd"/>
		<path id="_形状结合" d="M60.6 26.15L60.6 45.84C60.6 46.89 59.75 47.74 58.7 47.74C57.65 47.74 56.8 46.89 56.8 45.84L56.8 26.15C56.8 25.1 57.65 24.25 58.7 24.25C59.75 24.26 60.6 25.11 60.6 26.15ZM47.88 24.26C49.25 24.26 50.52 24.87 51.45 25.87C52.35 26.84 52.91 28.17 52.91 29.6L52.91 31.9C52.91 33.31 52.34 34.86 51.42 36C50.49 37.16 49.22 37.9 47.88 37.9L38.07 37.9L38.07 45.85C38.07 46.9 37.22 47.75 36.17 47.75C35.12 47.75 34.27 46.9 34.27 45.85L34.27 26.26C34.27 25.16 35.17 24.26 36.27 24.26L47.88 24.26ZM25.59 25.37C24.76 24.72 23.67 24.26 22.22 24.26L20.41 24.26C18.86 24.26 17.72 24.8 16.88 25.51C15.55 26.65 14.99 28.29 14.76 28.98L10.77 46.52C10.63 47.15 11.1 47.74 11.75 47.74L12.92 47.74C13.85 47.74 14.66 47.1 14.87 46.2L16.82 37.89L25.83 37.89L27.78 46.2C27.99 47.1 28.8 47.74 29.73 47.74L30.9 47.74C31.54 47.74 32.02 47.15 31.88 46.52L27.88 28.56C27.48 27.74 26.84 26.34 25.59 25.37ZM38.08 28.04L47.89 28.04C48.19 28.04 48.46 28.25 48.67 28.5C48.93 28.8 49.12 29.2 49.12 29.6L49.12 31.9C49.12 32.41 48.86 33.04 48.52 33.52C48.34 33.77 48.15 34.11 47.88 34.11L38.07 34.11L38.08 28.04ZM21.73 28.04L20.74 28.04C20.2 28.04 19.76 28.15 19.41 28.45C19.01 28.79 18.73 29.31 18.48 30.05L17.61 34.11L24.97 34.11L24 30.22C23.75 29.42 23.47 28.83 23.06 28.47C22.71 28.15 22.27 28.04 21.73 28.04Z" fill="#FFFFFF" fill-opacity="1.000000" fill-rule="evenodd"/>
	</g>
</svg>
