<svg width="72.000000" height="72.000000" viewBox="0 0 72 72" fill="none" xmlns="http://www.w3.org/2000/svg" xmlns:xlink="http://www.w3.org/1999/xlink">
	<desc>
			Created with Pixso.
	</desc>
	<defs>
		<clipPath id="clip205_386">
			<rect id="3#Autopilot集群-autopilot-cluster" width="72.000000" height="72.000000" fill="white" fill-opacity="0"/>
		</clipPath>
	</defs>
	<g clip-path="url(#clip205_386)">
		<path id="矩形备份-19" d="M16 0L56 0C64.8 0 72 7.19 72 16L72 56C72 64.8 64.8 72 56 72L16 72C7.2 72 0 64.8 0 56L0 16C0 7.19 7.2 0 16 0Z" fill="#1476FF" fill-opacity="1.000000" fill-rule="evenodd"/>
		<path id="_形状结合备份-54" d="M52.1 16.98C53.54 16.98 54.7 18.14 54.7 19.58L54.7 23.02C54.7 23.9 53.98 24.62 53.1 24.62C52.22 24.62 51.5 23.9 51.5 23.02L51.5 20.17L17.29 20.17L17.29 29.58L28.04 29.58C28.87 29.58 29.56 30.22 29.63 31.03L29.63 31.17C29.64 32.05 28.92 32.78 28.04 32.78L16.7 32.78C15.26 32.78 14.1 31.62 14.1 30.17L14.1 19.58C14.1 18.14 15.26 16.98 16.7 16.98L52.1 16.98ZM24.86 24.87C24.86 26.26 23.73 27.39 22.34 27.39C20.95 27.39 19.82 26.26 19.82 24.87C19.82 23.48 20.95 22.35 22.34 22.35C23.73 22.35 24.86 23.48 24.86 24.87ZM57.73 32.66L46.67 26.28C46.32 26.08 45.89 26.08 45.54 26.28L34.79 32.48L46.12 39.02L57.73 32.66ZM33.54 34.65L33.54 47.05C33.54 47.47 33.75 47.84 34.11 48.04L44.86 54.24L44.86 41.17L33.54 34.65ZM58.1 48.04L47.35 54.24L47.35 41.2L58.66 35L58.66 47.05C58.66 47.46 58.45 47.84 58.1 48.04ZM29.64 37.45C29.64 36.56 28.92 35.84 28.04 35.84L16.7 35.84C15.26 35.84 14.1 37 14.1 38.45L14.1 49.04C14.1 50.49 15.26 51.65 16.7 51.65L28.04 51.65C28.92 51.65 29.64 50.92 29.64 50.04L29.64 49.9C29.56 49.08 28.87 48.45 28.04 48.45L17.29 48.45L17.29 39.04L28.05 39.04C28.93 39.04 29.64 38.33 29.64 37.45ZM22.34 46.28C23.73 46.28 24.86 45.15 24.86 43.76C24.86 42.37 23.73 41.24 22.34 41.24C20.95 41.24 19.82 42.37 19.82 43.76C19.82 45.15 20.95 46.28 22.34 46.28Z" fill="#FFFFFF" fill-opacity="1.000000" fill-rule="evenodd"/>
	</g>
</svg>
