<svg width="72.000000" height="72.000000" viewBox="0 0 72 72" fill="none" xmlns="http://www.w3.org/2000/svg" xmlns:xlink="http://www.w3.org/1999/xlink">
	<desc>
			Created with Pixso.
	</desc>
	<defs>
		<clipPath id="clip205_387">
			<rect id="4#CCE集群-cce-cluster" width="72.000000" height="72.000000" fill="white" fill-opacity="0"/>
		</clipPath>
	</defs>
	<g clip-path="url(#clip205_387)">
		<path id="矩形备份-19" d="M16 0L56 0C64.8 0 72 7.19 72 16L72 56C72 64.8 64.8 72 56 72L16 72C7.2 72 0 64.8 0 56L0 16C0 7.19 7.2 0 16 0Z" fill="#1476FF" fill-opacity="1.000000" fill-rule="evenodd"/>
		<path id="_形状结合备份-56" d="M52.1 16.98C53.54 16.98 54.7 18.14 54.7 19.58L54.7 24.12C54.7 25 53.98 25.72 53.1 25.72C52.22 25.72 51.5 25 51.5 24.12L51.5 20.17L17.29 20.17L17.29 29.58L30.73 29.58C31.56 29.58 32.25 30.22 32.32 31.03L32.32 31.17C32.32 32.05 31.61 32.78 30.73 32.78L16.7 32.78C15.26 32.78 14.1 31.62 14.1 30.17L14.1 19.58C14.1 18.14 15.26 16.98 16.7 16.98L52.1 16.98ZM24.88 24.89C24.88 26.28 23.75 27.41 22.35 27.41C20.95 27.41 19.82 26.29 19.82 24.89C19.82 23.49 20.95 22.36 22.35 22.36C23.75 22.36 24.88 23.5 24.88 24.89ZM53.26 34.77C52.08 31.48 48.78 29.11 45.1 29.11C41.42 29.11 38.12 31.48 36.93 34.77C32.73 35.29 29.31 38.84 29.31 43.18C29.31 47.79 33.13 51.61 37.87 51.61L52.6 51.61C57.21 51.35 60.89 47.66 60.89 43.18C60.89 38.72 57.6 35.16 53.26 34.77ZM26.17 37.45C26.17 36.56 25.45 35.84 24.57 35.84L16.42 35.84C15 35.84 14.1 37.11 14.1 38.45L14.1 49.05C14.1 50.39 15 51.65 16.42 51.65L24.57 51.65C25.45 51.65 26.17 50.92 26.17 50.05L26.17 49.9C26.09 49.08 25.4 48.45 24.57 48.45L17.29 48.45L17.29 39.04L24.57 39.04C25.45 39.04 26.17 38.33 26.17 37.45ZM22.36 46.35C23.75 46.35 24.89 45.22 24.89 43.81C24.89 42.42 23.76 41.29 22.36 41.29C20.96 41.29 19.83 42.42 19.83 43.81C19.83 45.22 20.96 46.35 22.36 46.35Z" fill="#FFFFFF" fill-opacity="1.000000" fill-rule="evenodd"/>
	</g>
</svg>
