<svg width="72.000000" height="72.000000" viewBox="0 0 72 72" fill="none" xmlns="http://www.w3.org/2000/svg" xmlns:xlink="http://www.w3.org/1999/xlink">
	<desc>
			Created with Pixso.
	</desc>
	<defs>
		<clipPath id="clip205_388">
			<rect id="5#容器-container" width="72.000000" height="72.000000" fill="white" fill-opacity="0"/>
		</clipPath>
	</defs>
	<g clip-path="url(#clip205_388)">
		<path id="矩形备份-19" d="M16 0L56 0C64.8 0 72 7.19 72 16L72 56C72 64.8 64.8 72 56 72L16 72C7.2 72 0 64.8 0 56L0 16C0 7.19 7.2 0 16 0Z" fill="#1476FF" fill-opacity="1.000000" fill-rule="evenodd"/>
		<path id="_形状结合备份-5" d="M37.38 14.65C36.52 14.15 35.46 14.15 34.61 14.65L17.36 24.67L17.23 24.75L35.82 35.19L36.15 35.19L54.8 24.79C54.74 24.75 54.68 24.71 54.61 24.67L37.38 14.65ZM34.27 38.27L15.99 28.08L15.99 46.2C16.04 47.15 16.58 48.01 17.42 48.47L34.27 57.72L34.27 38.27ZM55.99 28.08L55.99 46.05C55.99 47.06 55.45 47.98 54.56 48.47L37.71 57.72L37.71 38.27L55.99 28.08Z" fill="#FFFFFF" fill-opacity="1.000000" fill-rule="evenodd"/>
	</g>
</svg>
