<svg width="72.000000" height="72.000000" viewBox="0 0 72 72" fill="none" xmlns="http://www.w3.org/2000/svg" xmlns:xlink="http://www.w3.org/1999/xlink">
	<desc>
			Created with Pixso.
	</desc>
	<defs>
		<clipPath id="clip205_389">
			<rect id="6#通用-default" width="72.000000" height="72.000000" fill="white" fill-opacity="0"/>
		</clipPath>
	</defs>
	<g clip-path="url(#clip205_389)">
		<path id="矩形备份-19" d="M16 0L56 0C64.8 0 72 7.19 72 16L72 56C72 64.8 64.8 72 56 72L16 72C7.2 72 0 64.8 0 56L0 16C0 7.19 7.2 0 16 0Z" fill="#1476FF" fill-opacity="1.000000" fill-rule="evenodd"/>
		<path id="_形状结合" d="M59.31 32.58L50.7 17.79C50.02 16.77 49.14 15.88 47.99 15.22C46.85 14.56 45.64 14.24 44.41 14.16L27.3 14.1C25.04 14.05 22.34 15.65 21.2 17.63L12.69 32.37C11.54 34.35 11.57 37.39 12.68 39.42L21.29 54.21C21.87 55.18 22.85 56.12 24 56.78C25.14 57.44 26.35 57.76 27.58 57.84L44.7 57.9C47.01 57.85 49.66 56.35 50.8 54.37L59.31 39.63C60.45 37.65 60.48 34.51 59.31 32.58ZM44.92 34.85L46.67 34.85C48.2 34.85 49.51 36.16 49.51 37.69C49.51 39.22 48.2 40.53 46.67 40.53L44.92 40.53L44.92 45.11C44.92 46.42 43.94 47.4 42.63 47.4L38.27 47.4L38.27 45.65C38.27 44.01 36.85 42.6 35.22 42.6C33.59 42.6 32.16 43.91 32.16 45.65L32.16 47.4L27.8 47.4C26.49 47.4 25.51 46.42 25.51 45.11L25.51 40.75L27.26 40.75C28.9 40.75 30.31 39.33 30.31 37.7C30.31 36.07 29 34.65 27.26 34.65L25.5 34.65L25.5 30.29C25.5 28.98 26.48 28 27.79 28L32.37 28L32.37 26.25C32.37 24.72 33.68 23.41 35.21 23.41C36.74 23.41 38.05 24.72 38.05 26.25L38.05 28L42.63 28C43.94 28 44.92 28.98 44.92 30.29L44.92 34.85Z" fill="#FFFFFF" fill-opacity="1.000000" fill-rule="evenodd"/>
	</g>
</svg>
