<svg width="72.000000" height="72.000000" viewBox="0 0 72 72" fill="none" xmlns="http://www.w3.org/2000/svg" xmlns:xlink="http://www.w3.org/1999/xlink">
	<desc>
			Created with Pixso.
	</desc>
	<defs>
		<clipPath id="clip205_390">
			<rect id="7#命名空间-namespace" width="72.000000" height="72.000000" fill="white" fill-opacity="0"/>
		</clipPath>
	</defs>
	<g clip-path="url(#clip205_390)">
		<path id="矩形备份-19" d="M16 0L56 0C64.8 0 72 7.19 72 16L72 56C72 64.8 64.8 72 56 72L16 72C7.2 72 0 64.8 0 56L0 16C0 7.19 7.2 0 16 0Z" fill="#1476FF" fill-opacity="1.000000" fill-rule="evenodd"/>
		<path id="_形状结合" d="M37.33 12.53L55.65 23.1C56.48 23.58 56.99 24.47 56.99 25.43L56.99 46.57C56.99 47.53 56.48 48.42 55.65 48.9L37.33 59.47C36.5 59.95 35.47 59.95 34.64 59.47L16.33 48.9C15.5 48.42 14.99 47.53 14.99 46.57L14.99 25.43C14.99 24.47 15.5 23.58 16.33 23.1L34.64 12.53C35.48 12.05 36.5 12.05 37.33 12.53ZM46.03 27.99L37.69 23.13C36.67 22.44 35.31 22.44 34.29 23.3L25.95 28.16C25.81 28.23 25.68 28.31 25.55 28.41L35.94 34.41L46.47 28.33C46.34 28.22 46.19 28.1 46.03 27.99ZM37.28 36.71L37.28 49.07C37.42 49 37.56 48.92 37.7 48.83L46.04 43.79C47.06 43.27 47.74 42.05 47.74 40.84L47.74 30.94C47.74 30.85 47.74 30.76 47.74 30.68L37.28 36.71ZM34.62 49.04L34.62 36.71L24.27 30.73C24.26 30.86 24.25 30.98 24.25 31.11L24.25 41.01C24.25 42.23 24.93 43.27 25.95 43.96L34.29 48.82C34.4 48.91 34.51 48.98 34.62 49.04Z" fill="#FFFFFF" fill-opacity="1.000000" fill-rule="evenodd"/>
	</g>
</svg>
