<svg width="72.000000" height="72.000000" viewBox="0 0 72 72" fill="none" xmlns="http://www.w3.org/2000/svg" xmlns:xlink="http://www.w3.org/1999/xlink">
	<desc>
			Created with Pixso.
	</desc>
	<defs>
		<clipPath id="clip205_391">
			<rect id="8#节点-node" width="72.000000" height="72.000000" fill="white" fill-opacity="0"/>
		</clipPath>
	</defs>
	<g clip-path="url(#clip205_391)">
		<path id="矩形备份-19" d="M16 0L56 0C64.8 0 72 7.19 72 16L72 56C72 64.8 64.8 72 56 72L16 72C7.2 72 0 64.8 0 56L0 16C0 7.19 7.2 0 16 0Z" fill="#1476FF" fill-opacity="1.000000" fill-rule="evenodd"/>
		<path id="_形状结合" d="M30.24 19.75C30.24 16.56 32.81 14 35.99 14C39.17 14 41.74 16.56 41.74 19.75C41.74 22.22 40.18 24.33 37.99 25.14L37.99 34.05C40.18 34.86 41.74 36.97 41.74 39.43C41.74 39.55 41.74 39.65 41.74 39.75L50.48 45.88C51.3 45.43 52.24 45.17 53.24 45.17C56.42 45.17 58.99 47.74 58.99 50.92C58.99 54.1 56.42 56.67 53.24 56.67C50.06 56.67 47.49 54.1 47.49 50.92C47.49 50.22 47.62 49.54 47.85 48.92L40.08 43.48C39.04 44.53 37.59 45.18 35.99 45.18C34.39 45.18 32.95 44.54 31.9 43.48L24.13 48.92C24.36 49.54 24.49 50.22 24.49 50.92C24.49 54.1 21.92 56.67 18.74 56.67C15.56 56.67 12.99 54.1 12.99 50.92C12.99 47.74 15.56 45.17 18.74 45.17C19.74 45.17 20.68 45.43 21.5 45.88L30.24 39.75C30.23 39.65 30.23 39.55 30.23 39.43C30.23 36.97 31.79 34.86 33.98 34.05L33.98 25.14C31.81 24.33 30.24 22.22 30.24 19.75Z" fill="#FFFFFF" fill-opacity="1.000000" fill-rule="evenodd"/>
	</g>
</svg>
