<svg width="72.000000" height="72.000000" viewBox="0 0 72 72" fill="none" xmlns="http://www.w3.org/2000/svg" xmlns:xlink="http://www.w3.org/1999/xlink">
	<desc>
			Created with Pixso.
	</desc>
	<defs>
		<clipPath id="clip205_392">
			<rect id="9#pod-pod" width="72.000000" height="72.000000" fill="white" fill-opacity="0"/>
		</clipPath>
	</defs>
	<g clip-path="url(#clip205_392)">
		<path id="矩形备份-19" d="M16 0L56 0C64.8 0 72 7.19 72 16L72 56C72 64.8 64.8 72 56 72L16 72C7.2 72 0 64.8 0 56L0 16C0 7.19 7.2 0 16 0Z" fill="#1476FF" fill-opacity="1.000000" fill-rule="evenodd"/>
		<path id="_形状结合" d="M37.45 17.06L44.1 20.9C44.56 21.17 44.72 21.76 44.45 22.23C44.37 22.38 44.24 22.5 44.1 22.59L37.45 26.43C36.55 26.95 35.43 26.95 34.54 26.43L27.89 22.59C27.43 22.32 27.27 21.73 27.54 21.26C27.63 21.11 27.75 20.99 27.89 20.9L34.54 17.06C35.45 16.54 36.55 16.54 37.45 17.06ZM24.96 24.36L31.61 28.2C32.07 28.47 32.23 29.06 31.96 29.53C31.87 29.68 31.75 29.8 31.61 29.89L24.96 33.73C24.06 34.25 22.95 34.25 22.05 33.73L15.4 29.89C14.94 29.62 14.78 29.03 15.05 28.56C15.14 28.41 15.26 28.29 15.4 28.2L22.05 24.36C22.95 23.84 24.06 23.84 24.96 24.36ZM49.95 24.36L56.6 28.2C57.06 28.47 57.22 29.06 56.95 29.53C56.86 29.68 56.74 29.8 56.6 29.89L49.95 33.73C49.05 34.25 47.94 34.25 47.04 33.73L40.39 29.89C39.93 29.62 39.77 29.03 40.04 28.56C40.12 28.41 40.25 28.29 40.39 28.2L47.04 24.36C47.94 23.84 49.05 23.84 49.95 24.36ZM44.1 35.35L37.45 31.51C36.55 30.99 35.43 30.99 34.54 31.51L27.89 35.35C27.74 35.44 27.62 35.56 27.54 35.71C27.27 36.16 27.43 36.77 27.89 37.04L34.54 40.88C35.43 41.4 36.55 41.4 37.45 40.88L44.1 37.04C44.25 36.95 44.37 36.83 44.45 36.68C44.73 36.22 44.57 35.62 44.1 35.35ZM13.67 33.08C13.52 32.99 13.35 32.95 13.18 32.95C12.63 32.95 12.19 33.39 12.19 33.93L12.19 41.65C12.19 42.7 12.76 43.66 13.67 44.18L20.45 48.04C20.61 48.13 20.78 48.17 20.96 48.17C21.51 48.17 21.95 47.73 21.95 47.19L21.95 39.47C21.95 38.41 21.38 37.46 20.46 36.94L13.67 33.08ZM59.82 33.91C59.82 33.75 59.77 33.58 59.69 33.43C59.42 32.96 58.81 32.8 58.34 33.07L51.55 36.93C50.63 37.45 50.07 38.41 50.07 39.46L50.07 47.18C50.07 47.35 50.12 47.52 50.2 47.67C50.47 48.14 51.08 48.3 51.55 48.03L58.34 44.17C59.26 43.65 59.82 42.68 59.82 41.64L59.82 33.91ZM25.67 40.1C25.84 40.1 26.01 40.15 26.17 40.23L32.96 44.09C33.88 44.61 34.43 45.58 34.43 46.62L34.43 54.34C34.43 54.88 34 55.32 33.45 55.32C33.28 55.32 33.11 55.27 32.96 55.19L26.17 51.33C25.25 50.81 24.69 49.84 24.69 48.8L24.69 41.08C24.69 40.54 25.12 40.1 25.67 40.1ZM47.32 41.07C47.32 40.9 47.27 40.73 47.19 40.58C46.92 40.11 46.31 39.95 45.84 40.22L39.05 44.08C38.13 44.6 37.57 45.57 37.57 46.61L37.57 54.33C37.57 54.5 37.62 54.67 37.7 54.82C37.97 55.29 38.58 55.45 39.05 55.18L45.84 51.32C46.76 50.8 47.32 49.83 47.32 48.79L47.32 41.07Z" fill="#FFFFFF" fill-opacity="1.000000" fill-rule="evenodd"/>
	</g>
</svg>
