<svg width="72.000000" height="72.000000" viewBox="0 0 72 72" fill="none" xmlns="http://www.w3.org/2000/svg" xmlns:xlink="http://www.w3.org/1999/xlink">
	<desc>
			Created with Pixso.
	</desc>
	<defs>
		<clipPath id="clip205_384">
			<rect id="1#kubernetes检测-kube-infer" width="72.000000" height="72.000000" fill="white" fill-opacity="0"/>
		</clipPath>
	</defs>
	<g clip-path="url(#clip205_384)">
		<path id="矩形备份-19" d="M16 0L56 0C64.8 0 72 7.19 72 16L72 56C72 64.8 64.8 72 56 72L16 72C7.2 72 0 64.8 0 56L0 16C0 7.19 7.2 0 16 0Z" fill="#1476FF" fill-opacity="1.000000" fill-rule="evenodd"/>
		<path id="_矢量-323" d="M35.09 11.54C35.38 11.46 35.68 11.42 36 11.42C36.33 11.42 36.63 11.46 36.91 11.54C37.22 11.62 37.5 11.73 37.77 11.89C38.08 12.07 38.34 12.27 38.57 12.51C38.78 12.73 38.95 12.97 39.09 13.24C39.24 13.5 39.34 13.76 39.41 14.04C39.5 14.33 39.54 14.64 39.54 14.96C39.54 15.28 39.5 15.58 39.41 15.88C39.34 16.15 39.24 16.42 39.09 16.67C38.95 16.94 38.78 17.18 38.57 17.4C38.34 17.64 38.08 17.85 37.77 18.02C37.5 18.18 37.22 18.3 36.91 18.37C36.63 18.45 36.32 18.49 36 18.49C35.7 18.49 35.38 18.45 35.09 18.37C34.8 18.29 34.5 18.17 34.24 18.02C33.93 17.85 33.66 17.64 33.43 17.4C33.24 17.18 33.06 16.94 32.91 16.67C32.77 16.42 32.66 16.15 32.59 15.88C32.5 15.58 32.47 15.28 32.47 14.96C32.47 14.64 32.5 14.33 32.59 14.04C32.66 13.76 32.77 13.49 32.91 13.24C33.05 12.99 33.21 12.76 33.4 12.56C33.63 12.32 33.93 12.07 34.24 11.89C34.5 11.74 34.79 11.62 35.09 11.54ZM47.77 21.75L41.91 25.14C41.44 25.41 40.95 25.65 40.45 25.85C39.99 26.04 39.52 26.2 39.03 26.33C38.55 26.45 38.06 26.55 37.56 26.62C37.05 26.69 36.53 26.72 36 26.72C35.47 26.72 34.96 26.69 34.43 26.62C33.95 26.55 33.46 26.45 32.97 26.33C32.49 26.2 32 26.04 31.55 25.85C31.06 25.65 30.57 25.41 30.1 25.14L24.24 21.75C23.47 21.31 23.05 20.53 23.05 19.72C23.05 19.32 23.15 18.91 23.37 18.53C24.03 17.38 25.45 17 26.6 17.66L32.46 21.05C32.75 21.22 33.05 21.36 33.36 21.49C33.63 21.59 33.9 21.69 34.18 21.76C34.47 21.84 34.75 21.89 35.05 21.93C35.37 21.98 35.68 22 36 22C36.32 22 36.64 21.98 36.95 21.93C37.24 21.89 37.53 21.84 37.82 21.76C38.09 21.69 38.38 21.59 38.65 21.49C38.96 21.36 39.25 21.22 39.55 21.05L45.41 17.66C46.55 17 47.97 17.38 48.63 18.53C48.85 18.91 48.96 19.32 48.96 19.72C48.96 20.53 48.53 21.31 47.77 21.75ZM15.14 23.28C15.8 22.13 17.21 21.75 18.37 22.41L28.44 28.23C33.12 30.93 38.88 30.93 43.56 28.23L53.64 22.41C54.78 21.75 56.2 22.13 56.86 23.28C56.96 23.45 57.04 23.62 57.09 23.81C57.16 24.03 57.19 24.25 57.19 24.48C57.19 25.29 56.76 26.07 56 26.51L45.92 32.33C41.24 35.03 38.36 40.02 38.36 45.41L38.36 57.05C38.36 57.89 37.93 58.62 37.29 59.04C36.91 59.28 36.48 59.42 36 59.42C34.66 59.42 33.64 58.38 33.64 57.05L33.64 45.42C33.64 40.02 30.75 35.03 26.08 32.33L16 26.51C15.24 26.07 14.81 25.29 14.81 24.48C14.81 24.19 14.87 23.89 14.98 23.61C15.02 23.5 15.08 23.38 15.14 23.28ZM41.87 52.3L41.87 45.53C41.87 44.99 41.91 44.45 41.98 43.92C42.05 43.42 42.15 42.93 42.28 42.45C42.41 41.97 42.57 41.49 42.76 41.03C42.96 40.55 43.19 40.08 43.45 39.63C43.72 39.17 44.01 38.74 44.32 38.33C44.63 37.93 44.96 37.56 45.31 37.2C45.67 36.85 46.04 36.52 46.43 36.21C46.86 35.88 47.31 35.58 47.78 35.31L53.64 31.92C54.78 31.26 56.2 31.64 56.86 32.79C57.08 33.17 57.19 33.58 57.19 33.98C57.19 34.79 56.76 35.57 56 36.01L50.14 39.4C49.85 39.56 49.57 39.75 49.31 39.95C49.08 40.13 48.87 40.33 48.66 40.53C48.45 40.74 48.25 40.97 48.07 41.2C47.88 41.45 47.7 41.71 47.54 41.99C47.39 42.27 47.25 42.55 47.13 42.84C47.01 43.12 46.92 43.4 46.84 43.68C46.76 43.97 46.71 44.25 46.67 44.54C46.62 44.87 46.6 45.2 46.6 45.53L46.6 52.3C46.6 53.62 45.56 54.66 44.23 54.66C42.9 54.66 41.87 53.62 41.87 52.3ZM18.37 31.92L24.23 35.31C24.7 35.58 25.15 35.88 25.57 36.21C25.97 36.52 26.34 36.85 26.69 37.2C27.05 37.56 27.38 37.93 27.68 38.33C28 38.74 28.29 39.17 28.55 39.63C28.81 40.08 29.04 40.55 29.24 41.03C29.43 41.49 29.59 41.97 29.72 42.45C29.86 42.94 29.96 43.42 30.02 43.92C30.1 44.45 30.13 44.99 30.13 45.53L30.13 52.3C30.13 53.62 29.1 54.66 27.77 54.66C26.44 54.66 25.41 53.62 25.41 52.3L25.41 45.53C25.41 45.2 25.39 44.87 25.34 44.54C25.3 44.25 25.24 43.97 25.17 43.68C25.09 43.4 24.99 43.12 24.88 42.84C24.76 42.55 24.62 42.27 24.46 41.99C24.3 41.71 24.13 41.45 23.93 41.2C23.75 40.97 23.56 40.74 23.35 40.53C23.14 40.33 22.92 40.13 22.69 39.95C22.43 39.75 22.16 39.57 21.87 39.4L16.01 36.01C15.24 35.57 14.82 34.79 14.82 33.98C14.82 33.58 14.92 33.17 15.14 32.79C15.8 31.64 17.21 31.26 18.37 31.92ZM57.18 45.51C57.18 45.82 57.14 46.13 57.06 46.42C56.99 46.72 56.87 47 56.71 47.27C56.55 47.55 56.36 47.79 56.15 48.01C55.93 48.23 55.69 48.41 55.41 48.57C55.11 48.75 54.8 48.87 54.48 48.95C54.19 49.02 53.89 49.05 53.59 49.04C53.29 49.04 53.01 49 52.73 48.93C52.44 48.85 52.15 48.73 51.88 48.57C51.6 48.41 51.36 48.22 51.14 48C50.94 47.81 50.76 47.58 50.61 47.33C50.45 47.07 50.33 46.79 50.25 46.51C50.16 46.19 50.11 45.86 50.11 45.51C50.11 45.19 50.15 44.89 50.23 44.59C50.31 44.3 50.42 44.01 50.58 43.74C50.74 43.47 50.93 43.22 51.14 43C51.36 42.79 51.6 42.6 51.88 42.44C52.18 42.27 52.49 42.14 52.82 42.06C53.1 41.99 53.4 41.96 53.71 41.97C54 41.98 54.28 42.01 54.56 42.09C54.85 42.17 55.14 42.29 55.41 42.44C55.69 42.6 55.94 42.79 56.15 43.01C56.35 43.21 56.53 43.44 56.68 43.69C56.84 43.95 56.96 44.22 57.04 44.5C57.14 44.83 57.18 45.16 57.18 45.51ZM16.6 48.6C16.32 48.44 16.08 48.25 15.86 48.04C15.65 47.83 15.46 47.58 15.3 47.3C15.15 47.03 15.03 46.75 14.95 46.45C14.87 46.16 14.83 45.85 14.83 45.54C14.83 45.19 14.88 44.86 14.97 44.53C15.05 44.25 15.17 43.98 15.33 43.71C15.48 43.46 15.66 43.24 15.86 43.04C16.08 42.82 16.32 42.63 16.6 42.47C16.87 42.32 17.16 42.19 17.45 42.12C17.73 42.04 18.01 42 18.31 42C18.61 42 18.91 42.02 19.2 42.09C19.52 42.17 19.83 42.3 20.12 42.47C20.41 42.63 20.65 42.82 20.87 43.03C21.08 43.25 21.27 43.49 21.43 43.77C21.59 44.04 21.71 44.33 21.79 44.62C21.86 44.91 21.9 45.22 21.9 45.54C21.9 45.88 21.86 46.22 21.76 46.54C21.68 46.82 21.56 47.09 21.4 47.36C21.25 47.61 21.07 47.84 20.87 48.04C20.66 48.25 20.41 48.44 20.12 48.6C19.86 48.76 19.57 48.88 19.28 48.96C19 49.03 18.71 49.07 18.43 49.07C18.12 49.07 17.82 49.05 17.54 48.98C17.2 48.9 16.9 48.77 16.6 48.6Z" fill="#FFFFFF" fill-opacity="1.000000" fill-rule="evenodd"/>
	</g>
</svg>
