<svg width="72.000000" height="72.000000" viewBox="0 0 72 72" fill="none" xmlns="http://www.w3.org/2000/svg" xmlns:xlink="http://www.w3.org/1999/xlink">
	<desc>
			Created with Pixso.
	</desc>
	<defs>
		<clipPath id="clip205_361">
			<rect id="16#弹性内存存储服务-EMS" width="72.000000" height="72.000000" fill="white" fill-opacity="0"/>
		</clipPath>
	</defs>
	<g clip-path="url(#clip205_361)">
		<rect id="矩形 1" rx="16.000616" width="72.000000" height="72.000000" fill="#1476FF" fill-opacity="1.000000"/>
		<path id="矢量 317" d="M36 13C23.29 13 13 23.29 13 36C13 48.7 23.29 59 36 59C46.98 59 56.15 51.29 58.45 41L44.08 41C42.06 46.26 36.97 50 31 50C23.26 50 17 43.73 17 36C17 28.26 23.26 22 31 22C38.37 22 44.45 27.73 44.96 35L43.16 35C38.9 35 35.31 34.4 33.82 33.15C33.46 32.8 33.02 32.5 32.53 32.3C32.06 32.09 31.54 32 31 32C28.79 32 27 33.79 27 36C27 38.2 28.79 40 31 40C31.54 40 32.05 39.88 32.53 39.67C33 39.49 33.46 39.17 33.82 38.82C35.31 37.57 38.9 37 43.16 37L58.97 37C58.99 36.65 59 36.33 59 36C59 23.29 48.7 13 36 13Z" fill="#FFFFFF" fill-opacity="1.000000" fill-rule="evenodd"/>
	</g>
</svg>
