<svg width="72.000000" height="72.000000" viewBox="0 0 72 72" fill="none" xmlns="http://www.w3.org/2000/svg" xmlns:xlink="http://www.w3.org/1999/xlink">
	<desc>
			Created with Pixso.
	</desc>
	<defs/>
	<rect id="矩形 1" rx="16.000616" width="72.000000" height="72.000000" fill="#F85835" fill-opacity="1.000000"/>
	<path id="合并" d="M38.81 17.59C35.97 21.58 32.21 27.09 31.28 29.58C29.73 33.71 34.88 35.73 34.88 35.73C34.88 35.73 33.54 35.71 31.41 35.73C30.3 35.74 28.21 35.67 26.92 35.5C24.44 35.16 22.5 34.65 20.87 32.95C16.71 28.64 22.56 23.37 22.56 23.37L37.27 9.02C37.49 8.8 37.85 8.8 38.06 9.01C40.41 11.28 40.71 14.93 38.81 17.59ZM40.04 39.26C38.48 41.65 35.13 46.1 32.4 49.67C29.78 53.11 28.89 57.56 30.06 61.72C30.3 62.57 31.38 62.87 32.02 62.24C34.95 59.41 41.68 52.89 45.55 49C45.94 48.62 46.32 48.24 46.7 47.87C51.23 43.37 54.76 39.87 51.38 35.84C49.87 34.04 47.34 33.56 44.86 33.23C43.56 33.05 41.17 33.05 40.06 33.06C38.13 33.08 37.6 32.93 37.52 32.9C37.8 33.01 42.87 34.97 40.04 39.26Z" fill="#FFFFFF" fill-opacity="1.000000" fill-rule="evenodd"/>
</svg>
