<svg width="16.000000" height="16.000000" viewBox="0 0 16 16" fill="none" xmlns="http://www.w3.org/2000/svg" xmlns:xlink="http://www.w3.org/1999/xlink">
	<desc>
			Created with Pixso.
	</desc>
	<defs>
		<clipPath id="clip225_836">
			<rect id="计算器-calculator" width="16.000000" height="16.000000" fill="white" fill-opacity="0"/>
		</clipPath>
	</defs>
	<rect id="23#计算器-calculator" width="16.000000" height="16.000000" fill="#FFFFFF" fill-opacity="0"/>
	<g clip-path="url(#clip225_836)">
		<path id="_形状结合" d="M12 1C13.38 1 14.5 2.11 14.5 3.5L14.5 12.5C14.5 13.88 13.38 15 12 15L4 15C2.62 15 1.5 13.88 1.5 12.5L1.5 3.5C1.5 2.11 2.62 1 4 1L12 1ZM12 2L4 2C3.17 2 2.5 2.66 2.5 3.5L2.5 12.5C2.5 13.33 3.17 14 4 14L12 14C12.83 14 13.5 13.33 13.5 12.5L13.5 3.5C13.5 2.66 12.83 2 12 2ZM4.14 9.32C4.34 9.12 4.64 9.12 4.85 9.32L5.66 10.13L6.47 9.32C6.67 9.12 6.98 9.12 7.17 9.32C7.38 9.52 7.35 9.83 7.16 10.03L6.35 10.84L7.16 11.65C7.35 11.85 7.35 12.16 7.16 12.36C7.07 12.46 6.92 12.51 6.81 12.51C6.69 12.51 6.56 12.46 6.45 12.36L5.64 11.55L4.84 12.36C4.75 12.46 4.6 12.51 4.48 12.51C4.37 12.51 4.23 12.46 4.14 12.36C3.94 12.16 3.94 11.85 4.14 11.65L4.95 10.84L4.14 10.03C3.94 9.83 3.94 9.52 4.14 9.32ZM11.5 11.5C11.78 11.5 12 11.72 12 12C12 12.28 11.78 12.5 11.5 12.5L9.5 12.5C9.22 12.5 9 12.28 9 12C9 11.72 9.22 11.5 9.5 11.5L11.5 11.5ZM11.5 9.15C11.78 9.15 12 9.38 12 9.65C12 9.93 11.78 10.16 11.5 10.16L9.5 10.16C9.22 10.16 9 9.93 9 9.65C9 9.38 9.22 9.15 9.5 9.15L11.5 9.15ZM11 3.5C11.55 3.5 12 3.95 12 4.5L12 6.5C12 7.04 11.55 7.5 11 7.5L5 7.5C4.45 7.5 4 7.04 4 6.5L4 4.5C4 3.95 4.45 3.5 5 3.5L11 3.5ZM11 4.5L5 4.5L5 6.5L11 6.5L11 4.5Z" fill="currentColor" fill-opacity="1.000000" fill-rule="nonzero"/>
	</g>
</svg>
