<svg width="16.000000" height="16.000000" viewBox="0 0 16 16" fill="none" xmlns="http://www.w3.org/2000/svg" xmlns:xlink="http://www.w3.org/1999/xlink">
	<desc>
			Created with Pixso.
	</desc>
	<defs>
		<clipPath id="clip225_884">
			<rect id="地址-address" width="16.000000" height="16.000000" fill="white" fill-opacity="0"/>
		</clipPath>
	</defs>
	<rect id="24.1#地址-address" width="16.000000" height="16.000000" fill="#FFFFFF" fill-opacity="0"/>
	<g clip-path="url(#clip225_884)">
		<path id="_矢量-311" d="M2.07 7.76C2.02 7.44 1.99 7.12 2 6.79C2 6.35 2.04 5.91 2.14 5.49C2.22 5.14 2.33 4.8 2.47 4.46C2.61 4.12 2.78 3.8 2.98 3.5C3.2 3.16 3.46 2.85 3.75 2.55C4.05 2.26 4.36 2.01 4.7 1.78C5 1.58 5.32 1.41 5.66 1.27C5.99 1.13 6.33 1.02 6.67 0.94C7.1 0.85 7.54 0.8 8 0.8C8.46 0.8 8.88 0.84 9.3 0.94C9.65 1.02 9.99 1.13 10.33 1.27C10.67 1.41 10.99 1.58 11.29 1.78C11.63 2.01 11.94 2.26 12.24 2.55C12.53 2.85 12.79 3.16 13.01 3.5C13.21 3.8 13.38 4.12 13.52 4.46C13.66 4.8 13.77 5.14 13.85 5.49C13.95 5.91 13.99 6.35 14 6.79C14 7.12 13.97 7.44 13.92 7.76C13.87 8.07 13.79 8.39 13.69 8.69C13.58 9 13.46 9.3 13.31 9.58C13.16 9.86 12.98 10.14 12.78 10.4C12.68 10.54 12.62 10.62 12.6 10.64L9.14 14.72C9.06 14.81 8.97 14.9 8.87 14.97C8.79 15.02 8.71 15.07 8.61 15.12C8.52 15.16 8.42 15.19 8.33 15.21C8.22 15.24 8.11 15.25 8 15.25C7.88 15.25 7.77 15.24 7.66 15.21C7.57 15.19 7.47 15.16 7.38 15.12C7.28 15.07 7.2 15.02 7.12 14.97C7.02 14.9 6.93 14.81 6.85 14.72L3.39 10.64C3.39 10.64 3.31 10.54 3.2 10.4C3.01 10.14 2.84 9.87 2.68 9.58C2.53 9.3 2.41 9 2.3 8.7C2.2 8.39 2.12 8.07 2.07 7.76ZM3 6.8C3 7.07 3.02 7.33 3.06 7.6C3.1 7.86 3.17 8.12 3.25 8.38C3.34 8.63 3.44 8.88 3.57 9.12C3.69 9.35 3.84 9.58 4 9.79C4.1 9.92 4.15 9.99 4.16 10L7.61 14.07C7.66 14.13 7.72 14.18 7.78 14.21C7.85 14.23 7.92 14.25 8 14.25C8.07 14.25 8.14 14.23 8.21 14.21C8.27 14.18 8.33 14.13 8.38 14.07L11.83 10C11.83 10 11.9 9.91 11.99 9.79C12.15 9.58 12.3 9.35 12.42 9.12C12.55 8.88 12.65 8.63 12.74 8.38C12.82 8.12 12.89 7.86 12.93 7.6C12.97 7.33 13 7.07 13 6.8C12.99 6.42 12.95 6.05 12.87 5.69C12.81 5.4 12.72 5.12 12.6 4.85C12.48 4.57 12.34 4.31 12.18 4.06C11.99 3.77 11.77 3.51 11.53 3.26C11.28 3.02 11.02 2.8 10.73 2.61C10.48 2.45 10.22 2.31 9.94 2.19C9.67 2.07 9.39 1.98 9.1 1.92C8.74 1.84 8.37 1.8 7.99 1.8C7.61 1.8 7.26 1.84 6.9 1.92C6.61 1.98 6.33 2.07 6.05 2.19C5.77 2.31 5.51 2.45 5.26 2.61C4.97 2.8 4.71 3.02 4.46 3.26C4.22 3.51 4 3.77 3.81 4.06C3.65 4.31 3.51 4.57 3.39 4.85C3.27 5.12 3.18 5.4 3.12 5.69C3.04 6.05 3 6.42 3 6.8ZM8 4.29C6.61 4.29 5.5 5.41 5.5 6.79C5.5 8.17 6.61 9.29 8 9.29C9.39 9.29 10.5 8.17 10.5 6.79C10.5 5.41 9.38 4.29 8 4.29ZM8 5.29C7.17 5.29 6.5 5.96 6.5 6.79C6.5 7.62 7.17 8.29 8 8.29C8.83 8.29 9.5 7.61 9.5 6.79C9.5 5.97 8.82 5.29 8 5.29Z" fill="currentColor" fill-opacity="1.000000" fill-rule="evenodd"/>
	</g>
</svg>
