<svg width="16.000000" height="16.000000" viewBox="0 0 16 16" fill="none" xmlns="http://www.w3.org/2000/svg" xmlns:xlink="http://www.w3.org/1999/xlink">
	<desc>
			Created with Pixso.
	</desc>
	<defs>
		<clipPath id="clip225_886">
			<rect id="新增地址-create-address" width="16.000000" height="16.000000" fill="white" fill-opacity="0"/>
		</clipPath>
	</defs>
	<rect id="24.2#新增地址-create-address" width="16.000000" height="16.000000" fill="#FFFFFF" fill-opacity="0"/>
	<g clip-path="url(#clip225_886)">
		<path id="_矢量-312" d="M12.93 7.57C12.89 7.83 12.82 8.09 12.74 8.35C12.65 8.61 12.79 8.89 13.05 8.98C13.32 9.07 13.6 8.93 13.69 8.67C13.79 8.36 13.87 8.05 13.92 7.73C13.97 7.41 14 7.09 14 6.77C13.99 6.32 13.95 5.89 13.85 5.46C13.77 5.11 13.66 4.77 13.52 4.43C13.38 4.09 13.21 3.77 13.01 3.47C12.79 3.13 12.53 2.82 12.24 2.53C11.94 2.23 11.63 1.98 11.29 1.75C10.99 1.56 10.67 1.38 10.33 1.24C9.98 1.1 9.64 0.99 9.29 0.91C8.88 0.82 8.43 0.77 8 0.77C7.56 0.77 7.1 0.82 6.67 0.91C6.32 0.99 5.98 1.1 5.66 1.24C5.32 1.38 5 1.56 4.7 1.75C4.35 1.98 4.04 2.23 3.75 2.53C3.45 2.82 3.2 3.13 2.98 3.47C2.78 3.77 2.6 4.09 2.47 4.43C2.32 4.77 2.22 5.11 2.14 5.46C2.04 5.88 2 6.32 2 6.77C2 7.09 2.01 7.41 2.07 7.73C2.11 8.04 2.2 8.36 2.29 8.67C2.41 8.98 2.53 9.27 2.67 9.56C2.82 9.84 3.01 10.11 3.2 10.37C3.31 10.51 3.37 10.59 3.39 10.62L6.85 14.69C6.92 14.78 7.01 14.87 7.12 14.94C7.2 15 7.28 15.05 7.38 15.09C7.47 15.13 7.57 15.16 7.66 15.18C7.76 15.21 7.88 15.22 8 15.22C8.1 15.22 8.22 15.22 8.32 15.18C8.42 15.16 8.51 15.13 8.6 15.09C8.7 15.05 8.79 15 8.87 14.94C8.97 14.87 9.06 14.78 9.14 14.69L9.42 14.35C9.6 14.13 9.59 13.82 9.37 13.64C9.16 13.46 8.85 13.49 8.67 13.7L8.38 14.04C8.32 14.1 8.26 14.15 8.2 14.18C8.14 14.21 8.07 14.22 8 14.22C7.92 14.22 7.85 14.22 7.78 14.18C7.72 14.15 7.66 14.1 7.6 14.04L4.16 9.97C4.16 9.97 4.1 9.89 4 9.76C3.84 9.55 3.69 9.32 3.57 9.09C3.44 8.85 3.34 8.61 3.25 8.35C3.17 8.09 3.1 7.83 3.06 7.57C3.01 7.31 2.98 7.04 3 6.77C3 6.39 3.04 6.02 3.12 5.66C3.17 5.37 3.26 5.1 3.39 4.82C3.51 4.54 3.64 4.28 3.81 4.03C4 3.75 4.21 3.48 4.45 3.23C4.7 2.99 4.96 2.77 5.26 2.58C5.51 2.42 5.76 2.28 6.04 2.16C6.32 2.04 6.6 1.95 6.89 1.89C7.26 1.81 7.62 1.77 7.98 1.77C8.35 1.77 8.73 1.81 9.1 1.89C9.39 1.96 9.67 2.05 9.93 2.16C10.22 2.28 10.48 2.42 10.73 2.58C11.02 2.77 11.28 2.99 11.53 3.23C11.77 3.48 11.99 3.75 12.18 4.03C12.34 4.28 12.48 4.54 12.6 4.82C12.72 5.09 12.81 5.37 12.87 5.66C12.95 6.02 12.99 6.39 13 6.77C13 7.04 12.97 7.31 12.93 7.57ZM5.5 6.74C5.5 5.36 6.6 4.24 8 4.24C9.38 4.24 10.5 5.36 10.5 6.74C10.5 8.12 9.38 9.24 8 9.24C6.62 9.24 5.5 8.12 5.5 6.74ZM6.5 6.74C6.5 5.91 7.17 5.24 8 5.24C8.82 5.24 9.5 5.91 9.5 6.74C9.5 7.57 8.82 8.24 8 8.24C7.17 8.24 6.5 7.56 6.5 6.74ZM12.79 10.49C12.79 10.21 12.56 9.99 12.29 9.99C12.02 9.99 11.79 10.21 11.79 10.49L11.79 11.78L10.5 11.78C10.22 11.78 10 12 10 12.28C10 12.56 10.22 12.78 10.5 12.78L11.79 12.78L11.79 14.07C11.79 14.34 12.01 14.57 12.29 14.57C12.57 14.57 12.79 14.34 12.79 14.07L12.79 12.78L14.08 12.78C14.35 12.78 14.58 12.55 14.58 12.28C14.58 12.01 14.35 11.78 14.08 11.78L12.79 11.78L12.79 10.49Z" fill="currentColor" fill-opacity="1.000000" fill-rule="evenodd"/>
	</g>
</svg>
