<svg width="16.000000" height="16.000000" viewBox="0 0 16 16" fill="none" xmlns="http://www.w3.org/2000/svg" xmlns:xlink="http://www.w3.org/1999/xlink">
	<desc>
			Created with Pixso.
	</desc>
	<defs>
		<clipPath id="clip225_885">
			<rect id="管理地址-manage-address" width="16.000000" height="16.000000" fill="white" fill-opacity="0"/>
		</clipPath>
	</defs>
	<rect id="24.3#管理地址-manage-address" width="16.000000" height="16.000000" fill="#FFFFFF" fill-opacity="0"/>
	<g clip-path="url(#clip225_885)">
		<path id="_矢量-313" d="M7.89 14.5L3.89 14.5C3.71 14.5 3.53 14.48 3.36 14.44C3.21 14.41 3.06 14.36 2.92 14.3C2.78 14.24 2.64 14.17 2.52 14.09C2.38 13.99 2.25 13.89 2.13 13.77C2.01 13.64 1.9 13.51 1.81 13.37C1.72 13.25 1.65 13.11 1.59 12.97C1.53 12.83 1.48 12.68 1.45 12.54C1.41 12.36 1.39 12.18 1.39 12L1.39 4C1.39 3.81 1.41 3.63 1.45 3.46C1.48 3.31 1.53 3.16 1.59 3.02C1.65 2.88 1.72 2.75 1.81 2.62C1.9 2.47 2.01 2.34 2.13 2.22C2.25 2.1 2.38 2 2.52 1.9C2.64 1.83 2.78 1.75 2.92 1.69C3.06 1.63 3.21 1.59 3.36 1.56C3.53 1.52 3.71 1.5 3.89 1.5L11.89 1.5C12.08 1.5 12.26 1.52 12.43 1.56C12.58 1.59 12.73 1.63 12.87 1.69C13.01 1.75 13.14 1.83 13.27 1.9C13.41 2 13.54 2.1 13.66 2.22C13.78 2.34 13.89 2.47 13.98 2.62C14.07 2.75 14.14 2.88 14.2 3.02C14.26 3.16 14.3 3.31 14.34 3.46C14.37 3.63 14.39 3.81 14.39 4L14.39 5C14.39 5.28 14.17 5.5 13.89 5.5C13.61 5.5 13.39 5.28 13.39 5L13.39 4C13.39 3.88 13.38 3.77 13.36 3.65C13.34 3.57 13.31 3.48 13.28 3.4C13.24 3.33 13.2 3.25 13.15 3.17C13.1 3.09 13.03 3.01 12.96 2.94C12.88 2.85 12.8 2.79 12.71 2.73C12.64 2.69 12.56 2.65 12.48 2.62C12.4 2.58 12.32 2.56 12.23 2.53C12.12 2.51 12.01 2.5 11.89 2.5L3.89 2.5C3.78 2.5 3.66 2.5 3.55 2.53C3.47 2.56 3.39 2.58 3.31 2.62C3.23 2.65 3.15 2.69 3.08 2.73C2.99 2.79 2.91 2.85 2.83 2.94C2.76 3.01 2.69 3.09 2.64 3.17C2.59 3.25 2.55 3.33 2.51 3.4C2.48 3.48 2.45 3.57 2.43 3.65C2.41 3.77 2.39 3.88 2.39 4L2.39 12C2.39 12.11 2.41 12.23 2.43 12.34C2.45 12.42 2.48 12.5 2.51 12.58C2.55 12.66 2.59 12.74 2.64 12.82C2.69 12.9 2.76 12.98 2.83 13.06C2.91 13.13 2.99 13.2 3.08 13.26C3.15 13.3 3.23 13.35 3.31 13.38C3.39 13.41 3.47 13.44 3.55 13.46C3.66 13.49 3.78 13.5 3.89 13.5L7.89 13.5C8.17 13.5 8.39 13.72 8.39 14C8.39 14.28 8.17 14.5 7.89 14.5ZM3.89 5C3.89 4.71 4.11 4.5 4.39 4.5L7.89 4.5C8.17 4.5 8.39 4.71 8.39 5C8.39 5.28 8.17 5.5 7.89 5.5L4.39 5.5C4.11 5.5 3.89 5.28 3.89 5ZM7.68 8.93C7.62 9.17 7.6 9.43 7.6 9.7C7.6 9.89 7.61 10.07 7.64 10.26C7.67 10.44 7.72 10.63 7.78 10.81C7.84 10.99 7.91 11.16 8 11.32C8.09 11.49 8.19 11.65 8.3 11.8C8.36 11.88 8.4 11.93 8.41 11.94L10.3 14.17C10.35 14.23 10.41 14.29 10.48 14.33C10.54 14.38 10.6 14.41 10.67 14.44C10.73 14.47 10.8 14.49 10.87 14.51C10.94 14.53 11.02 14.53 11.1 14.53C11.17 14.53 11.25 14.53 11.33 14.51C11.39 14.49 11.46 14.47 11.53 14.44C11.59 14.41 11.66 14.38 11.71 14.33C11.78 14.29 11.84 14.23 11.89 14.17L13.78 11.94C13.78 11.94 13.83 11.88 13.89 11.8C14 11.65 14.11 11.48 14.19 11.32C14.28 11.16 14.36 10.98 14.42 10.8C14.48 10.62 14.52 10.44 14.55 10.26C14.58 10.07 14.6 9.89 14.6 9.7C14.6 9.43 14.57 9.18 14.51 8.93C14.47 8.72 14.4 8.53 14.32 8.33C14.24 8.14 14.14 7.95 14.02 7.77C13.89 7.58 13.74 7.39 13.57 7.22C13.4 7.04 13.22 6.9 13.02 6.77C12.84 6.65 12.66 6.56 12.46 6.47C12.26 6.39 12.06 6.32 11.86 6.28C11.61 6.22 11.36 6.2 11.1 6.2C10.84 6.2 10.57 6.22 10.32 6.28C10.12 6.33 9.93 6.39 9.73 6.47C9.54 6.56 9.35 6.65 9.17 6.77C8.98 6.9 8.79 7.04 8.62 7.22C8.45 7.39 8.3 7.58 8.17 7.77C8.06 7.95 7.96 8.14 7.87 8.33C7.79 8.53 7.72 8.72 7.68 8.93ZM4.39 7C4.11 7 3.89 7.21 3.89 7.5C3.89 7.78 4.11 8 4.39 8L6.39 8C6.67 8 6.89 7.78 6.89 7.5C6.89 7.21 6.67 7 6.39 7L4.39 7ZM8.63 10.1C8.61 9.96 8.6 9.83 8.6 9.7C8.6 9.51 8.62 9.32 8.66 9.14C8.69 9 8.74 8.85 8.79 8.71C8.85 8.59 8.92 8.45 9 8.33C9.1 8.18 9.21 8.04 9.33 7.92C9.45 7.81 9.59 7.7 9.73 7.59C9.85 7.52 9.99 7.45 10.12 7.39C10.26 7.33 10.41 7.28 10.55 7.26C10.73 7.21 10.91 7.2 11.1 7.2C11.29 7.2 11.47 7.21 11.66 7.26C11.8 7.28 11.93 7.34 12.07 7.39C12.21 7.45 12.34 7.52 12.46 7.59C12.61 7.7 12.74 7.81 12.86 7.92C12.99 8.04 13.1 8.18 13.19 8.33C13.27 8.45 13.34 8.59 13.4 8.71C13.46 8.85 13.5 9 13.53 9.14C13.57 9.32 13.6 9.51 13.6 9.7C13.6 9.83 13.59 9.96 13.56 10.1C13.54 10.22 13.51 10.36 13.47 10.49C13.42 10.61 13.37 10.74 13.31 10.86C13.25 10.97 13.18 11.09 13.09 11.19C13.05 11.25 13.02 11.29 13.02 11.3L11.13 13.52L9.18 11.3C9.18 11.3 9.15 11.26 9.1 11.19C9.02 11.09 8.94 10.97 8.88 10.86C8.82 10.74 8.77 10.62 8.72 10.49C8.68 10.36 8.65 10.22 8.63 10.1ZM11.1 8.2C10.27 8.2 9.6 8.87 9.6 9.7C9.6 10.53 10.27 11.2 11.1 11.2C11.93 11.2 12.6 10.53 12.6 9.7C12.6 8.87 11.92 8.2 11.1 8.2ZM11.1 9.2C10.82 9.2 10.6 9.41 10.6 9.7C10.6 9.97 10.82 10.2 11.1 10.2C11.38 10.2 11.6 9.96 11.6 9.7C11.6 9.42 11.37 9.2 11.1 9.2Z" fill="currentColor" fill-opacity="1.000000" fill-rule="evenodd"/>
	</g>
</svg>
