<svg width="16.000000" height="16.000000" viewBox="0 0 16 16" fill="none" xmlns="http://www.w3.org/2000/svg" xmlns:xlink="http://www.w3.org/1999/xlink">
	<desc>
			Created with Pixso.
	</desc>
	<defs>
		<clipPath id="clip225_1014">
			<rect id="创建模型-create-modle" width="16.000000" height="16.000000" fill="white" fill-opacity="0"/>
		</clipPath>
	</defs>
	<rect id="43.1#添加正方体|创建模型-add-cube" width="16.000000" height="16.000000" fill="#FFFFFF" fill-opacity="0"/>
	<g clip-path="url(#clip225_1014)">
		<path id="_矢量-162" d="M13.5 9.01L13.5 5.71C13.5 5.71 13.49 5.64 13.49 5.6L9.25 8.05C9.04 8.16 8.85 8.25 8.64 8.3C8.59 8.3 8.54 8.33 8.5 8.34L8.5 14.01C8.73 13.87 9.04 13.95 9.17 14.19C9.32 14.43 9.23 14.73 9 14.87C8.84 14.96 8.67 15.03 8.51 15.07C8.35 15.12 8.17 15.14 8 15.14C7.82 15.14 7.64 15.12 7.48 15.07C7.31 15.03 7.14 14.96 6.98 14.87L2.81 12.46C2.6 12.34 2.42 12.2 2.26 12.04C2.1 11.88 1.97 11.7 1.85 11.49C1.73 11.29 1.64 11.08 1.57 10.86C1.51 10.64 1.5 10.41 1.5 10.18L1.5 5.71C1.5 5.48 1.51 5.25 1.57 5.03C1.64 4.81 1.73 4.6 1.85 4.4C1.97 4.19 2.1 4.01 2.26 3.85C2.42 3.69 2.6 3.55 2.81 3.43L6.67 1.2C6.88 1.08 7.09 0.99 7.31 0.93C7.53 0.88 7.76 0.85 8 0.85C8.23 0.85 8.45 0.88 8.67 0.93C8.89 0.99 9.1 1.08 9.31 1.2L13.18 3.43C13.38 3.55 13.56 3.69 13.73 3.85C13.89 4.01 14.02 4.19 14.14 4.4C14.26 4.6 14.35 4.81 14.41 5.03C14.47 5.25 14.5 5.48 14.5 5.71L14.5 9.01C14.5 9.29 14.28 9.51 14 9.51C13.72 9.51 13.5 9.29 13.5 9.01ZM7.5 8.34L7.5 14.01L3.31 11.59C3.17 11.52 3.07 11.43 2.97 11.33C2.87 11.23 2.79 11.12 2.7 10.99C2.64 10.87 2.59 10.74 2.54 10.6C2.51 10.47 2.5 10.32 2.5 10.18L2.5 5.6L6.75 8.05C6.94 8.16 7.14 8.25 7.35 8.3C7.39 8.3 7.45 8.33 7.5 8.34ZM8 7.45C7.85 7.45 7.73 7.37 7.6 7.34C7.48 7.3 7.35 7.25 7.25 7.18L2.88 4.66C2.98 4.56 3.17 4.37 3.31 4.3L7.17 2.07C7.31 1.99 7.44 1.94 7.57 1.9C7.7 1.86 7.85 1.85 8 1.85C8.14 1.85 8.28 1.85 8.42 1.9C8.54 1.94 8.67 1.99 8.81 2.07L12.68 4.3C12.81 4.37 12.92 4.46 13.02 4.56L8.75 7.18C8.63 7.25 8.51 7.3 8.38 7.34C8.26 7.37 8.13 7.45 8 7.45ZM12.5 10.45C12.5 10.17 12.27 9.95 12 9.95C11.73 9.95 11.5 10.17 11.5 10.45L11.5 11.95L10 11.95C9.72 11.95 9.5 12.17 9.5 12.45C9.5 12.73 9.72 12.95 10 12.95L11.5 12.95L11.5 14.45C11.5 14.72 11.72 14.95 12 14.95C12.28 14.95 12.5 14.72 12.5 14.45L12.5 12.95L14 12.95C14.27 12.95 14.5 12.72 14.5 12.45C14.5 12.18 14.27 11.95 14 11.95L12.5 11.95L12.5 10.45Z" fill="currentColor" fill-opacity="1.000000" fill-rule="evenodd"/>
	</g>
</svg>
