<svg width="16.000000" height="16.000000" viewBox="0 0 16 16" fill="none" xmlns="http://www.w3.org/2000/svg" xmlns:xlink="http://www.w3.org/1999/xlink">
	<desc>
			Created with Pixso.
	</desc>
	<defs>
		<clipPath id="clip225_887">
			<rect id="代金券-voucher" width="16.000000" height="16.000000" fill="white" fill-opacity="0"/>
		</clipPath>
	</defs>
	<rect id="68.1#代金券-voucher" width="16.000000" height="16.000000" fill="#FFFFFF" fill-opacity="0"/>
	<g clip-path="url(#clip225_887)">
		<path id="_合并" d="M2.58 4.78L9.21 1.74C9.39 1.66 9.57 1.6 9.76 1.56C9.91 1.53 10.07 1.51 10.23 1.51C10.39 1.51 10.55 1.52 10.71 1.55C10.88 1.58 11.05 1.63 11.22 1.7C11.39 1.77 11.54 1.86 11.69 1.96C11.82 2.05 11.94 2.15 12.05 2.27C12.16 2.39 12.26 2.51 12.35 2.64C12.45 2.8 12.54 2.97 12.61 3.16L13.18 4.74C14.2 4.83 15 5.69 15 6.73L15 12.48C15 13.58 14.1 14.48 13 14.48L2.99 14.48C1.89 14.48 0.99 13.58 0.99 12.48L0.99 6.73C0.99 5.77 1.67 4.97 2.58 4.78ZM5.07 4.74L9.62 2.66C9.73 2.61 9.85 2.57 9.97 2.55C10.06 2.53 10.14 2.53 10.23 2.52C10.32 2.52 10.41 2.52 10.5 2.54C10.61 2.56 10.71 2.59 10.82 2.63C10.92 2.67 11.02 2.73 11.11 2.79C11.18 2.84 11.25 2.9 11.32 2.97C11.38 3.03 11.44 3.1 11.49 3.18C11.56 3.28 11.61 3.39 11.65 3.51L12.1 4.74L5.07 4.74ZM2.65 5.8C2.72 5.8 2.79 5.79 2.86 5.75C2.86 5.75 2.95 5.74 2.98 5.74L12.98 5.74C13.06 5.74 13.14 5.74 13.22 5.77C13.27 5.78 13.32 5.8 13.37 5.82C13.42 5.84 13.47 5.87 13.52 5.9C13.58 5.94 13.64 5.98 13.69 6.04C13.74 6.09 13.79 6.15 13.83 6.21C13.86 6.26 13.89 6.31 13.91 6.36C13.93 6.41 13.95 6.46 13.96 6.51C13.98 6.59 13.99 6.67 13.99 6.75L13.99 12.5C13.99 12.58 13.99 12.66 13.96 12.74C13.95 12.79 13.93 12.84 13.91 12.89C13.89 12.94 13.86 12.99 13.83 13.04C13.79 13.1 13.75 13.16 13.69 13.21C13.64 13.26 13.58 13.31 13.52 13.35C13.47 13.38 13.42 13.41 13.37 13.43C13.32 13.45 13.27 13.47 13.22 13.48C13.14 13.5 13.06 13.51 12.98 13.51L2.99 13.51C2.91 13.51 2.83 13.51 2.75 13.48C2.7 13.47 2.65 13.45 2.6 13.43C2.55 13.41 2.5 13.38 2.45 13.35C2.39 13.31 2.33 13.27 2.28 13.21C2.23 13.16 2.18 13.1 2.14 13.04C2.11 12.99 2.08 12.94 2.06 12.89C2.04 12.84 2.02 12.79 2.01 12.74C1.99 12.66 1.98 12.58 1.98 12.5L1.98 6.75C1.98 6.67 1.98 6.59 2.01 6.51C2.02 6.46 2.04 6.41 2.06 6.36C2.08 6.31 2.11 6.26 2.14 6.21C2.18 6.15 2.22 6.09 2.28 6.04C2.33 5.99 2.39 5.94 2.45 5.9C2.45 5.9 2.6 5.82 2.65 5.8ZM7.32 8.16L5.32 8.16C5.04 8.16 4.82 8.38 4.82 8.66C4.82 8.94 5.04 9.16 5.32 9.16L7.32 9.16C7.6 9.16 7.82 8.94 7.82 8.66C7.82 8.38 7.6 8.16 7.32 8.16ZM5.32 10.21L9.99 10.21C10.27 10.21 10.49 10.43 10.49 10.71C10.49 10.99 10.27 11.21 9.99 11.21L5.32 11.21C5.04 11.21 4.82 10.99 4.82 10.71C4.82 10.43 5.04 10.21 5.32 10.21Z" fill="currentColor" fill-opacity="1.000000" fill-rule="evenodd"/>
	</g>
</svg>
