<svg width="16.000000" height="16.000000" viewBox="0 0 16 16" fill="none" xmlns="http://www.w3.org/2000/svg" xmlns:xlink="http://www.w3.org/1999/xlink">
	<desc>
			Created with Pixso.
	</desc>
	<defs>
		<clipPath id="clip225_1076">
			<rect id="正向权益-selected" width="16.000000" height="16.000000" fill="white" fill-opacity="0"/>
		</clipPath>
	</defs>
	<rect id="93#选择-check" width="16.000000" height="16.000000" fill="#FFFFFF" fill-opacity="0"/>
	<g clip-path="url(#clip225_1076)">
		<path id="path" d="M8 15C4.14 15 1 11.85 1 8C1 4.15 4.14 1 8 1C11.86 1 15 4.14 15 8C15 11.86 11.85 15 8 15ZM8 2.08C4.73 2.08 2.07 4.73 2.07 8C2.07 11.26 4.73 13.91 8 13.91C11.26 13.91 13.91 11.25 13.91 8C13.91 4.75 11.25 2.08 8 2.08ZM7.22 10.7C7.37 10.7 7.5 10.64 7.6 10.53L11.62 6.21C11.83 6 11.81 5.65 11.59 5.45C11.37 5.23 11.03 5.26 10.82 5.46L7.17 9.38L5.13 7.37C4.92 7.15 4.59 7.15 4.37 7.37C4.17 7.58 4.17 7.91 4.37 8.13L6.81 10.54C6.91 10.64 7.07 10.7 7.22 10.7Z" fill="currentColor" fill-opacity="1.000000" fill-rule="nonzero"/>
	</g>
</svg>
