<svg width="16.000000" height="16.000000" viewBox="0 0 16 16" fill="none" xmlns="http://www.w3.org/2000/svg" xmlns:xlink="http://www.w3.org/1999/xlink">
	<desc>
			Created with Pixso.
	</desc>
	<defs>
		<clipPath id="clip225_1073">
			<rect id="负向权益-prompt" width="16.000000" height="16.000000" fill="white" fill-opacity="0"/>
		</clipPath>
	</defs>
	<rect id="96#版本信息-info" width="16.000000" height="16.000000" fill="#FFFFFF" fill-opacity="0"/>
	<g clip-path="url(#clip225_1073)">
		<path id="path" d="M8 1C4.14 1 1 4.14 1 8C1 11.86 4.14 15 8 15C11.86 15 15 11.85 15 8C15 4.15 11.85 1 8 1ZM8 13.91C4.73 13.91 2.07 11.25 2.07 8C2.07 4.75 4.73 2.08 8 2.08C11.26 2.08 13.91 4.73 13.91 8C13.91 11.26 11.25 13.91 8 13.91ZM7.45 8.53L7.45 4.76C7.45 4.46 7.7 4.22 8 4.22C8.29 4.22 8.53 4.46 8.53 4.76L8.53 8.53C8.53 8.84 8.29 9.07 8 9.07C7.7 9.07 7.45 8.83 7.45 8.53ZM8.81 10.95C8.81 11.39 8.43 11.75 8 11.75C7.56 11.75 7.19 11.38 7.19 10.95C7.19 10.52 7.56 10.14 8 10.14C8.43 10.14 8.81 10.51 8.81 10.95Z" fill="currentColor" fill-opacity="1.000000" fill-rule="nonzero"/>
	</g>
</svg>
