<svg width="16.000000" height="16.000000" viewBox="0 0 16 16" fill="none" xmlns="http://www.w3.org/2000/svg" xmlns:xlink="http://www.w3.org/1999/xlink">
	<desc>
			Created with Pixso.
	</desc>
	<defs>
		<clipPath id="clip225_867">
			<rect id="筛选选中-screen-active" width="16.000000" height="16.000000" fill="white" fill-opacity="0"/>
		</clipPath>
	</defs>
	<rect id="14.1#筛选选中|已筛选-filter-active" width="16.000000" height="16.000000" fill="#FFFFFF" fill-opacity="0"/>
	<g clip-path="url(#clip225_867)">
		<path id="_合并" d="M12.3 1.84L3.68 1.84C3.38 1.84 3.09 1.94 2.86 2.13C2.4 2.6 2.26 3.44 2.68 3.96L5.86 7.85L5.86 13.63C5.86 13.91 6.08 14.13 6.36 14.13L9.72 14.13C9.95 14.08 10.13 13.88 10.13 13.63L10.13 7.85L13.32 3.96C13.51 3.73 13.61 3.44 13.61 3.14C13.61 2.42 13.02 1.84 12.3 1.84ZM12.6 3.14C12.6 2.97 12.47 2.84 12.3 2.84L3.68 2.84C3.61 2.84 3.54 2.86 3.49 2.91C3.36 3.01 3.34 3.2 3.45 3.33L6.74 7.36C6.81 7.45 6.85 7.56 6.85 7.68L6.85 10.64L9.12 10.64L9.12 7.68C9.12 7.59 9.14 7.51 9.18 7.43L12.53 3.33C12.57 3.28 12.6 3.21 12.6 3.14ZM9.12 11.64L6.85 11.64L6.85 13.14L9.12 13.14L9.12 11.64Z" fill="currentColor" fill-opacity="1.000000" fill-rule="evenodd"/>
	</g>
</svg>
