<svg width="16.000000" height="16.000000" viewBox="0 0 16 16" fill="none" xmlns="http://www.w3.org/2000/svg" xmlns:xlink="http://www.w3.org/1999/xlink">
	<desc>
			Created with Pixso.
	</desc>
	<defs>
		<clipPath id="clip225_1083">
			<rect id="降序-descend" width="16.000000" height="16.000000" fill="white" fill-opacity="0"/>
		</clipPath>
	</defs>
	<rect id="6#降序-desc" width="16.000000" height="16.000000" fill="#FFFFFF" fill-opacity="0"/>
	<g clip-path="url(#clip225_1083)">
		<path id="_合并" d="M7.3 1.56L3.82 5.78C3.76 5.86 3.71 5.94 3.67 6.03C3.64 6.1 3.62 6.18 3.61 6.26C3.61 6.34 3.61 6.41 3.61 6.49C3.62 6.57 3.65 6.66 3.69 6.74C3.73 6.82 3.78 6.89 3.83 6.96C3.88 7.02 3.94 7.07 4 7.11C4.07 7.16 4.14 7.19 4.21 7.21C4.3 7.24 4.39 7.25 4.49 7.25L11.45 7.25C11.55 7.25 11.64 7.24 11.73 7.21C11.8 7.19 11.88 7.15 11.94 7.11C12.01 7.07 12.06 7.02 12.11 6.96C12.17 6.9 12.21 6.82 12.25 6.74C12.29 6.66 12.31 6.58 12.33 6.49C12.34 6.42 12.34 6.34 12.33 6.26C12.33 6.18 12.3 6.1 12.27 6.03C12.24 5.94 12.19 5.86 12.12 5.78L8.64 1.56C8.59 1.5 8.54 1.45 8.49 1.41C8.44 1.37 8.38 1.34 8.33 1.31C8.27 1.28 8.21 1.26 8.15 1.25C8.09 1.24 8.02 1.23 7.95 1.23C7.88 1.23 7.82 1.23 7.75 1.25C7.69 1.26 7.63 1.28 7.57 1.31C7.51 1.34 7.46 1.37 7.41 1.41C7.35 1.45 7.34 1.5 7.3 1.56ZM4.72 6.25L11.26 6.25L7.99 2.29L4.72 6.25ZM7.3 14.44L3.82 10.22C3.76 10.14 3.71 10.06 3.67 9.97C3.64 9.9 3.62 9.82 3.61 9.74C3.61 9.66 3.61 9.59 3.61 9.51C3.62 9.43 3.65 9.34 3.69 9.26C3.73 9.18 3.78 9.11 3.83 9.04C3.88 8.98 3.94 8.93 4 8.89C4.07 8.84 4.14 8.81 4.21 8.79C4.3 8.76 4.39 8.75 4.49 8.75L11.45 8.75C11.55 8.75 11.64 8.76 11.73 8.79C11.8 8.81 11.88 8.85 11.94 8.89C12.01 8.93 12.06 8.98 12.11 9.04C12.17 9.1 12.21 9.18 12.25 9.26C12.29 9.34 12.31 9.42 12.33 9.51C12.34 9.58 12.34 9.66 12.33 9.74C12.33 9.82 12.3 9.9 12.27 9.97C12.24 10.06 12.19 10.14 12.12 10.22L8.64 14.44C8.59 14.5 8.54 14.55 8.49 14.59C8.44 14.63 8.38 14.66 8.33 14.69C8.27 14.72 8.21 14.74 8.15 14.75C8.09 14.76 8.02 14.77 7.95 14.77C7.88 14.77 7.82 14.77 7.75 14.75C7.69 14.74 7.63 14.72 7.57 14.69C7.51 14.66 7.46 14.63 7.41 14.59C7.35 14.55 7.34 14.5 7.3 14.44Z" fill="currentColor" fill-opacity="1.000000" fill-rule="evenodd"/>
	</g>
</svg>
