<svg width="16.000000" height="16.000000" viewBox="0 0 16 16" fill="none" xmlns="http://www.w3.org/2000/svg" xmlns:xlink="http://www.w3.org/1999/xlink">
	<desc>
			Created with Pixso.
	</desc>
	<defs>
		<clipPath id="clip225_1082">
			<rect id="升序-string" width="16.000000" height="16.000000" fill="white" fill-opacity="0"/>
		</clipPath>
	</defs>
	<rect id="7#升序-asc" width="16.000000" height="16.000000" fill="#FFFFFF" fill-opacity="0"/>
	<g clip-path="url(#clip225_1082)">
		<path id="_合并" d="M7.3 1.56L3.82 5.78C3.76 5.86 3.71 5.94 3.67 6.03C3.64 6.1 3.62 6.18 3.61 6.26C3.61 6.34 3.61 6.41 3.61 6.49C3.62 6.57 3.65 6.66 3.69 6.74C3.73 6.82 3.78 6.89 3.83 6.96C3.88 7.02 3.94 7.07 4 7.11C4.07 7.16 4.14 7.19 4.21 7.21C4.3 7.24 4.39 7.25 4.49 7.25L11.45 7.25C11.55 7.25 11.64 7.24 11.73 7.21C11.8 7.19 11.88 7.15 11.94 7.11C12.01 7.07 12.06 7.02 12.11 6.96C12.17 6.9 12.21 6.82 12.25 6.74C12.29 6.66 12.31 6.58 12.33 6.49C12.34 6.42 12.34 6.34 12.33 6.26C12.33 6.18 12.3 6.1 12.27 6.03C12.24 5.94 12.19 5.86 12.12 5.78L8.64 1.56C8.59 1.5 8.54 1.45 8.49 1.41C8.44 1.37 8.38 1.34 8.33 1.31C8.27 1.28 8.21 1.26 8.15 1.25C8.09 1.24 8.02 1.23 7.95 1.23C7.88 1.23 7.82 1.23 7.75 1.25C7.69 1.26 7.63 1.28 7.57 1.31C7.51 1.34 7.46 1.37 7.41 1.41C7.35 1.45 7.34 1.5 7.3 1.56ZM7.3 14.45L3.82 10.23C3.76 10.15 3.71 10.07 3.67 9.98C3.64 9.91 3.62 9.83 3.61 9.75C3.61 9.67 3.61 9.6 3.61 9.52C3.62 9.44 3.65 9.35 3.69 9.27C3.73 9.19 3.78 9.12 3.83 9.05C3.88 8.99 3.94 8.94 4 8.9C4.07 8.85 4.14 8.82 4.21 8.8C4.3 8.77 4.39 8.76 4.49 8.76L11.45 8.76C11.55 8.76 11.64 8.77 11.73 8.8C11.8 8.82 11.88 8.86 11.94 8.9C12.01 8.94 12.06 8.99 12.11 9.05C12.17 9.11 12.21 9.19 12.25 9.27C12.29 9.35 12.31 9.43 12.33 9.52C12.34 9.59 12.34 9.67 12.33 9.75C12.33 9.83 12.3 9.91 12.27 9.98C12.24 10.07 12.19 10.15 12.12 10.23L8.64 14.45C8.59 14.51 8.54 14.56 8.49 14.6C8.44 14.64 8.38 14.67 8.33 14.7C8.27 14.73 8.21 14.75 8.15 14.76C8.09 14.77 8.02 14.78 7.95 14.78C7.88 14.78 7.82 14.78 7.75 14.76C7.69 14.75 7.63 14.73 7.57 14.7C7.51 14.67 7.46 14.64 7.41 14.6C7.35 14.56 7.34 14.51 7.3 14.45ZM4.72 9.76L11.26 9.76L7.99 13.72L4.72 9.76Z" fill="currentColor" fill-opacity="1.000000" fill-rule="evenodd"/>
	</g>
</svg>
